<?xml version="1.0" encoding="UTF-8" standalone="no"?>
<!-- Created with Inkscape (http://www.inkscape.org/) -->

<svg
   xmlns:dc="http://purl.org/dc/elements/1.1/"
   xmlns:cc="http://creativecommons.org/ns#"
   xmlns:rdf="http://www.w3.org/1999/02/22-rdf-syntax-ns#"
   xmlns:svg="http://www.w3.org/2000/svg"
   xmlns="http://www.w3.org/2000/svg"
   xmlns:sodipodi="http://sodipodi.sourceforge.net/DTD/sodipodi-0.dtd"
   xmlns:inkscape="http://www.inkscape.org/namespaces/inkscape"
   width="297mm"
   height="210mm"
   viewBox="0 0 297 210"
   version="1.1"
   id="svg8"
   sodipodi:docname="textlogo.svg"
   inkscape:version="0.92.3 (2405546, 2018-03-11)">
  <defs
     id="defs2" />
  <sodipodi:namedview
     id="base"
     pagecolor="#ffffff"
     bordercolor="#666666"
     borderopacity="1.0"
     inkscape:pageopacity="0.0"
     inkscape:pageshadow="2"
     inkscape:zoom="0.35205078"
     inkscape:cx="471.79758"
     inkscape:cy="573.346"
     inkscape:document-units="px"
     inkscape:current-layer="layer1"
     showgrid="false"
     showborder="true"
     inkscape:window-width="1366"
     inkscape:window-height="740"
     inkscape:window-x="0"
     inkscape:window-y="0"
     inkscape:window-maximized="1"
     units="mm"
     width="297mm" />
  <metadata
     id="metadata5">
    <rdf:RDF>
      <cc:Work
         rdf:about="">
        <dc:format>image/svg+xml</dc:format>
        <dc:type
           rdf:resource="http://purl.org/dc/dcmitype/StillImage" />
        <dc:title></dc:title>
      </cc:Work>
    </rdf:RDF>
  </metadata>
  <g
     inkscape:label="Layer 1"
     inkscape:groupmode="layer"
     id="layer1"
     transform="translate(0,-87.000002)">
    <g
       id="g982"
       transform="matrix(1.804636,0,0,1.804636,-97.056003,-292.09321)"
       style="stroke-width:0.55412835">
      <g
         transform="translate(32.343624,-0.49992255)"
         inkscape:label="Layer 1"
         id="layer1-6"
         style="stroke-width:0.55412835">
        <g
           id="g928"
           transform="translate(2.6304232)"
           style="stroke-width:0.55412835">
          <g
             id="g910"
             style="stroke-width:0.55412835">
            <path
               sodipodi:nodetypes="cccccccssccccccsccccccccccscscscscccccccsccsccscsccscccsccccccccccccscccccscsccccccssscscsscccccccccccccccccccccscscccccccccsccsccccscscscsccccccccscscccccccccscccccsccccc"
               inkscape:connector-curvature="0"
               id="path920"
               d="m 64.441855,290.8828 c -0.05503,-0.0236 -0.174205,-0.30181 -0.264844,-0.61831 -0.18742,-0.65447 -0.200514,-0.70246 -0.638809,-2.34168 -0.177088,-0.66233 -0.357884,-1.31518 -0.401759,-1.45079 -0.129849,-0.40131 -0.09911,-0.74098 0.07551,-0.83444 0.101526,-0.0543 1.734274,-0.0846 4.716605,-0.0875 5.424344,-0.005 5.773686,-0.0398 7.138796,-0.70728 1.533711,-0.74989 2.818145,-2.19937 3.353285,-3.78417 0.330195,-0.97786 0.32264,-0.75693 0.367839,-10.75481 l 0.04372,-9.67099 0.200707,-0.0973 c 0.110388,-0.0535 0.417469,-0.15412 0.682402,-0.22352 0.493136,-0.1292 1.66055,-0.44135 2.44862,-0.65475 0.242855,-0.0658 0.556351,-0.15591 0.696661,-0.20033 0.140302,-0.0444 0.431543,-0.10166 0.647206,-0.12719 0.739002,-0.0875 0.673564,-1.19097 0.638055,10.75909 -0.03027,10.18612 -0.0365,10.55047 -0.191764,11.21069 -0.747511,3.17868 -2.305074,5.52915 -4.978029,7.51214 -0.226067,0.16771 -0.790093,0.49517 -1.484177,0.86166 -0.207305,0.10947 -0.640832,0.29616 -0.963391,0.41488 -0.322552,0.11872 -0.658719,0.24606 -0.74703,0.28299 -0.08831,0.0369 -0.341201,0.11075 -0.561979,0.16405 -1.44426,0.34871 -1.283614,0.33903 -6.061338,0.36518 -2.538939,0.0139 -4.661274,0.006 -4.716292,-0.0176 z M 136.803,290.74755 c -0.13202,-0.0965 -0.14741,-0.31262 -0.17981,-2.52501 -0.0345,-2.35576 -0.0311,-2.42376 0.12904,-2.58389 0.16344,-0.16344 0.21155,-0.16446 7.75644,-0.16446 5.07983,0 7.64337,0.0275 7.74728,0.0831 0.14838,0.0794 0.15529,0.19338 0.15529,2.56449 0,2.47318 -8.1e-4,2.48179 -0.17843,2.60636 -0.15842,0.11096 -1.02535,0.12497 -7.73193,0.12497 -6.11528,0 -7.581,-0.0201 -7.69788,-0.10557 z M 41.982475,280.36008 c -3.982803,-0.53327 -7.513203,-3.08014 -9.26993,-6.68744 -0.513853,-1.05515 -0.851923,-2.12663 -1.076552,-3.41201 -0.174104,-0.99627 -0.228441,-9.33877 -0.06213,-9.53916 0.104358,-0.12575 0.316059,-0.19816 1.577523,-0.53962 1.23098,-0.33321 2.999494,-0.80267 3.211305,-0.85245 0.09446,-0.0222 0.234929,0.0318 0.341201,0.13115 l 0.180636,0.16888 6.6e-5,4.75363 c 7.1e-5,5.1687 0.01688,5.40691 0.457299,6.47969 0.737502,1.79643 2.10312,3.14402 3.819675,3.76925 1.172007,0.4269 0.416787,0.40544 14.274733,0.40544 h 12.838737 v -7.13942 c 0,-7.9724 -0.05168,-7.3132 0.585662,-7.47116 0.34548,-0.0856 0.703083,-0.1827 1.341121,-0.36413 0.198699,-0.0565 0.740607,-0.19941 1.204239,-0.31758 0.463633,-0.11817 0.91955,-0.24523 1.013143,-0.28235 0.09359,-0.0371 0.338873,-0.0928 0.545063,-0.12371 0.30049,-0.0451 0.406126,-0.0279 0.532298,0.0862 0.154817,0.14011 0.15741,0.31403 0.15741,10.56675 v 10.4243 l -15.715325,-0.012 c -8.643429,-0.007 -15.823707,-0.0265 -15.956174,-0.0443 z m 58.405615,-0.0286 c -1.225024,-0.0812 -2.31885,-0.32425 -3.492294,-0.77618 -0.769203,-0.29625 -1.045544,-0.45912 -1.033229,-0.60896 0.01034,-0.12584 2.38148,-4.25995 2.55127,-4.44818 0.06902,-0.0765 0.166683,-0.07 0.449173,0.03 0.198539,0.0703 0.613873,0.19494 0.922961,0.27704 0.537349,0.14272 1.179529,0.14944 14.651579,0.15319 11.58674,0.003 14.11456,0.0229 14.2301,0.11058 0.12848,0.0975 0.14049,0.3192 0.14049,2.59307 v 2.48641 l -0.18063,0.088 c -0.207,0.10082 -26.80079,0.19032 -28.23942,0.095 z m 31.03379,-0.17376 c -0.1097,-0.15661 -0.12498,-0.75962 -0.12498,-4.9324 0,-5.27045 -0.01,-5.39461 -0.53124,-6.58243 -0.0611,-0.13914 -0.11102,-0.27962 -0.11102,-0.31218 0,-0.1368 -0.90167,-1.39215 -1.2586,-1.75228 -0.79461,-0.80173 -1.98268,-1.49262 -3.08224,-1.7924 -0.47933,-0.13068 -1.47243,-0.14377 -13.88331,-0.18309 l -13.367062,-0.0423 -0.349182,-0.18634 c -0.53172,-0.28375 -1.028171,-0.78512 -1.274896,-1.28753 -0.193015,-0.39303 -0.222423,-0.54844 -0.222423,-1.17546 0,-0.60368 0.03232,-0.78857 0.196468,-1.12395 0.15362,-0.31387 1.466619,-1.67529 6.019925,-6.24198 l 5.82345,-5.84056 h 3.34063 c 3.1344,0 3.34884,0.009 3.4735,0.14681 0.0731,0.0807 0.13287,0.22992 0.13287,0.3315 0,0.13703 -1.26263,1.45075 -4.89359,5.09163 l -4.89358,4.90694 9.97146,0.0465 c 8.60977,0.0401 10.04272,0.0634 10.4933,0.17072 1.14393,0.27236 1.33081,0.32057 1.48523,0.38316 0.0883,0.0358 0.3412,0.12868 0.56198,0.20642 0.66867,0.23542 1.99513,0.94656 2.7025,1.44886 0.85584,0.60772 2.22158,1.97346 2.8293,2.82929 0.91846,1.29345 1.60289,2.85424 1.99482,4.54901 0.14476,0.62595 0.17336,1.08209 0.21395,3.41201 l 0.0468,2.68947 4.57611,0.0228 c 2.94788,0.0147 4.81892,-0.008 5.25852,-0.0641 2.21669,-0.28238 4.06619,-1.62268 5.11179,-3.70441 0.484,-0.96362 0.59808,-1.58941 0.64452,-3.53544 0.0353,-1.47883 0.0614,-1.75926 0.17329,-1.85849 0.0725,-0.0643 0.5472,-0.22885 1.05498,-0.36573 0.50779,-0.13687 1.0497,-0.28405 1.20424,-0.32705 1.31637,-0.36623 2.09858,-0.5669 2.38065,-0.61071 0.29917,-0.0465 0.34761,-0.0302 0.47132,0.15863 0.12528,0.19118 0.13407,0.43995 0.0962,2.71857 -0.0458,2.75506 -0.11742,3.30604 -0.62609,4.81651 -0.75453,2.24059 -2.29818,4.33702 -4.28755,5.82291 -0.85647,0.63971 -2.31507,1.39632 -3.33317,1.72902 -1.86456,0.60929 -1.9883,0.61656 -10.48631,0.61656 h -7.40761 z m 31.60453,0.0534 -0.17843,-0.12497 v -11.07261 -11.0726 l 0.18064,-0.11439 c 0.0994,-0.0629 0.30708,-0.13969 0.46162,-0.17062 0.15454,-0.0309 0.71452,-0.17645 1.24438,-0.32339 1.85506,-0.51444 2.83724,-0.7601 3.03894,-0.7601 0.48153,0 0.45348,-0.7372 0.45213,11.87962 -8e-4,6.33752 -0.0278,11.56251 -0.0602,11.6111 -0.16327,0.24452 -0.44291,0.27294 -2.68518,0.27294 -1.92953,0 -2.30259,-0.019 -2.45389,-0.12498 z m -70.313668,-3.42727 c -1.681327,-1.7517 -2.837951,-3.99222 -3.243057,-6.2822 -0.135276,-0.76467 -0.14825,-1.56415 -0.171163,-10.54898 -0.0275,-10.78243 -0.07148,-9.901 0.501036,-10.04251 0.264106,-0.0653 0.984659,-0.26016 2.56027,-0.69244 2.01242,-0.55212 2.093731,-0.55723 2.251759,-0.1416 0.04689,0.12333 0.07644,4.00621 0.07644,10.04394 0,9.87142 0.01333,10.4008 0.282515,11.22511 0.17964,0.55012 0.571395,1.34077 0.870079,1.75605 0.156455,0.21753 0.261609,0.4343 0.23367,0.4817 -0.447511,0.75944 -2.729119,4.37872 -2.82541,4.48192 -0.124005,0.13289 -0.153958,0.11719 -0.536136,-0.28099 z M 44.941046,264.62976 c -0.09485,-0.0209 -0.193705,-0.11734 -0.219681,-0.21421 -0.02598,-0.0969 -0.04772,-1.21478 -0.04833,-2.48425 -10e-4,-2.20186 0.0063,-2.31552 0.15947,-2.46869 0.158295,-0.15829 0.267608,-0.16056 7.731929,-0.16056 6.412274,0 7.595222,0.0174 7.727204,0.11395 0.148373,0.1085 0.155839,0.23139 0.155839,2.56503 0,1.52936 -0.03019,2.47994 -0.08028,2.52783 -0.0815,0.0779 -15.088207,0.19552 -15.426152,0.1209 z m 107.486244,-1.73105 c -0.12541,-0.12542 -0.1324,-3.18577 -0.009,-3.87282 0.28032,-1.55861 0.5565,-2.46035 1.08774,-3.55153 1.43528,-2.94807 3.99254,-5.18847 7.07998,-6.20274 1.79828,-0.59075 2.29705,-0.63165 7.82019,-0.6413 4.62555,-0.008 4.7185,-0.005 4.87717,0.15351 0.15493,0.15493 0.16176,0.26294 0.16176,2.55779 0,2.18005 -0.0127,2.40749 -0.1405,2.52303 -0.12405,0.11212 -0.67405,0.12942 -4.69918,0.1477 -2.50728,0.0114 -4.81942,0.0506 -5.13809,0.0872 -1.03001,0.11819 -2.44977,0.6971 -3.16798,1.29174 -1.38119,1.14356 -2.02146,2.17667 -2.50408,4.0405 -0.0471,0.18175 -0.0856,0.71063 -0.0856,1.17528 0,1.04708 -0.041,1.10678 -0.92325,1.34509 -0.95148,0.257 -1.75868,0.47174 -2.56904,0.68344 -0.3974,0.10382 -0.84875,0.22716 -1.00301,0.2741 -0.369,0.11231 -0.66818,0.10814 -0.7873,-0.011 z"
               style="fill:#fafd00;stroke-width:0.55412835" />
            <path
               sodipodi:nodetypes="cccccccssccccccsccccccccccscscscscccccccsccsccscsccscccsccccccccccccscccccscsccccccssscscsscccccccccccccccccccccscscccccccccsccsccccscscscsccccccccscscccccccccscccccsccccc"
               inkscape:connector-curvature="0"
               id="path918"
               d="m 64.441855,290.8828 c -0.05503,-0.0236 -0.174205,-0.30181 -0.264844,-0.61831 -0.18742,-0.65447 -0.200514,-0.70246 -0.638809,-2.34168 -0.177088,-0.66233 -0.357884,-1.31518 -0.401759,-1.45079 -0.129849,-0.40131 -0.09911,-0.74098 0.07551,-0.83444 0.101526,-0.0543 1.734274,-0.0846 4.716605,-0.0875 5.424344,-0.005 5.773686,-0.0398 7.138796,-0.70728 1.533711,-0.74989 2.818145,-2.19937 3.353285,-3.78417 0.330195,-0.97786 0.32264,-0.75693 0.367839,-10.75481 l 0.04372,-9.67099 0.200707,-0.0973 c 0.110388,-0.0535 0.417469,-0.15412 0.682402,-0.22352 0.493136,-0.1292 1.66055,-0.44135 2.44862,-0.65475 0.242855,-0.0658 0.556351,-0.15591 0.696661,-0.20033 0.140302,-0.0444 0.431543,-0.10166 0.647206,-0.12719 0.739002,-0.0875 0.673564,-1.19097 0.638055,10.75909 -0.03027,10.18612 -0.0365,10.55047 -0.191764,11.21069 -0.747511,3.17868 -2.305074,5.52915 -4.978029,7.51214 -0.226067,0.16771 -0.790093,0.49517 -1.484177,0.86166 -0.207305,0.10947 -0.640832,0.29616 -0.963391,0.41488 -0.322552,0.11872 -0.658719,0.24606 -0.74703,0.28299 -0.08831,0.0369 -0.341201,0.11075 -0.561979,0.16405 -1.44426,0.34871 -1.283614,0.33903 -6.061338,0.36518 -2.538939,0.0139 -4.661274,0.006 -4.716292,-0.0176 z M 136.803,290.74755 c -0.13202,-0.0965 -0.14741,-0.31262 -0.17981,-2.52501 -0.0345,-2.35576 -0.0311,-2.42376 0.12904,-2.58389 0.16344,-0.16344 0.21155,-0.16446 7.75644,-0.16446 5.07983,0 7.64337,0.0275 7.74728,0.0831 0.14838,0.0794 0.15529,0.19338 0.15529,2.56449 0,2.47318 -8.1e-4,2.48179 -0.17843,2.60636 -0.15842,0.11096 -1.02535,0.12497 -7.73193,0.12497 -6.11528,0 -7.581,-0.0201 -7.69788,-0.10557 z M 41.982475,280.36008 c -3.982803,-0.53327 -7.513203,-3.08014 -9.26993,-6.68744 -0.513853,-1.05515 -0.851923,-2.12663 -1.076552,-3.41201 -0.174104,-0.99627 -0.228441,-9.33877 -0.06213,-9.53916 0.104358,-0.12575 0.316059,-0.19816 1.577523,-0.53962 1.23098,-0.33321 2.999494,-0.80267 3.211305,-0.85245 0.09446,-0.0222 0.234929,0.0318 0.341201,0.13115 l 0.180636,0.16888 6.6e-5,4.75363 c 7.1e-5,5.1687 0.01688,5.40691 0.457299,6.47969 0.737502,1.79643 2.10312,3.14402 3.819675,3.76925 1.172007,0.4269 0.416787,0.40544 14.274733,0.40544 h 12.838737 v -7.13942 c 0,-7.9724 -0.05168,-7.3132 0.585662,-7.47116 0.34548,-0.0856 0.703083,-0.1827 1.341121,-0.36413 0.198699,-0.0565 0.740607,-0.19941 1.204239,-0.31758 0.463633,-0.11817 0.91955,-0.24523 1.013143,-0.28235 0.09359,-0.0371 0.338873,-0.0928 0.545063,-0.12371 0.30049,-0.0451 0.406126,-0.0279 0.532298,0.0862 0.154817,0.14011 0.15741,0.31403 0.15741,10.56675 v 10.4243 l -15.715325,-0.012 c -8.643429,-0.007 -15.823707,-0.0265 -15.956174,-0.0443 z m 58.405615,-0.0286 c -1.225024,-0.0812 -2.31885,-0.32425 -3.492294,-0.77618 -0.769203,-0.29625 -1.045544,-0.45912 -1.033229,-0.60896 0.01034,-0.12584 2.38148,-4.25995 2.55127,-4.44818 0.06902,-0.0765 0.166683,-0.07 0.449173,0.03 0.198539,0.0703 0.613873,0.19494 0.922961,0.27704 0.537349,0.14272 1.179529,0.14944 14.651579,0.15319 11.58674,0.003 14.11456,0.0229 14.2301,0.11058 0.12848,0.0975 0.14049,0.3192 0.14049,2.59307 v 2.48641 l -0.18063,0.088 c -0.207,0.10082 -26.80079,0.19032 -28.23942,0.095 z m 31.03379,-0.17376 c -0.1097,-0.15661 -0.12498,-0.75962 -0.12498,-4.9324 0,-5.27045 -0.01,-5.39461 -0.53124,-6.58243 -0.0611,-0.13914 -0.11102,-0.27962 -0.11102,-0.31218 0,-0.1368 -0.90167,-1.39215 -1.2586,-1.75228 -0.79461,-0.80173 -1.98268,-1.49262 -3.08224,-1.7924 -0.47933,-0.13068 -1.47243,-0.14377 -13.88331,-0.18309 l -13.367062,-0.0423 -0.349182,-0.18634 c -0.53172,-0.28375 -1.028171,-0.78512 -1.274896,-1.28753 -0.193015,-0.39303 -0.222423,-0.54844 -0.222423,-1.17546 0,-0.60368 0.03232,-0.78857 0.196468,-1.12395 0.15362,-0.31387 1.466619,-1.67529 6.019925,-6.24198 l 5.82345,-5.84056 h 3.34063 c 3.1344,0 3.34884,0.009 3.4735,0.14681 0.0731,0.0807 0.13287,0.22992 0.13287,0.3315 0,0.13703 -1.26263,1.45075 -4.89359,5.09163 l -4.89358,4.90694 9.97146,0.0465 c 8.60977,0.0401 10.04272,0.0634 10.4933,0.17072 1.14393,0.27236 1.33081,0.32057 1.48523,0.38316 0.0883,0.0358 0.3412,0.12868 0.56198,0.20642 0.66867,0.23542 1.99513,0.94656 2.7025,1.44886 0.85584,0.60772 2.22158,1.97346 2.8293,2.82929 0.91846,1.29345 1.60289,2.85424 1.99482,4.54901 0.14476,0.62595 0.17336,1.08209 0.21395,3.41201 l 0.0468,2.68947 4.57611,0.0228 c 2.94788,0.0147 4.81892,-0.008 5.25852,-0.0641 2.21669,-0.28238 4.06619,-1.62268 5.11179,-3.70441 0.484,-0.96362 0.59808,-1.58941 0.64452,-3.53544 0.0353,-1.47883 0.0614,-1.75926 0.17329,-1.85849 0.0725,-0.0643 0.5472,-0.22885 1.05498,-0.36573 0.50779,-0.13687 1.0497,-0.28405 1.20424,-0.32705 1.31637,-0.36623 2.09858,-0.5669 2.38065,-0.61071 0.29917,-0.0465 0.34761,-0.0302 0.47132,0.15863 0.12528,0.19118 0.13407,0.43995 0.0962,2.71857 -0.0458,2.75506 -0.11742,3.30604 -0.62609,4.81651 -0.75453,2.24059 -2.29818,4.33702 -4.28755,5.82291 -0.85647,0.63971 -2.31507,1.39632 -3.33317,1.72902 -1.86456,0.60929 -1.9883,0.61656 -10.48631,0.61656 h -7.40761 z m 31.60453,0.0534 -0.17843,-0.12497 v -11.07261 -11.0726 l 0.18064,-0.11439 c 0.0994,-0.0629 0.30708,-0.13969 0.46162,-0.17062 0.15454,-0.0309 0.71452,-0.17645 1.24438,-0.32339 1.85506,-0.51444 2.83724,-0.7601 3.03894,-0.7601 0.48153,0 0.45348,-0.7372 0.45213,11.87962 -8e-4,6.33752 -0.0278,11.56251 -0.0602,11.6111 -0.16327,0.24452 -0.44291,0.27294 -2.68518,0.27294 -1.92953,0 -2.30259,-0.019 -2.45389,-0.12498 z m -70.313668,-3.42727 c -1.681327,-1.7517 -2.837951,-3.99222 -3.243057,-6.2822 -0.135276,-0.76467 -0.14825,-1.56415 -0.171163,-10.54898 -0.0275,-10.78243 -0.07148,-9.901 0.501036,-10.04251 0.264106,-0.0653 0.984659,-0.26016 2.56027,-0.69244 2.01242,-0.55212 2.093731,-0.55723 2.251759,-0.1416 0.04689,0.12333 0.07644,4.00621 0.07644,10.04394 0,9.87142 0.01333,10.4008 0.282515,11.22511 0.17964,0.55012 0.571395,1.34077 0.870079,1.75605 0.156455,0.21753 0.261609,0.4343 0.23367,0.4817 -0.447511,0.75944 -2.729119,4.37872 -2.82541,4.48192 -0.124005,0.13289 -0.153958,0.11719 -0.536136,-0.28099 z M 44.941046,264.62976 c -0.09485,-0.0209 -0.193705,-0.11734 -0.219681,-0.21421 -0.02598,-0.0969 -0.04772,-1.21478 -0.04833,-2.48425 -10e-4,-2.20186 0.0063,-2.31552 0.15947,-2.46869 0.158295,-0.15829 0.267608,-0.16056 7.731929,-0.16056 6.412274,0 7.595222,0.0174 7.727204,0.11395 0.148373,0.1085 0.155839,0.23139 0.155839,2.56503 0,1.52936 -0.03019,2.47994 -0.08028,2.52783 -0.0815,0.0779 -15.088207,0.19552 -15.426152,0.1209 z m 107.486244,-1.73105 c -0.12541,-0.12542 -0.1324,-3.18577 -0.009,-3.87282 0.28032,-1.55861 0.5565,-2.46035 1.08774,-3.55153 1.43528,-2.94807 3.99254,-5.18847 7.07998,-6.20274 1.79828,-0.59075 2.29705,-0.63165 7.82019,-0.6413 4.62555,-0.008 4.7185,-0.005 4.87717,0.15351 0.15493,0.15493 0.16176,0.26294 0.16176,2.55779 0,2.18005 -0.0127,2.40749 -0.1405,2.52303 -0.12405,0.11212 -0.67405,0.12942 -4.69918,0.1477 -2.50728,0.0114 -4.81942,0.0506 -5.13809,0.0872 -1.03001,0.11819 -2.44977,0.6971 -3.16798,1.29174 -1.38119,1.14356 -2.02146,2.17667 -2.50408,4.0405 -0.0471,0.18175 -0.0856,0.71063 -0.0856,1.17528 0,1.04708 -0.041,1.10678 -0.92325,1.34509 -0.95148,0.257 -1.75868,0.47174 -2.56904,0.68344 -0.3974,0.10382 -0.84875,0.22716 -1.00301,0.2741 -0.369,0.11231 -0.66818,0.10814 -0.7873,-0.011 z"
               style="fill:#9e9e9e;stroke-width:0.55412835" />
            <path
               sodipodi:nodetypes="ccccscssccccccccccccsccscscccccccsscccccccscccccccccccccsccccscccccscccccsccccccccscsccscccsccccccccscccccccccccccscscccsccccccsccccscccsccccccccccscccccccscscccscc"
               inkscape:connector-curvature="0"
               id="path916"
               d="m 64.594095,290.84204 c -0.208422,-0.0774 -0.306294,-0.23308 -0.396652,-0.63118 -0.0451,-0.1987 -0.175651,-0.70448 -0.29011,-1.12395 -0.942967,-3.45603 -0.920809,-3.31866 -0.557683,-3.45672 0.116594,-0.0443 2.158655,-0.0757 4.925629,-0.0757 3.95807,0 4.815384,-0.02 5.273356,-0.12323 2.407098,-0.54239 4.177668,-2.17938 5.033296,-4.65359 0.164499,-0.47568 0.166875,-0.60367 0.190206,-10.24781 0.02013,-8.32266 0.04049,-9.78011 0.13774,-9.86082 0.10664,-0.0885 1.118073,-0.39208 2.812502,-0.84414 0.397399,-0.10603 0.993497,-0.26618 1.324663,-0.35592 0.731054,-0.19807 0.758984,-0.19929 0.918096,-0.0402 0.11421,0.1142 0.126269,1.14863 0.121966,10.45681 -0.003,6.39597 -0.03485,10.49823 -0.08374,10.77163 -0.259056,1.44873 -0.598957,2.47873 -1.223299,3.70691 -1.64544,3.23686 -4.583576,5.45934 -8.323262,6.29594 -0.46144,0.10322 -1.127328,0.14175 -2.850033,0.1649 -4.565135,0.0613 -6.878183,0.067 -7.012672,0.0171 z m 72.222245,-0.15591 c -0.12899,-0.0751 -0.1405,-0.28423 -0.1405,-2.55372 v -2.47189 l 0.20449,-0.0932 c 0.15051,-0.0686 2.18023,-0.0932 7.68926,-0.0932 6.64438,0 7.50482,0.014 7.66322,0.12497 0.17759,0.12439 0.17843,0.13618 0.17843,2.51646 0,2.21488 -0.0109,2.4013 -0.14682,2.52435 -0.13447,0.1217 -0.78412,0.13266 -7.7272,0.13043 -4.99936,-0.002 -7.62823,-0.0303 -7.72088,-0.0843 z M 41.781769,280.25601 c -1.954007,-0.30889 -3.309787,-0.83335 -4.937382,-1.90995 -1.003742,-0.66394 -2.344054,-1.95662 -3.041937,-2.93383 -0.870379,-1.21874 -1.660899,-2.96611 -1.967421,-4.34878 -0.283435,-1.27853 -0.329437,-2.14343 -0.329437,-6.19388 v -4.03845 l 0.198445,-0.13003 c 0.109146,-0.0715 0.533641,-0.21851 0.943321,-0.32666 0.409682,-0.10814 0.943575,-0.25103 1.18643,-0.31754 0.242855,-0.0665 0.766699,-0.20809 1.164098,-0.31462 0.397399,-0.10654 0.848751,-0.23111 1.003003,-0.27682 0.384147,-0.11384 0.529554,-0.1046 0.677198,0.043 0.11167,0.11167 0.126158,0.63976 0.126158,4.59829 0,2.62266 0.0347,4.75346 0.08391,5.15242 0.364525,2.95555 2.668292,5.32542 5.616162,5.77732 0.32986,0.0506 5.163052,0.0802 13.137692,0.0806 11.257359,8e-4 12.620935,-0.0126 12.663051,-0.12239 0.02596,-0.0676 0.02407,-3.25652 -0.0042,-7.08641 -0.03838,-5.2007 -0.0279,-7.00731 0.04141,-7.13681 0.100554,-0.18789 0.246035,-0.23808 2.060254,-0.71078 0.618176,-0.16107 1.232338,-0.32117 1.364804,-0.35579 0.132467,-0.0346 0.527024,-0.14126 0.876799,-0.237 0.612091,-0.16753 0.641113,-0.16864 0.773684,-0.0295 0.128364,0.13473 0.139724,0.84995 0.166883,10.50104 l 0.02913,10.35646 -2.970458,0.0401 c -1.633751,0.0221 -8.588234,0.0459 -15.454406,0.053 -11.711873,0.0121 -12.541049,0.004 -13.4072,-0.13308 z m 57.843637,-0.0471 c -0.764435,-0.1181 -1.606849,-0.30597 -2.007066,-0.4476 -0.47964,-0.16975 -1.806359,-0.72818 -1.806359,-0.76033 0,-0.0314 2.562461,-4.44901 2.621099,-4.51875 0.01544,-0.0184 0.308085,0.0611 0.650338,0.17646 0.342245,0.1154 0.857097,0.24756 1.144112,0.29368 0.34806,0.0559 5.1481,0.084 14.41474,0.0845 10.69788,8.1e-4 13.91507,0.0228 13.98925,0.0969 0.0708,0.0708 0.0963,0.75225 0.0963,2.56622 0,2.35973 -0.007,2.47359 -0.15529,2.55299 -0.1055,0.0565 -4.65452,0.0806 -14.18996,0.0753 -11.5543,-0.006 -14.16236,-0.0275 -14.757204,-0.1194 z m 31.919334,-0.005 c -0.1665,-0.11661 -0.16755,-0.14565 -0.16755,-4.6308 0,-2.57871 -0.035,-4.79256 -0.0816,-5.16457 -0.1918,-1.52958 -0.80569,-2.77376 -1.91861,-3.88841 -0.96211,-0.96361 -1.87109,-1.4667 -3.35674,-1.85782 -0.30019,-0.079 -3.24445,-0.10094 -13.58971,-0.10111 H 99.223993 l -0.451702,-0.22191 c -0.248435,-0.12206 -0.619887,-0.40172 -0.825442,-0.62148 -0.518144,-0.55393 -0.701855,-1.01682 -0.702184,-1.76925 -8.03e-4,-1.1988 -0.316105,-0.82508 6.216755,-7.36248 l 5.7964,-5.80042 h 3.33649 c 2.48802,0 3.361,0.0245 3.43284,0.0963 0.29631,0.2963 0.24543,0.35355 -4.8009,5.40237 -2.69349,2.6948 -4.89724,4.92999 -4.89724,4.9671 0,0.0371 4.36235,0.058 9.69412,0.0463 10.87471,-0.0237 10.53058,-0.04 12.42374,0.58773 3.54972,1.17696 6.41371,4.03821 7.57308,7.56584 0.49985,1.52091 0.58992,2.23427 0.64794,5.13156 l 0.0481,2.40196 4.97686,-0.0192 c 5.74285,-0.0222 5.54547,-0.002 6.98525,-0.70118 2.01214,-0.97663 3.35561,-2.91736 3.65194,-5.27543 0.0491,-0.39061 0.0826,-1.25101 0.0745,-1.91201 -0.008,-0.66099 0.0172,-1.23291 0.0562,-1.27092 0.039,-0.038 0.41418,-0.16226 0.83366,-0.2761 0.41947,-0.11384 0.88913,-0.24196 1.04367,-0.2847 0.15454,-0.0427 0.69645,-0.18749 1.20424,-0.32167 0.50779,-0.13418 1.03419,-0.27967 1.1698,-0.32329 0.33429,-0.10757 0.7043,-0.0999 0.82121,0.017 0.1229,0.1229 0.13414,4.2107 0.0143,5.20442 -0.57199,4.7434 -4.12049,8.81459 -8.74906,10.03782 -1.47782,0.39055 -1.36968,0.38603 -10.24912,0.42887 -5.90524,0.0285 -6.85995,0.017 -7.00466,-0.0844 z m 31.47214,-0.0581 c -0.0671,-0.0808 -0.10533,-3.05276 -0.14287,-11.09908 -0.0463,-9.93243 -0.0391,-10.99874 0.0749,-11.09317 0.10721,-0.0888 1.69697,-0.56842 2.69057,-0.81176 0.16466,-0.0403 0.51614,-0.13396 0.78108,-0.20807 1.38058,-0.38623 1.40106,-0.38932 1.57003,-0.2364 0.15317,0.13861 0.15604,0.3555 0.15604,11.76693 0,11.41184 -0.003,11.62724 -0.15529,11.70882 -0.097,0.0519 -1.04317,0.0831 -2.51907,0.0831 -1.9076,0 -2.38146,-0.0213 -2.45539,-0.11038 z m -70.470756,-3.62926 c -1.466074,-1.62952 -2.401824,-3.37036 -2.887815,-5.37244 -0.33734,-1.3897 -0.346219,-1.6831 -0.347752,-11.49864 l -0.0014,-9.41129 0.183132,-0.11999 c 0.100723,-0.066 0.525217,-0.21081 0.943321,-0.3218 1.18563,-0.31474 2.244325,-0.60126 2.727113,-0.73802 1.056512,-0.29929 1.120031,-0.3073 1.267446,-0.15993 0.127898,0.12787 0.140639,0.85342 0.182491,10.39074 0.04418,10.06858 0.04797,10.2627 0.210525,10.77653 0.260396,0.82315 0.505636,1.36015 0.889387,1.9475 l 0.355403,0.54398 -1.426221,2.28598 c -0.784418,1.2573 -1.453621,2.28599 -1.487107,2.28599 -0.03349,0 -0.307298,-0.27387 -0.608454,-0.60861 z M 44.896877,264.54616 c -0.205982,-0.0543 -0.237662,-0.47886 -0.209861,-2.81283 0.02074,-1.74107 0.04587,-2.12515 0.145493,-2.22311 0.104153,-0.10242 1.140232,-0.1208 7.668205,-0.13607 5.731971,-0.0134 7.590945,0.005 7.727204,0.0784 l 0.179422,0.096 v 2.44778 2.44778 l -0.205933,0.0783 c -0.202692,0.0771 -15.014886,0.10005 -15.30453,0.0238 z m 107.594643,-1.71168 c -0.14609,-0.14609 -0.16057,-0.2676 -0.16057,-1.34778 0,-2.07846 0.28796,-3.7594 0.90241,-5.26771 1.26002,-3.09304 3.6176,-5.42825 6.74244,-6.67848 0.69847,-0.27945 0.94382,-0.35155 2.22992,-0.65526 0.72605,-0.17145 10.80097,-0.24839 11.01268,-0.0841 0.11866,0.0921 0.13865,0.37922 0.17086,2.45416 0.0347,2.23866 0.0291,2.35929 -0.12014,2.54897 l -0.15662,0.1991 h -4.76574 c -3.94295,0 -4.86713,0.021 -5.35304,0.12151 -1.75099,0.36229 -3.28982,1.40829 -4.25026,2.88909 -0.71542,1.10303 -1.01285,2.06603 -1.0868,3.51883 -0.0618,1.21326 0.006,1.1304 -1.19115,1.44975 -0.44155,0.11776 -0.92927,0.24934 -1.08382,0.29238 -0.85981,0.2395 -2.65459,0.7201 -2.6892,0.7201 -0.0222,0 -0.11266,-0.0723 -0.20097,-0.16057 z"
               style="fill:#049acf;stroke-width:0.55412835" />
            <path
               sodipodi:nodetypes="ccccscssccccccccccccsccscscccccccsscccccccscccccccccccccsccccscccccscccccsccccccccscsccscccsccccccccscccccccccccccscscccsccccccsccccscccsccccccccccscccccccscscccscc"
               inkscape:connector-curvature="0"
               id="path914"
               d="m 64.594095,290.84204 c -0.208422,-0.0774 -0.306294,-0.23308 -0.396652,-0.63118 -0.0451,-0.1987 -0.175651,-0.70448 -0.29011,-1.12395 -0.942967,-3.45603 -0.920809,-3.31866 -0.557683,-3.45672 0.116594,-0.0443 2.158655,-0.0757 4.925629,-0.0757 3.95807,0 4.815384,-0.02 5.273356,-0.12323 2.407098,-0.54239 4.177668,-2.17938 5.033296,-4.65359 0.164499,-0.47568 0.166875,-0.60367 0.190206,-10.24781 0.02013,-8.32266 0.04049,-9.78011 0.13774,-9.86082 0.10664,-0.0885 1.118073,-0.39208 2.812502,-0.84414 0.397399,-0.10603 0.993497,-0.26618 1.324663,-0.35592 0.731054,-0.19807 0.758984,-0.19929 0.918096,-0.0402 0.11421,0.1142 0.126269,1.14863 0.121966,10.45681 -0.003,6.39597 -0.03485,10.49823 -0.08374,10.77163 -0.259056,1.44873 -0.598957,2.47873 -1.223299,3.70691 -1.64544,3.23686 -4.583576,5.45934 -8.323262,6.29594 -0.46144,0.10322 -1.127328,0.14175 -2.850033,0.1649 -4.565135,0.0613 -6.878183,0.067 -7.012672,0.0171 z m 72.222245,-0.15591 c -0.12899,-0.0751 -0.1405,-0.28423 -0.1405,-2.55372 v -2.47189 l 0.20449,-0.0932 c 0.15051,-0.0686 2.18023,-0.0932 7.68926,-0.0932 6.64438,0 7.50482,0.014 7.66322,0.12497 0.17759,0.12439 0.17843,0.13618 0.17843,2.51646 0,2.21488 -0.0109,2.4013 -0.14682,2.52435 -0.13447,0.1217 -0.78412,0.13266 -7.7272,0.13043 -4.99936,-0.002 -7.62823,-0.0303 -7.72088,-0.0843 z M 41.781769,280.25601 c -1.954007,-0.30889 -3.309787,-0.83335 -4.937382,-1.90995 -1.003742,-0.66394 -2.344054,-1.95662 -3.041937,-2.93383 -0.870379,-1.21874 -1.660899,-2.96611 -1.967421,-4.34878 -0.283435,-1.27853 -0.329437,-2.14343 -0.329437,-6.19388 v -4.03845 l 0.198445,-0.13003 c 0.109146,-0.0715 0.533641,-0.21851 0.943321,-0.32666 0.409682,-0.10814 0.943575,-0.25103 1.18643,-0.31754 0.242855,-0.0665 0.766699,-0.20809 1.164098,-0.31462 0.397399,-0.10654 0.848751,-0.23111 1.003003,-0.27682 0.384147,-0.11384 0.529554,-0.1046 0.677198,0.043 0.11167,0.11167 0.126158,0.63976 0.126158,4.59829 0,2.62266 0.0347,4.75346 0.08391,5.15242 0.364525,2.95555 2.668292,5.32542 5.616162,5.77732 0.32986,0.0506 5.163052,0.0802 13.137692,0.0806 11.257359,8e-4 12.620935,-0.0126 12.663051,-0.12239 0.02596,-0.0676 0.02407,-3.25652 -0.0042,-7.08641 -0.03838,-5.2007 -0.0279,-7.00731 0.04141,-7.13681 0.100554,-0.18789 0.246035,-0.23808 2.060254,-0.71078 0.618176,-0.16107 1.232338,-0.32117 1.364804,-0.35579 0.132467,-0.0346 0.527024,-0.14126 0.876799,-0.237 0.612091,-0.16753 0.641113,-0.16864 0.773684,-0.0295 0.128364,0.13473 0.139724,0.84995 0.166883,10.50104 l 0.02913,10.35646 -2.970458,0.0401 c -1.633751,0.0221 -8.588234,0.0459 -15.454406,0.053 -11.711873,0.0121 -12.541049,0.004 -13.4072,-0.13308 z m 57.843637,-0.0471 c -0.764435,-0.1181 -1.606849,-0.30597 -2.007066,-0.4476 -0.47964,-0.16975 -1.806359,-0.72818 -1.806359,-0.76033 0,-0.0314 2.562461,-4.44901 2.621099,-4.51875 0.01544,-0.0184 0.308085,0.0611 0.650338,0.17646 0.342245,0.1154 0.857097,0.24756 1.144112,0.29368 0.34806,0.0559 5.1481,0.084 14.41474,0.0845 10.69788,8.1e-4 13.91507,0.0228 13.98925,0.0969 0.0708,0.0708 0.0963,0.75225 0.0963,2.56622 0,2.35973 -0.007,2.47359 -0.15529,2.55299 -0.1055,0.0565 -4.65452,0.0806 -14.18996,0.0753 -11.5543,-0.006 -14.16236,-0.0275 -14.757204,-0.1194 z m 31.919334,-0.005 c -0.1665,-0.11661 -0.16755,-0.14565 -0.16755,-4.6308 0,-2.57871 -0.035,-4.79256 -0.0816,-5.16457 -0.1918,-1.52958 -0.80569,-2.77376 -1.91861,-3.88841 -0.96211,-0.96361 -1.87109,-1.4667 -3.35674,-1.85782 -0.30019,-0.079 -3.24445,-0.10094 -13.58971,-0.10111 H 99.223993 l -0.451702,-0.22191 c -0.248435,-0.12206 -0.619887,-0.40172 -0.825442,-0.62148 -0.518144,-0.55393 -0.701855,-1.01682 -0.702184,-1.76925 -8.03e-4,-1.1988 -0.316105,-0.82508 6.216755,-7.36248 l 5.7964,-5.80042 h 3.33649 c 2.48802,0 3.361,0.0245 3.43284,0.0963 0.29631,0.2963 0.24543,0.35355 -4.8009,5.40237 -2.69349,2.6948 -4.89724,4.92999 -4.89724,4.9671 0,0.0371 4.36235,0.058 9.69412,0.0463 10.87471,-0.0237 10.53058,-0.04 12.42374,0.58773 3.54972,1.17696 6.41371,4.03821 7.57308,7.56584 0.49985,1.52091 0.58992,2.23427 0.64794,5.13156 l 0.0481,2.40196 4.97686,-0.0192 c 5.74285,-0.0222 5.54547,-0.002 6.98525,-0.70118 2.01214,-0.97663 3.35561,-2.91736 3.65194,-5.27543 0.0491,-0.39061 0.0826,-1.25101 0.0745,-1.91201 -0.008,-0.66099 0.0172,-1.23291 0.0562,-1.27092 0.039,-0.038 0.41418,-0.16226 0.83366,-0.2761 0.41947,-0.11384 0.88913,-0.24196 1.04367,-0.2847 0.15454,-0.0427 0.69645,-0.18749 1.20424,-0.32167 0.50779,-0.13418 1.03419,-0.27967 1.1698,-0.32329 0.33429,-0.10757 0.7043,-0.0999 0.82121,0.017 0.1229,0.1229 0.13414,4.2107 0.0143,5.20442 -0.57199,4.7434 -4.12049,8.81459 -8.74906,10.03782 -1.47782,0.39055 -1.36968,0.38603 -10.24912,0.42887 -5.90524,0.0285 -6.85995,0.017 -7.00466,-0.0844 z m 31.47214,-0.0581 c -0.0671,-0.0808 -0.10533,-3.05276 -0.14287,-11.09908 -0.0463,-9.93243 -0.0391,-10.99874 0.0749,-11.09317 0.10721,-0.0888 1.69697,-0.56842 2.69057,-0.81176 0.16466,-0.0403 0.51614,-0.13396 0.78108,-0.20807 1.38058,-0.38623 1.40106,-0.38932 1.57003,-0.2364 0.15317,0.13861 0.15604,0.3555 0.15604,11.76693 0,11.41184 -0.003,11.62724 -0.15529,11.70882 -0.097,0.0519 -1.04317,0.0831 -2.51907,0.0831 -1.9076,0 -2.38146,-0.0213 -2.45539,-0.11038 z m -70.470756,-3.62926 c -1.466074,-1.62952 -2.401824,-3.37036 -2.887815,-5.37244 -0.33734,-1.3897 -0.346219,-1.6831 -0.347752,-11.49864 l -0.0014,-9.41129 0.183132,-0.11999 c 0.100723,-0.066 0.525217,-0.21081 0.943321,-0.3218 1.18563,-0.31474 2.244325,-0.60126 2.727113,-0.73802 1.056512,-0.29929 1.120031,-0.3073 1.267446,-0.15993 0.127898,0.12787 0.140639,0.85342 0.182491,10.39074 0.04418,10.06858 0.04797,10.2627 0.210525,10.77653 0.260396,0.82315 0.505636,1.36015 0.889387,1.9475 l 0.355403,0.54398 -1.426221,2.28598 c -0.784418,1.2573 -1.453621,2.28599 -1.487107,2.28599 -0.03349,0 -0.307298,-0.27387 -0.608454,-0.60861 z M 44.896877,264.54616 c -0.205982,-0.0543 -0.237662,-0.47886 -0.209861,-2.81283 0.02074,-1.74107 0.04587,-2.12515 0.145493,-2.22311 0.104153,-0.10242 1.140232,-0.1208 7.668205,-0.13607 5.731971,-0.0134 7.590945,0.005 7.727204,0.0784 l 0.179422,0.096 v 2.44778 2.44778 l -0.205933,0.0783 c -0.202692,0.0771 -15.014886,0.10005 -15.30453,0.0238 z m 107.594643,-1.71168 c -0.14609,-0.14609 -0.16057,-0.2676 -0.16057,-1.34778 0,-2.07846 0.28796,-3.7594 0.90241,-5.26771 1.26002,-3.09304 3.6176,-5.42825 6.74244,-6.67848 0.69847,-0.27945 0.94382,-0.35155 2.22992,-0.65526 0.72605,-0.17145 10.80097,-0.24839 11.01268,-0.0841 0.11866,0.0921 0.13865,0.37922 0.17086,2.45416 0.0347,2.23866 0.0291,2.35929 -0.12014,2.54897 l -0.15662,0.1991 h -4.76574 c -3.94295,0 -4.86713,0.021 -5.35304,0.12151 -1.75099,0.36229 -3.28982,1.40829 -4.25026,2.88909 -0.71542,1.10303 -1.01285,2.06603 -1.0868,3.51883 -0.0618,1.21326 0.006,1.1304 -1.19115,1.44975 -0.44155,0.11776 -0.92927,0.24934 -1.08382,0.29238 -0.85981,0.2395 -2.65459,0.7201 -2.6892,0.7201 -0.0222,0 -0.11266,-0.0723 -0.20097,-0.16057 z"
               style="fill:#5f5f5f;stroke-width:0.55412835" />
            <path
               sodipodi:nodetypes="cccccccccsccccscccccccccccccsccccccscccscccccscccccscccccscccccscsccscsccccscccsccccscscscccccccccccccscsccccssccccccccccccccsccccccccccccsccccscccccscsccccccccccccccccccccccccc"
               inkscape:connector-curvature="0"
               id="path912"
               d="m 64.488323,290.71263 c -0.06523,-0.0773 -0.165583,-0.30307 -0.223001,-0.50177 -0.238239,-0.82442 -0.320256,-1.12416 -0.527208,-1.92678 -0.303991,-1.17892 -0.447568,-1.6964 -0.530083,-1.91049 -0.114306,-0.29656 -0.08239,-0.56657 0.07707,-0.65192 0.09131,-0.0489 2.039676,-0.0895 5.077876,-0.1059 4.71239,-0.0254 4.954499,-0.034 5.491702,-0.19318 1.598563,-0.47381 2.866226,-1.35242 3.751487,-2.60013 0.611216,-0.86148 0.887982,-1.49029 1.140696,-2.5917 0.109979,-0.47934 0.125481,-1.71514 0.125481,-10.00542 0,-10.413 -0.04254,-9.58512 0.499495,-9.72028 0.27443,-0.0684 2.012316,-0.52581 2.430821,-0.63975 1.406753,-0.383 1.868844,-0.48471 2.024616,-0.44561 l 0.183157,0.046 0.01791,4.83551 c 0.04962,13.39429 0.03176,15.78448 -0.123965,16.5969 -0.252464,1.31708 -0.470552,1.99938 -1.000803,3.13102 -1.498315,3.19767 -4.486097,5.61975 -7.965081,6.45699 -1.290575,0.31059 -2.246123,0.36572 -6.349955,0.36638 -3.693779,8.1e-4 -3.990191,-0.01 -4.100218,-0.13984 z m 72.407767,-0.0401 c -0.11584,-0.0883 -0.13434,-0.3901 -0.15471,-2.52334 -0.0127,-1.33264 0.006,-2.45258 0.0426,-2.48876 0.0362,-0.0362 3.4872,-0.0754 7.66897,-0.087 6.03141,-0.0169 7.63133,0 7.73928,0.0803 0.12227,0.0912 0.13668,0.34067 0.14206,2.45839 0.005,2.11784 -0.008,2.37228 -0.13155,2.50884 -0.13308,0.14705 -0.3812,0.15197 -7.65631,0.15197 -5.89133,0 -7.54726,-0.0217 -7.65035,-0.10035 z M 42.102899,280.25508 c -0.591957,-0.0633 -1.350902,-0.20837 -1.766218,-0.33772 -1.08223,-0.33707 -1.11961,-0.35145 -2.015604,-0.77579 -1.881423,-0.89105 -3.650297,-2.438 -4.763247,-4.16568 -0.433228,-0.67251 -1.005829,-1.80432 -1.207655,-2.38707 -0.07646,-0.22077 -0.168201,-0.47366 -0.203861,-0.56197 -0.03566,-0.0883 -0.121118,-0.41346 -0.189903,-0.72255 -0.06879,-0.30909 -0.167638,-0.72455 -0.21967,-0.92325 -0.06514,-0.24876 -0.105305,-1.78792 -0.128965,-4.94245 -0.03797,-5.06297 -0.07228,-4.71428 0.477589,-4.85497 0.144757,-0.037 0.606403,-0.16239 1.025879,-0.27856 0.692558,-0.1918 1.610828,-0.43763 2.689469,-0.72 0.220777,-0.0578 0.461842,-0.12985 0.5357,-0.16012 0.08508,-0.0349 0.195394,0.006 0.30106,0.11174 0.165128,0.16513 0.166772,0.21417 0.166772,4.97388 0,5.39224 0.0038,5.43639 0.569969,6.66074 0.384072,0.83054 0.872504,1.52101 1.494721,2.11303 0.812391,0.77298 1.989843,1.4335 2.993116,1.67908 0.940551,0.23022 1.947099,0.24473 14.00932,0.20194 6.799939,-0.0241 12.390621,-0.0447 12.423737,-0.0457 0.03312,-0.001 0.06021,-3.21463 0.06021,-7.14131 0,-7.9724 -0.05168,-7.3132 0.585662,-7.47115 0.31767,-0.0787 0.661063,-0.17221 1.220698,-0.33232 0.132466,-0.0379 0.65631,-0.17695 1.164098,-0.30899 0.507787,-0.13205 1.031632,-0.27461 1.164098,-0.31681 0.53518,-0.17047 0.813905,-0.1843 0.951036,-0.0472 0.122142,0.12214 0.13278,0.96194 0.13278,10.4835 v 10.35073 l -15.474478,-0.0126 c -8.510963,-0.007 -15.709304,-0.0377 -15.996315,-0.0684 z m 58.164771,-0.0538 c -1.393059,-0.12635 -1.884268,-0.23086 -3.050743,-0.64911 -0.75204,-0.26965 -1.223949,-0.48289 -1.284113,-0.58024 -0.04489,-0.0726 0.297536,-0.68696 1.979224,-3.55071 0.611874,-1.04196 0.493706,-0.97022 1.15139,-0.699 0.08831,0.0364 0.395392,0.13127 0.682402,0.21078 0.49346,0.13671 1.28861,0.14457 14.61911,0.14457 11.83055,0 14.11862,0.0177 14.23009,0.11018 0.11814,0.098 0.13283,0.37439 0.13283,2.499 0,1.84462 -0.0234,2.40827 -0.1029,2.47422 -0.15519,0.1288 -26.96149,0.1669 -28.35729,0.0403 z m 31.23449,-0.12391 c -0.10972,-0.15666 -0.12497,-0.76343 -0.12497,-4.97255 0,-5.47673 0.0154,-5.31001 -0.62169,-6.73085 -0.74781,-1.66781 -2.48727,-3.16971 -4.1752,-3.60502 -0.18766,-0.0484 -0.48087,-0.12411 -0.65157,-0.16827 -0.20069,-0.0519 -4.89263,-0.0803 -13.27582,-0.0803 -8.17753,0 -13.119452,-0.0292 -13.38249,-0.0791 -1.579946,-0.29963 -2.476181,-2.24008 -1.70314,-3.68748 0.151389,-0.28345 1.846501,-2.04335 5.95493,-6.18254 l 5.74331,-5.78629 h 3.30283 c 2.89552,0 3.31838,0.0156 3.42898,0.12616 0.0694,0.0694 0.12616,0.18612 0.12616,0.2594 0,0.0733 -2.22182,2.35614 -4.93738,5.07301 -2.71556,2.71688 -4.93739,4.96503 -4.93739,4.99589 0,0.0309 4.50687,0.0686 10.01526,0.0839 7.23356,0.0201 10.10445,0.0534 10.33639,0.12011 0.17662,0.0508 0.57402,0.15059 0.88311,0.22181 3.36146,0.77448 6.30407,3.12699 7.86584,6.28845 0.1886,0.38179 0.40547,0.8748 0.48194,1.09557 0.0765,0.22078 0.1682,0.47367 0.20386,0.56198 0.0357,0.0883 0.12537,0.43152 0.19935,0.76269 0.074,0.33116 0.17319,0.74662 0.22046,0.92325 0.0476,0.17791 0.10709,1.52053 0.13336,3.0106 l 0.0474,2.68946 4.61625,0.0237 c 2.82111,0.0145 4.89723,-0.009 5.3388,-0.0593 2.51776,-0.28908 4.84334,-2.25433 5.51545,-4.66089 0.27558,-0.98675 0.30504,-1.25724 0.30504,-2.80121 0,-1.1791 0.0262,-1.61574 0.10035,-1.67552 0.0552,-0.0445 0.26293,-0.11774 0.46163,-0.16284 0.1987,-0.0451 0.70448,-0.17565 1.12395,-0.29011 2.9709,-0.81061 3.17482,-0.85963 3.32915,-0.80041 0.17943,0.0688 0.18034,4.71123 0.001,5.72384 -0.31023,1.75296 -0.94791,3.33421 -1.90353,4.72022 -1.68136,2.43862 -4.03482,4.0904 -6.88597,4.83294 -1.47553,0.38428 -2.04642,0.40814 -9.76652,0.40814 H 131.627 Z m 31.60399,0.0459 -0.18059,-0.14842 0.0214,-10.99565 0.0214,-10.99565 0.20071,-0.0977 c 0.11039,-0.0537 0.6523,-0.21249 1.20424,-0.35277 0.55194,-0.14027 1.11191,-0.28693 1.24438,-0.32589 1.22846,-0.3613 2.09278,-0.5604 2.2555,-0.51955 l 0.19312,0.0485 0.0136,11.41868 c 0.007,6.28027 0.009,11.5236 0.004,11.65185 -0.005,0.12826 -0.048,0.2713 -0.0946,0.31788 -0.054,0.0539 -0.92282,0.096 -2.39345,0.11594 -2.15364,0.0292 -2.3209,0.0213 -2.48937,-0.11716 z m -70.583959,-3.70093 c -1.275193,-1.38424 -2.356159,-3.36937 -2.76507,-5.07788 -0.367791,-1.53673 -0.367084,-1.51438 -0.36743,-11.61232 0,-9.03419 0.0075,-9.56833 0.140174,-9.6231 0.151477,-0.0625 0.213632,-0.0801 1.425017,-0.40285 1.486449,-0.39605 1.685116,-0.44965 1.926783,-0.51973 0.132466,-0.0384 0.439547,-0.12142 0.682402,-0.18444 0.242855,-0.063 0.477682,-0.12671 0.521837,-0.14154 0.04416,-0.0148 0.161569,8e-4 0.260919,0.0345 l 0.180636,0.0615 v 9.80914 c 0,10.32771 0.0099,10.63371 0.363086,11.67412 0.198756,0.58543 0.569244,1.33076 0.862525,1.73522 l 0.282,0.38889 -1.402168,2.24036 c -0.771187,1.23221 -1.432692,2.24037 -1.470007,2.24037 -0.03732,0 -0.325779,-0.27999 -0.641025,-0.62219 z M 44.802827,264.33978 c -0.02662,-0.0994 -0.0489,-1.19563 -0.04951,-2.43617 -0.001,-2.08398 0.01007,-2.26565 0.14572,-2.38841 0.134421,-0.12165 0.783726,-0.13287 7.691076,-0.13287 5.760715,0 7.567036,0.0228 7.6406,0.0963 0.07076,0.0708 0.09634,0.75287 0.09634,2.56904 v 2.47271 h -7.737911 -7.737911 z m 107.688183,-1.54606 c -0.12806,-0.15429 -0.0656,-3.47533 0.0778,-4.13393 0.3277,-1.50548 0.58435,-2.2565 1.16674,-3.41405 0.74733,-1.48541 1.86478,-2.85544 3.16363,-3.87875 1.04728,-0.8251 1.86657,-1.29532 3.13892,-1.80149 0.47585,-0.18932 0.70429,-0.25941 1.74329,-0.53492 0.7986,-0.21177 2.04299,-0.26894 6.55471,-0.30108 4.37444,-0.0312 4.73671,-0.0235 4.87717,0.10365 0.14224,0.12872 0.15166,0.2837 0.15052,2.47315 -8.1e-4,1.32999 -0.034,2.38768 -0.0773,2.45625 -0.0657,0.10407 -0.75499,0.12702 -5.07665,0.16901 -3.39413,0.033 -5.09731,0.0781 -5.30166,0.14049 -0.16558,0.0506 -0.41847,0.12322 -0.56198,0.16148 -0.82142,0.21904 -1.90877,0.87604 -2.65474,1.60405 -1.09199,1.06571 -1.56141,1.89653 -1.98013,3.50461 -0.046,0.17662 -0.10674,0.76193 -0.13501,1.30068 -0.0415,0.79002 -0.0762,0.98955 -0.17969,1.03123 -0.11398,0.0459 -1.12569,0.31722 -1.95306,0.52373 -0.16465,0.0411 -0.81494,0.21914 -1.44508,0.39562 -1.28427,0.35971 -1.36615,0.37059 -1.50749,0.20027 z"
               style="fill:#000000;stroke-width:0.55412835" />
          </g>
        </g>
      </g>
    </g>
  </g>
</svg>
