<?xml version="1.0" standalone="no"?>
<!DOCTYPE svg PUBLIC "-//W3C//DTD SVG 20010904//EN"
 "http://www.w3.org/TR/2001/REC-SVG-20010904/DTD/svg10.dtd">
<svg version="1.0" xmlns="http://www.w3.org/2000/svg"
 width="700.000000pt" height="700.000000pt" viewBox="0 0 700.000000 700.000000"
 preserveAspectRatio="xMidYMid meet">
<metadata>
Created by potrace 1.11, written by Peter Selinger 2001-2013
</metadata>
<g transform="translate(0.000000,700.000000) scale(0.100000,-0.100000)"
fill="#000000" stroke="none">
<path d="M4428 6865 c-2 -1 -31 -5 -64 -8 -34 -3 -93 -13 -130 -22 -38 -9 -73
-18 -79 -19 -122 -26 -437 -188 -530 -273 -11 -10 -43 -36 -70 -57 -88 -70
-239 -228 -330 -346 -89 -115 -308 -433 -359 -522 -29 -50 -47 -60 -86 -45
-295 109 -311 106 -441 -92 -85 -129 -525 -819 -677 -1061 -47 -74 -99 -157
-117 -185 -18 -27 -115 -180 -215 -340 -101 -159 -193 -306 -205 -325 -67
-102 -345 -542 -345 -545 0 -2 -54 -84 -119 -183 -65 -98 -138 -215 -162 -258
-24 -43 -46 -81 -50 -84 -4 -3 -26 -41 -49 -85 -36 -68 -41 -86 -37 -124 8
-74 42 -105 165 -151 459 -172 733 -274 982 -363 114 -42 438 -160 870 -319
91 -33 181 -66 200 -74 19 -7 152 -56 295 -109 143 -53 467 -173 720 -266 253
-94 503 -186 555 -206 210 -78 524 -196 552 -208 26 -10 28 -13 12 -19 -25
-10 -407 -15 -1474 -21 -492 -3 -929 -7 -970 -9 -79 -4 -247 -15 -315 -21 -22
-2 -74 -6 -115 -10 -41 -3 -86 -8 -100 -10 -24 -4 -64 -8 -175 -20 -78 -8
-135 -16 -200 -25 -33 -5 -78 -12 -100 -15 -217 -33 -360 -89 -353 -137 3 -22
66 -62 113 -71 17 -3 59 -13 95 -22 68 -16 208 -39 299 -50 30 -4 61 -8 70
-10 9 -2 48 -6 86 -10 39 -3 86 -8 105 -10 19 -2 72 -7 117 -10 46 -3 91 -8
100 -9 10 -2 72 -7 138 -11 66 -4 138 -9 160 -10 41 -3 231 -14 340 -20 427
-22 1507 -22 1925 0 30 2 118 6 195 10 77 3 163 8 190 10 28 1 97 6 155 10 58
3 123 8 145 10 22 2 76 6 120 10 79 6 102 8 200 19 168 20 216 25 245 31 14 2
45 7 70 10 82 11 234 47 285 67 169 66 92 122 -275 197 -167 34 -195 43 -208
68 -6 12 1 85 19 208 15 105 30 208 33 230 3 22 8 54 11 70 2 17 7 48 10 70 3
22 13 85 21 140 8 55 17 111 19 125 3 24 8 54 21 138 3 20 7 53 10 72 3 19 9
64 15 100 6 36 12 76 14 90 6 36 20 129 55 360 17 113 33 221 36 240 2 19 14
94 24 165 11 72 23 146 25 165 3 19 7 46 10 60 2 14 13 86 24 160 12 74 30
194 41 265 12 72 23 147 25 168 2 21 9 63 14 95 6 31 13 80 17 107 3 28 7 57
9 65 3 17 15 93 20 130 2 14 13 86 24 160 40 269 44 354 18 394 -20 29 -97 74
-194 111 -40 15 -80 36 -89 46 -17 19 -17 28 12 194 32 190 44 350 44 575 -2
389 -23 549 -108 787 -115 322 -298 541 -582 695 -87 47 -275 116 -360 131
-14 3 -36 8 -50 11 -14 3 -38 8 -55 11 -32 6 -281 15 -287 10z m257 -376 c255
-40 475 -169 607 -354 85 -119 162 -324 184 -490 3 -27 8 -59 10 -69 28 -146
21 -601 -11 -835 -17 -120 -32 -146 -80 -138 -33 6 -489 173 -1395 513 -785
294 -791 296 -798 312 -6 16 49 124 115 225 49 75 143 208 153 217 3 3 13 15
22 28 50 73 237 263 333 338 151 117 347 216 474 240 14 3 27 7 31 9 4 2 40 7
81 11 41 3 75 7 77 9 6 5 123 -5 197 -16z"/>
</g>
</svg>
