<svg xmlns="http://www.w3.org/2000/svg" width="210mm" height="270mm" viewBox="0 0 210 270"><g stroke-width=".832"><path d="M146.892 262.184c-12.067-3.345-32.855-9-36.151-9.833-1.61-.407-3.067-.802-7.336-1.989-2.534-.704-4.02-1.096-4.176-1.102-.092-.004-.168-.032-.168-.064 0-.05-.893-.287-1.593-.425a3.503 3.503 0 01-.467-.144c-.15-.058-.313-.08-.362-.05-.049.03-.088.003-.088-.06 0-.066-.081-.092-.193-.063-.107.028-.193.006-.193-.047 0-.054-.066-.073-.145-.042-.08.03-.145.02-.145-.023 0-.067-.798-.29-1.255-.352-.08-.01-.268-.069-.418-.13-.15-.06-.31-.088-.356-.06-.045.028-.11.003-.146-.055-.036-.057-.123-.082-.194-.055-.07.027-.142.018-.159-.021-.016-.04-1.464-.454-3.216-.923-7.71-2.062-8.889-2.38-9.025-2.437a2.002 2.002 0 00-.399-.093 2.66 2.66 0 01-.53-.145 2.654 2.654 0 00-.532-.144 2.573 2.573 0 01-.53-.148c-.153-.063-.315-.106-.36-.095-.046.01-.137-.026-.203-.08-.065-.055-.141-.077-.169-.05-.028.028-.176 0-.329-.061a2.661 2.661 0 00-.532-.146 2.573 2.573 0 01-.531-.147c-.153-.063-.315-.106-.36-.095-.046.01-.137-.026-.202-.08-.066-.055-.147-.072-.18-.038-.034.033-.128.006-.21-.061-.08-.067-.146-.09-.146-.05 0 .04-.059.023-.13-.036-.071-.06-.157-.08-.19-.046-.034.033-.121.012-.194-.049-.072-.06-.154-.086-.182-.059-.027.028-.175-.001-.329-.065-.153-.063-.316-.106-.361-.095-.045.01-.136-.026-.202-.08-.066-.055-.142-.077-.17-.05-.027.028-.175 0-.328-.064-.154-.063-.316-.106-.362-.096-.045.01-.136-.026-.202-.08-.065-.054-.147-.072-.18-.038-.034.034-.128.006-.209-.06-.08-.068-.147-.099-.147-.07 0 .05-1.603-.352-1.93-.483a2.19 2.19 0 00-.338-.094c-.106-.02-.66-.166-1.23-.324-.57-.157-1.112-.288-1.206-.289-.273-.002-6.133-1.626-6.234-1.726-.088-.089.134-1.209.347-1.747a2.38 2.38 0 00.123-.434c.04-.278.73-2.782.797-2.895a.66.66 0 00.068-.24c.025-.343.484-1.933.557-1.933.044 0 .053-.044.02-.097-.032-.053-.026-.15.014-.215a.7.7 0 00.085-.267c.032-.432.388-1.545.495-1.545.094 0 78.078 20.877 78.828 21.103a.248.248 0 01.17.221c0 .094.054.175.12.18.228.016.7.125.941.215.25.094 2.455.654 2.767.703a.968.968 0 01.305.107c.07.043.152.053.184.022.031-.031.106-.017.165.033.072.059.794-.265 2.126-.954l2.018-1.044.215-.76c.119-.419.394-1.369.613-2.112.218-.744.465-1.59.548-1.883.384-1.351.555-1.835.705-1.997.099-.106 1.398-4.787 3.331-12a783940.28 783940.28 0 0124.236-90.402c.868-3.239 2.277-8.626 3.13-11.97.854-3.345 1.86-7.273 2.235-8.729.375-1.456 1.113-4.345 1.64-6.42 1.037-4.087 2.906-11.41 4.092-16.031.409-1.593.753-2.985.766-3.093a.929.929 0 01.095-.314c.04-.064.047-.157.017-.207-.031-.05-.009-.119.049-.154.057-.036.083-.121.056-.19-.026-.07-.02-.153.013-.187a.412.412 0 00.084-.178c.013-.065.05-.226.083-.36l.095-.385a.435.435 0 01.05-.145c.008 0 .03-.065.05-.145l.094-.386c.032-.133.08-.35.105-.483.025-.132.086-.35.136-.482.095-.25.654-2.455.703-2.767a.968.968 0 01.107-.305c.043-.07.054-.152.022-.184-.031-.031-.017-.106.033-.165.06-.072-.265-.794-.954-2.126l-1.044-2.018-.76-.215c-.418-.119-1.369-.394-2.112-.613a270.46 270.46 0 00-1.882-.547c-.292-.083-1.01-.296-1.593-.475-.584-.178-1.301-.387-1.593-.463a78.924 78.924 0 01-1.882-.545c-.744-.223-1.721-.509-2.172-.635-.452-.126-1.494-.429-2.317-.674-2.295-.682-3.498-1.02-3.528-.99-.015.015-.122.397-.237.848-.115.451-.425 1.603-.689 2.558a9443.423 9443.423 0 00-6.5 23.94c-1.887 6.99-3.56 13.175-4.299 15.88-.311 1.141-1.07 3.943-1.686 6.226l-1.447 5.358a29770.293 29770.293 0 01-9.076 33.545c-2.58 9.51-3.771 13.908-5.215 19.258a6319.16 6319.16 0 01-4.103 15.156 5194.52 5194.52 0 00-2.698 9.97c-.855 3.173-1.593 5.869-1.639 5.99-.144.378-2.706 2.877-3.274 3.193a.783.783 0 00-.207.157c-.084.12-1.571 1.111-2.15 1.433-.904.501-1.652.88-1.739.88-.044 0-.306.105-.582.233-.602.28-2.525.925-2.758.925a.443.443 0 00-.257.083c-.05.046-.42.138-.822.204l-.73.12-11.819-3.204c-25.744-6.981-31.445-8.524-42.13-11.403-16.335-4.402-33.974-9.182-34.018-9.22-.028-.024 3.012-11.345 5.02-18.692.113-.411.258-.748.322-.748.164 0 12.945 3.448 43.348 11.694a59861.12 59861.12 0 0033.978 9.205c.477.129.893.204.925.166.053-.065 1.575-5.663 8.925-32.842a32800.997 32800.997 0 016.706-24.76c.26-.956 1.172-4.345 2.028-7.53.857-3.186 4.012-14.85 7.012-25.92 13.913-51.34 16.082-59.376 16.039-59.42-.016-.015-3.678-1.013-8.137-2.215-4.46-1.203-9.867-2.664-12.018-3.247l-9.75-2.64-9.798-2.652c-2.176-.59-5.586-1.511-7.577-2.047-1.991-.536-3.65-1.002-3.685-1.035-.036-.033-.09-.928-.122-1.99-.031-1.062-.077-2.582-.102-3.379-.026-.796-.07-2.469-.098-3.716a455.827 455.827 0 00-.095-3.62c-.025-.743-.068-2.372-.097-3.62a231.123 231.123 0 00-.106-3.513c-.05-1.17-.043-1.24.123-1.195.67.186 15.311 4.142 22.426 6.06 4.752 1.282 11.42 3.084 14.818 4.006 3.398.922 11.174 3.027 17.28 4.679a5457.493 5457.493 0 0111.583 3.14c.406.116.633.29 1.421 1.082.918.924 1.077 1.094 1.668 1.786.691.807 2.462 3.48 2.462 3.716 0 .029.134.34.298.692.465.998.527 1.152.902 2.25.194.567.451 1.47.572 2.008l.219.977-.791 2.915c-.855 3.146-1.134 4.184-2.695 10.01-.562 2.097-1.284 4.784-1.604 5.972-.32 1.188-.557 2.224-.526 2.303.03.079.118.119.196.09.077-.03.168-.01.202.044.033.054.12.076.193.048.072-.028.158-.008.19.043.032.052.095.071.141.043.046-.028.112-.004.148.053.035.058.124.082.196.054.073-.028.16-.006.194.049.033.054.117.077.186.05.07-.026.153-.02.186.013a.484.484 0 00.203.09c.332.068.39.086.51.162.07.043.153.053.184.022.032-.031.113-.011.18.045.068.056.257.106.42.11.163.005.296.05.296.1 0 .052.072.065.161.031.089-.034.186-.021.217.029s.187.115.346.146c.16.03.68.165 1.158.298.478.134.869.24.869.237 0-.003.065.017.145.044.195.065 1.917.52 2.22.585.133.028.958.249 1.834.49 2.858.785 5.256 1.405 6.202 1.602.306.064.555.149.555.189 0 .04.087.049.194.021.106-.028.193-.011.193.037s.076.088.169.09c.434.01 4.046 1.046 4.223 1.212.9.848 1.606 1.563 1.93 1.957.213.258.433.517.49.576.087.09.803 1.06 1.464 1.986.475.665 1.666 2.954 1.666 3.202 0 .092.043.194.095.226.052.033.21.437.35.9.14.461.284.883.322.936.115.162.548 1.782.653 2.438.027.174.006.37-.047.435-.077.095-2.795 9.928-2.857 10.337a.662.662 0 01-.078.208c-.034.054-.096.271-.138.483-.095.476-.103.513-.136.603-.015.04-.036.115-.046.169-.01.053-.047.161-.08.24-.035.08-.075.233-.09.339a.982.982 0 01-.104.313c-.041.067-.05.162-.02.211.031.05.011.118-.044.151-.054.034-.073.104-.041.156.032.052.006.158-.059.235-.064.077-.084.14-.044.14.04 0 .019.064-.045.141-.064.077-.09.183-.059.235.032.051.011.123-.046.158-.058.036-.082.125-.054.197.027.073.008.158-.044.19-.051.032-.07.096-.042.141.028.046.005.113-.053.148-.058.036-.082.124-.054.197.027.072.006.16-.049.193-.054.033-.076.12-.048.193.028.073.009.158-.043.19s-.07.095-.043.141c.029.046.005.112-.053.148-.057.036-.082.124-.054.197.028.072.006.16-.048.193-.055.033-.076.12-.048.193.027.072.006.16-.049.193-.054.033-.076.12-.048.193.028.072.009.158-.043.19s-.07.095-.043.141c.029.046.005.112-.053.148-.057.036-.082.124-.054.197.028.072.006.16-.048.193-.055.033-.077.117-.05.186.026.07.018.156-.018.192a.316.316 0 00-.078.154.27.27 0 01-.037.113 1.002 1.002 0 00-.048.265c-.013.133-.135.656-.272 1.163a44.656 44.656 0 00-.3 1.158c-.102.465-.827 3.136-.89 3.278-.035.08-.072.188-.082.241a.877.877 0 01-.041.145 1.68 1.68 0 00-.057.236c-.113.603-.37 1.51-.44 1.554-.045.028-.059.11-.03.182.027.073.003.161-.055.197-.057.036-.082.101-.054.146.028.045.001.205-.06.356-.06.15-.122.362-.136.47-.029.212-.312 1.257-.404 1.493a.61.61 0 00-.037.265c.01.067-.029.12-.087.12-.06 0-.08.044-.047.097.033.053.026.15-.014.216a.701.701 0 00-.085.266c-.022.31-.376 1.546-.442 1.546-.038 0-.046.086-.018.193.028.106.006.193-.048.193-.055 0-.076.087-.049.193.028.106.004.193-.054.193-.058 0-.08.065-.05.145.031.08.006.144-.056.144s-.089.039-.06.086c.03.047-.34 1.513-.82 3.258-1.144 4.161-1.393 5.077-1.742 6.406-.16.61-.482 1.784-.716 2.606-.234.823-1.075 3.886-1.868 6.806-.794 2.92-1.772 6.51-2.175 7.976-.403 1.467-.732 2.734-.732 2.816 0 .081-.481 1.9-1.069 4.042a15595.839 15595.839 0 00-4.147 15.14 3611.034 3611.034 0 00-2.457 9.074c-.148.558-.533 1.937-.614 2.195-.054.173-.074.314-.045.314.03 0 .001.063-.063.14-.064.078-.09.184-.059.235.032.052.011.124-.046.16-.058.035-.082.125-.053.199.028.074.005.135-.052.135-.057 0-.08.064-.05.142.03.078.01.169-.044.203-.055.033-.076.12-.048.193.027.072.006.159-.049.193-.054.033-.075.122-.047.196.029.074.005.135-.052.135-.057 0-.08.064-.05.142.03.077.01.169-.044.202-.054.034-.076.12-.048.193.028.073.01.157-.038.187s-.063.118-.033.196c.03.078.003.142-.06.142-.069 0-.089.074-.051.193.036.115.017.193-.049.193-.065 0-.085.077-.048.193.038.118.017.193-.052.193-.062 0-.088.065-.058.145.03.08.011.145-.044.145-.056 0-.073.084-.04.193.038.115.018.193-.047.193-.066 0-.085.077-.048.193.037.118.017.193-.053.193-.062 0-.088.065-.057.145.03.08.01.144-.045.144-.056 0-.073.085-.039.193.037.116.018.194-.048.194-.065 0-.085.077-.048.193.037.118.017.193-.052.193-.063 0-.089.063-.06.141.03.078.016.167-.033.197-.048.03-.065.113-.037.186.028.072.006.16-.049.193-.054.034-.074.125-.044.203.03.078.001.142-.063.142s-.092.063-.063.141c.03.078.015.166-.033.196-.049.03-.066.114-.038.187.028.072.006.16-.048.193-.054.034-.074.125-.044.203.03.078.003.141-.06.141-.069 0-.09.075-.052.193.038.119.018.194-.052.194-.062 0-.088.063-.059.141.03.078.015.166-.033.196-.049.03-.066.114-.038.187.028.072.006.16-.048.193s-.076.12-.048.193c.028.072.003.161-.054.197-.058.035-.082.102-.054.147.029.046.01.11-.042.142-.052.032-.071.117-.043.19.028.072.006.16-.049.193-.054.033-.074.125-.044.203.03.077.004.141-.06.141-.068 0-.089.075-.051.193.034.109.017.193-.039.193-.055 0-.077.061-.048.135.028.075.005.165-.053.2-.058.036-.08.105-.05.155.031.05.022.144-.02.21a.742.742 0 00-.09.193.275.275 0 01-.034.097c-.01.013-.037.11-.057.217-.196 1.045-1.27 5.142-2.604 9.943-.572 2.058-1.285 4.66-5.463 19.934-2.537 9.274-4.095 15.054-4.308 15.976-.233 1.013-.871 3.41-.936 3.514-.025.04-.175.568-.334 1.175-.16.607-.461 1.733-.671 2.503-.21.77-.52 1.92-.688 2.558-.169.637-.416 1.52-.549 1.962-.133.443-.217.83-.186.86.03.03.01.11-.044.175-.054.066-.09.157-.08.202.011.046-.027.195-.084.332-.057.136-.313 1.026-.57 1.977l-.465 1.728-.918.919c-.504.505-.92.962-.923 1.015-.002.053-.056.086-.119.073-.062-.012-.242.102-.398.255-.156.153-.45.402-.65.554-.202.152-.44.348-.53.436-.089.087-.373.28-.63.43-.258.148-.494.306-.524.35-.077.11-1.454.89-2.165 1.228-.849.403-1.735.788-1.882.818-.027.006-.483.148-1.014.316-2.426.769-2.435.769-4.923.079zM14.745 194.63c-3.763-1.023-4.681-1.305-4.915-1.508-.812-.706-2.314-2.326-2.872-3.098a6.979 6.979 0 00-.444-.564 2.195 2.195 0 01-.285-.434c-.086-.168-.185-.327-.22-.353-.111-.084-.635-.987-1.007-1.738-.198-.398-.398-.789-.445-.868a3.516 3.516 0 01-.243-.58 12.6 12.6 0 01-.402-1.094c-.087-.274-.201-.554-.254-.621-.052-.068-.068-.151-.034-.185.033-.033.021-.108-.027-.167-.048-.058-.217-.637-.375-1.286-.266-1.091-.278-1.215-.16-1.64.183-.655.646-2.36 1.977-7.266 1.776-6.547 1.83-6.748 2.076-7.626.126-.452.473-1.733.771-2.848.298-1.115.646-2.396.773-2.848.24-.847 1.35-4.923 1.737-6.37.121-.452.445-1.647.72-2.656.275-1.008.61-2.246.744-2.75.134-.505.347-1.278.474-1.72.127-.44.224-.83.216-.868-.007-.037.038-.193.101-.346.063-.154.092-.302.065-.33-.028-.027-.006-.103.049-.169.054-.065.09-.156.08-.202-.01-.045.033-.21.097-.364.064-.155.094-.34.067-.41-.027-.071-.005-.129.048-.129.054 0 .09-.054.078-.12-.01-.067.031-.244.093-.395.062-.15.09-.31.063-.355-.028-.045-.004-.11.054-.146.057-.036.082-.124.054-.197-.028-.073-.006-.16.048-.193.055-.034.076-.12.048-.193-.027-.073-.006-.16.049-.193.054-.034.075-.122.047-.196-.029-.075-.005-.135.052-.135.057 0 .079-.066.048-.145-.03-.08-.008-.145.05-.145.057 0 .081-.087.053-.193-.027-.106-.008-.193.044-.193s.066-.087.033-.193c-.037-.116-.018-.193.048-.193s.085-.078.048-.193c-.036-.114-.017-.193.046-.193.06 0 .099-.055.088-.121-.011-.066.03-.24.09-.385.06-.146.084-.33.053-.41-.031-.081-.004-.146.061-.146s.093-.064.063-.142c-.03-.078-.01-.17.044-.203.055-.033.076-.122.048-.196-.029-.074-.007-.135.048-.135.056 0 .073-.085.038-.193-.037-.118-.017-.193.053-.193.062 0 .09-.061.06-.135-.028-.075-.024-.163.01-.196a.484.484 0 00.09-.203c.068-.33.086-.389.152-.495.039-.062.044-.181.012-.266-.033-.084-.013-.153.044-.153.058 0 .08-.06.052-.135-.028-.074-.007-.163.048-.196.054-.034.076-.12.048-.193-.028-.073-.004-.161.054-.197.057-.036.081-.102.053-.148-.028-.046-.009-.11.043-.141.051-.032.07-.117.043-.19-.028-.073-.006-.16.048-.193.055-.034.076-.12.048-.193-.027-.073-.006-.16.049-.193.054-.034.076-.12.048-.193-.028-.073-.006-.16.048-.193.055-.034.075-.125.045-.203-.03-.078-.004-.142.058-.142s.086-.043.053-.097c-.033-.053-.026-.15.015-.217.072-.114.09-.173.159-.504a.484.484 0 01.09-.202c.033-.034.039-.117.012-.186-.026-.07-.001-.155.057-.19.057-.036.08-.105.05-.153-.03-.049-.006-.179.053-.29.107-.2.176-.445.23-.816.014-.106.146-.627.292-1.158.145-.531.393-1.443.55-2.027.158-.584.35-1.28.426-1.545.204-.711.61-2.195.87-3.185.283-1.074.555-2.081 1.199-4.44.275-1.01.622-2.291.771-2.848.15-.558.54-1.991.866-3.186 1.137-4.158 1.258-4.601 1.985-7.288.403-1.487.858-3.16 1.012-3.717.33-1.197 1.186-4.36 1.384-5.116.077-.292.408-1.508.735-2.703.328-1.194.749-2.737.936-3.427.187-.69.443-1.624.569-2.075.126-.452.45-1.646.721-2.655a654.144 654.144 0 011.467-5.406c.289-1.04.49-1.795 1.006-3.789l.256-.989.543-.007c.298-.003.825-.023 1.17-.044a355.88 355.88 0 013.861-.192 250.82 250.82 0 001.883-.095c.477-.026 1.346-.069 1.93-.094 1.083-.046 2.386-.108 4.2-.198a352.35 352.35 0 012.171-.1 70.946 70.946 0 001.641-.086c1.715-.13 3.813-.168 3.813-.07 0 .06-.35 1.402-.778 2.983-3.724 13.754-8.044 29.73-8.779 32.462-1.26 4.69-2.373 8.798-2.797 10.329-.154.557-.502 1.838-.774 2.847a413.783 413.783 0 01-.723 2.655c-.25.9-.773 2.815-1.158 4.247-.543 2.024-.72 2.704-.755 2.916-.02.122-.086.342-.147.49-.06.147-.13.364-.155.482a10.1 10.1 0 01-.095.408 78.344 78.344 0 00-.291 1.158l-.096.387c-.04.159-.096.354-.126.434-.09.237-.112.322-.176.676-.033.185-.1.385-.148.443-.047.058-.066.126-.04.151.025.025 0 .195-.055.377a7.79 7.79 0 00-.149.57.97.97 0 01-.138.347c-.05.06-.063.136-.03.17.035.033.007.127-.06.208-.067.08-.09.147-.05.147.04 0 .023.058-.036.13-.059.07-.082.155-.05.186.031.032.023.112-.019.18a1.148 1.148 0 00-.104.38c-.016.143-.08.383-.143.536-.062.152-.105.314-.095.36.01.045-.031.143-.093.217-.061.074-.079.135-.04.135.04 0 .024.058-.035.13-.06.07-.08.156-.046.19.033.034.012.12-.049.193-.06.072-.083.158-.052.189.031.031.02.114-.023.184a.778.778 0 00-.095.2.281.281 0 01-.033.096.901.901 0 00-.044.217c-.05.412-.273 1.21-.352 1.259-.045.028-.06.11-.032.183.028.072.006.16-.048.193-.055.033-.075.125-.045.203.03.078.01.141-.043.141-.054 0-.075.087-.047.193.029.113.003.193-.063.193-.063 0-.092.036-.065.08.058.093-.212 1.18-.328 1.32a.421.421 0 00-.087.17l-.02.144c-.006.04-.003.148.006.241.01.093-.025.17-.076.17-.052 0-.071.086-.043.192.03.112.003.193-.063.193-.063 0-.09.04-.06.087.03.048-.055.461-.187.919-.133.457-.241.896-.241.975 0 .079-.04.143-.088.143-.048 0-.065.087-.037.193.03.112.003.193-.063.193-.062 0-.09.038-.062.084.028.045-.15.826-.396 1.735-.425 1.57-.459 1.65-.663 1.598-.118-.03-.24-.012-.272.038-.031.051-.211.674-.4 1.384-.188.71-.49 1.834-.67 2.498-.18.663-.48 1.771-.664 2.461-.4 1.492-1.405 5.187-1.798 6.613-.154.557-.503 1.839-.776 2.847a438.2 438.2 0 01-.725 2.655c-.127.451-.451 1.646-.722 2.655-.27 1.008-.618 2.29-.772 2.847-.154.558-.497 1.818-.763 2.8a4544.866 4544.866 0 01-3.585 13.176 83.984 83.984 0 01-.513 1.846c-.008.006-2.098-.554-4.643-1.246zm24.01-145.807c-.044-.113.156-.923.794-3.211a791.4 791.4 0 001.062-3.91 749.54 749.54 0 011.061-3.91c.126-.45.43-1.558.675-2.46l.774-2.849c.18-.663.658-2.422 1.06-3.91.403-1.486.86-3.158 1.014-3.716.328-1.18.66-2.41 1.157-4.295.197-.744.383-1.417.415-1.497.059-.148 1.004-3.644 1.266-4.681.704-2.792 1.08-3.91 1.319-3.91.044 0 .157-.13.251-.29.094-.159.249-.314.343-.344.095-.03.175-.106.177-.169.002-.063.115-.2.25-.307.135-.106.35-.301.478-.433.128-.133.233-.216.233-.186s.186-.123.413-.34c.548-.526 1.524-1.273 1.864-1.427a2.68 2.68 0 00.564-.39c.16-.145.341-.265.402-.265.062 0 .166-.064.231-.144.066-.079.153-.122.194-.097.041.025.126-.016.189-.092.063-.075.24-.165.396-.199.155-.034.305-.1.333-.145.064-.104.62-.384.762-.385.058 0 .225-.063.37-.139a8.46 8.46 0 01.918-.353c.359-.119.707-.258.775-.31.068-.052.15-.068.181-.036.032.032.194-.013.36-.101.166-.088.393-.166.505-.174.112-.008.285-.05.386-.093.1-.043.291-.094.424-.113.133-.02.45-.082.703-.14.332-.076.536-.077.724-.002.144.058.87.261 1.61.453.743.19 1.376.364 1.408.384.032.02.555.166 1.161.325.607.16 1.69.45 2.406.644 1.124.306 2.266.615 4.972 1.343l1.786.485c.663.18 3.552.964 6.419 1.74 2.867.777 5.224 1.424 5.237 1.437.031.031.093.912.17 2.421.032.637.078 1.463.102 1.834.023.372.064 1.067.09 1.545.08 1.509.137 2.485.187 3.282.027.425.071 1.207.099 1.738.047.903.101 1.86.197 3.475.023.371.068 1.24.1 1.93.033.69.076 1.472.095 1.738.02.265.062 1.026.094 1.69.033.663.08 1.278.106 1.367.026.088.006.186-.044.217-.05.03-4.732-1.206-10.405-2.747-12.499-3.397-11.662-3.171-11.675-3.15-.006.009-.101.364-.212.789-.11.425-.273 1.033-.362 1.351-.09.319-.29 1.057-.446 1.641a251.715 251.715 0 01-1.03 3.765c-.106.372-1.063 3.886-2.126 7.81-1.063 3.923-1.985 7.166-2.05 7.206-.063.04-.598.073-1.188.074-.59.002-2.158.029-3.485.06-1.328.031-3.717.08-5.31.108-1.593.028-3.193.06-3.556.071-.364.011-.682-.014-.709-.057-.026-.043-.098-.038-.16.01-.061.049-1.158.094-2.436.102-1.278.007-2.343.016-2.365.02-.023.004-.404.016-.849.027-.584.014-.82-.015-.855-.105z" fill="#fafd00"/><path d="M146.892 262.184c-12.067-3.345-32.855-9-36.151-9.833-1.61-.407-3.067-.802-7.336-1.989-2.534-.704-4.02-1.096-4.176-1.102-.092-.004-.168-.032-.168-.064 0-.05-.893-.287-1.593-.425a3.503 3.503 0 01-.467-.144c-.15-.058-.313-.08-.362-.05-.049.03-.088.003-.088-.06 0-.066-.081-.092-.193-.063-.107.028-.193.006-.193-.047 0-.054-.066-.073-.145-.042-.08.03-.145.02-.145-.023 0-.067-.798-.29-1.255-.352-.08-.01-.268-.069-.418-.13-.15-.06-.31-.088-.356-.06-.045.028-.11.003-.146-.055-.036-.057-.123-.082-.194-.055-.07.027-.142.018-.159-.021-.016-.04-1.464-.454-3.216-.923-7.71-2.062-8.889-2.38-9.025-2.437a2.002 2.002 0 00-.399-.093 2.66 2.66 0 01-.53-.145 2.654 2.654 0 00-.532-.144 2.573 2.573 0 01-.53-.148c-.153-.063-.315-.106-.36-.095-.046.01-.137-.026-.203-.08-.065-.055-.141-.077-.169-.05-.028.028-.176 0-.329-.061a2.661 2.661 0 00-.532-.146 2.573 2.573 0 01-.531-.147c-.153-.063-.315-.106-.36-.095-.046.01-.137-.026-.202-.08-.066-.055-.147-.072-.18-.038-.034.033-.128.006-.21-.061-.08-.067-.146-.09-.146-.05 0 .04-.059.023-.13-.036-.071-.06-.157-.08-.19-.046-.034.033-.121.012-.194-.049-.072-.06-.154-.086-.182-.059-.027.028-.175-.001-.329-.065-.153-.063-.316-.106-.361-.095-.045.01-.136-.026-.202-.08-.066-.055-.142-.077-.17-.05-.027.028-.175 0-.328-.064-.154-.063-.316-.106-.362-.096-.045.01-.136-.026-.202-.08-.065-.054-.147-.072-.18-.038-.034.034-.128.006-.209-.06-.08-.068-.147-.099-.147-.07 0 .05-1.603-.352-1.93-.483a2.19 2.19 0 00-.338-.094c-.106-.02-.66-.166-1.23-.324-.57-.157-1.112-.288-1.206-.289-.273-.002-6.133-1.626-6.234-1.726-.088-.089.134-1.209.347-1.747a2.38 2.38 0 00.123-.434c.04-.278.73-2.782.797-2.895a.66.66 0 00.068-.24c.025-.343.484-1.933.557-1.933.044 0 .053-.044.02-.097-.032-.053-.026-.15.014-.215a.7.7 0 00.085-.267c.032-.432.388-1.545.495-1.545.094 0 78.078 20.877 78.828 21.103a.248.248 0 01.17.221c0 .094.054.175.12.18.228.016.7.125.941.215.25.094 2.455.654 2.767.703a.968.968 0 01.305.107c.07.043.152.053.184.022.031-.031.106-.017.165.033.072.059.794-.265 2.126-.954l2.018-1.044.215-.76c.119-.419.394-1.369.613-2.112.218-.744.465-1.59.548-1.883.384-1.351.555-1.835.705-1.997.099-.106 1.398-4.787 3.331-12a783940.28 783940.28 0 0124.236-90.402c.868-3.239 2.277-8.626 3.13-11.97.854-3.345 1.86-7.273 2.235-8.729.375-1.456 1.113-4.345 1.64-6.42 1.037-4.087 2.906-11.41 4.092-16.031.409-1.593.753-2.985.766-3.093a.929.929 0 01.095-.314c.04-.064.047-.157.017-.207-.031-.05-.009-.119.049-.154.057-.036.083-.121.056-.19-.026-.07-.02-.153.013-.187a.412.412 0 00.084-.178c.013-.065.05-.226.083-.36l.095-.385a.435.435 0 01.05-.145c.008 0 .03-.065.05-.145l.094-.386c.032-.133.08-.35.105-.483.025-.132.086-.35.136-.482.095-.25.654-2.455.703-2.767a.968.968 0 01.107-.305c.043-.07.054-.152.022-.184-.031-.031-.017-.106.033-.165.06-.072-.265-.794-.954-2.126l-1.044-2.018-.76-.215c-.418-.119-1.369-.394-2.112-.613a270.46 270.46 0 00-1.882-.547c-.292-.083-1.01-.296-1.593-.475-.584-.178-1.301-.387-1.593-.463a78.924 78.924 0 01-1.882-.545c-.744-.223-1.721-.509-2.172-.635-.452-.126-1.494-.429-2.317-.674-2.295-.682-3.498-1.02-3.528-.99-.015.015-.122.397-.237.848-.115.451-.425 1.603-.689 2.558a9443.423 9443.423 0 00-6.5 23.94c-1.887 6.99-3.56 13.175-4.299 15.88-.311 1.141-1.07 3.943-1.686 6.226l-1.447 5.358a29770.293 29770.293 0 01-9.076 33.545c-2.58 9.51-3.771 13.908-5.215 19.258a6319.16 6319.16 0 01-4.103 15.156 5194.52 5194.52 0 00-2.698 9.97c-.855 3.173-1.593 5.869-1.639 5.99-.144.378-2.706 2.877-3.274 3.193a.783.783 0 00-.207.157c-.084.12-1.571 1.111-2.15 1.433-.904.501-1.652.88-1.739.88-.044 0-.306.105-.582.233-.602.28-2.525.925-2.758.925a.443.443 0 00-.257.083c-.05.046-.42.138-.822.204l-.73.12-11.819-3.204c-25.744-6.981-31.445-8.524-42.13-11.403-16.335-4.402-33.974-9.182-34.018-9.22-.028-.024 3.012-11.345 5.02-18.692.113-.411.258-.748.322-.748.164 0 12.945 3.448 43.348 11.694a59861.12 59861.12 0 0033.978 9.205c.477.129.893.204.925.166.053-.065 1.575-5.663 8.925-32.842a32800.997 32800.997 0 016.706-24.76c.26-.956 1.172-4.345 2.028-7.53.857-3.186 4.012-14.85 7.012-25.92 13.913-51.34 16.082-59.376 16.039-59.42-.016-.015-3.678-1.013-8.137-2.215-4.46-1.203-9.867-2.664-12.018-3.247l-9.75-2.64-9.798-2.652c-2.176-.59-5.586-1.511-7.577-2.047-1.991-.536-3.65-1.002-3.685-1.035-.036-.033-.09-.928-.122-1.99-.031-1.062-.077-2.582-.102-3.379-.026-.796-.07-2.469-.098-3.716a455.827 455.827 0 00-.095-3.62c-.025-.743-.068-2.372-.097-3.62a231.123 231.123 0 00-.106-3.513c-.05-1.17-.043-1.24.123-1.195.67.186 15.311 4.142 22.426 6.06 4.752 1.282 11.42 3.084 14.818 4.006 3.398.922 11.174 3.027 17.28 4.679a5457.493 5457.493 0 0111.583 3.14c.406.116.633.29 1.421 1.082.918.924 1.077 1.094 1.668 1.786.691.807 2.462 3.48 2.462 3.716 0 .029.134.34.298.692.465.998.527 1.152.902 2.25.194.567.451 1.47.572 2.008l.219.977-.791 2.915c-.855 3.146-1.134 4.184-2.695 10.01-.562 2.097-1.284 4.784-1.604 5.972-.32 1.188-.557 2.224-.526 2.303.03.079.118.119.196.09.077-.03.168-.01.202.044.033.054.12.076.193.048.072-.028.158-.008.19.043.032.052.095.071.141.043.046-.028.112-.004.148.053.035.058.124.082.196.054.073-.028.16-.006.194.049.033.054.117.077.186.05.07-.026.153-.02.186.013a.484.484 0 00.203.09c.332.068.39.086.51.162.07.043.153.053.184.022.032-.031.113-.011.18.045.068.056.257.106.42.11.163.005.296.05.296.1 0 .052.072.065.161.031.089-.034.186-.021.217.029s.187.115.346.146c.16.03.68.165 1.158.298.478.134.869.24.869.237 0-.003.065.017.145.044.195.065 1.917.52 2.22.585.133.028.958.249 1.834.49 2.858.785 5.256 1.405 6.202 1.602.306.064.555.149.555.189 0 .04.087.049.194.021.106-.028.193-.011.193.037s.076.088.169.09c.434.01 4.046 1.046 4.223 1.212.9.848 1.606 1.563 1.93 1.957.213.258.433.517.49.576.087.09.803 1.06 1.464 1.986.475.665 1.666 2.954 1.666 3.202 0 .092.043.194.095.226.052.033.21.437.35.9.14.461.284.883.322.936.115.162.548 1.782.653 2.438.027.174.006.37-.047.435-.077.095-2.795 9.928-2.857 10.337a.662.662 0 01-.078.208c-.034.054-.096.271-.138.483-.095.476-.103.513-.136.603-.015.04-.036.115-.046.169-.01.053-.047.161-.08.24-.035.08-.075.233-.09.339a.982.982 0 01-.104.313c-.041.067-.05.162-.02.211.031.05.011.118-.044.151-.054.034-.073.104-.041.156.032.052.006.158-.059.235-.064.077-.084.14-.044.14.04 0 .019.064-.045.141-.064.077-.09.183-.059.235.032.051.011.123-.046.158-.058.036-.082.125-.054.197.027.073.008.158-.044.19-.051.032-.07.096-.042.141.028.046.005.113-.053.148-.058.036-.082.124-.054.197.027.072.006.16-.049.193-.054.033-.076.12-.048.193.028.073.009.158-.043.19s-.07.095-.043.141c.029.046.005.112-.053.148-.057.036-.082.124-.054.197.028.072.006.16-.048.193-.055.033-.076.12-.048.193.027.072.006.16-.049.193-.054.033-.076.12-.048.193.028.072.009.158-.043.19s-.07.095-.043.141c.029.046.005.112-.053.148-.057.036-.082.124-.054.197.028.072.006.16-.048.193-.055.033-.077.117-.05.186.026.07.018.156-.018.192a.316.316 0 00-.078.154.27.27 0 01-.037.113 1.002 1.002 0 00-.048.265c-.013.133-.135.656-.272 1.163a44.656 44.656 0 00-.3 1.158c-.102.465-.827 3.136-.89 3.278-.035.08-.072.188-.082.241a.877.877 0 01-.041.145 1.68 1.68 0 00-.057.236c-.113.603-.37 1.51-.44 1.554-.045.028-.059.11-.03.182.027.073.003.161-.055.197-.057.036-.082.101-.054.146.028.045.001.205-.06.356-.06.15-.122.362-.136.47-.029.212-.312 1.257-.404 1.493a.61.61 0 00-.037.265c.01.067-.029.12-.087.12-.06 0-.08.044-.047.097.033.053.026.15-.014.216a.701.701 0 00-.085.266c-.022.31-.376 1.546-.442 1.546-.038 0-.046.086-.018.193.028.106.006.193-.048.193-.055 0-.076.087-.049.193.028.106.004.193-.054.193-.058 0-.08.065-.05.145.031.08.006.144-.056.144s-.089.039-.06.086c.03.047-.34 1.513-.82 3.258-1.144 4.161-1.393 5.077-1.742 6.406-.16.61-.482 1.784-.716 2.606-.234.823-1.075 3.886-1.868 6.806-.794 2.92-1.772 6.51-2.175 7.976-.403 1.467-.732 2.734-.732 2.816 0 .081-.481 1.9-1.069 4.042a15595.839 15595.839 0 00-4.147 15.14 3611.034 3611.034 0 00-2.457 9.074c-.148.558-.533 1.937-.614 2.195-.054.173-.074.314-.045.314.03 0 .001.063-.063.14-.064.078-.09.184-.059.235.032.052.011.124-.046.16-.058.035-.082.125-.053.199.028.074.005.135-.052.135-.057 0-.08.064-.05.142.03.078.01.169-.044.203-.055.033-.076.12-.048.193.027.072.006.159-.049.193-.054.033-.075.122-.047.196.029.074.005.135-.052.135-.057 0-.08.064-.05.142.03.077.01.169-.044.202-.054.034-.076.12-.048.193.028.073.01.157-.038.187s-.063.118-.033.196c.03.078.003.142-.06.142-.069 0-.089.074-.051.193.036.115.017.193-.049.193-.065 0-.085.077-.048.193.038.118.017.193-.052.193-.062 0-.088.065-.058.145.03.08.011.145-.044.145-.056 0-.073.084-.04.193.038.115.018.193-.047.193-.066 0-.085.077-.048.193.037.118.017.193-.053.193-.062 0-.088.065-.057.145.03.08.01.144-.045.144-.056 0-.073.085-.039.193.037.116.018.194-.048.194-.065 0-.085.077-.048.193.037.118.017.193-.052.193-.063 0-.089.063-.06.141.03.078.016.167-.033.197-.048.03-.065.113-.037.186.028.072.006.16-.049.193-.054.034-.074.125-.044.203.03.078.001.142-.063.142s-.092.063-.063.141c.03.078.015.166-.033.196-.049.03-.066.114-.038.187.028.072.006.16-.048.193-.054.034-.074.125-.044.203.03.078.003.141-.06.141-.069 0-.09.075-.052.193.038.119.018.194-.052.194-.062 0-.088.063-.059.141.03.078.015.166-.033.196-.049.03-.066.114-.038.187.028.072.006.16-.048.193s-.076.12-.048.193c.028.072.003.161-.054.197-.058.035-.082.102-.054.147.029.046.01.11-.042.142-.052.032-.071.117-.043.19.028.072.006.16-.049.193-.054.033-.074.125-.044.203.03.077.004.141-.06.141-.068 0-.089.075-.051.193.034.109.017.193-.039.193-.055 0-.077.061-.048.135.028.075.005.165-.053.2-.058.036-.08.105-.05.155.031.05.022.144-.02.21a.742.742 0 00-.09.193.275.275 0 01-.034.097c-.01.013-.037.11-.057.217-.196 1.045-1.27 5.142-2.604 9.943-.572 2.058-1.285 4.66-5.463 19.934-2.537 9.274-4.095 15.054-4.308 15.976-.233 1.013-.871 3.41-.936 3.514-.025.04-.175.568-.334 1.175-.16.607-.461 1.733-.671 2.503-.21.77-.52 1.92-.688 2.558-.169.637-.416 1.52-.549 1.962-.133.443-.217.83-.186.86.03.03.01.11-.044.175-.054.066-.09.157-.08.202.011.046-.027.195-.084.332-.057.136-.313 1.026-.57 1.977l-.465 1.728-.918.919c-.504.505-.92.962-.923 1.015-.002.053-.056.086-.119.073-.062-.012-.242.102-.398.255-.156.153-.45.402-.65.554-.202.152-.44.348-.53.436-.089.087-.373.28-.63.43-.258.148-.494.306-.524.35-.077.11-1.454.89-2.165 1.228-.849.403-1.735.788-1.882.818-.027.006-.483.148-1.014.316-2.426.769-2.435.769-4.923.079z" fill="#9e9e9e"/><path d="M144.045 261.306c-4.942-1.366-7.29-1.993-7.53-2.01-.08-.005-.166-.034-.193-.063-.044-.049-2.733-.8-3.282-.917-.357-.076-1.667-.432-1.834-.498a1.721 1.721 0 00-.242-.076.892.892 0 01-.144-.04 2.349 2.349 0 00-.29-.067c-.386-.07-2.452-.632-2.556-.695a.66.66 0 00-.242-.07c-.317-.026-1.886-.474-1.916-.548-.018-.043-.072-.053-.12-.023-.05.03-.143.021-.208-.02a.74.74 0 00-.265-.087c-.17-.017-.948-.22-1.16-.302a1.862 1.862 0 00-.338-.084c-.27-.039-1.718-.44-1.83-.507a.93.93 0 00-.29-.079c-.109-.013-2.28-.591-4.825-1.285-2.545-.693-4.69-1.261-4.766-1.261-.14 0-1.446-.354-13.34-3.62a13677.901 13677.901 0 00-28.235-7.716 53.898 53.898 0 00-1.834-.474 48.013 48.013 0 01-2.655-.671 502.18 502.18 0 00-2.69-.726c-.817-.218-1.499-.41-1.515-.426-.017-.017.539-2.125 1.235-4.684l1.266-4.653.248.06c.263.065 23.763 6.361 58.145 15.579 16.893 4.529 20.633 5.56 20.633 5.691 0 .128.468.28 2.324.757l2.323.597 1.99-1.04 1.988-1.04.611-2.123c.336-1.168.674-2.319.75-2.558.077-.239.232-.752.344-1.14.112-.388.28-.782.373-.875.107-.106.583-1.714 1.293-4.362a925367.21 925367.21 0 0114.985-55.886c5.878-21.92 11.576-43.177 12.37-46.143.867-3.242 1.48-5.6 1.522-5.861a.386.386 0 01.08-.179c.033-.033.039-.117.012-.186-.027-.069-.004-.153.05-.187.055-.033.077-.12.049-.193-.028-.072-.006-.159.048-.193.055-.033.076-.12.049-.193-.028-.072-.004-.16.054-.196.057-.036.08-.105.049-.155-.03-.05-.022-.144.02-.21a.908.908 0 00.1-.285c.037-.237 1.126-4.507 6.167-24.195l4.482-17.505-1.039-1.987-1.038-1.987-2.124-.611c-1.168-.336-2.32-.675-2.558-.752-.239-.077-3.279-.971-6.755-1.987-3.477-1.015-6.353-1.865-6.391-1.889-.038-.023-.111.122-.163.322-.277 1.086-1.706 6.375-5.56 20.589l-6.938 25.58a9394.862 9394.862 0 00-4.215 15.59c-1.657 6.165-2.92 10.84-4.406 16.315-1.328 4.892-2.128 7.843-5.295 19.547l-3.607 13.322c-4.053 14.943-6.367 23.49-6.873 25.388l-.604 2.268-1.167 1.164c-1.887 1.88-3.372 2.971-5.433 3.988-.815.402-1.265.602-1.72.762a26.93 26.93 0 00-.916.342c-.267.113-1.876.557-2.51.692l-.627.134-6.661-1.788a12376.12 12376.12 0 01-28.67-7.754 37705.41 37705.41 0 00-50.583-13.691c-1.867-.503-2.12-.594-2.092-.753.049-.283 5.14-19.174 5.182-19.226.012-.015 5.48 1.451 12.153 3.259 6.673 1.807 15.29 4.136 19.15 5.174 8.089 2.176 18.523 5 35.141 9.509 6.441 1.748 11.766 3.178 11.831 3.178.073 0 .266-.543.489-1.376.202-.756.858-3.178 1.458-5.382.599-2.203 1.921-7.09 2.938-10.86 1.017-3.77 3.174-11.74 4.794-17.713l5.103-18.824c1.187-4.38 3.201-11.83 4.475-16.555 1.274-4.726 2.666-9.884 3.095-11.464l1.558-5.743c.429-1.58 1.583-5.848 2.565-9.485 2.175-8.055 5.218-19.287 7.661-28.284 4.076-15.004 6.66-24.609 6.66-24.75 0-.188 3.451.768-25.58-7.092-5.356-1.45-22.686-6.121-24.665-6.648-.318-.085-.629-.201-.69-.259-.075-.071-.131-.997-.175-2.904-.035-1.54-.08-3.19-.1-3.668-.02-.478-.065-2.107-.1-3.62-.035-1.514-.076-3.07-.092-3.46-.016-.389-.061-2.196-.1-4.016l-.07-3.31 1.919.524c2.369.647 15.408 4.175 22.624 6.122 2.947.795 6.162 1.665 7.144 1.933 3.581.98 6.851 1.865 13.707 3.712 8.637 2.328 20.842 5.628 21.065 5.695.091.028.593.471 1.116.986 1.214 1.197 1.765 1.818 2.242 2.53.08.118.19.264.244.324.283.311 1.004 1.472 1.446 2.327.923 1.788 1.502 3.348 1.979 5.332l.213.89-2.08 7.702a1661.767 1661.767 0 00-2.516 9.39c-.24.93-.586 2.233-.77 2.897-.182.664-.32 1.22-.303 1.236.055.058 16.264 4.46 16.433 4.462.094.002 1.404.342 2.909.756l2.737.752.835.814c.459.448 1.008 1.027 1.22 1.286.213.26.431.52.486.579.197.21 1.159 1.489 1.325 1.76l.553.904c.35.573.934 1.72 1.18 2.317.054.133.14.32.189.416.146.285.962 2.77 1.115 3.397.162.664.207 1.137.115 1.207-.058.043-.635 2.129-1.75 6.322-.212.797-.623 2.295-.915 3.33a175.755 175.755 0 00-.715 2.607c-.102.398-.315 1.18-.473 1.738-.477 1.68-1.254 4.64-1.254 4.772 0 .112-1.408 5.285-5.07 18.637a1481.968 1481.968 0 00-2.128 7.819c-.088.319-.168.623-.177.676a.73.73 0 01-.091.217c-.042.066-.05.161-.02.21.03.05.009.12-.049.155-.058.036-.082.124-.054.197.028.072.008.158-.043.19-.052.032-.071.095-.043.14.028.046.005.113-.053.149-.058.035-.082.124-.054.196.028.073.008.158-.044.19a.11.11 0 00-.035.152c.032.052.006.158-.059.235-.064.077-.084.14-.045.14.04 0 .02.064-.044.141-.064.078-.09.183-.059.235.032.052.011.123-.046.159-.058.035-.082.124-.054.196.027.073.008.158-.044.19-.051.032-.07.096-.042.142.028.045.005.112-.053.147-.058.036-.082.124-.055.197.028.073.006.16-.048.193-.054.034-.076.12-.048.193.028.073.008.158-.043.19-.052.032-.071.096-.043.141.029.046.005.113-.053.148-.058.036-.082.124-.054.197.028.073.01.156-.038.186s-.065.114-.037.187c.028.072.003.16-.054.196-.058.036-.079.107-.047.16.032.05.006.156-.058.234-.065.077-.085.14-.045.14.04 0 .02.064-.045.14-.064.078-.09.184-.058.236.032.051.01.123-.047.158-.057.036-.082.124-.054.197.028.073.008.158-.043.19-.052.032-.071.095-.043.141.029.046.01.11-.042.141-.052.032-.071.118-.043.19.027.073.003.161-.055.197-.057.036-.078.107-.046.159.032.052.006.157-.059.234-.064.078-.084.141-.044.141.04 0 .019.063-.045.14-.064.078-.09.184-.059.235.032.052.011.124-.046.16-.058.035-.082.123-.054.196.028.072.008.158-.044.19-.051.032-.07.095-.042.14.028.047.005.113-.053.149-.058.035-.082.124-.054.196.027.073.01.157-.038.187s-.065.114-.037.186c.027.073.003.161-.055.197-.057.035-.081.102-.053.148.028.046.011.108-.037.138-.05.03-.067.142-.04.248.029.106.007.193-.047.193-.055 0-.076.087-.049.193.03.112.003.193-.063.193-.062 0-.089.039-.06.086.03.048-.015.276-.098.507a5.838 5.838 0 00-.197.654c-.05.26-.83 3.166-1.052 3.918-.078.265-.182.7-.232.966-.111.598-.67 2.684-3.014 11.245-4.358 15.92-5.475 20.008-6.702 24.52-.715 2.627-1.495 5.477-1.732 6.331-.238.855-.433 1.624-.433 1.708 0 .135-.824 3.188-3.12 11.556-.343 1.248-.914 3.355-1.27 4.682a652.72 652.72 0 01-.982 3.62 39.763 39.763 0 00-.381 1.448 12.53 12.53 0 01-.15.627c-.056.213-.094.387-.085.387.01 0-.033.13-.095.29-.062.158-.133.396-.158.527a.954.954 0 01-.144.358c-.054.065-.073.162-.04.213a.11.11 0 01-.037.152c-.051.032-.07.118-.043.19.028.073.006.16-.048.194-.054.033-.074.124-.045.202.03.078.009.142-.046.142s-.1.076-.1.169c.003.31-.127.844-.219.9-.05.031-.062.13-.028.218.034.089.015.161-.042.161s-.08.06-.052.135c.028.074.007.163-.047.196-.055.034-.075.125-.045.203.03.078.004.142-.059.142-.07 0-.09.075-.052.193.038.118.017.193-.052.193-.062 0-.088.065-.057.146.03.08.007.264-.054.41-.06.145-.1.302-.09.347.01.045-.026.136-.08.202-.055.066-.077.142-.05.17.028.027 0 .175-.064.328-.063.154-.106.334-.095.4.01.066-.021.12-.072.12-.05 0-.069.087-.041.194.028.106.003.193-.054.193-.058 0-.082.06-.053.135.028.074.007.162-.047.196-.055.034-.077.12-.049.193.028.073.004.161-.054.197-.057.035-.082.101-.054.146.028.045.001.205-.06.355-.06.15-.122.36-.136.467-.015.106-.207.845-.427 1.641-1.25 4.513-2.996 10.978-2.996 11.09 0 .071-.874 3.318-1.941 7.214a6765.948 6765.948 0 00-2.386 8.725c-.245.903-.501 1.699-.57 1.769-.067.07-.123.17-.123.223 0 .052-.043.068-.096.035-.054-.032-.097-.02-.097.029 0 .105-.445.599-.54.599-.087 0-.425.394-.425.497 0 .045-.045.082-.1.082-.055 0-.252.152-.438.338-.185.186-.36.338-.386.338-.026 0-.2.152-.386.338-.186.185-.37.338-.408.338-.039 0-.244.15-.455.336a3.945 3.945 0 01-.696.485c-.17.083-.345.203-.386.268-.042.065-.206.181-.365.26-.16.077-.519.283-.799.458-.28.174-.534.316-.565.316-.032 0-.367.148-.747.328-.939.447-1.39.643-1.585.69-.091.02-.426.129-.745.239-1.117.387-2.35.674-2.862.666-.345-.006-2.068-.438-5.198-1.303z" fill="#049acf"/><path d="M144.045 261.306c-4.942-1.366-7.29-1.993-7.53-2.01-.08-.005-.166-.034-.193-.063-.044-.049-2.733-.8-3.282-.917-.357-.076-1.667-.432-1.834-.498a1.721 1.721 0 00-.242-.076.892.892 0 01-.144-.04 2.349 2.349 0 00-.29-.067c-.386-.07-2.452-.632-2.556-.695a.66.66 0 00-.242-.07c-.317-.026-1.886-.474-1.916-.548-.018-.043-.072-.053-.12-.023-.05.03-.143.021-.208-.02a.74.74 0 00-.265-.087c-.17-.017-.948-.22-1.16-.302a1.862 1.862 0 00-.338-.084c-.27-.039-1.718-.44-1.83-.507a.93.93 0 00-.29-.079c-.109-.013-2.28-.591-4.825-1.285-2.545-.693-4.69-1.261-4.766-1.261-.14 0-1.446-.354-13.34-3.62a13677.901 13677.901 0 00-28.235-7.716 53.898 53.898 0 00-1.834-.474 48.013 48.013 0 01-2.655-.671 502.18 502.18 0 00-2.69-.726c-.817-.218-1.499-.41-1.515-.426-.017-.017.539-2.125 1.235-4.684l1.266-4.653.248.06c.263.065 23.763 6.361 58.145 15.579 16.893 4.529 20.633 5.56 20.633 5.691 0 .128.468.28 2.324.757l2.323.597 1.99-1.04 1.988-1.04.611-2.123c.336-1.168.674-2.319.75-2.558.077-.239.232-.752.344-1.14.112-.388.28-.782.373-.875.107-.106.583-1.714 1.293-4.362a925367.21 925367.21 0 0114.985-55.886c5.878-21.92 11.576-43.177 12.37-46.143.867-3.242 1.48-5.6 1.522-5.861a.386.386 0 01.08-.179c.033-.033.039-.117.012-.186-.027-.069-.004-.153.05-.187.055-.033.077-.12.049-.193-.028-.072-.006-.159.048-.193.055-.033.076-.12.049-.193-.028-.072-.004-.16.054-.196.057-.036.08-.105.049-.155-.03-.05-.022-.144.02-.21a.908.908 0 00.1-.285c.037-.237 1.126-4.507 6.167-24.195l4.482-17.505-1.039-1.987-1.038-1.987-2.124-.611c-1.168-.336-2.32-.675-2.558-.752-.239-.077-3.28-.97-6.757-1.986-3.478-1.015-6.355-1.876-6.394-1.914-.04-.037.27-1.326.688-2.864.87-3.202 1.71-6.338 1.804-6.737.057-.237.098-.265.318-.21.14.034 3.825 1.036 8.19 2.227 4.364 1.19 8.013 2.167 8.108 2.168.095.002 1.405.342 2.91.756l2.737.752.835.814c.459.448 1.008 1.027 1.22 1.286.213.26.431.52.486.578.197.211 1.159 1.49 1.325 1.76l.553.905c.35.573.934 1.72 1.18 2.317.054.132.14.32.189.416.146.285.962 2.77 1.115 3.397.162.664.207 1.136.115 1.206-.058.044-.635 2.13-1.75 6.323-.212.797-.623 2.295-.915 3.33a175.755 175.755 0 00-.715 2.607c-.102.398-.315 1.18-.473 1.738-.477 1.68-1.254 4.64-1.254 4.772 0 .112-1.408 5.285-5.07 18.637a1481.968 1481.968 0 00-2.128 7.819c-.088.318-.168.622-.177.676a.73.73 0 01-.091.217c-.041.066-.05.16-.02.21.03.05.009.12-.049.155s-.082.124-.054.197c.028.072.008.158-.043.19-.052.031-.071.095-.043.14.028.046.005.113-.053.149-.058.035-.082.124-.054.196.028.073.008.158-.044.19a.11.11 0 00-.035.152c.032.052.006.158-.059.235-.064.077-.084.14-.045.14.04 0 .02.064-.044.141-.064.077-.09.183-.059.235.032.051.011.123-.046.159-.058.035-.082.124-.054.196.027.073.008.158-.044.19-.051.032-.07.096-.042.141.028.046.005.113-.053.148-.058.036-.082.124-.055.197.028.073.006.16-.048.193-.054.034-.076.12-.048.193.028.073.008.158-.043.19-.052.032-.071.096-.043.141.029.046.005.113-.053.148-.058.036-.082.124-.054.197.028.072.01.156-.038.186s-.065.114-.037.187c.028.072.003.16-.054.196-.058.036-.079.107-.047.159.032.052.006.157-.058.235-.065.077-.085.14-.045.14.04 0 .02.064-.045.14-.064.078-.09.184-.058.235.032.052.01.124-.047.16-.057.035-.082.123-.054.196.028.073.008.158-.043.19-.052.032-.071.095-.043.141.029.046.01.11-.042.141-.052.032-.071.118-.043.19.027.073.003.161-.055.197-.057.036-.078.107-.046.159.032.051.006.157-.059.234-.064.078-.084.141-.044.141.04 0 .019.063-.045.14-.064.078-.09.183-.059.235.032.052.011.123-.046.159-.058.036-.082.124-.054.197.028.072.008.158-.044.19-.051.031-.07.095-.042.14.028.047.005.113-.053.149-.058.035-.082.124-.054.196.027.073.01.157-.038.187s-.065.114-.037.186c.027.073.003.161-.055.197-.057.035-.081.102-.053.148.028.046.011.108-.037.138-.05.03-.067.142-.04.248.029.106.007.193-.047.193-.055 0-.076.087-.048.193.029.112.002.193-.063.193-.063 0-.09.039-.06.086.029.048-.016.276-.1.507a5.838 5.838 0 00-.196.654c-.05.26-.83 3.166-1.052 3.917-.078.266-.182.7-.232.967-.111.597-.67 2.683-3.014 11.245-4.358 15.92-5.475 20.008-6.702 24.519-.715 2.628-1.495 5.478-1.732 6.332-.238.855-.433 1.624-.433 1.708 0 .135-.824 3.188-3.12 11.556-.343 1.248-.914 3.355-1.27 4.682a652.72 652.72 0 01-.982 3.62 39.763 39.763 0 00-.381 1.448 12.53 12.53 0 01-.15.627c-.056.213-.094.386-.085.386.01 0-.033.13-.095.29-.062.16-.133.397-.158.528a.954.954 0 01-.144.358c-.054.065-.073.162-.04.213a.11.11 0 01-.037.152c-.051.032-.07.118-.043.19.028.073.006.16-.048.193-.054.034-.074.125-.044.203.03.078.008.142-.047.142s-.1.076-.1.169c.003.31-.127.844-.219.9-.05.031-.062.13-.028.218.034.089.015.161-.042.161s-.08.06-.052.135c.028.074.007.163-.047.196-.055.034-.075.125-.045.203.03.078.004.142-.059.142-.07 0-.09.074-.052.193.038.118.017.193-.052.193-.062 0-.088.065-.057.145.03.08.007.265-.054.41-.06.146-.1.303-.09.348.01.045-.026.136-.08.202-.055.066-.077.142-.05.17.028.027 0 .175-.064.328-.063.154-.106.334-.095.4.01.066-.021.12-.072.12-.05 0-.069.087-.041.194.028.106.003.193-.054.193-.058 0-.082.06-.053.135.028.074.007.162-.047.196-.055.034-.077.12-.049.193.028.072.004.161-.054.197-.057.035-.082.101-.054.146.028.045.001.205-.06.355-.06.15-.122.36-.136.467-.015.106-.207.845-.427 1.641-1.25 4.513-2.996 10.978-2.996 11.09 0 .071-.874 3.318-1.941 7.214a6765.948 6765.948 0 00-2.386 8.725c-.245.903-.501 1.699-.57 1.769-.067.07-.123.17-.123.223 0 .052-.043.068-.096.035-.054-.033-.097-.02-.097.029 0 .105-.445.599-.539.599-.088 0-.426.394-.426.497 0 .045-.045.082-.1.082-.055 0-.252.152-.438.338-.185.186-.36.338-.386.338-.026 0-.2.152-.386.338-.186.185-.37.337-.408.337-.039 0-.244.152-.455.336a3.945 3.945 0 01-.696.486c-.17.083-.345.203-.386.268-.042.064-.206.181-.365.26-.16.077-.519.283-.799.458-.28.174-.534.316-.565.316-.032 0-.367.148-.746.328-.94.447-1.39.643-1.586.69-.091.02-.426.129-.745.239-1.117.387-2.35.674-2.862.665-.345-.006-2.068-.437-5.198-1.302z" fill="#5f5f5f"/><path d="M145.975 261.83a303.78 303.78 0 00-3.668-1.009c-.504-.13-1.2-.322-1.544-.424a112.08 112.08 0 00-1.883-.527c-.69-.187-3.492-.952-6.226-1.7-15.583-4.26-19.833-5.405-21.527-5.795-.504-.117-1.004-.248-1.11-.292a3.005 3.005 0 00-.483-.136c-.33-.063-.557-.117-.627-.15a.834.834 0 00-.145-.04 1.574 1.574 0 01-.241-.08 2.182 2.182 0 00-.386-.105 2.266 2.266 0 01-.29-.064.847.847 0 00-.145-.04 1.574 1.574 0 01-.241-.081 1.641 1.641 0 00-.338-.09.996.996 0 01-.32-.108c-.07-.043-.153-.053-.184-.022-.032.032-.117.009-.19-.052-.072-.06-.159-.082-.192-.048-.034.033-.12.012-.191-.047-.071-.059-.13-.075-.13-.035 0 .04-.06.021-.134-.04-.074-.061-.172-.103-.217-.093-.046.011-.206-.031-.357-.093-.15-.063-.31-.09-.355-.063-.045.028-.11.005-.145-.051-.034-.056-.146-.076-.248-.044-.11.036-.185.014-.185-.054 0-.063-.065-.089-.145-.058-.08.03-.144.01-.144-.045 0-.056-.085-.073-.193-.038-.119.037-.193.017-.193-.052 0-.063-.06-.09-.133-.063-.074.028-.171.015-.218-.03-.046-.044-.214-.102-.373-.127a3.321 3.321 0 01-.564-.154c-.15-.058-.31-.084-.355-.056-.045.028-.11.004-.146-.054-.036-.058-.126-.082-.2-.053-.074.028-.135.007-.135-.046 0-.054-.054-.09-.12-.078a.606.606 0 01-.266-.038c-.26-.102-1.292-.376-1.542-.41a1.47 1.47 0 01-.268-.051.29.29 0 00-.097-.033.73.73 0 01-.193-.09c-.066-.042-.161-.051-.21-.02-.05.03-.12.008-.155-.05-.036-.058-.124-.082-.197-.054-.072.028-.154.014-.182-.031-.043-.07-.951-.327-1.554-.44a1.68 1.68 0 01-.236-.057.832.832 0 00-.145-.04 1.766 1.766 0 01-.241-.077c-.126-.05-2.178-.603-2.598-.7-.686-.158-2.09-.577-2.113-.632-.015-.037-.113-.045-.217-.018-.103.027-.188.01-.188-.038s-.076-.09-.17-.093c-.25-.01-1.284-.286-10.787-2.887-9.844-2.694-10.01-2.74-11.197-3.033-2.18-.539-3.87-.997-3.967-1.075-.058-.047-.131-.06-.163-.028-.031.031-.113.022-.182-.02a.745.745 0 00-.272-.092c-.172-.015-1.626-.408-1.836-.496a1.496 1.496 0 00-.458-.112c-.14-.017-.089-.642.068-.83.055-.066.071-.147.038-.18-.034-.035-.012-.121.048-.194.06-.072.082-.16.048-.193-.033-.034-.006-.127.061-.208.067-.081.09-.147.05-.147-.04 0-.023-.059.036-.13.06-.071.08-.157.046-.19-.033-.034-.012-.121.049-.194.06-.072.087-.154.059-.182-.028-.027.002-.175.065-.329.063-.153.106-.316.095-.361-.01-.046.026-.137.08-.202.055-.066.074-.145.043-.177-.032-.031-.022-.114.022-.184a.997.997 0 00.107-.32c.016-.106.055-.258.089-.338.033-.08.07-.21.08-.29.029-.195.238-.978.31-1.158.033-.08.075-.232.095-.338.02-.106.22-.87.444-1.699l.408-1.506 3.185.851c1.752.468 19.515 5.229 39.473 10.58 29.256 7.843 36.296 9.76 36.33 9.895.027.1.178.192.373.229.18.034.352.1.382.149.03.048.094.062.144.031.05-.03.142-.023.206.017s.215.082.336.095c.12.013.9.206 1.733.43l1.515.407 1.939-.993c1.066-.546 1.986-1.04 2.045-1.1.09-.09.504-1.448 1.145-3.754.086-.307.13-.6.098-.651-.032-.052-.014-.094.04-.094s.19-.315.302-.7c.361-1.246.495-1.619.566-1.575.039.024.147-.247.24-.602.26-.987 5.398-20.162 11.982-44.713a283210.082 283210.082 0 008.93-33.304c7.43-27.71 9.132-34.11 10.563-39.723.879-3.45 1.901-7.447 2.272-8.88 1.226-4.745 2.14-8.396 2.158-8.616.01-.12.055-.217.101-.218.046 0 .061-.086.033-.193-.028-.106-.006-.193.048-.193.055 0 .077-.085.05-.188-.027-.104-.015-.202.027-.217.042-.016.1-.181.128-.367.028-.186.079-.446.112-.58.033-.132.084-.37.112-.53.028-.16.086-.303.129-.318.042-.016.055-.114.028-.218-.028-.108-.001-.188.064-.188.063 0 .09-.037.062-.083-.028-.046.103-.643.292-1.327.188-.685.353-1.333.365-1.442a.937.937 0 01.099-.32c.042-.068.05-.149.019-.18-.032-.032-.009-.116.05-.187.06-.071.075-.13.036-.13-.04 0-.02-.063.044-.14.065-.077.09-.183.059-.235-.032-.051-.01-.123.046-.158.058-.036.082-.124.055-.197-.028-.073-.011-.156.037-.186.049-.03.065-.114.038-.187-.028-.072-.006-.16.048-.193s.076-.12.048-.193c-.028-.072-.006-.16.048-.193.055-.034.075-.125.045-.203-.03-.078-.001-.141.063-.141s.092-.064.063-.14c-.03-.078.035-.458.142-.845.16-.574.427-1.59.813-3.094.043-.166.076-.317.198-.893.034-.16.087-.332.118-.384a.713.713 0 00.071-.242c.02-.185.321-1.354.4-1.546a1.63 1.63 0 00.077-.241.924.924 0 01.04-.145c.012-.027.037-.167.056-.311.02-.145.218-.945.442-1.778l.406-1.515-.992-1.939c-.546-1.066-1.04-1.986-1.1-2.044-.091-.09-1.449-.505-3.754-1.146-.307-.085-.597-.132-.644-.103-.046.03-.1.007-.118-.048-.038-.114-1.91-.687-2.02-.619a.07.07 0 01-.103-.03c-.026-.062-.82-.306-2.446-.754-.329-.09-.381-.108-.53-.17a2.343 2.343 0 00-.387-.103 5.346 5.346 0 01-.661-.195c-.232-.084-.457-.13-.5-.103-.044.027-.11.002-.145-.055-.035-.058-.125-.082-.2-.053-.074.028-.135.02-.135-.02 0-.039-.401-.174-.893-.3-.49-.126-.94-.266-.998-.311-.058-.045-.133-.054-.166-.02-.034.033-.117.015-.185-.041a.528.528 0 00-.195-.11.822.822 0 01-.097-.016c-.031-.01-.265-.067-.506-.124a4.503 4.503 0 01-.472-.153c-.154-.059-.302-.085-.33-.057-.027.027-.108.001-.179-.058-.071-.059-.13-.075-.13-.035 0 .04-.06.021-.134-.04-.074-.062-.172-.103-.217-.093-.046.01-.192-.026-.324-.081a6.525 6.525 0 00-.797-.224c-.305-.068-.555-.17-.555-.226 0-.056.592-2.281 1.314-4.945l1.314-4.844.979.266c6.127 1.667 12.732 3.466 13.817 3.762.744.203 1.527.395 1.742.427.215.031.997.227 1.738.436.74.209 1.903.535 2.582.725l1.235.345.686.677c.377.373.722.677.768.677.045 0 .082.055.082.122s.087.176.193.242c.106.066.193.162.193.213 0 .05.12.22.266.377.586.628.7.766.7.847 0 .046.086.138.193.204.106.066.193.18.193.254 0 .074.065.159.145.19.08.03.144.122.144.203 0 .081.044.148.097.148.053 0 .096.076.096.17 0 .093.078.218.173.277.095.06.322.407.506.772.183.365.384.717.447.783.062.066.142.247.176.403.034.157.12.332.189.39.07.057.182.31.25.561.067.251.181.525.253.61.072.083.13.224.13.313s.036.161.08.161c.045 0 .081.064.081.142 0 .23.353 1.35.446 1.414.047.032.083.086.08.12-.019.188.123.641.2.641.05 0 .065.04.035.088-.072.117.134 1.07.231 1.07.108 0 0 .493-.163.744-.076.117-.112.256-.08.307a.113.113 0 01-.04.155c-.054.033-.098.203-.098.377s-.03.346-.067.383a.426.426 0 00-.09.185c-.014.065-.051.227-.084.36l-.095.385c-.02.08-.043.167-.053.193-.01.027-.03.092-.041.145a.996.996 0 01-.045.145 3.04 3.04 0 00-.126.555c-.006.066-.05.12-.097.12-.048 0-.06.084-.028.186.032.101.015.211-.038.244s-.073.119-.045.192c.028.072.003.16-.054.196-.058.036-.082.102-.054.148.029.046.01.11-.042.141-.052.032-.071.118-.043.19.028.073.006.16-.049.193-.054.034-.076.12-.048.193.028.073.004.161-.054.197-.058.036-.08.105-.05.155.031.05.007.09-.052.09-.065 0-.084.077-.048.193.037.115.017.193-.048.193-.064 0-.085.077-.05.185.031.101.014.211-.038.244-.053.033-.074.119-.046.191.028.073.004.161-.054.197-.058.036-.082.102-.053.148.028.046.01.11-.043.141-.051.032-.07.118-.043.19.028.073.006.16-.048.193-.055.034-.076.12-.049.193.028.073.004.161-.054.197-.057.036-.081.102-.053.148.028.046.01.11-.042.141-.052.032-.071.117-.044.19.028.073.004.161-.054.197-.057.035-.078.107-.046.158.032.052.006.158-.059.235-.064.077-.084.14-.045.14.04 0 .024.059-.035.13-.06.071-.08.157-.046.19.033.035.006.128-.061.21-.068.08-.09.146-.05.146.039 0 .016.067-.05.148-.068.08-.095.174-.062.208.034.033.013.12-.046.19-.06.072-.075.13-.036.13.04 0 .02.063-.044.14-.065.078-.091.184-.059.235.032.052.01.124-.047.16-.057.035-.082.12-.056.19.027.069.02.152-.012.186a.55.55 0 00-.094.226 3.566 3.566 0 01-.13.504.982.982 0 00-.044.145c-.012.053-.03.118-.04.145-.01.026-.035.113-.055.193a169 169 0 01-.19.772.435.435 0 01-.05.145c-.008 0-.03.065-.05.145l-.093.386a25.21 25.21 0 00-.102.434c-.023.106-.175.671-.337 1.255-.163.584-.31 1.127-.33 1.207-.232.99-.682 2.704-1.852 7.047-.765 2.84-1.453 5.381-1.53 5.647-.447 1.546-2.269 8.212-3.43 12.549-.198.743-.501 1.851-.672 2.462-.572 2.045-.95 3.416-1.345 4.874l-.784 2.896c-.216.797-.52 1.926-.676 2.51a375.13 375.13 0 01-.47 1.738l-.917 3.342c-.403 1.467-.733 2.73-.733 2.808 0 .078-.331 1.354-.737 2.836-.405 1.482-.744 2.76-.753 2.84a.77.77 0 01-.093.273c-.042.069-.051.15-.02.182.031.032.018.105-.03.163-.08.096-.392 1.16-.442 1.505-.012.08-.072.27-.134.423-.062.154-.09.302-.063.33.028.027.001.109-.059.181-.06.073-.082.16-.048.194.033.033.022.108-.026.166-.085.102-.406 1.212-.436 1.507a.767.767 0 01-.093.272c-.043.069-.052.15-.02.182.031.032.017.105-.03.163-.076.09-.415 1.295-.523 1.853-.02.1-.062.248-.095.328-.033.08-.086.275-.117.434-.087.449-.094.474-.179.61-.043.07-.053.153-.022.184.032.031.02.104-.025.163-.07.09-.18.474-.36 1.24-.021.092-.06.244-.085.337l-.385 1.424c-.187.69-.368 1.32-.403 1.4-.035.08-.073.188-.083.24a.888.888 0 01-.04.146c-.013.026-.041.157-.065.29-.023.132-.069.306-.102.385-.033.08-.075.26-.093.399a2.58 2.58 0 01-.148.53c-.063.153-.105.315-.095.36.01.046-.026.137-.08.203-.054.065-.072.147-.038.18.034.034.006.128-.06.209-.068.08-.09.147-.051.147.04 0 .023.058-.036.13-.059.07-.08.156-.046.19s.012.12-.048.193c-.06.072-.087.154-.06.182.028.028 0 .176-.064.329-.063.153-.107.33-.097.392a.185.185 0 01-.077.172c-.052.032-.072.118-.044.19.028.073.004.162-.054.197-.058.036-.081.103-.053.148.028.046.01.11-.043.142-.051.031-.07.117-.043.19.028.072.006.159-.048.193-.054.033-.076.12-.048.193.028.072.003.16-.054.196-.058.036-.082.102-.055.147.028.045 0 .205-.062.355s-.104.31-.094.356c.011.046-.031.143-.093.217-.061.075-.076.135-.032.135s.03.049-.029.108c-.06.06-.087.164-.06.232.025.068.002.15-.052.184-.055.034-.076.12-.049.193.028.073.006.16-.048.194-.054.033-.076.12-.048.193.028.072.006.159-.048.193-.055.033-.075.125-.045.202.03.078.004.142-.058.142s-.089.038-.06.085c.046.075-.146.878-.303 1.267a.491.491 0 00-.04.227c.011.045-.025.136-.08.202-.054.066-.076.142-.049.17.028.027-.058.392-.19.811a44.658 44.658 0 00-.48 1.679c-.133.504-.372 1.395-.532 1.979l-.831 3.04c-.605 2.21-.954 3.527-1.406 5.31-.41 1.613-2.7 10.071-4.833 17.858-1.497 5.46-3.315 12.104-5.335 19.5a876.161 876.161 0 00-.838 3.089c-.164.61-.356 1.305-.427 1.544-.07.24-.243.89-.382 1.448-.14.558-.294 1.122-.343 1.255a2.818 2.818 0 00-.12.583c-.018.188-.065.394-.105.458-.04.065-.047.158-.017.207.03.05.009.12-.049.155-.058.036-.082.124-.054.197.028.072.006.16-.048.193-.055.033-.077.119-.05.19.027.07.01.142-.04.159-.049.016-.106.16-.126.32-.02.159-.088.415-.15.568-.061.154-.089.302-.061.33.027.027.006.103-.05.169-.054.065-.09.156-.08.202.011.045-.03.201-.09.347-.06.145-.084.33-.053.41.03.08.003.146-.062.146-.064 0-.092.063-.063.141.03.078.01.17-.044.203-.054.034-.076.122-.047.196.028.075.005.135-.052.135-.058 0-.076.073-.042.162.034.088.02.187-.032.219-.051.031-.108.165-.126.297a1.14 1.14 0 01-.113.367c-.043.07-.054.152-.022.184.031.031.014.108-.038.171-.052.063-.109.243-.126.4-.017.156-.064.337-.103.4-.04.065-.045.16-.012.214.032.053.017.096-.034.096-.052 0-.128.185-.17.41-.09.5-.066.404-.258 1.022-.088.284-.154.544-.147.58.007.035-.038.187-.1.337-.062.15-.09.31-.063.356.028.045.011.106-.036.135-.048.03-.121.218-.162.417a12.288 12.288 0 01-.17.725 5.874 5.874 0 01-.093.314 5.217 5.217 0 00-.12.483 3.197 3.197 0 01-.168.627c-.03.08-.132.46-.227.845-.094.385-.202.7-.24.7-.036 0-.06.054-.053.12.024.218-.461 2.003-.544 2.003-.045 0-.06.034-.035.076.026.042.003.285-.052.542-.104.487-.325.83-.535.83-.068 0-.113.034-.1.075.028.083-.358.601-.447.601-.116 0-.445.337-.445.456 0 .068-.087.123-.194.123-.106 0-.182.033-.17.073.028.088-.481.603-.596.603-.045 0-.107.065-.137.145-.03.08-.12.145-.197.145-.078 0-.169.087-.203.193-.033.106-.11.193-.17.193-.059 0-.356.195-.66.434-.304.24-.598.435-.652.435-.055 0-.156.076-.226.168-.07.093-.256.233-.415.311-.16.078-.519.285-.799.459-.28.174-.534.316-.565.316-.032 0-.39.158-.795.35-.406.193-.824.384-.93.426-.297.117-.574.22-.628.234-.026.007-.417.135-.869.284-1.37.453-2.146.633-2.703.627-.356-.004-1.436-.26-3.282-.777z"/></g></svg>