<?xml version="1.0" encoding="UTF-8" standalone="no"?>
<!-- Created with Inkscape (http://www.inkscape.org/) -->

<svg
   xmlns:dc="http://purl.org/dc/elements/1.1/"
   xmlns:cc="http://creativecommons.org/ns#"
   xmlns:rdf="http://www.w3.org/1999/02/22-rdf-syntax-ns#"
   xmlns:svg="http://www.w3.org/2000/svg"
   xmlns="http://www.w3.org/2000/svg"
   xmlns:sodipodi="http://sodipodi.sourceforge.net/DTD/sodipodi-0.dtd"
   xmlns:inkscape="http://www.inkscape.org/namespaces/inkscape"
   viewBox="0 0 132.29166 132.29167"
   version="1.1"
   id="svg8"
   inkscape:version="0.92.5 (2060ec1f9f, 2020-04-08)"
   sodipodi:docname="greenmpants.svg">
  <defs
     id="defs2" />
  <sodipodi:namedview
     id="base"
     pagecolor="#ffffff"
     bordercolor="#666666"
     borderopacity="1.0"
     inkscape:pageopacity="0.0"
     inkscape:pageshadow="2"
     inkscape:zoom="0.49497475"
     inkscape:cx="769.54025"
     inkscape:cy="205.27669"
     inkscape:document-units="mm"
     inkscape:current-layer="g1631"
     showgrid="false"
     units="px"
     inkscape:window-width="1366"
     inkscape:window-height="731"
     inkscape:window-x="0"
     inkscape:window-y="0"
     inkscape:window-maximized="1" />
  <metadata
     id="metadata5">
    <rdf:RDF>
      <cc:Work
         rdf:about="">
        <dc:format>image/svg+xml</dc:format>
        <dc:type
           rdf:resource="http://purl.org/dc/dcmitype/StillImage" />
        <dc:title></dc:title>
      </cc:Work>
    </rdf:RDF>
  </metadata>
  <g
     inkscape:label="Layer 1"
     inkscape:groupmode="layer"
     id="layer1"
     transform="translate(0,-164.70832)">
    <g
       id="g1631"
       transform="translate(82.39881,8.3154762)">
      <g
         id="g1708"
         transform="matrix(6.6908894,0,0,6.6908894,-431.06994,-1383.9183)">
        <g
           id="g1694">
          <g
             id="g1681">
            <g
               id="g1669">
              <g
                 id="g1658">
                <path
                   inkscape:connector-curvature="0"
                   id="path1645"
                   d="m 60.127202,248.20308 c -0.09701,-0.0185 -0.311327,-0.0568 -0.47625,-0.0851 -0.535833,-0.0919 -0.80837,-0.13914 -0.970139,-0.16801 -0.08731,-0.0156 -0.293688,-0.0517 -0.458611,-0.0802 -0.164924,-0.0285 -0.43083,-0.0749 -0.590903,-0.10293 -0.160073,-0.0281 -0.437885,-0.076 -0.617361,-0.10659 -0.179476,-0.0305 -0.429507,-0.0745 -0.555625,-0.0976 -0.126118,-0.0232 -0.253118,-0.0457 -0.282222,-0.05 -0.06473,-0.01 -0.80594,-0.13838 -1.084792,-0.18834 -0.111566,-0.02 -0.389077,-0.0679 -0.61669,-0.10658 -0.227614,-0.0386 -0.426051,-0.074 -0.440973,-0.0787 -0.01492,-0.005 -0.08269,-0.0165 -0.150601,-0.0264 -0.06791,-0.01 -0.190941,-0.0302 -0.273403,-0.0452 -0.08246,-0.0149 -0.288836,-0.0507 -0.458611,-0.0796 -0.399968,-0.0679 -0.395764,-0.0661 -0.381964,-0.17183 0.01312,-0.1006 0.0426,-0.2618 0.12645,-0.69162 0.03501,-0.17947 0.08385,-0.43744 0.108533,-0.57326 0.09249,-0.50902 0.162359,-0.84264 0.180199,-0.86049 0.01281,-0.0128 0.06568,-0.009 0.173402,0.0121 0.08524,0.0168 0.169304,0.0333 0.186814,0.0368 0.04276,0.008 0.05033,-0.0151 0.134096,-0.41685 0.03915,-0.18776 0.09935,-0.46838 0.133778,-0.62361 0.06236,-0.28115 0.173527,-0.79178 0.238094,-1.09361 0.01868,-0.0873 0.07441,-0.34131 0.12385,-0.56444 0.04944,-0.22313 0.100941,-0.46126 0.114447,-0.52917 0.01351,-0.0679 0.0376,-0.17903 0.05355,-0.24694 0.01595,-0.0679 0.04775,-0.21079 0.07068,-0.3175 0.05002,-0.23286 0.128566,-0.59264 0.192534,-0.88195 0.02574,-0.11641 0.05354,-0.24738 0.06178,-0.29104 0.0082,-0.0437 0.04403,-0.21034 0.07954,-0.37042 0.03551,-0.16007 0.08334,-0.37835 0.106287,-0.48507 0.0696,-0.32364 0.14523,-0.67082 0.22095,-1.01423 0.03957,-0.17948 0.0951,-0.43348 0.123384,-0.56445 0.02829,-0.13096 0.05532,-0.254 0.06006,-0.2734 0.0047,-0.0194 0.02522,-0.11465 0.04549,-0.21167 0.02027,-0.097 0.05199,-0.24385 0.07049,-0.32631 0.04554,-0.20304 0.225099,-1.03398 0.293493,-1.3582 0.01535,-0.0728 0.04244,-0.19579 0.0602,-0.2734 0.01776,-0.0776 0.04504,-0.20064 0.06061,-0.2734 0.01557,-0.0728 0.03984,-0.17992 0.05392,-0.23813 0.03143,-0.12991 0.117369,-0.5376 0.120479,-0.57152 0.0015,-0.016 -0.03056,-0.0323 -0.09108,-0.0462 -0.05134,-0.0118 -0.104549,-0.0364 -0.118242,-0.0547 -0.04068,-0.0543 -0.04663,-0.14988 -0.04085,-0.65658 l 0.0055,-0.48224 0.04164,-0.0337 c 0.0377,-0.0305 0.07315,-0.0337 0.374827,-0.0337 h 0.333184 l 2.7e-4,-0.0485 c 5.44e-4,-0.0976 0.01127,-0.10131 0.294576,-0.1027 0.325734,-0.002 0.346319,0.003 0.357793,0.0819 l 0.0088,0.0605 h 0.696736 0.696736 l 0.0055,-0.0529 c 0.0093,-0.0896 0.03598,-0.097 0.347271,-0.097 0.31129,0 0.337949,0.007 0.34727,0.097 l 0.0055,0.0529 h 0.687194 0.687193 l 0.01219,-0.0596 c 0.0067,-0.0328 0.02291,-0.0664 0.036,-0.0747 0.0131,-0.008 0.14334,-0.0152 0.289432,-0.0154 0.29135,-3e-4 0.319352,0.008 0.328593,0.0967 l 0.0055,0.0529 h 0.714375 0.714375 l 0.0055,-0.0573 c 0.0034,-0.0357 0.01908,-0.0646 0.04142,-0.0765 0.03923,-0.021 0.567195,-0.0165 0.588657,0.005 0.0068,0.007 0.01766,0.0385 0.02421,0.0706 l 0.01191,0.0582 h 0.687194 0.687193 l 0.0056,-0.0582 c 0.0039,-0.0408 0.01711,-0.0624 0.0441,-0.0722 0.06094,-0.0222 0.568942,-0.0248 0.609452,-0.003 0.02181,0.0117 0.03748,0.0409 0.04089,0.0762 l 0.0055,0.0573 h 0.696736 0.696736 l 0.0055,-0.0573 c 0.0031,-0.0318 0.01876,-0.0639 0.03528,-0.0721 0.03552,-0.0177 0.577032,-0.0171 0.594769,6.3e-4 0.0068,0.007 0.01768,0.0385 0.02421,0.0706 l 0.01188,0.0582 0.346305,0.009 c 0.33643,0.009 0.347602,0.01 0.391772,0.0516 l 0.04547,0.0428 v 0.50933 c 0,0.54689 -0.0054,0.58378 -0.0911,0.62624 -0.02266,0.0112 -0.06777,0.0256 -0.100254,0.032 l -0.05906,0.0116 0.01189,0.082 c 0.0065,0.0451 0.02286,0.12962 0.03626,0.18783 0.03387,0.1471 0.187983,0.85644 0.264424,1.21708 0.03496,0.16493 0.09035,0.41893 0.123099,0.56445 0.03275,0.14552 0.07998,0.35983 0.104949,0.47625 0.02497,0.11642 0.06982,0.32279 0.09965,0.45861 0.02983,0.13582 0.06848,0.31441 0.0859,0.39687 0.04264,0.20193 0.134137,0.61966 0.185443,0.84667 0.02302,0.10187 0.06715,0.30427 0.09806,0.44979 0.03091,0.14552 0.07897,0.36777 0.106805,0.49389 0.02783,0.12612 0.0831,0.38012 0.122811,0.56445 0.03971,0.18432 0.08722,0.4026 0.105583,0.48507 0.04554,0.20455 0.114968,0.52555 0.175491,0.81138 0.06752,0.31887 0.13378,0.62181 0.185194,0.84667 0.02329,0.10187 0.05463,0.2514 0.06965,0.3323 0.01501,0.0809 0.03058,0.1524 0.03459,0.15889 0.004,0.006 0.01975,0.0713 0.03497,0.14396 0.01522,0.0727 0.03992,0.18771 0.0549,0.25562 0.01497,0.0679 0.0543,0.25047 0.0874,0.40569 0.06042,0.28341 0.08824,0.41109 0.220962,1.01424 0.03949,0.17947 0.09273,0.42355 0.11831,0.54239 0.04588,0.2132 0.04715,0.21608 0.0954,0.21608 0.02689,0 0.06727,-0.007 0.08973,-0.0151 0.02246,-0.008 0.08255,-0.0205 0.133535,-0.0271 0.11548,-0.0149 0.105431,-0.0368 0.189479,0.41262 0.03538,0.18918 0.08695,0.46303 0.114594,0.60855 0.02765,0.14552 0.07882,0.41539 0.113723,0.59972 0.0349,0.18432 0.07124,0.37345 0.08075,0.42027 0.02677,0.13177 0.02231,0.16926 -0.02239,0.18826 -0.02183,0.009 -0.178594,0.0405 -0.348368,0.0693 -0.169775,0.0288 -0.4714,0.081 -0.670278,0.11586 -0.198879,0.0349 -0.472722,0.0823 -0.608542,0.10547 -0.135819,0.0231 -0.338225,0.0583 -0.449791,0.0782 -0.111566,0.0199 -0.365566,0.0642 -0.564445,0.0986 -0.198878,0.0343 -0.472722,0.0825 -0.608542,0.10713 -0.135819,0.0246 -0.2906,0.052 -0.343958,0.0608 -0.05336,0.009 -0.17242,0.0286 -0.264583,0.0439 -0.09216,0.0153 -0.207257,0.0356 -0.255764,0.0451 -0.111168,0.0218 -1.163398,0.20413 -1.375833,0.23841 -0.08731,0.0141 -0.218282,0.0368 -0.291042,0.0504 -0.07276,0.0136 -0.207698,0.0378 -0.299861,0.0538 -0.09216,0.0159 -0.250913,0.0442 -0.352778,0.0628 -0.101864,0.0186 -0.328083,0.0578 -0.502708,0.0871 -0.174625,0.0293 -0.384969,0.0654 -0.467431,0.0802 -0.08246,0.0149 -0.167218,0.0228 -0.188347,0.0176 -0.03978,-0.01 -0.04535,-0.0256 -0.561432,-1.60064 -0.06266,-0.19123 -0.109651,-0.35885 -0.104419,-0.37248 0.0055,-0.0143 0.06865,-0.0376 0.149486,-0.055 0.07699,-0.0166 0.143892,-0.0366 0.148679,-0.0443 0.0078,-0.0126 -0.05427,-0.26488 -0.217074,-0.88261 -0.0294,-0.11156 -0.08123,-0.31 -0.115175,-0.44097 -0.03394,-0.13097 -0.08667,-0.32941 -0.117165,-0.44097 -0.0305,-0.11157 -0.08605,-0.32191 -0.123453,-0.46743 -0.07282,-0.28336 -0.11797,-0.45606 -0.221325,-0.84667 -0.0775,-0.29289 -0.148034,-0.56205 -0.27272,-1.04069 -0.05054,-0.19403 -0.100056,-0.38304 -0.110027,-0.42003 -0.01,-0.037 -0.02433,-0.0608 -0.03191,-0.0529 -0.0076,0.008 -0.04222,0.12149 -0.07698,0.25246 -0.03476,0.13097 -0.07475,0.27781 -0.08888,0.32632 -0.01413,0.0485 -0.07772,0.2906 -0.14131,0.53799 -0.06359,0.24738 -0.131689,0.50932 -0.15133,0.58208 -0.01964,0.0728 -0.06778,0.25532 -0.106987,0.40569 -0.0392,0.15038 -0.087,0.33294 -0.106216,0.4057 -0.03576,0.13538 -0.144756,0.55401 -0.218147,0.83785 -0.02258,0.0873 -0.05837,0.22225 -0.07953,0.29986 -0.09259,0.3395 -0.126272,0.46732 -0.158037,0.59972 -0.01862,0.0776 -0.04551,0.18464 -0.05975,0.23785 -0.01424,0.0532 -0.02251,0.1022 -0.01838,0.10888 0.0041,0.007 0.03321,0.0171 0.06463,0.0232 0.167158,0.0322 0.222989,0.05 0.23215,0.0739 0.01098,0.0286 0.0043,0.05 -0.183088,0.58809 -0.187429,0.53815 -0.212971,0.61215 -0.34399,0.9966 -0.06612,0.19403 -0.128044,0.3627 -0.137601,0.37483 -0.02256,0.0286 -0.08834,0.0252 -0.304097,-0.0159 z"
                   style="fill:#dce6a3;stroke-width:0.01763889" />
                <path
                   inkscape:connector-curvature="0"
                   id="path1643"
                   d="m 60.15366,248.17987 c -0.106034,-0.0203 -0.598179,-0.10647 -1.728611,-0.30262 -0.247385,-0.0429 -0.58076,-0.10113 -0.740833,-0.12934 -0.160073,-0.0282 -0.429948,-0.0752 -0.599722,-0.1045 -0.169775,-0.0293 -0.447587,-0.0779 -0.617362,-0.10804 -0.307306,-0.0546 -0.848909,-0.14867 -1.41993,-0.24663 -0.362286,-0.0622 -0.91316,-0.15837 -1.261181,-0.22027 -0.14067,-0.025 -0.41784,-0.0728 -0.615934,-0.1061 -0.198095,-0.0333 -0.365681,-0.0695 -0.372415,-0.0804 -0.01161,-0.0188 0.0034,-0.12261 0.06125,-0.42241 0.01403,-0.0728 0.0656,-0.34264 0.114605,-0.59972 0.049,-0.25709 0.117127,-0.61408 0.151385,-0.79332 0.03426,-0.17924 0.07006,-0.33366 0.07955,-0.34315 0.01126,-0.0113 0.06784,-0.007 0.16271,0.0129 0.198735,0.0412 0.239637,0.0396 0.250648,-0.01 0.09135,-0.40912 0.113015,-0.50937 0.122941,-0.56886 0.0065,-0.0388 0.02686,-0.13405 0.0453,-0.21166 0.03561,-0.14985 0.152469,-0.68203 0.211097,-0.96132 0.01935,-0.0922 0.05415,-0.25488 0.07733,-0.3616 0.105214,-0.48422 0.171135,-0.78568 0.19672,-0.89958 0.05039,-0.22433 0.135131,-0.61433 0.17631,-0.81139 0.0223,-0.10672 0.06073,-0.28531 0.0854,-0.39688 0.02467,-0.11156 0.06531,-0.29809 0.09031,-0.41451 0.025,-0.11642 0.05782,-0.26326 0.07295,-0.32632 0.01512,-0.0631 0.04998,-0.22181 0.07746,-0.35278 0.05723,-0.27277 0.120444,-0.56484 0.257684,-1.19062 0.140761,-0.64184 0.213074,-0.97455 0.379535,-1.74625 0.0293,-0.13582 0.0685,-0.31442 0.08711,-0.39688 0.01861,-0.0825 0.07402,-0.33646 0.123135,-0.56444 0.04911,-0.22798 0.10876,-0.50183 0.132551,-0.60854 0.02379,-0.10672 0.05127,-0.23372 0.06106,-0.28223 0.02108,-0.10443 0.09315,-0.43117 0.143048,-0.64852 0.04916,-0.21415 0.04473,-0.23211 -0.05895,-0.23877 -0.06477,-0.004 -0.0912,-0.0155 -0.119063,-0.0509 -0.03417,-0.0434 -0.03581,-0.0696 -0.03581,-0.56895 0,-0.41275 0.0051,-0.53033 0.02392,-0.55613 0.02143,-0.0293 0.06047,-0.0338 0.374826,-0.0431 l 0.350905,-0.0103 0.0088,-0.0617 0.0088,-0.0617 0.286186,-0.005 0.286187,-0.005 0.01074,0.0489 c 0.0059,0.0269 0.01369,0.0586 0.01729,0.0704 0.005,0.0162 0.169105,0.0227 0.673214,0.0265 0.366662,0.003 0.68517,0.002 0.707795,-0.002 0.04225,-0.007 0.04533,-0.0115 0.06366,-0.0951 l 0.01073,-0.0489 0.303124,0.005 0.303123,0.005 0.01189,0.0582 c 0.0065,0.032 0.01499,0.0613 0.01878,0.0651 0.01459,0.0146 1.411693,0.0126 1.425879,-0.002 0.0082,-0.009 0.01759,-0.0393 0.02076,-0.0684 l 0.0058,-0.0529 0.280895,-0.005 c 0.30294,-0.005 0.309225,-0.003 0.309738,0.0887 1.91e-4,0.0341 0.0094,0.0487 0.03114,0.0491 0.346564,0.007 1.424864,-0.003 1.434673,-0.0132 0.0074,-0.008 0.01601,-0.0377 0.01918,-0.0668 l 0.0058,-0.0529 h 0.291042 0.291042 l 0.0055,0.0573 c 0.0032,0.0327 0.0183,0.063 0.03528,0.0705 0.01636,0.007 0.340611,0.0109 0.72055,0.008 l 0.690798,-0.005 0.0154,-0.0652 0.0154,-0.0652 0.297903,-0.005 c 0.321208,-0.005 0.326202,-0.004 0.326718,0.0886 l 2.7e-4,0.0485 h 0.723194 0.723195 l 2.69e-4,-0.0485 c 5.14e-4,-0.0921 0.0068,-0.0939 0.309738,-0.0887 l 0.280895,0.005 0.0058,0.0529 c 0.0032,0.0291 0.01127,0.0586 0.018,0.0656 0.0067,0.007 0.168759,0.0156 0.360074,0.0192 0.305909,0.006 0.35212,0.0103 0.383289,0.0385 0.03399,0.0308 0.03544,0.0537 0.03544,0.55695 v 0.52486 l -0.05427,0.0457 c -0.03547,0.0298 -0.07538,0.0457 -0.115207,0.0457 -0.07567,0 -0.08943,0.03 -0.06383,0.13896 0.02483,0.1057 0.05949,0.26284 0.13472,0.61069 0.154191,0.71298 0.245329,1.13245 0.300844,1.38466 0.0331,0.15037 0.08492,0.38849 0.11515,0.52916 0.03023,0.14067 0.08698,0.39864 0.126115,0.57327 0.03913,0.17462 0.105888,0.48022 0.148346,0.67909 0.04246,0.19888 0.09744,0.45288 0.122192,0.56445 0.02474,0.11156 0.06842,0.31397 0.09705,0.44979 0.02863,0.13582 0.0845,0.39379 0.124139,0.57326 0.03964,0.17948 0.0955,0.43727 0.124125,0.57288 0.02863,0.13561 0.05582,0.25864 0.06044,0.2734 0.0046,0.0148 0.0278,0.11813 0.05151,0.2297 0.02371,0.11156 0.06756,0.31794 0.09745,0.45861 0.06143,0.28914 0.267446,1.23657 0.31835,1.46403 0.01846,0.0825 0.04561,0.20549 0.06035,0.2734 0.01474,0.0679 0.03914,0.17903 0.05422,0.24694 0.08639,0.38894 0.213439,0.97185 0.265262,1.21709 0.117131,0.55428 0.16431,0.75367 0.182669,0.77203 0.01308,0.0131 0.05839,0.01 0.152082,-0.0107 0.126457,-0.0278 0.220647,-0.0374 0.220647,-0.0226 0,0.0167 0.143538,0.79202 0.168555,0.91048 0.01537,0.0728 0.03889,0.19182 0.05227,0.26459 0.01338,0.0728 0.06039,0.32245 0.10446,0.55488 0.04407,0.23243 0.07369,0.42903 0.06582,0.4369 -0.0079,0.008 -0.08122,0.0255 -0.163019,0.0392 -0.08179,0.0137 -0.331278,0.0566 -0.55441,0.0954 -0.223132,0.0388 -0.596194,0.10359 -0.829027,0.14398 -0.232834,0.0404 -0.550334,0.0957 -0.705556,0.12299 -0.155222,0.0273 -0.444941,0.0778 -0.643819,0.11229 -0.469847,0.0815 -0.923093,0.16149 -1.11125,0.19606 -0.08246,0.0151 -0.197556,0.0347 -0.255764,0.0435 -0.101267,0.0153 -0.626112,0.10595 -1.59632,0.27577 -0.247385,0.0433 -0.588697,0.10296 -0.758472,0.13256 -0.169774,0.0296 -0.415837,0.073 -0.546805,0.0965 -0.130969,0.0234 -0.284963,0.0447 -0.342209,0.0472 l -0.104084,0.005 -0.03113,-0.0794 c -0.01712,-0.0437 -0.119862,-0.35322 -0.228312,-0.68792 -0.10845,-0.3347 -0.236676,-0.72639 -0.284945,-0.87042 -0.04827,-0.14402 -0.0838,-0.27219 -0.07896,-0.2848 0.0048,-0.0126 0.06578,-0.0331 0.135433,-0.0456 0.06965,-0.0124 0.136974,-0.033 0.149614,-0.0456 0.02616,-0.0262 0.03,-0.005 -0.07439,-0.40284 -0.04332,-0.16492 -0.101459,-0.38717 -0.129205,-0.49389 -0.02775,-0.10671 -0.08312,-0.31706 -0.123055,-0.46743 -0.07411,-0.27904 -0.139417,-0.52772 -0.229301,-0.87312 -0.02777,-0.10672 -0.07146,-0.2734 -0.09708,-0.37042 -0.02562,-0.097 -0.07881,-0.29942 -0.118203,-0.44979 -0.03939,-0.15037 -0.09348,-0.35675 -0.120207,-0.45861 -0.02672,-0.10187 -0.08576,-0.32808 -0.131195,-0.50271 -0.04543,-0.17462 -0.09816,-0.37703 -0.117159,-0.44979 -0.04158,-0.15922 -0.06824,-0.22931 -0.08722,-0.22931 -0.0172,0 -0.03426,0.0529 -0.105116,0.32632 -0.03017,0.11642 -0.07369,0.27914 -0.0967,0.3616 -0.02301,0.0825 -0.07752,0.28884 -0.121138,0.45861 -0.04361,0.16978 -0.143857,0.55474 -0.222762,0.85549 -0.0789,0.30074 -0.171529,0.65396 -0.205832,0.78493 -0.0343,0.13097 -0.07807,0.29765 -0.09727,0.37041 -0.0345,0.1308 -0.04982,0.1887 -0.191304,0.7232 -0.03981,0.15037 -0.09908,0.37832 -0.131718,0.50656 -0.03264,0.12824 -0.06396,0.24064 -0.06961,0.24977 -0.02504,0.0405 0.01696,0.0712 0.136654,0.0997 0.187996,0.0449 0.185776,0.0386 0.100285,0.28364 -0.122005,0.34973 -0.378833,1.09413 -0.467907,1.3562 -0.115458,0.3397 -0.118187,0.3444 -0.198553,0.34198 -0.03613,-0.001 -0.117287,-0.0119 -0.180346,-0.0239 z"
                   style="fill:#c7db60;stroke-width:0.01763889" />
                <path
                   sodipodi:nodetypes="cccccccccccscccccccccccccccccccccccccccccscsccccccccccccscccccccscccccccscccccccccsccccccccccccccccssccccscccccccccccccccccccccccccscccccssccscscccccccccccccccccccccccscsccsssss"
                   inkscape:connector-curvature="0"
                   id="path1641"
                   d="m 60.197757,248.16869 c -0.04851,-0.009 -0.13185,-0.0237 -0.185208,-0.0338 -0.05336,-0.0101 -0.351014,-0.0621 -0.661458,-0.11576 -0.310445,-0.0536 -0.679539,-0.11748 -0.820209,-0.14194 -0.14067,-0.0245 -0.295451,-0.0507 -0.343958,-0.0583 -0.08094,-0.0127 -0.287469,-0.0496 -0.65358,-0.11665 -0.07813,-0.0143 -0.304348,-0.0536 -0.502708,-0.0874 -0.616547,-0.10487 -0.845018,-0.14737 -0.867747,-0.16142 -0.01205,-0.007 -0.0537,-0.0143 -0.09255,-0.0152 -0.07353,-0.002 -0.09755,-0.006 -0.661539,-0.10525 -0.189177,-0.0334 -0.419364,-0.0734 -0.511528,-0.0889 -0.09216,-0.0154 -0.254882,-0.0438 -0.361597,-0.0631 -0.106715,-0.0193 -0.37659,-0.0662 -0.599722,-0.10439 -0.223132,-0.0381 -0.48507,-0.0847 -0.582083,-0.10351 -0.09701,-0.0188 -0.249841,-0.0439 -0.339616,-0.0559 -0.215353,-0.0287 -0.220271,-0.0329 -0.191218,-0.16663 0.01265,-0.0582 0.03153,-0.15346 0.04196,-0.21167 0.03986,-0.22254 0.08002,-0.43521 0.14489,-0.76729 0.03696,-0.18917 0.07658,-0.39952 0.08805,-0.46743 0.01147,-0.0679 0.0331,-0.183 0.04807,-0.25576 0.01497,-0.0728 0.03293,-0.16642 0.03991,-0.20812 0.01868,-0.11153 0.03066,-0.11736 0.174128,-0.0847 0.133966,0.0305 0.24236,0.0366 0.256031,0.0145 0.0079,-0.0127 0.07753,-0.30909 0.152233,-0.64767 0.01713,-0.0776 0.06467,-0.29193 0.105651,-0.47625 0.04098,-0.18433 0.08926,-0.41256 0.107281,-0.50718 0.01802,-0.0946 0.04072,-0.20178 0.05044,-0.23813 0.0097,-0.0363 0.06529,-0.28833 0.123473,-0.55997 0.05819,-0.27164 0.117153,-0.53358 0.131035,-0.58208 0.01388,-0.0485 0.0455,-0.19139 0.07026,-0.3175 0.04239,-0.21587 0.102274,-0.49907 0.195832,-0.92605 0.02232,-0.10186 0.0694,-0.31894 0.104619,-0.48238 0.03522,-0.16345 0.06832,-0.30412 0.07357,-0.3126 0.0052,-0.008 0.02074,-0.0772 0.03444,-0.15262 0.0137,-0.0755 0.03734,-0.19275 0.05252,-0.26066 0.03073,-0.13746 0.07472,-0.33974 0.140009,-0.64382 0.02395,-0.11157 0.05929,-0.27428 0.07853,-0.3616 0.08621,-0.39124 0.181559,-0.8372 0.197987,-0.92604 0.0099,-0.0534 0.02465,-0.12082 0.03284,-0.14993 0.0082,-0.0291 0.0279,-0.11245 0.04378,-0.18521 0.01588,-0.0728 0.03634,-0.16404 0.04546,-0.20284 0.0091,-0.0388 0.04102,-0.18962 0.07088,-0.33514 0.02986,-0.14552 0.06972,-0.32809 0.08858,-0.4057 0.01885,-0.0776 0.05747,-0.25223 0.08581,-0.38805 0.02834,-0.13582 0.07693,-0.36204 0.107974,-0.50271 0.101582,-0.46027 0.117988,-0.53576 0.15685,-0.72167 0.02112,-0.10102 0.04483,-0.19627 0.0527,-0.21166 0.0079,-0.0154 0.01941,-0.0717 0.02564,-0.125 0.0062,-0.0534 0.026,-0.15655 0.04393,-0.22931 0.01792,-0.0728 0.0293,-0.14124 0.02529,-0.15218 -0.004,-0.0109 -0.05437,-0.0252 -0.111905,-0.0317 -0.08209,-0.009 -0.109365,-0.0202 -0.126681,-0.0507 -0.03296,-0.058 -0.04117,-1.02752 -0.0092,-1.08835 l 0.02316,-0.0441 0.342117,-0.005 c 0.215959,-0.003 0.350741,-0.012 0.365502,-0.0242 0.01286,-0.0107 0.02338,-0.0425 0.02338,-0.0706 v -0.0512 l 0.277813,0.005 0.277812,0.005 0.0088,0.0617 0.0088,0.0617 0.696736,0.005 c 0.383205,0.003 0.714596,5.7e-4 0.736424,-0.005 0.03177,-0.008 0.03969,-0.022 0.03969,-0.0715 v -0.0618 l 0.304271,0.005 0.304271,0.005 0.0088,0.0617 0.0088,0.0617 0.712324,0.005 c 0.511167,0.003 0.71913,-0.001 0.736423,-0.0154 0.01325,-0.011 0.0241,-0.0428 0.0241,-0.0708 v -0.0507 h 0.281157 0.281158 l 0.0055,0.0661 0.0055,0.0661 h 0.749652 0.749653 l 0.0055,-0.0661 0.0055,-0.0661 h 0.281158 c 0.278918,0 0.292238,0.003 0.283008,0.058 -0.0013,0.008 0.006,0.0296 0.01628,0.0487 0.01811,0.0338 0.03777,0.0346 0.736662,0.0301 l 0.718058,-0.005 0.0088,-0.0617 0.0088,-0.0617 0.303182,-0.005 0.303181,-0.005 0.0055,0.0666 0.0055,0.0666 h 0.732014 0.732014 l 0.0088,-0.0617 0.0088,-0.0617 0.277812,-0.005 0.277813,-0.005 v 0.0498 c 0,0.0882 0.01615,0.0922 0.375104,0.0922 0.324017,0 0.388889,0.009 0.422786,0.06 0.0071,0.0107 0.01308,0.24798 0.01323,0.52733 l 2.65e-4,0.50792 -0.0433,0.0433 c -0.02876,0.0288 -0.06316,0.0433 -0.102463,0.0433 -0.03254,0 -0.07422,0.011 -0.09263,0.0245 -0.03129,0.0229 -0.03198,0.0323 -0.01061,0.14552 0.01257,0.0666 0.03347,0.16471 0.04645,0.21807 0.01298,0.0534 0.04006,0.17242 0.06018,0.26458 0.02012,0.0922 0.07337,0.33426 0.118347,0.53799 0.08245,0.37352 0.103829,0.47293 0.15361,0.71437 0.03221,0.15623 0.185176,0.85625 0.319914,1.46403 0.05269,0.23768 0.120989,0.55122 0.151774,0.69674 0.03078,0.14552 0.06991,0.32808 0.08694,0.40569 0.273093,1.24386 0.496887,2.30028 0.795746,3.66007 0.01849,0.0825 0.04464,0.20152 0.05813,0.26458 0.112536,0.52618 0.137423,0.63993 0.283651,1.29646 0.03457,0.15522 0.09402,0.42907 0.132105,0.60854 0.119992,0.56546 0.153599,0.70447 0.177198,0.73291 0.0242,0.0292 0.06636,0.027 0.259544,-0.0136 0.05099,-0.0107 0.0962,-0.016 0.100464,-0.0117 0.0075,0.007 0.03382,0.13526 0.08861,0.43006 0.03297,0.17739 0.21444,1.12593 0.290218,1.51695 0.0188,0.097 0.0281,0.18261 0.02066,0.19021 -0.01203,0.0123 -0.639025,0.12615 -1.386408,0.25174 -0.14552,0.0245 -0.347927,0.0599 -0.449791,0.0789 -0.101865,0.0189 -0.236802,0.0419 -0.299861,0.0511 -0.06306,0.009 -0.241653,0.0407 -0.396875,0.0701 -0.155223,0.0294 -0.365566,0.0662 -0.467431,0.0819 -0.101864,0.0156 -0.375708,0.0628 -0.608541,0.10484 -0.232834,0.042 -0.482865,0.0857 -0.555625,0.0971 -0.07276,0.0114 -0.187855,0.0317 -0.255764,0.0452 -0.06791,0.0135 -0.313973,0.0567 -0.546806,0.096 -0.567965,0.0959 -1.309981,0.22441 -1.472847,0.25498 -0.07276,0.0137 -0.203729,0.0372 -0.291042,0.0523 -0.08731,0.0151 -0.269875,0.0469 -0.405694,0.0707 -0.354848,0.0621 -0.449792,0.0717 -0.449792,0.0458 0,-0.0118 -0.01106,-0.0464 -0.02458,-0.077 -0.01352,-0.0306 -0.07375,-0.21036 -0.13385,-0.39954 -0.163789,-0.51559 -0.387793,-1.19693 -0.425555,-1.2944 -0.01835,-0.0474 -0.03337,-0.0961 -0.03337,-0.10824 0,-0.0134 0.04717,-0.0309 0.119063,-0.0442 0.156104,-0.029 0.198437,-0.0458 0.198437,-0.0787 0,-0.0149 -0.01973,-0.10045 -0.04384,-0.19006 -0.123154,-0.45764 -0.23135,-0.86533 -0.309856,-1.16757 -0.04799,-0.18474 -0.127031,-0.48671 -0.175653,-0.67103 -0.149108,-0.56527 -0.22984,-0.87336 -0.281949,-1.07598 -0.02745,-0.10671 -0.06992,-0.26943 -0.09438,-0.36159 -0.05233,-0.19715 -0.118179,-0.44717 -0.17769,-0.67469 -0.148115,-0.56628 -0.159454,-0.60134 -0.191148,-0.59107 -0.02892,0.009 -0.05498,0.10202 -0.356028,1.26576 -0.09479,0.36643 -0.207704,0.7962 -0.247926,0.94368 -0.01588,0.0582 -0.05551,0.20902 -0.08807,0.33514 -0.141128,0.54662 -0.18766,0.72139 -0.19541,0.73393 -0.0045,0.007 -0.01511,0.0476 -0.02347,0.0895 -0.0084,0.0419 -0.03675,0.15551 -0.06308,0.25253 -0.02632,0.097 -0.07062,0.26594 -0.09844,0.37539 -0.02781,0.10946 -0.05499,0.20616 -0.06039,0.2149 -0.0054,0.009 -0.01677,0.0502 -0.02526,0.092 -0.0085,0.0419 -0.03601,0.15318 -0.06117,0.24735 -0.02515,0.0942 -0.04174,0.18161 -0.03686,0.19434 0.0049,0.0127 0.06231,0.0376 0.127624,0.0554 0.06531,0.0177 0.12867,0.0352 0.140797,0.0388 0.03038,0.009 0.02762,0.084 -0.006,0.1626 -0.01542,0.0361 -0.03853,0.0973 -0.05135,0.13613 -0.01282,0.0388 -0.07607,0.22137 -0.140544,0.4057 -0.06448,0.18432 -0.156296,0.45023 -0.204046,0.5909 -0.04775,0.14067 -0.114763,0.33448 -0.148918,0.43069 -0.03415,0.0962 -0.0621,0.17757 -0.0621,0.1808 0,0.0101 -0.110553,0.003 -0.202848,-0.0136 z m -4.612569,-7.72404 c 0,-0.01 -0.0079,-0.0176 -0.01764,-0.0176 -0.0097,0 -0.01764,0.008 -0.01764,0.0176 0,0.01 0.0079,0.0176 0.01764,0.0176 0.0097,0 0.01764,-0.008 0.01764,-0.0176 z"
                   style="fill:#bad245;stroke-width:0.01763889" />
                <g
                   id="g1648">
                  <path
                     style="fill:#b7d331;stroke-width:0.01763889"
                     d="m 63.603876,248.17527 c -0.0058,-0.006 -0.01063,-0.0288 -0.01063,-0.0509 0,-0.0221 -0.01094,-0.0466 -0.02431,-0.0544 -0.01337,-0.008 -0.03258,-0.0498 -0.04269,-0.0935 -0.01011,-0.0437 -0.03384,-0.12303 -0.05275,-0.17638 -0.03763,-0.10622 -0.115925,-0.34806 -0.188443,-0.58209 -0.02555,-0.0825 -0.05313,-0.1658 -0.0613,-0.18521 -0.01738,-0.0413 -0.05571,-0.15531 -0.0973,-0.28932 -0.01626,-0.0524 -0.02495,-0.11371 -0.0193,-0.13623 0.0077,-0.0306 0.004,-0.0385 -0.01473,-0.0313 -0.01729,0.007 -0.02883,-0.008 -0.03741,-0.049 -0.0068,-0.0322 -0.02851,-0.0965 -0.04818,-0.14289 -0.01967,-0.0464 -0.03152,-0.0886 -0.02633,-0.0937 0.01665,-0.0166 0.230695,-0.0615 0.252874,-0.053 0.01178,0.005 0.03565,-0.008 0.05306,-0.0268 0.02781,-0.0307 0.02887,-0.0418 0.0087,-0.0914 -0.02878,-0.0707 -0.07294,-0.23156 -0.08507,-0.30985 -0.0088,-0.057 0.0025,-0.0712 0.28167,-0.35278 0.280319,-0.28276 0.339209,-0.35513 0.28896,-0.35513 -0.02394,0 -0.531188,0.49978 -0.560618,0.55237 -0.03892,0.0696 -0.04811,0.0487 -0.153646,-0.34953 -0.02828,-0.10671 -0.085,-0.33293 -0.126036,-0.50271 -0.04104,-0.16977 -0.08582,-0.3353 -0.09952,-0.36784 -0.0137,-0.0325 -0.02971,-0.096 -0.03558,-0.14111 -0.0059,-0.0451 -0.01773,-0.0957 -0.02636,-0.11256 -0.0086,-0.0168 -0.02249,-0.0645 -0.0308,-0.10584 -0.01637,-0.0814 -0.04387,-0.18297 -0.114782,-0.42385 -0.02503,-0.085 -0.04551,-0.17056 -0.04551,-0.19006 0,-0.0195 -0.01634,-0.0809 -0.0363,-0.13643 -0.01996,-0.0555 -0.04329,-0.13671 -0.05184,-0.18036 -0.01943,-0.0993 -0.04551,-0.19892 -0.09926,-0.37924 -0.02314,-0.0776 -0.04206,-0.15698 -0.04206,-0.17639 1e-6,-0.0194 -0.01964,-0.0908 -0.04365,-0.15875 -0.377197,-1.94762 -0.545978,-0.29848 -0.823729,0.81139 -0.02909,0.11642 -0.0678,0.26326 -0.08602,0.32632 -0.04698,0.16261 -0.112916,0.40708 -0.156995,0.58209 -0.05609,0.22269 -0.106574,0.40776 -0.127507,0.46743 -0.01021,0.0291 -0.02614,0.0926 -0.0354,0.14111 -0.01432,0.075 -0.05536,0.23137 -0.120377,0.45861 -0.0083,0.0291 -0.02049,0.0828 -0.02703,0.11926 -0.0065,0.0365 -0.01892,0.0707 -0.02752,0.076 -0.0086,0.005 -0.01567,0.039 -0.01571,0.0748 -3.5e-5,0.0358 -0.01622,0.0916 -0.03597,0.124 -0.01975,0.0324 -0.03137,0.0732 -0.02582,0.0907 0.0055,0.0175 -0.0026,0.0664 -0.01801,0.10868 -0.02593,0.0709 -0.06693,0.22316 -0.09024,0.33498 -0.006,0.0289 -6.98e-4,0.0521 0.01407,0.0613 0.04116,0.0259 0.198442,0.0763 0.23982,0.0769 0.05148,7.5e-4 0.05322,0.0636 0.0044,0.15933 -0.0194,0.038 -0.03528,0.0814 -0.03528,0.0964 0,0.015 -0.02635,0.0967 -0.05857,0.1815 -0.03221,0.0848 -0.07688,0.21375 -0.09925,0.28652 -0.02238,0.0728 -0.05952,0.17418 -0.08254,0.22537 -0.02302,0.0512 -0.04186,0.10021 -0.04186,0.10892 0,0.029 -0.218642,0.66853 -0.273849,0.80104 -0.01471,0.0353 -0.0083,0.0355 -0.272957,-0.007 -0.192076,-0.0308 -0.290536,-0.0476 -0.776111,-0.13217 -0.257087,-0.0448 -0.505322,-0.0874 -0.551634,-0.0948 -0.04631,-0.007 -0.09354,-0.0226 -0.104952,-0.034 -0.01154,-0.0115 -0.07038,-0.0207 -0.132616,-0.0207 -0.06153,0 -0.173049,-0.0119 -0.247826,-0.0264 -0.267081,-0.0519 -0.314261,-0.0607 -0.462277,-0.0863 -0.08246,-0.0143 -0.241212,-0.0418 -0.352778,-0.0611 -0.111566,-0.0193 -0.282222,-0.0485 -0.379236,-0.0647 -0.09701,-0.0163 -0.259733,-0.0458 -0.361597,-0.0656 -0.101865,-0.0198 -0.228865,-0.0422 -0.282223,-0.0498 -0.189691,-0.0269 -0.259471,-0.0467 -0.29706,-0.0842 -0.02094,-0.0209 -0.04998,-0.0381 -0.06454,-0.0381 -0.01742,0 -0.02646,-0.0174 -0.02646,-0.051 -3.251821,-0.48692 0.866341,0.26307 -2.494595,-2.4537 -0.04231,0 -0.03434,0.017 0.04721,0.10037 1.37476,1.44971 3.174348,2.59892 -0.207251,1.99761 -0.126539,-0.0279 -0.484445,-0.0885 -0.546805,-0.0925 -0.04099,-0.003 -0.05234,-0.0114 -0.05038,-0.0387 0.0034,-0.0466 0.04705,-0.28396 0.103886,-0.56445 0.01376,-0.0679 0.04167,-0.21475 0.06203,-0.32632 0.02036,-0.11156 0.04907,-0.25841 0.06381,-0.32632 0.01474,-0.0679 0.03241,-0.16316 0.03926,-0.21166 0.0068,-0.0485 0.02157,-0.10477 0.03272,-0.12503 0.01115,-0.0203 0.01612,-0.0527 0.01104,-0.0721 -0.0051,-0.0194 0.0043,-0.0981 0.02083,-0.17483 0.01653,-0.0768 0.03516,-0.16735 0.0414,-0.20131 0.01125,-0.0612 0.01212,-0.0617 0.09914,-0.0593 0.04828,0.001 0.139572,0.008 0.202866,0.0153 l 0.11508,0.0129 0.04112,-0.20053 c 0.02262,-0.11029 0.05277,-0.23228 0.067,-0.27109 0.01423,-0.0388 0.03622,-0.11818 0.04886,-0.17639 0.01264,-0.0582 0.03497,-0.15345 0.04963,-0.21166 0.01466,-0.0582 0.03618,-0.15346 0.04783,-0.21167 1.075905,-5.02171 0.05028,-1.31017 1.375768,-6.35877 0.0064,-0.0436 0.0204,-0.10715 0.0311,-0.14111 0.0107,-0.034 0.03268,-0.12524 0.04884,-0.20285 0.01616,-0.0776 0.04061,-0.16492 0.05433,-0.19402 0.01372,-0.0291 0.02455,-0.0767 0.02406,-0.10584 -0.0013,-0.0792 0.03066,-0.25524 0.06089,-0.33514 0.01468,-0.0388 0.02702,-0.0944 0.02742,-0.12347 3.96e-4,-0.0291 0.01615,-0.10848 0.03502,-0.17639 0.01887,-0.0679 0.05477,-0.22666 0.07978,-0.35278 0.05228,-0.2636 0.09769,-0.46841 0.150544,-0.67909 0.01095,-0.0437 0.02767,-0.11906 0.03716,-0.16757 0.02864,-0.14651 0.06657,-0.32787 0.09684,-0.46309 0.122113,-0.30493 0.553179,0.37584 0.659817,0.51907 v 0.0489 l 0.02765,-0.0395 c -0.04115,-0.26149 -0.425164,-0.53847 -0.629422,-0.75952 l 0.01258,-0.11119 c 0.0171,-0.15114 0.06643,-0.28674 0.107113,-0.29445 0.08129,-0.0154 0.04642,-0.0333 -0.104102,-0.0533 -0.08991,-0.012 -0.170622,-0.0289 -0.179365,-0.0376 -0.03214,-0.0321 -0.04376,-0.19541 -0.04453,-0.62615 -5.76e-4,-0.3217 0.0052,-0.4529 0.0215,-0.48507 l 0.02229,-0.0441 0.342117,-0.005 c 0.215959,-0.003 0.350741,-0.012 0.365502,-0.0242 0.01286,-0.0107 0.02338,-0.0425 0.02338,-0.0706 v -0.0512 l 0.277813,0.005 0.277812,0.005 0.0088,0.0617 0.0088,0.0617 0.696736,0.005 c 0.383205,0.003 0.714596,5.7e-4 0.736424,-0.005 0.03177,-0.008 0.03969,-0.022 0.03969,-0.0715 v -0.0618 l 0.304271,0.005 0.304271,0.005 0.0088,0.0617 0.0088,0.0617 0.712324,0.005 c 0.511167,0.003 0.71913,-0.001 0.736423,-0.0154 0.01325,-0.011 0.0241,-0.0428 0.0241,-0.0708 v -0.0507 h 0.281157 0.281158 l 0.0055,0.0661 0.0055,0.0661 h 0.749652 0.749653 l 0.0055,-0.0661 0.0055,-0.0661 h 0.281158 c 0.278918,0 0.292238,0.003 0.283008,0.058 -0.0013,0.008 0.006,0.0296 0.01628,0.0487 0.01811,0.0338 0.03777,0.0346 0.736662,0.0301 l 0.718058,-0.005 0.0088,-0.0617 0.0088,-0.0617 0.303182,-0.005 0.303181,-0.005 0.0055,0.0666 0.0055,0.0666 h 0.732014 0.732014 l 0.0088,-0.0617 0.0088,-0.0617 0.277812,-0.005 0.277813,-0.005 v 0.0497 c 0,0.0881 0.01622,0.0921 0.375104,0.0921 0.324017,0 0.388889,0.009 0.422786,0.06 0.0071,0.0107 0.01308,0.24674 0.01323,0.52458 2.47e-4,0.46194 -0.0025,0.50854 -0.03174,0.54469 -0.03494,0.0431 -0.11608,0.0633 -0.347225,0.0861 l -0.141111,0.0139 0.117209,0.003 0.11721,0.003 0.0091,0.0661 c 0.0079,0.0575 0.03246,0.17003 0.07504,0.34402 0.01192,0.0487 -0.0092,0.0739 -0.270684,0.32185 -0.01023,0.01 -0.07678,0.0764 -0.147895,0.14829 -0.07111,0.0719 -0.144068,0.1433 -0.162122,0.15875 -0.01805,0.0155 -0.04454,0.0456 -0.05886,0.067 -0.02309,0.0345 -0.02287,0.0435 0.002,0.0789 l 0.02799,0.04 v -0.0404 c 0,-0.0286 0.07721,-0.11777 0.262915,-0.30379 0.144603,-0.14485 0.271799,-0.26336 0.282658,-0.26336 0.01086,0 0.02729,-0.0198 0.03651,-0.0441 0.0092,-0.0242 0.02363,-0.0441 0.03202,-0.0441 0.01826,0 0.0491,0.0962 0.07353,0.2293 0.0217,0.11828 0.07288,0.35723 0.124672,0.58208 0.02123,0.0922 0.04633,0.20726 0.05577,0.25577 0.0094,0.0485 0.02833,0.12681 0.04198,0.174 0.01365,0.0472 0.02481,0.10181 0.02481,0.12135 0,0.0196 0.01539,0.096 0.0342,0.16996 0.01881,0.0739 0.04728,0.19791 0.06326,0.27552 0.01599,0.0776 0.04494,0.21255 0.06434,0.29986 0.0194,0.0873 0.04698,0.21432 0.06129,0.28222 0.01431,0.0679 0.04072,0.18698 0.05868,0.26459 0.01796,0.0776 0.05004,0.22048 0.07128,0.3175 0.02124,0.097 0.04628,0.20195 0.05565,0.23319 0.0094,0.0312 0.01465,0.0709 0.01175,0.0882 -0.0056,0.0332 0.05501,0.30656 0.110719,0.49931 0.0183,0.0633 0.03328,0.13347 0.03328,0.15586 0,0.0224 0.01244,0.0936 0.02765,0.15825 1.11018,9.18253 -1.19233,-4.82819 0.861443,3.94516 0.01414,0.0582 0.03454,0.15346 0.04533,0.21166 0.01079,0.0582 0.02819,0.14156 0.03866,0.18521 0.01047,0.0437 0.02586,0.11113 0.03419,0.14993 0.0193,0.0899 0.06461,0.28708 0.09729,0.42334 0.01396,0.0582 0.03658,0.16553 0.05026,0.23849 0.01368,0.073 0.03412,0.15631 0.04541,0.18521 0.01788,0.0458 0.05285,0.24817 0.08222,0.47588 0.005,0.0388 0.02011,0.083 0.03356,0.0983 0.01345,0.0153 0.0467,0.12638 0.07389,0.24694 l 0.04943,0.21919 0.11382,-0.006 c 0.0626,-0.003 0.127191,-0.0134 0.143533,-0.0221 0.01748,-0.009 0.04705,-0.009 0.07183,2.8e-4 0.03531,0.0134 0.0455,0.0355 0.06309,0.13671 0.01153,0.0664 0.0293,0.16435 0.03948,0.2177 0.01018,0.0534 0.0257,0.14695 0.03448,0.20798 0.0088,0.061 0.0207,0.1186 0.02647,0.12793 0.0058,0.009 0.01714,0.0546 0.02526,0.1007 0.0081,0.0461 0.03195,0.17502 0.05293,0.28659 0.0691,0.36736 0.08724,0.4823 0.07838,0.49664 -0.0048,0.008 8.82e-4,0.0321 0.01264,0.0541 0.02135,0.0399 0.10859,0.45565 0.09786,0.46637 -3.648842,0.62118 -0.478198,-0.0975 -3.879826,0.68772 -0.05616,0.014 -0.155376,0.0258 -0.220486,0.0263 -0.06511,4.9e-4 -0.128947,0.01 -0.14186,0.0203 -0.01291,0.0107 -0.06054,0.025 -0.105833,0.0319 -0.0453,0.007 -0.149825,0.0253 -0.232287,0.0411 -0.08246,0.0157 -0.197555,0.0359 -0.255763,0.0447 -0.05821,0.009 -0.248709,0.041 -0.423334,0.0714 -0.174625,0.0304 -0.369093,0.0629 -0.432152,0.0723 -0.06306,0.009 -0.146403,0.0256 -0.185209,0.0362 -0.07108,0.0193 -0.203126,0.0412 -0.414514,0.0686 -0.06306,0.008 -0.170215,0.0262 -0.238125,0.0399 -0.06791,0.0138 -0.242534,0.046 -0.388055,0.0715 -0.145521,0.0256 -0.298432,0.0544 -0.339802,0.0642 -0.04137,0.01 -0.102369,0.0177 -0.135553,0.0177 -0.03318,0 -0.07988,0.007 -0.103767,0.0165 -0.02389,0.009 -0.04822,0.0117 -0.05407,0.006 z m 1.568048,-0.3399 c 0.006,-0.01 -0.0019,-0.0176 -0.01764,-0.0176 -0.0157,0 -0.02363,0.008 -0.01764,0.0176 0.006,0.01 0.01393,0.0176 0.01764,0.0176 0.0037,0 0.01164,-0.008 0.01764,-0.0176 z m -2.002014,-1.47284 c 0,-0.0146 -0.0079,-0.0265 -0.01764,-0.0265 -0.0097,0 -0.01764,0.0119 -0.01764,0.0265 0,0.0146 0.0079,0.0265 0.01764,0.0265 0.0097,0 0.01764,-0.0119 0.01764,-0.0265 z m 7.808071,-0.26018 c -0.0049,-0.0121 -0.0089,-0.002 -0.0089,0.0221 0,0.0242 0.004,0.0342 0.0089,0.022 0.0049,-0.0121 0.0049,-0.032 0,-0.0441 z m -10.617431,0.029 c -0.0059,-0.006 -0.02108,-0.006 -0.03381,-0.001 -0.01407,0.006 -0.0099,0.01 0.01066,0.0107 0.01859,7.6e-4 0.02901,-0.003 0.02315,-0.009 z m 6.963318,-0.73017 c 0.006,-0.01 -0.0015,-0.0176 -0.0166,-0.0176 -0.01512,0 -0.0275,0.008 -0.0275,0.0176 0.0037,0.0383 0.03494,0 0.0441,0 z m -0.405505,-0.19434 c 0.0096,-0.0155 -0.106732,-0.12316 -0.133095,-0.12316 -0.01984,0 -0.01991,0.0131 -3.26e-4,0.0617 0.0079,0.0196 0.0068,0.0446 -0.0025,0.0562 -0.01238,0.0155 0.002,0.0207 0.05534,0.02 0.03963,-5.5e-4 0.07589,-0.007 0.08057,-0.0148 z m -13.044147,-0.91399 c 0,-0.023 -0.02097,-0.0383 -0.03803,-0.0277 -0.01824,0.0113 -0.0025,0.0424 0.02143,0.0424 0.0091,0 0.0166,-0.007 0.0166,-0.0147 z m 8.704038,-1.37753 c 0.0056,-0.009 0.0021,-0.0214 -0.0078,-0.0275 -0.0099,-0.006 -0.01793,0.001 -0.01793,0.0164 0,0.031 0.01058,0.0356 0.02571,0.0111 z m 5.742215,-3.69548 c 0,-0.004 -0.0079,-0.0127 -0.01764,-0.0187 -0.0097,-0.006 -0.01764,-0.002 -0.01764,0.008 0,0.0103 0.0079,0.0187 0.01764,0.0187 0.0097,0 0.01764,-0.004 0.01764,-0.008 z m -11.682528,-1.12443 c -0.0056,-0.0141 -0.0098,-0.01 -0.01066,0.0107 -7.66e-4,0.0186 0.0034,0.029 0.0093,0.0231 0.0059,-0.006 0.0065,-0.0211 0.0014,-0.0338 z m -1.352605,-0.26906 c 0,-0.014 -0.0079,-0.0303 -0.01764,-0.0363 -0.0097,-0.006 -0.01764,0.005 -0.01764,0.0254 0,0.02 0.0079,0.0363 0.01764,0.0363 0.0097,0 0.01764,-0.0114 0.01764,-0.0254 z M 68.120485,237.424 c -0.0049,-0.0121 -0.0089,-0.002 -0.0089,0.022 0,0.0242 0.004,0.0342 0.0089,0.0221 0.0049,-0.0121 0.0049,-0.032 0,-0.0441 z m -0.01168,-0.075 c 0,-0.0146 -0.0077,-0.0265 -0.01709,-0.0265 -0.0094,0 -0.01252,0.0119 -0.0069,0.0265 0.0056,0.0146 0.01327,0.0265 0.01709,0.0265 0.0038,0 0.0069,-0.0119 0.0069,-0.0265 z m -1.157909,-1.92421 c 0.158304,-0.15702 0.223727,-0.23656 0.194579,-0.23656 -0.0096,0 -0.09705,0.0738 -0.20514,0.17319 -0.03718,0.0342 -0.189776,0.21248 -0.189776,0.22175 0,0.0312 0.04561,-0.005 0.200337,-0.15838 z m 0.344062,-0.32295 c 0.01103,-0.033 0.01913,-0.0846 0.018,-0.11465 -0.0014,-0.038 -0.0048,-0.0439 -0.01096,-0.0194 -0.0049,0.0194 -0.0278,0.0577 -0.05087,0.0851 -0.04778,0.0568 -0.05095,0.074 -0.01991,0.10816 0.02662,0.0293 0.03755,0.0191 0.06374,-0.0592 z m -5.28564,-1.08613 c 0.0053,0.005 0.01348,-0.0106 0.01819,-0.0352 0.007,-0.0364 0.0017,-0.0448 -0.028,-0.0448 -0.02012,0 -0.07226,-0.0337 -0.115872,-0.075 l -0.0793,-0.075 0.07422,0.0834 c 0.07666,0.0861 0.09023,0.13065 0.05217,0.17113 -0.01213,0.0129 -0.0016,0.0105 0.02346,-0.005 0.02503,-0.0158 0.04984,-0.0245 0.05513,-0.0192 z m -4.839982,-0.2377 c 0.0044,-0.0132 -0.0022,-0.0198 -0.01543,-0.0154 -0.01273,0.004 -0.02662,0.0181 -0.03087,0.0309 -0.0044,0.0132 0.0022,0.0198 0.01543,0.0154 0.01273,-0.004 0.02662,-0.0181 0.03087,-0.0309 z m 3.428485,-0.005 c -0.01266,-0.0127 -0.02087,-0.0137 -0.02087,-0.003 0,0.0236 0.02086,0.0444 0.03263,0.0326 0.005,-0.005 -2.78e-4,-0.0185 -0.01176,-0.03 z m 2.095794,0.0117 c 0.01555,-0.0294 -0.0813,-0.0286 -0.105742,8.7e-4 -0.02071,0.025 -0.01655,0.0274 0.03679,0.022 0.03308,-0.003 0.0641,-0.0137 0.06896,-0.0228 z m 0.705556,-0.008 c 0,-0.009 -0.01186,-0.0115 -0.02636,-0.006 -0.0145,0.006 -0.02188,0.0173 -0.01642,0.0262 0.01143,0.0185 0.04278,0.004 0.04278,-0.0203 z m -6.932084,4.9e-4 c -0.01455,-0.009 -0.08202,-0.0158 -0.14993,-0.0143 l -0.123472,0.003 0.123472,0.0114 c 0.06791,0.006 0.135378,0.0127 0.14993,0.0143 0.02352,0.003 0.02352,9.5e-4 0,-0.0143 z m 2.06375,0.01 c 0,-0.004 -0.0079,-0.0127 -0.01764,-0.0187 -0.0097,-0.006 -0.01764,-0.002 -0.01764,0.008 0,0.0103 0.0079,0.0187 0.01764,0.0187 0.0097,0 0.01764,-0.003 0.01764,-0.008 z m 2.852723,-0.003 c -0.0059,-0.006 -0.02108,-0.006 -0.03381,-0.001 -0.01407,0.006 -0.0099,0.01 0.01066,0.0107 0.01859,7.6e-4 0.02901,-0.003 0.02315,-0.009 z m 3.373805,0.003 c 0,-0.004 -0.0079,-0.0127 -0.01764,-0.0187 -0.0097,-0.006 -0.01764,-0.002 -0.01764,0.008 0,0.0103 0.0079,0.0187 0.01764,0.0187 0.0097,0 0.01764,-0.003 0.01764,-0.008 z m 0.731889,-0.01 c 0.0062,-0.01 -9.01e-4,-0.013 -0.0166,-0.007 -0.03056,0.0117 -0.03615,0.0244 -0.01078,0.0244 0.0091,0 0.02145,-0.008 0.02738,-0.0174 z m -7.359701,-0.0134 c -0.147947,-0.003 -0.39004,-0.003 -0.537986,0 -0.147947,0.003 -0.0269,0.005 0.268993,0.005 0.295892,0 0.416939,-0.002 0.268993,-0.005 z m 1.976656,0 c -0.147341,-0.003 -0.393403,-0.003 -0.546806,-1e-5 -0.153402,0.003 -0.03285,0.005 0.267893,0.005 0.300743,0 0.426254,-0.002 0.278913,-0.005 z m 4.232232,0 c -0.147946,-0.003 -0.39004,-0.003 -0.537986,0 -0.147946,0.003 -0.0269,0.005 0.268993,0.005 0.295893,0 0.41694,-0.002 0.268993,-0.005 z m 1.975556,0 c -0.147946,-0.003 -0.39004,-0.003 -0.537986,0 -0.147946,0.003 -0.0269,0.005 0.268993,0.005 0.295892,0 0.416939,-0.002 0.268993,-0.005 z m -10.308906,13.6565 c -0.0051,-0.005 -0.115559,-0.0248 -0.245474,-0.0438 -1.025886,-0.14428 -0.475992,-0.67229 0.279755,-0.0187 0.04774,0.0241 0.05262,0.0717 0.0074,0.0717 -0.01779,0 -0.03651,-0.004 -0.0416,-0.009 z"
                     id="path1639"
                     inkscape:connector-curvature="0"
                     sodipodi:nodetypes="cscsccccccccccccccsccccccccsccccccccccccccsccccccscccscccccsccsccccscccccccccccccccccccccccccsccccccccccccsccccccccscccccccscccccccscccccccccsccccccccccccccccsscccccccccccccccscscsccccscccscccccsccsccccccsccccccccccccccccccccsccccccsccccscscssssssscsccccccscccscccccscssccsccscsssscccssssssssssccsscccsccccccccccsccccccccccccccccccccccccccccscccccscssscscccscssscsscscsscssccssssscssccccccc" />
                </g>
                <path
                   sodipodi:nodetypes="cccccccccccsccsccccccccccccccccccccccccccccccccccccccccscccccccccccccccccccscsccsscccccccccccccccccccssccccccccccccccccccscccccccscccccccscccccccccsccccccccccccccccssccccccccscccccsscsccccssccccccscccsscccsccsccccsccccccc"
                   inkscape:connector-curvature="0"
                   id="path1637"
                   d="m 60.206577,246.07647 c -0.6056,-0.11583 -0.88548,-0.17027 -1.067153,-0.20758 -0.249569,-0.0513 -0.505463,-0.10142 -1.128889,-0.22128 -0.252236,-0.0485 -0.530048,-0.10327 -0.617361,-0.12172 -0.08731,-0.0185 -0.210344,-0.0427 -0.273403,-0.0538 -0.06306,-0.0111 -0.138465,-0.0271 -0.167569,-0.0354 -0.0291,-0.008 -0.100542,-0.0233 -0.15875,-0.0333 -0.173749,-0.0298 -1.028431,-0.19471 -1.199445,-0.23144 -0.241725,-0.0519 -1.139247,-0.22855 -1.358194,-0.2673 -0.106715,-0.0189 -0.257528,-0.0491 -0.335139,-0.0671 -0.07761,-0.018 -0.170877,-0.0378 -0.207257,-0.0441 -0.03638,-0.006 -0.06615,-0.0173 -0.06615,-0.0246 0,-0.018 0.0679,-0.33055 0.08969,-0.41289 0.01359,-0.0514 0.02622,-0.0661 0.05651,-0.0659 0.02145,1.4e-4 0.245383,0.0562 0.497619,0.1245 0.252236,0.0683 0.585611,0.15865 0.740833,0.20071 0.155222,0.0421 0.540191,0.14605 0.855486,0.23108 0.315295,0.085 0.608983,0.16445 0.652639,0.17647 0.04366,0.012 0.1905,0.0511 0.32632,0.0869 0.135819,0.0358 0.254485,0.0723 0.263701,0.0812 0.0092,0.009 0.037,0.016 0.06174,0.0158 0.03914,-3.5e-4 0.179267,0.0358 0.688799,0.17793 0.302575,0.0844 0.747319,0.20472 1.26118,0.3413 0.310445,0.0825 0.635882,0.17093 0.723195,0.19649 0.08731,0.0256 0.202406,0.058 0.255763,0.0721 0.205561,0.0544 0.291656,0.0813 0.307799,0.0965 0.0224,0.021 -0.03933,0.0165 -0.201965,-0.0146 z m 3.501319,-0.0133 c 0.133683,-0.0467 0.729983,-0.211 1.516945,-0.41788 0.14552,-0.0383 0.36777,-0.0968 0.493888,-0.13012 0.126118,-0.0333 0.380118,-0.10007 0.564445,-0.14837 0.184326,-0.0483 0.388124,-0.10323 0.452883,-0.12209 0.06476,-0.0188 0.122319,-0.0297 0.127909,-0.0241 0.0056,0.006 0.02801,9.2e-4 0.04982,-0.0104 0.03668,-0.019 0.498039,-0.14565 1.15973,-0.31835 0.150372,-0.0393 0.380559,-0.10002 0.511528,-0.13504 0.130969,-0.035 0.373062,-0.0993 0.537986,-0.14274 0.164923,-0.0435 0.434798,-0.11479 0.599722,-0.15846 0.565817,-0.14982 0.537321,-0.14362 0.556112,-0.12098 0.02126,0.0256 0.113169,0.42962 0.100598,0.4422 -0.0049,0.005 -0.122968,0.0318 -0.262288,0.0597 -0.802887,0.16063 -1.204222,0.24004 -1.479214,0.29269 -0.169774,0.0325 -0.431711,0.0837 -0.582083,0.11367 -0.311625,0.0622 -0.781896,0.15371 -0.899583,0.17503 -0.04366,0.008 -0.305594,0.0594 -0.582084,0.11448 -0.276489,0.055 -0.601927,0.1193 -0.723194,0.14279 -0.287322,0.0556 -0.429234,0.0842 -0.746099,0.15021 -0.143566,0.0299 -0.345972,0.0696 -0.449791,0.0881 -0.10382,0.0186 -0.268138,0.0498 -0.365152,0.0695 -0.150098,0.0304 -0.463012,0.0856 -0.652638,0.11508 -0.02911,0.005 0.0026,-0.0112 0.07055,-0.0349 z m -8.263819,-6.8229 c 0,-0.0221 0.01071,-0.0797 0.0238,-0.12788 0.01309,-0.0482 0.04914,-0.18288 0.08012,-0.2993 0.03098,-0.11642 0.07168,-0.26723 0.09046,-0.33514 0.04202,-0.15196 0.104081,-0.38359 0.252853,-0.94368 0.06314,-0.23768 0.179637,-0.67424 0.258893,-0.97014 0.140516,-0.52459 0.181357,-0.67928 0.33296,-1.26118 0.04044,-0.15522 0.08513,-0.30469 0.09931,-0.33216 0.01418,-0.0275 0.0259,-0.0711 0.02605,-0.097 1.41e-4,-0.0259 0.0078,-0.0589 0.0169,-0.0734 0.02836,-0.0448 0.05374,0.003 0.07107,0.13381 0.0089,0.067 0.02094,0.14959 0.02683,0.18354 0.09334,0.53828 0.120389,0.85463 0.119904,1.4023 -4.48e-4,0.50713 -0.01705,0.71525 -0.08478,1.06246 -0.109782,0.56285 -0.297519,0.97015 -0.590161,1.28037 -0.144213,0.15287 -0.290494,0.25773 -0.484777,0.34749 -0.177665,0.0821 -0.239429,0.0898 -0.239429,0.0299 z m 12.885208,-0.028 c -0.17477,-0.0837 -0.24973,-0.13391 -0.400833,-0.26852 -0.451959,-0.40261 -0.71079,-1.1205 -0.753035,-2.08861 -0.01289,-0.29528 -2.65e-4,-0.86676 0.02318,-1.04951 0.0056,-0.0437 0.02275,-0.19844 0.03811,-0.34396 0.01536,-0.14552 0.03927,-0.29973 0.05314,-0.34269 0.01387,-0.043 0.02521,-0.10096 0.02521,-0.12889 0,-0.0279 0.009,-0.0866 0.02007,-0.13049 0.0169,-0.0671 0.02386,-0.0759 0.044,-0.0558 0.01316,0.0132 0.02646,0.0475 0.02956,0.0763 0.0031,0.0288 0.01511,0.0722 0.0267,0.0965 0.01159,0.0243 0.04001,0.11951 0.06316,0.21167 0.02315,0.0922 0.07963,0.30648 0.125508,0.47625 0.04588,0.16977 0.109567,0.4079 0.141522,0.52917 0.05953,0.2259 0.06935,0.26268 0.211895,0.79375 0.188043,0.70056 0.242251,0.90304 0.306935,1.14652 0.03737,0.14067 0.09762,0.36689 0.133889,0.50271 0.126708,0.4745 0.161715,0.61746 0.154409,0.63059 -0.01663,0.0299 -0.11043,0.009 -0.243402,-0.055 z m -6.911271,-0.15595 c -0.02016,-0.0326 -0.0159,-4.44515 0.0043,-4.48296 0.01335,-0.0249 0.01309,-0.0367 -9e-4,-0.0414 -0.0136,-0.005 -0.01866,-0.11456 -0.01657,-0.36083 0.0026,-0.31061 -6.53e-4,-0.35797 -0.02659,-0.3839 -0.04915,-0.0491 -0.102247,-0.0282 -0.120997,0.0477 l -0.01644,0.0665 -0.301062,-0.005 -0.301061,-0.005 -0.0061,-0.0441 c -0.01247,-0.0901 0.0031,-0.0882 -0.715727,-0.0882 -0.713579,0 -0.715743,2.5e-4 -0.715743,0.0833 0,0.0268 -0.01378,0.0457 -0.03969,0.0545 -0.04672,0.0159 -0.575294,0.0115 -0.591687,-0.005 -0.0062,-0.006 -0.01943,-0.0366 -0.02947,-0.0677 l -0.01825,-0.0565 h -0.695615 -0.695615 l -0.01504,0.058 c -0.0094,0.0364 -0.02958,0.0627 -0.05404,0.0706 -0.02145,0.007 -0.158065,0.009 -0.303586,0.004 l -0.264583,-0.009 -0.006,-0.0529 c -0.0033,-0.0291 -0.01521,-0.0587 -0.02646,-0.0659 -0.01125,-0.007 -0.105461,-0.0131 -0.209354,-0.0133 -0.26932,-3.8e-4 -0.450219,-0.0297 -0.477401,-0.0775 -0.03227,-0.0567 -0.03985,-1.02727 -0.0085,-1.08698 l 0.02316,-0.0441 0.342117,-0.005 c 0.215959,-0.003 0.350741,-0.012 0.365502,-0.0242 0.01286,-0.0107 0.02338,-0.0425 0.02338,-0.0706 v -0.0512 l 0.277813,0.005 0.277812,0.005 0.0088,0.0617 0.0088,0.0617 0.696736,0.005 c 0.383205,0.003 0.714596,5.7e-4 0.736424,-0.005 0.03177,-0.008 0.03969,-0.022 0.03969,-0.0715 v -0.0618 l 0.304271,0.005 0.304271,0.005 0.0088,0.0617 0.0088,0.0617 0.712324,0.005 c 0.511167,0.003 0.71913,-0.001 0.736423,-0.0154 0.01325,-0.011 0.0241,-0.0428 0.0241,-0.0708 v -0.0507 h 0.281157 0.281158 l 0.0055,0.0661 0.0055,0.0661 h 0.749652 0.749653 l 0.0055,-0.0661 0.0055,-0.0661 h 0.281158 c 0.278918,0 0.292238,0.003 0.283008,0.058 -0.0013,0.008 0.006,0.0296 0.01628,0.0487 0.01811,0.0338 0.03777,0.0346 0.736662,0.0301 l 0.718058,-0.005 0.0088,-0.0617 0.0088,-0.0617 0.303182,-0.005 0.303181,-0.005 0.0055,0.0666 0.0055,0.0666 h 0.732014 0.732014 l 0.0088,-0.0617 0.0088,-0.0617 0.277812,-0.005 0.277813,-0.005 v 0.0497 c 0,0.0881 0.01622,0.0921 0.375104,0.0921 0.324017,0 0.388889,0.009 0.422786,0.06 0.0071,0.0107 0.01308,0.24674 0.01323,0.52458 2.47e-4,0.46194 -0.0025,0.50854 -0.03174,0.54469 -0.04209,0.052 -0.150078,0.0721 -0.43542,0.0813 -0.299572,0.01 -0.305172,0.0111 -0.311977,0.0816 l -0.0055,0.0573 -0.304271,0.005 -0.30427,0.005 v -0.0498 c 0,-0.0274 -0.0095,-0.0593 -0.02117,-0.071 -0.02392,-0.0239 -1.347058,-0.0311 -1.384136,-0.007 -0.01136,0.007 -0.02616,0.0351 -0.0329,0.0619 -0.0067,0.0268 -0.02523,0.0548 -0.04109,0.0621 -0.03679,0.017 -0.570496,0.0141 -0.598632,-0.003 -0.01161,-0.007 -0.02111,-0.0308 -0.02111,-0.0526 0,-0.0813 -0.0046,-0.0819 -0.707641,-0.0819 -0.365919,0 -0.677863,0.005 -0.693208,0.0107 -0.01636,0.006 -0.0279,0.0314 -0.0279,0.0607 0,0.0275 -0.0082,0.055 -0.01818,0.0612 -0.02486,0.0154 -0.559679,0.022 -0.58356,0.007 -0.01053,-0.007 -0.0246,-0.0387 -0.03127,-0.0714 -0.0089,-0.0439 -0.02266,-0.0611 -0.05213,-0.0654 -0.0859,-0.0124 -0.09098,0.01 -0.09098,0.39597 0,0.23601 -0.0063,0.35944 -0.01826,0.35944 -0.01259,0 -0.01259,0.0106 0,0.0341 0.02584,0.0483 0.02516,3.60786 -7.14e-4,3.75059 -0.04188,0.23102 -0.203703,0.47591 -0.39554,0.59858 -0.16685,0.10669 -0.302733,0.1484 -0.524695,0.16108 -0.127986,0.007 -0.206083,0.005 -0.212965,-0.006 z m 1.099257,-4.56149 c 0,-0.003 -0.0258,-0.0288 -0.05733,-0.0573 l -0.05733,-0.0518 0.05181,0.0573 c 0.04829,0.0534 0.06285,0.0654 0.06285,0.0518 z m -0.123472,-0.12273 c 0,-0.003 -0.07342,-0.0761 -0.16316,-0.16316 l -0.16316,-0.15838 0.158383,0.16316 c 0.147102,0.15154 0.167937,0.17119 0.167937,0.15838 z m -0.544556,-0.23775 c 0.02194,-0.028 0.02132,-0.0286 -0.0067,-0.007 -0.01698,0.0133 -0.03087,0.0272 -0.03087,0.0309 0,0.0145 0.01448,0.005 0.03753,-0.0242 z m 0.16012,-0.11839 c 0.0053,0.005 0.01348,-0.0106 0.01819,-0.0352 0.007,-0.0364 0.0017,-0.0448 -0.028,-0.0448 -0.02012,0 -0.07226,-0.0337 -0.115872,-0.075 l -0.0793,-0.075 0.07422,0.0834 c 0.07666,0.0861 0.09023,0.13065 0.05217,0.17113 -0.01213,0.0129 -0.0016,0.0105 0.02346,-0.005 0.02503,-0.0158 0.04984,-0.0245 0.05513,-0.0192 z"
                   style="fill:#a2bc39;stroke-width:0.01763889" />
                <path
                   inkscape:connector-curvature="0"
                   id="path1635"
                   d="m 59.515353,245.88305 c 0.01273,-0.005 0.02795,-0.004 0.03381,0.001 0.0059,0.006 -0.0046,0.01 -0.02315,0.009 -0.02055,-8.4e-4 -0.02473,-0.005 -0.01066,-0.0106 z m -0.325794,-0.0512 c -0.05004,-0.0136 -0.200849,-0.0445 -0.335139,-0.0685 -0.134289,-0.0241 -0.323538,-0.0597 -0.420552,-0.0792 -0.223806,-0.045 -0.401046,-0.0804 -0.590902,-0.11813 -0.08246,-0.0164 -0.166672,-0.0405 -0.187133,-0.0536 -0.02046,-0.0131 -0.04899,-0.0193 -0.06341,-0.0137 -0.02743,0.0105 -0.468611,-0.065 -0.54077,-0.0926 -0.04139,-0.0158 -0.04118,-0.0164 0.0339,-0.09 0.04467,-0.0438 0.08694,-0.0707 0.103395,-0.0659 0.01531,0.005 0.04966,0.0134 0.07634,0.0198 0.02668,0.006 0.04851,0.0186 0.04851,0.0273 0,0.009 0.01837,0.0157 0.04083,0.0157 0.02246,0 0.163345,0.0324 0.31309,0.0719 0.149744,0.0396 0.346317,0.0908 0.436829,0.11386 0.09051,0.0231 0.209574,0.0591 0.264583,0.08 0.05501,0.0209 0.143674,0.0442 0.197031,0.0518 0.05336,0.008 0.119649,0.0227 0.147314,0.0336 0.02767,0.0109 0.0991,0.0309 0.15875,0.0444 0.119294,0.0271 0.413204,0.1049 0.496506,0.13138 0.05246,0.0167 0.05231,0.0168 -0.01764,0.0167 -0.03881,-5e-5 -0.111495,-0.0112 -0.161532,-0.0248 z m 5.487527,0.0118 c 0.0055,-0.009 0.04365,-0.0213 0.08483,-0.0276 0.04118,-0.006 0.110592,-0.0228 0.154248,-0.0366 0.04366,-0.0139 0.127,-0.0374 0.185208,-0.0523 0.05821,-0.0149 0.165365,-0.0436 0.238125,-0.0639 0.07276,-0.0202 0.19659,-0.0508 0.275177,-0.068 0.07859,-0.0172 0.159424,-0.0401 0.179639,-0.051 0.02022,-0.0108 0.05158,-0.0197 0.06971,-0.0197 0.01812,0 0.131755,-0.028 0.252514,-0.0622 0.120759,-0.0342 0.345802,-0.095 0.500096,-0.13521 l 0.280535,-0.0731 0.06182,0.0675 0.06182,0.0675 -0.09227,0.0236 c -0.05075,0.013 -0.177031,0.039 -0.280622,0.0578 -0.16883,0.0307 -0.381089,0.0731 -0.973279,0.19456 -0.101864,0.0209 -0.268552,0.0532 -0.370416,0.0718 -0.101865,0.0186 -0.275708,0.0538 -0.386318,0.0783 -0.219032,0.0485 -0.255905,0.0528 -0.240812,0.0284 z m -8.042384,-0.51572 c -0.126118,-0.0281 -0.292806,-0.0621 -0.370417,-0.0757 -0.07761,-0.0136 -0.215683,-0.0376 -0.306827,-0.0534 -0.09114,-0.0158 -0.210207,-0.0412 -0.264584,-0.0564 -0.101711,-0.0284 -0.168073,-0.0415 -0.380523,-0.0754 -0.0676,-0.0108 -0.174755,-0.0314 -0.238125,-0.0458 -0.06337,-0.0144 -0.262062,-0.0547 -0.441538,-0.0896 -0.179476,-0.0349 -0.440502,-0.0862 -0.580059,-0.11415 -0.139557,-0.0279 -0.292789,-0.0559 -0.340515,-0.0623 -0.06568,-0.009 -0.0844,-0.0177 -0.07699,-0.037 0.0054,-0.014 0.0098,-0.0372 0.0098,-0.0516 0,-0.0143 0.0078,-0.0212 0.01737,-0.0153 0.02482,0.0153 0.08617,-0.093 0.07558,-0.13349 -0.01107,-0.0423 -0.03483,-0.0439 -0.04551,-0.003 -0.0057,0.0218 -0.0086,0.0231 -0.0098,0.004 -9.38e-4,-0.0146 0.0093,-0.0661 0.02284,-0.11465 0.0135,-0.0485 0.02525,-0.0743 0.02612,-0.0573 0.0018,0.0359 0.003,0.0362 0.06088,0.0142 0.0325,-0.0124 0.08681,-0.005 0.208406,0.0266 0.09045,0.0238 0.180324,0.0504 0.199727,0.059 0.0194,0.009 0.146403,0.0437 0.282222,0.0779 0.386638,0.0973 0.761856,0.19759 0.846667,0.22624 0.0291,0.01 0.140229,0.0406 0.246945,0.0683 0.106715,0.0278 0.285309,0.0752 0.396875,0.10539 0.295682,0.0801 0.528068,0.14163 0.608541,0.16116 0.03881,0.009 0.134056,0.0358 0.211667,0.0587 0.07761,0.0229 0.170877,0.0466 0.207257,0.0528 0.09206,0.0156 0.08454,0.058 -0.02281,0.12865 -0.04788,0.0315 -0.09309,0.0563 -0.10047,0.055 -0.0074,-10e-4 -0.116606,-0.0252 -0.242724,-0.0533 z m 10.412409,-0.0121 c -0.0417,-0.0389 -0.06998,-0.0765 -0.06285,-0.0837 0.0071,-0.007 0.04676,-0.0194 0.08809,-0.0272 0.04132,-0.008 0.166416,-0.0389 0.277982,-0.0689 0.111566,-0.0301 0.230628,-0.0616 0.264583,-0.0701 0.03396,-0.008 0.14508,-0.0388 0.246944,-0.0673 0.101865,-0.0285 0.252677,-0.0689 0.335139,-0.0897 0.08246,-0.0208 0.177712,-0.0453 0.211667,-0.0544 0.03396,-0.009 0.14508,-0.0354 0.246944,-0.0583 0.101865,-0.0229 0.205052,-0.0509 0.229306,-0.0622 0.03892,-0.018 0.284002,-0.0862 0.458611,-0.12748 0.03396,-0.008 0.144678,-0.0387 0.246048,-0.0682 0.101373,-0.0294 0.230357,-0.0588 0.286632,-0.0651 0.05628,-0.006 0.10232,-0.0168 0.10232,-0.0233 0,-0.0108 0.08781,-0.039 0.22198,-0.0714 0.0804,-0.0194 0.104115,0.009 0.138111,0.16704 0.01672,0.0776 0.0342,0.15448 0.03883,0.17082 0.0065,0.0228 -0.003,0.0296 -0.04091,0.0292 -0.02713,-2.7e-4 -0.10886,0.0131 -0.18162,0.0297 -0.07276,0.0166 -0.183886,0.0403 -0.246945,0.0528 -0.06306,0.0124 -0.21784,0.044 -0.343958,0.0702 -0.126118,0.0261 -0.261055,0.0538 -0.299861,0.0614 -0.03881,0.008 -0.134056,0.0263 -0.211667,0.0415 -0.07761,0.0152 -0.260173,0.0484 -0.405694,0.0737 -0.145521,0.0253 -0.288396,0.0543 -0.3175,0.0644 -0.0291,0.0101 -0.164042,0.0374 -0.299861,0.0607 -0.13582,0.0233 -0.266788,0.0503 -0.291042,0.06 -0.02425,0.01 -0.119503,0.0298 -0.211667,0.0444 -0.240217,0.0382 -0.339758,0.0569 -0.373876,0.0704 -0.02066,0.008 -0.05339,-0.0101 -0.105728,-0.0589 z m -13.383169,-0.73637 c 8.46e-4,-0.0206 0.005,-0.0247 0.01066,-0.0107 0.0051,0.0127 0.0045,0.028 -0.0014,0.0338 -0.0059,0.006 -0.01003,-0.005 -0.0093,-0.0231 z m 1.843948,-5.4269 c 0.0062,-0.0412 0.02597,-0.11862 0.04388,-0.17198 0.01791,-0.0534 0.04476,-0.15556 0.05967,-0.22711 0.01491,-0.0715 0.03789,-0.1549 0.05106,-0.18521 0.032,-0.0737 0.08077,-0.2523 0.152256,-0.55782 0.03739,-0.15978 0.09813,-0.38354 0.120057,-0.44226 0.0088,-0.0236 0.02165,-0.0825 0.02858,-0.131 0.0069,-0.0485 0.02263,-0.10407 0.03489,-0.12347 0.01226,-0.0194 0.03973,-0.11466 0.06105,-0.21167 0.02132,-0.097 0.05425,-0.22798 0.07319,-0.29104 0.01894,-0.0631 0.04557,-0.16365 0.05917,-0.22354 0.0136,-0.0599 0.0298,-0.11707 0.03599,-0.12709 0.0062,-0.01 0.05153,-0.17533 0.100752,-0.36737 0.04922,-0.19203 0.09969,-0.38884 0.112143,-0.43735 0.01245,-0.0485 0.04044,-0.14773 0.06218,-0.22049 0.02175,-0.0728 0.04327,-0.16175 0.04784,-0.19776 0.0046,-0.036 0.01941,-0.0747 0.03298,-0.0859 0.01357,-0.0113 0.02467,-0.0513 0.02467,-0.0889 0,-0.0767 0.01952,-0.0882 0.04899,-0.0287 0.01903,0.0384 0.07578,0.4016 0.113696,0.7276 0.02161,0.18583 0.02839,1.13501 0.0096,1.34152 -0.02734,0.30023 -0.134809,0.82255 -0.174251,0.84693 -0.0086,0.005 -0.01566,0.0339 -0.01566,0.0636 0,0.0296 -0.01526,0.0827 -0.03392,0.11802 -0.01866,0.0353 -0.04653,0.10354 -0.06195,0.1517 -0.03159,0.0987 -0.105944,0.21461 -0.154203,0.24043 -0.01768,0.009 -0.0322,0.0348 -0.03226,0.0563 -1.41e-4,0.0467 -0.03214,0.096 -0.149814,0.23122 -0.116485,0.13381 -0.383479,0.31934 -0.490293,0.3407 -0.02926,0.006 -0.06784,0.0253 -0.08573,0.0432 -0.05866,0.0587 -0.08734,0.0423 -0.07454,-0.0424 z m 12.801075,-0.003 c -0.168327,-0.0847 -0.217907,-0.12154 -0.398135,-0.29561 -0.126037,-0.12173 -0.278281,-0.31648 -0.278281,-0.35597 0,-0.01 -0.01126,-0.0303 -0.02502,-0.0456 -0.01376,-0.0153 -0.05392,-0.0953 -0.08926,-0.17777 -0.108427,-0.25307 -0.126844,-0.3054 -0.161386,-0.45862 -0.01422,-0.0631 -0.03698,-0.15037 -0.05058,-0.19402 -0.0136,-0.0437 -0.04186,-0.23019 -0.0628,-0.41452 -0.0545,-0.47986 -0.04215,-1.05391 0.0368,-1.71097 0.03876,-0.32257 0.05765,-0.42497 0.08386,-0.45462 0.03592,-0.0406 0.04646,-0.026 0.0731,0.10184 0.01214,0.0582 0.03723,0.15743 0.05575,0.22049 0.01853,0.0631 0.04538,0.16656 0.05967,0.23001 0.0143,0.0634 0.04637,0.17781 0.07129,0.25414 0.02491,0.0763 0.06554,0.22681 0.09027,0.33443 0.02473,0.10761 0.06323,0.25519 0.08554,0.32795 0.05091,0.16602 0.07275,0.24775 0.09896,0.37041 0.0114,0.0534 0.03984,0.16052 0.0632,0.23813 0.02336,0.0776 0.04687,0.17683 0.05226,0.22048 0.0054,0.0437 0.02405,0.11122 0.04148,0.15013 0.01743,0.0389 0.05231,0.154 0.0775,0.25576 0.0252,0.10176 0.06195,0.24058 0.08168,0.30849 0.01973,0.0679 0.04722,0.1711 0.06109,0.2293 0.02305,0.0967 0.08466,0.32866 0.159297,0.59973 0.04583,0.16645 0.07793,0.29789 0.07861,0.32191 0.001,0.0358 -0.05221,0.0214 -0.2049,-0.0555 z m -11.774658,-5.34319 -0.0054,-0.0561 -0.356325,-0.009 c -0.243187,-0.006 -0.363045,-0.0155 -0.377492,-0.03 -0.03763,-0.0377 -0.04899,-0.18179 -0.0498,-0.63146 -5.76e-4,-0.3217 0.0052,-0.4529 0.0215,-0.48507 l 0.02229,-0.0441 0.342117,-0.005 c 0.215959,-0.003 0.350741,-0.012 0.365502,-0.0242 0.01286,-0.0107 0.02338,-0.0425 0.02338,-0.0706 v -0.0512 l 0.277813,0.005 0.277812,0.005 0.0088,0.0617 0.0088,0.0617 0.696736,0.005 c 0.383205,0.003 0.714596,5.7e-4 0.736424,-0.005 0.03177,-0.008 0.03969,-0.022 0.03969,-0.0715 v -0.0618 l 0.304271,0.005 0.304271,0.005 0.0088,0.0617 0.0088,0.0617 0.712324,0.005 c 0.511167,0.003 0.71913,-0.001 0.736423,-0.0154 0.01325,-0.011 0.0241,-0.0428 0.0241,-0.0708 v -0.0507 h 0.281157 0.281158 l 0.0055,0.0661 0.0055,0.0661 h 0.749652 0.749653 l 0.0055,-0.0661 0.0055,-0.0661 h 0.281158 c 0.278918,0 0.292238,0.003 0.283008,0.058 -0.0013,0.008 0.006,0.0296 0.01628,0.0487 0.01811,0.0338 0.03777,0.0346 0.736662,0.0301 l 0.718058,-0.005 0.0088,-0.0617 0.0088,-0.0617 0.303182,-0.005 0.303181,-0.005 0.0055,0.0666 0.0055,0.0666 h 0.732014 0.732014 l 0.0088,-0.0617 0.0088,-0.0617 0.277812,-0.005 0.277813,-0.005 v 0.0497 c 0,0.0881 0.01622,0.0921 0.375104,0.0921 0.324017,0 0.388889,0.009 0.422786,0.06 0.02048,0.0307 0.01623,1.01321 -0.0045,1.05204 -0.03553,0.0664 -0.08754,0.0764 -0.449388,0.0865 l -0.352778,0.01 -0.0056,0.0578 -0.0056,0.0578 -0.258869,-0.005 -0.258868,-0.005 -0.0091,-0.0529 -0.0091,-0.0529 h -0.749307 -0.749306 l -0.0091,0.0529 -0.0091,0.0529 -0.271913,0.005 c -0.288582,0.005 -0.300215,0.002 -0.300772,-0.0798 l -2.7e-4,-0.0397 h -0.748536 -0.748535 l -0.0055,0.0573 -0.0055,0.0573 h -0.26441 -0.264411 l -0.009,-0.0519 -0.009,-0.0519 -0.767292,-4e-5 -0.767291,-3e-5 -0.0056,0.0568 -0.0056,0.0568 -0.258868,-0.005 -0.258868,-0.005 -0.0091,-0.0529 -0.0091,-0.0529 h -0.758126 -0.758126 l -0.0091,0.0529 -0.0091,0.0529 -0.253206,0.005 c -0.270809,0.005 -0.302115,-0.003 -0.302115,-0.0778 v -0.0421 l -0.753892,0.005 -0.753893,0.005 -0.0092,0.0529 -0.0092,0.0529 -0.258968,0.003 -0.258969,0.003 z m 4.695325,-0.5935 c 0,-0.009 -0.02378,-0.0441 -0.05283,-0.0772 -0.05828,-0.0664 -0.409285,-0.41811 -0.486851,-0.48786 l -0.04904,-0.0441 0.03926,0.0529 c 0.02159,0.0291 0.05773,0.0807 0.0803,0.11465 0.02257,0.034 0.08379,0.0996 0.136038,0.14588 0.116512,0.1032 0.119027,0.10572 0.220523,0.22013 0.07909,0.0892 0.112599,0.11165 0.1126,0.0756 z m 1.629716,-0.0491 c 0.02346,-0.0364 0.07178,-0.09 0.107372,-0.11907 0.03559,-0.0291 0.0919,-0.0807 0.125132,-0.11465 0.03323,-0.034 0.08456,-0.0863 0.11407,-0.11629 0.0446,-0.0454 0.0495,-0.058 0.02907,-0.075 -0.01975,-0.0164 -0.05532,0.01 -0.180821,0.13393 -0.201914,0.19946 -0.289951,0.3002 -0.289951,0.3318 0,0.0479 0.05248,0.0254 0.09513,-0.0408 z m -6.237168,-0.38806 c 0.05926,-0.0846 0.07795,-0.12788 0.05521,-0.12788 -0.02681,0 -0.139701,0.12394 -0.139701,0.15338 0,0.0398 0.0491,0.025 0.08449,-0.0255 z m 10.809584,-0.0517 c -0.0146,-0.0273 -0.07694,-0.1039 -0.138549,-0.17015 -0.101945,-0.10963 -0.117488,-0.11993 -0.17297,-0.11466 l -0.06096,0.006 0.08378,0.0607 c 0.04608,0.0334 0.08407,0.0691 0.08442,0.0794 3.48e-4,0.0103 0.03687,0.0504 0.08116,0.0892 0.04429,0.0388 0.09355,0.0846 0.109473,0.10183 0.03856,0.0417 0.04684,0.01 0.01364,-0.0521 z m -10.644695,-0.15113 c 0.02866,-0.0218 0.07754,-0.0613 0.108623,-0.0877 0.05391,-0.0458 0.05463,-0.048 0.01566,-0.0485 -0.05926,-7.5e-4 -0.109084,0.0309 -0.109084,0.0694 0,0.0184 -0.02091,0.0498 -0.04648,0.0699 -0.02556,0.0201 -0.04071,0.0366 -0.03366,0.0366 0.0071,0 0.03627,-0.0179 0.06493,-0.0397 z m 0.244508,-0.10142 c 0,-0.01 -0.0084,-0.0176 -0.01868,-0.0176 -0.01027,0 -0.01377,0.008 -0.0078,0.0176 0.006,0.01 0.0144,0.0176 0.01868,0.0176 0.0043,0 0.0078,-0.008 0.0078,-0.0176 z"
                   style="fill:#97ad4a;stroke-width:0.01763889" />
                <path
                   sodipodi:nodetypes="ccccccccccccccsscccccccccccccccccsscccccccccccccccccccccssccccccccccccccsccccssscsscsssscsscscccccccccccccccsccccccccccsccccccccccccccscccccccccsccccsccccccccccccccccsscccccccccccccccccccccccccccccccccccccccsccccccccccccccccsccccccccccccccccccssssssscssccccccsccccccccccsscsccccccccccccccccccccccccccccccccscccccccccccccsccccccccccccccccccccc"
                   inkscape:connector-curvature="0"
                   id="path1633"
                   d="m 59.515353,245.88305 c 0.01273,-0.005 0.02795,-0.004 0.03381,0.001 0.0059,0.006 -0.0046,0.01 -0.02315,0.009 -0.02055,-8.4e-4 -0.02473,-0.005 -0.01066,-0.0106 z m -0.325794,-0.0512 c -0.05004,-0.0136 -0.200849,-0.0445 -0.335139,-0.0685 -0.134289,-0.0241 -0.323538,-0.0597 -0.420552,-0.0792 -0.223806,-0.045 -0.401046,-0.0804 -0.590902,-0.11813 -0.08246,-0.0164 -0.166672,-0.0405 -0.187133,-0.0536 -0.02046,-0.0131 -0.04899,-0.0193 -0.06341,-0.0137 -0.02687,0.0103 -0.468535,-0.0649 -0.537433,-0.0915 -0.04315,-0.0167 -0.03617,-0.0309 0.05674,-0.11544 0.04883,-0.0445 0.05753,-0.0464 0.127243,-0.0287 0.04115,0.0105 0.07483,0.026 0.07483,0.0345 0,0.009 0.01837,0.0155 0.04083,0.0155 0.02246,0 0.163345,0.0324 0.31309,0.0719 0.149744,0.0396 0.346317,0.0908 0.436829,0.11386 0.09051,0.0231 0.209574,0.0591 0.264583,0.08 0.05501,0.0209 0.143674,0.0442 0.197031,0.0518 0.05336,0.008 0.119649,0.0227 0.147314,0.0336 0.02767,0.0109 0.0991,0.0309 0.15875,0.0444 0.119294,0.0271 0.413204,0.1049 0.496506,0.13138 0.05246,0.0167 0.05231,0.0168 -0.01764,0.0167 -0.03881,-5e-5 -0.111495,-0.0112 -0.161532,-0.0248 z m 5.487527,0.0118 c 0.0055,-0.009 0.04365,-0.0213 0.08483,-0.0276 0.04118,-0.006 0.110592,-0.0228 0.154248,-0.0366 0.04366,-0.0139 0.127,-0.0374 0.185208,-0.0523 0.05821,-0.0149 0.165365,-0.0436 0.238125,-0.0639 0.07276,-0.0202 0.19659,-0.0508 0.275177,-0.068 0.07859,-0.0172 0.159424,-0.0401 0.179639,-0.051 0.02022,-0.0108 0.05158,-0.0197 0.06971,-0.0197 0.01812,0 0.131755,-0.028 0.252514,-0.0622 0.120759,-0.0342 0.346017,-0.0951 0.500573,-0.13533 l 0.281012,-0.0732 0.05895,0.0682 0.05895,0.0682 -0.08988,0.023 c -0.04943,0.0127 -0.174637,0.0384 -0.278228,0.0572 -0.16883,0.0307 -0.381089,0.0731 -0.973279,0.19456 -0.101864,0.0209 -0.268552,0.0532 -0.370416,0.0718 -0.101865,0.0186 -0.275708,0.0538 -0.386318,0.0783 -0.219032,0.0485 -0.255905,0.0528 -0.240812,0.0284 z m 1.627769,-0.36497 c -0.0059,-0.006 -0.02108,-0.006 -0.03381,-0.001 -0.01407,0.006 -0.0099,0.01 0.01066,0.0107 0.01859,7.6e-4 0.02901,-0.003 0.02315,-0.009 z m -9.670153,-0.15075 c -0.126118,-0.0281 -0.292806,-0.0621 -0.370417,-0.0757 -0.07761,-0.0136 -0.215683,-0.0376 -0.306827,-0.0534 -0.09114,-0.0158 -0.210207,-0.0412 -0.264584,-0.0564 -0.101711,-0.0284 -0.168073,-0.0415 -0.380523,-0.0754 -0.0676,-0.0108 -0.174755,-0.0314 -0.238125,-0.0458 -0.06337,-0.0144 -0.258094,-0.0539 -0.432719,-0.0877 -0.174625,-0.0338 -0.388937,-0.0764 -0.47625,-0.0945 -0.08731,-0.0182 -0.23614,-0.0469 -0.330729,-0.0638 -0.194552,-0.0349 -0.204701,-0.0474 -0.128761,-0.15934 0.03568,-0.0526 0.04012,-0.0718 0.02548,-0.11033 -0.02607,-0.0686 -0.006,-0.12121 0.05409,-0.14217 0.04165,-0.0145 0.08616,-0.009 0.216183,0.0249 0.09005,0.0237 0.17961,0.0502 0.199013,0.0589 0.0194,0.009 0.146403,0.0437 0.282222,0.0779 0.386638,0.0973 0.761856,0.19759 0.846667,0.22624 0.0291,0.01 0.140229,0.0406 0.246945,0.0683 0.106715,0.0278 0.285309,0.0752 0.396875,0.10539 0.295682,0.0801 0.528068,0.14163 0.608541,0.16116 0.03881,0.009 0.134056,0.0358 0.211667,0.0587 0.07761,0.0229 0.170877,0.0466 0.207257,0.0528 0.03638,0.006 0.06615,0.0155 0.06615,0.0208 0,0.0204 -0.161229,0.16508 -0.181476,0.1629 -0.01175,-0.001 -0.124559,-0.0252 -0.250677,-0.0533 z m -0.105833,-0.20901 c -0.006,-0.01 -0.02234,-0.0176 -0.03632,-0.0176 -0.01398,0 -0.02542,0.008 -0.02542,0.0176 0,0.01 0.01634,0.0176 0.03632,0.0176 0.01998,0 0.03141,-0.008 0.02542,-0.0176 z m -1.225903,-0.10583 c 0,-0.01 -0.01634,-0.0176 -0.03632,-0.0176 -0.01998,0 -0.03141,0.008 -0.02542,0.0176 0.006,0.01 0.02234,0.0176 0.03632,0.0176 0.01398,0 0.02542,-0.008 0.02542,-0.0176 z m -1.42875,-0.28222 c 0,-0.01 -0.01237,-0.0176 -0.0275,-0.0176 -0.01512,0 -0.02259,0.008 -0.0166,0.0176 0.006,0.01 0.01837,0.0176 0.0275,0.0176 0.0091,0 0.0166,-0.008 0.0166,-0.0176 z m -0.08654,-0.18179 c -0.01396,-0.014 -0.01929,-0.009 -0.01929,0.0166 0,0.0466 0.02467,0.0714 0.03252,0.0326 0.0033,-0.0165 -0.0026,-0.0386 -0.01323,-0.0492 z m 13.259435,0.76676 c -0.0417,-0.0389 -0.06998,-0.0765 -0.06285,-0.0837 0.0071,-0.007 0.04676,-0.0194 0.08809,-0.0272 0.04132,-0.008 0.166416,-0.0389 0.277982,-0.0689 0.111566,-0.0301 0.230628,-0.0616 0.264583,-0.0701 0.03396,-0.008 0.14508,-0.0388 0.246944,-0.0673 0.101865,-0.0285 0.252677,-0.0689 0.335139,-0.0897 0.08246,-0.0208 0.177712,-0.0453 0.211667,-0.0544 0.03396,-0.009 0.14508,-0.0354 0.246944,-0.0583 0.101865,-0.0229 0.205052,-0.0509 0.229306,-0.0622 0.03892,-0.018 0.284002,-0.0862 0.458611,-0.12748 0.03396,-0.008 0.144678,-0.0387 0.246048,-0.0682 0.101373,-0.0294 0.230357,-0.0588 0.286632,-0.0651 0.05628,-0.006 0.10232,-0.0168 0.10232,-0.0233 0,-0.0109 0.08858,-0.0393 0.224375,-0.0719 0.07459,-0.018 0.09278,0.006 0.09789,0.12824 0.0022,0.0535 0.0083,0.0948 0.01357,0.0916 0.0052,-0.003 0.01744,0.0285 0.02712,0.0702 0.01631,0.0703 0.01495,0.076 -0.01833,0.0767 -0.01977,4.1e-4 -0.09547,0.0142 -0.168234,0.0307 -0.07276,0.0165 -0.183886,0.0402 -0.246945,0.0526 -0.06306,0.0124 -0.21784,0.044 -0.343958,0.0702 -0.126118,0.0261 -0.261055,0.0538 -0.299861,0.0614 -0.03881,0.008 -0.134056,0.0263 -0.211667,0.0415 -0.07761,0.0152 -0.260173,0.0484 -0.405694,0.0737 -0.145521,0.0253 -0.288396,0.0543 -0.3175,0.0644 -0.0291,0.0101 -0.164042,0.0374 -0.299861,0.0607 -0.13582,0.0233 -0.266788,0.0503 -0.291042,0.06 -0.02425,0.01 -0.119503,0.0298 -0.211667,0.0444 -0.240217,0.0382 -0.339758,0.0569 -0.373876,0.0704 -0.02066,0.008 -0.05339,-0.0101 -0.105728,-0.0589 z M 55.50789,239.15263 c 0.0062,-0.0412 0.02597,-0.11862 0.04388,-0.17198 0.01791,-0.0534 0.04476,-0.15556 0.05967,-0.22711 0.01491,-0.0715 0.03789,-0.1549 0.05106,-0.18521 0.032,-0.0737 0.08077,-0.2523 0.152256,-0.55782 0.03739,-0.15978 0.09813,-0.38354 0.120057,-0.44226 0.0088,-0.0236 0.02165,-0.0825 0.02858,-0.131 0.0069,-0.0485 0.02263,-0.10407 0.03489,-0.12347 0.01226,-0.0194 0.03973,-0.11466 0.06105,-0.21167 0.02132,-0.097 0.05425,-0.22798 0.07319,-0.29104 0.01894,-0.0631 0.04557,-0.16365 0.05917,-0.22354 0.0136,-0.0599 0.0298,-0.11707 0.03599,-0.12709 0.0062,-0.01 0.05153,-0.17533 0.100752,-0.36737 0.04922,-0.19203 0.09969,-0.38884 0.112143,-0.43735 0.01245,-0.0485 0.04044,-0.14773 0.06218,-0.22049 0.02175,-0.0728 0.04327,-0.16175 0.04784,-0.19776 0.0046,-0.036 0.01941,-0.0747 0.03298,-0.0859 0.01379,-0.0114 0.02467,-0.0524 0.02467,-0.0928 0,-0.0713 4.62e-4,-0.0718 0.03304,-0.0375 0.03249,0.0342 0.07639,0.28504 0.129565,0.74034 0.02167,0.18555 0.02851,1.13461 0.0097,1.34152 -0.02734,0.30023 -0.134809,0.82255 -0.174251,0.84693 -0.0086,0.005 -0.01566,0.0339 -0.01566,0.0636 0,0.0296 -0.01526,0.0827 -0.03392,0.11802 -0.01866,0.0353 -0.04653,0.10354 -0.06195,0.1517 -0.03159,0.0987 -0.105944,0.21461 -0.154203,0.24043 -0.01768,0.009 -0.0322,0.0348 -0.03226,0.0563 -1.41e-4,0.0467 -0.03214,0.096 -0.149814,0.23122 -0.116485,0.13381 -0.383479,0.31934 -0.490293,0.3407 -0.02926,0.006 -0.06784,0.0253 -0.08573,0.0432 -0.05866,0.0587 -0.08734,0.0423 -0.07454,-0.0424 z m 1.112403,-3.84418 c -0.0056,-0.0141 -0.0098,-0.01 -0.01066,0.0107 -7.65e-4,0.0186 0.0034,0.029 0.0093,0.0232 0.0059,-0.006 0.0065,-0.0211 0.0014,-0.0338 z m 11.688672,3.84159 c -0.168327,-0.0847 -0.217907,-0.12154 -0.398135,-0.29561 -0.126037,-0.12173 -0.278281,-0.31648 -0.278281,-0.35597 0,-0.01 -0.01126,-0.0303 -0.02502,-0.0456 -0.01376,-0.0153 -0.05392,-0.0953 -0.08926,-0.17777 -0.108427,-0.25307 -0.126844,-0.3054 -0.161386,-0.45862 -0.01422,-0.0631 -0.03698,-0.15037 -0.05058,-0.19402 -0.0136,-0.0437 -0.04186,-0.23019 -0.0628,-0.41452 -0.0545,-0.47986 -0.04215,-1.05391 0.0368,-1.71097 0.03876,-0.32257 0.05765,-0.42497 0.08386,-0.45462 0.03592,-0.0406 0.04646,-0.026 0.0731,0.10184 0.01214,0.0582 0.03723,0.15743 0.05575,0.22049 0.01853,0.0631 0.04538,0.16656 0.05967,0.23001 0.0143,0.0634 0.04637,0.17781 0.07129,0.25414 0.02491,0.0763 0.06554,0.22681 0.09027,0.33443 0.02473,0.10761 0.06323,0.25519 0.08554,0.32795 0.05091,0.16602 0.07275,0.24775 0.09896,0.37041 0.0114,0.0534 0.03984,0.16052 0.0632,0.23813 0.02336,0.0776 0.04687,0.17683 0.05226,0.22048 0.0054,0.0437 0.02405,0.11122 0.04148,0.15013 0.01743,0.0389 0.05231,0.154 0.0775,0.25576 0.0252,0.10176 0.06195,0.24058 0.08168,0.30849 0.01973,0.0679 0.04722,0.1711 0.06109,0.2293 0.02305,0.0967 0.08466,0.32866 0.159297,0.59973 0.04583,0.16645 0.07793,0.29789 0.07861,0.32191 0.001,0.0358 -0.05221,0.0214 -0.2049,-0.0555 z M 56.537688,233.8123 c 0,-0.0279 -0.0066,-0.0547 -0.01463,-0.0597 -0.008,-0.005 -0.125123,-0.0104 -0.260173,-0.0122 -0.167614,-0.002 -0.255986,-0.0104 -0.278439,-0.0259 -0.01809,-0.0126 -0.04391,-0.0186 -0.05737,-0.0134 -0.04365,0.0168 -0.10606,-0.0102 -0.126228,-0.0544 -0.02164,-0.58291 0.414929,-1.06603 1.178409,-1.21032 0.05716,-0.0306 0.07511,-0.0211 0.06409,0.0341 -0.0195,0.0975 -0.01598,0.098 0.709697,0.10411 0.364751,0.003 0.705123,4.7e-4 0.756383,-0.006 l 0.0932,-0.0113 -0.005,-0.0648 -0.005,-0.0648 0.09701,-0.006 c 0.05336,-0.003 0.178374,-4.6e-4 0.277813,0.006 l 0.180798,0.012 v 0.059 c 0,0.0324 0.008,0.064 0.01782,0.07 0.0098,0.006 0.313412,0.0108 0.674688,0.0106 1.274333,-0.0811 1.574694,0.69586 1.882771,1.1754 0,0.005 -0.113109,0.006 -0.251354,0.002 l -0.251354,-0.007 -0.0056,0.0578 -0.0056,0.0578 -0.258868,-0.005 -0.258868,-0.005 -0.0091,-0.0529 -0.0091,-0.0529 h -0.758126 -0.758126 l -0.0091,0.0529 -0.0091,0.0529 -0.253206,0.005 c -0.270809,0.005 -0.302115,-0.003 -0.302115,-0.0778 v -0.0421 l -0.753892,0.005 -0.753893,0.005 -0.0092,0.0529 -0.0092,0.0529 -0.259997,0.003 -0.259997,0.003 z m -0.423333,-0.13318 c 0,-0.0151 -0.0081,-0.0225 -0.01793,-0.0164 -0.0099,0.006 -0.01336,0.0185 -0.0078,0.0275 0.01512,0.0245 0.02571,0.0199 0.02571,-0.0111 z m 3.044545,-0.93786 c -0.01793,-0.0179 -0.03272,0.009 -0.01801,0.0329 0.01111,0.018 0.01527,0.018 0.02124,7e-5 0.0041,-0.0123 0.0026,-0.0271 -0.0032,-0.0329 z m -2.074406,-0.0401 c 0,-0.01 -0.0079,-0.0176 -0.01764,-0.0176 -0.0097,0 -0.01764,0.008 -0.01764,0.0176 0,0.01 0.0079,0.0176 0.01764,0.0176 0.0097,0 0.01764,-0.008 0.01764,-0.0176 z m -0.05292,-0.22931 c 0,-0.01 -0.0084,-0.0176 -0.01868,-0.0176 -0.01027,0 -0.01377,0.008 -0.0078,0.0176 0.006,0.01 0.0144,0.0176 0.01868,0.0176 0.0043,0 0.0078,-0.008 0.0078,-0.0176 z m 5.742119,1.3719 c -0.0041,-0.0124 -0.01007,-0.0384 -0.0133,-0.0578 -0.0056,-0.0336 -0.01707,-0.035 -0.247977,-0.0289 -0.244803,0.006 -0.290876,-0.006 -0.202534,-0.0528 -0.121856,-1.05019 1.165821,-1.11581 1.784288,-1.12691 0.330825,-1.1e-4 0.631266,-0.005 0.667646,-0.0111 0.06286,-0.0104 0.06615,-0.0143 0.06615,-0.0777 v -0.0668 h 0.275528 0.275528 l -0.0089,0.0662 c -0.01056,0.0787 0.01415,0.13599 0.04692,0.10879 0.01392,-0.0115 0.28614,-0.0199 0.752347,-0.023 l 0.730536,-0.005 0.01078,-0.0663 c 0.01383,-0.0851 0.01996,-0.0901 0.09353,-0.0763 0.04775,0.009 0.107885,0.0581 0.272468,0.22261 0.116157,0.11611 0.219923,0.21111 0.230591,0.21111 0.01067,0 0.01939,0.007 0.01939,0.0152 0,0.0133 0.5437,0.56197 0.64823,0.65412 0.07044,0.0621 0.04295,0.15972 -0.04496,0.15972 -0.02327,0 -0.06733,0.0118 -0.0979,0.0262 -0.03964,0.0187 -0.131481,0.0275 -0.320166,0.0309 l -0.264584,0.005 -0.0056,0.0578 -0.0056,0.0578 -0.258869,-0.005 -0.258868,-0.005 -0.0091,-0.0529 -0.0091,-0.0529 H 66.15086 65.401554 l -0.0091,0.0529 -0.0091,0.0529 -0.271913,0.005 c -0.288582,0.005 -0.300215,0.002 -0.300772,-0.0798 l -2.7e-4,-0.0397 h -0.748536 -0.748535 l -0.0055,0.0573 -0.0055,0.0573 -0.260546,0.005 c -0.199192,0.004 -0.262291,-4.2e-4 -0.26796,-0.0176 z m -0.992848,-0.10579 c -0.02183,-0.0105 -0.03969,-0.027 -0.03969,-0.0366 -0.398575,-0.36763 -0.719821,-0.82445 -1.05772,-1.1424 0.0084,-0.0156 0.01111,-0.0442 0.0061,-0.0634 -0.0173,-0.0662 0.02774,-0.0779 0.277976,-0.0727 l 0.235684,0.005 0.0054,0.056 c 0.003,0.0308 0.01531,0.0642 0.02739,0.0742 0.01713,0.0142 1.058835,0.0285 1.488537,0.0204 0.03504,-6.6e-4 0.03969,-0.01 0.03969,-0.0784 v -0.0777 l 0.260173,0.003 0.260174,0.003 -0.0038,0.0522 c -0.0021,0.0287 0.0086,0.0659 0.02378,0.0827 -0.445189,0.60043 -0.707273,0.7719 -1.125077,1.19688 l -0.179454,-0.001 c -0.0987,-6.6e-4 -0.197314,-0.01 -0.219142,-0.0203 z m -6.001632,-0.67417 c 0,-0.33963 0.0054,-0.45222 0.02205,-0.46302 0.02631,-0.017 0.01109,-0.0163 0.414514,-0.0201 l 0.32191,-0.003 v -0.0711 c 0,-0.0893 0.04214,-0.11304 0.09006,-0.0507 0.02497,0.0325 0.03272,0.0356 0.03302,0.0135 5.24e-4,-0.0387 0.03155,-0.0484 0.111844,-0.0351 l 0.06667,0.0111 c -0.346779,0.35988 -0.696791,0.71774 -1.053418,1.06716 -0.0037,0 -0.0067,-0.20194 -0.0067,-0.44876 z m 12.338664,0.33362 c -0.03866,-0.0438 -0.07611,-0.0953 -0.08322,-0.11451 -0.0071,-0.0192 -0.0231,-0.035 -0.03554,-0.035 -0.02119,-7e-5 -0.308797,-0.28099 -0.65906,-0.64374 l -0.153288,-0.15875 0.095,-0.009 c 0.138415,-0.013 0.153989,-0.006 0.160194,0.068 l 0.0054,0.0643 0.366371,0.0101 c 0.254384,0.007 0.372999,0.0167 0.388055,0.0317 0.0152,0.0152 0.02357,0.12443 0.02798,0.36554 0.0061,0.33145 -0.0039,0.5012 -0.02943,0.50091 -0.0067,-7e-5 -0.04378,-0.036 -0.08244,-0.0797 z"
                   style="fill:#93ad3a;stroke-width:0.01763889" />
              </g>
            </g>
          </g>
        </g>
      </g>
    </g>
  </g>
</svg>
