<?xml version="1.0" encoding="UTF-8" standalone="no"?>
<!-- Created with Inkscape (http://www.inkscape.org/) -->

<svg
   xmlns:dc="http://purl.org/dc/elements/1.1/"
   xmlns:cc="http://creativecommons.org/ns#"
   xmlns:rdf="http://www.w3.org/1999/02/22-rdf-syntax-ns#"
   xmlns:svg="http://www.w3.org/2000/svg"
   xmlns="http://www.w3.org/2000/svg"
   xmlns:sodipodi="http://sodipodi.sourceforge.net/DTD/sodipodi-0.dtd"
   xmlns:inkscape="http://www.inkscape.org/namespaces/inkscape"
   viewBox="0 0 132.29167 132.29167"
   version="1.1"
   id="svg8"
   inkscape:version="0.92.5 (2060ec1f9f, 2020-04-08)"
   sodipodi:docname="darkbluehoody.svg">
  <defs
     id="defs2" />
  <sodipodi:namedview
     id="base"
     pagecolor="#ffffff"
     bordercolor="#666666"
     borderopacity="1.0"
     inkscape:pageopacity="0.0"
     inkscape:pageshadow="2"
     inkscape:zoom="0.7"
     inkscape:cx="98.175112"
     inkscape:cy="220.06683"
     inkscape:document-units="mm"
     inkscape:current-layer="layer1"
     showgrid="false"
     units="px"
     showguides="true"
     inkscape:guide-bbox="true"
     inkscape:window-width="1366"
     inkscape:window-height="731"
     inkscape:window-x="0"
     inkscape:window-y="0"
     inkscape:window-maximized="1" />
  <metadata
     id="metadata5">
    <rdf:RDF>
      <cc:Work
         rdf:about="">
        <dc:format>image/svg+xml</dc:format>
        <dc:type
           rdf:resource="http://purl.org/dc/dcmitype/StillImage" />
        <dc:title></dc:title>
      </cc:Work>
    </rdf:RDF>
  </metadata>
  <g
     inkscape:label="Layer 1"
     inkscape:groupmode="layer"
     id="layer1"
     transform="translate(0,-164.70832)">
    <g
       id="g1379"
       transform="matrix(6.215208,0,0,6.215208,-351.1925,-1197.1387)">
      <path
         style="fill:#919bad;stroke-width:0.01763889"
         d="m 62.371744,239.72015 c -0.02595,-0.0152 -0.03087,-0.0446 -0.03087,-0.18475 v -0.16669 h -0.14931 c -0.129783,0 -0.151708,-0.004 -0.167647,-0.0343 -0.01241,-0.0232 -0.01819,-0.73151 -0.01787,-2.19164 0.0012,-5.67251 -9.66e-4,-7.67474 -0.0084,-7.66733 -0.0044,0.004 -0.0204,0.0911 -0.03546,0.19256 -0.029,0.19533 -0.161181,1.14097 -0.176185,1.26046 -0.01327,0.10571 -0.187448,1.35792 -0.33735,2.42535 -0.313635,2.23334 -0.741169,5.18636 -0.759428,5.24544 -0.01189,0.0385 -0.0053,0.0388 -0.553226,-0.0318 -0.189177,-0.0244 -0.56224,-0.0721 -0.829028,-0.10594 -0.958134,-0.12167 -1.171563,-0.15151 -1.185862,-0.16581 -0.008,-0.008 -0.0021,-0.12504 0.01311,-0.26012 0.05577,-0.49564 0.190336,-1.92767 0.299888,-3.19129 0.02355,-0.27163 0.05113,-0.57723 0.0613,-0.67909 0.01016,-0.10187 0.03808,-0.41143 0.06204,-0.68792 0.385634,-4.45069 0.740315,-6.70437 1.312327,-8.33866 0.266124,-0.76033 0.579135,-1.34946 0.944281,-1.77724 0.32076,-0.37579 0.740369,-0.66875 1.113005,-0.77708 0.0517,-0.015 0.433846,-0.18877 0.849214,-0.38609 1.323614,-0.62879 1.314128,-0.624 1.30424,-0.6582 -0.01409,-0.0487 -0.06025,-0.31373 -0.08997,-0.5165 -0.03293,-0.22465 -0.03788,-0.58759 -0.01087,-0.79573 0.02938,-0.22637 0.105929,-0.50886 0.137871,-0.50881 0.0075,10e-6 0.108916,0.0386 0.225333,0.0858 0.756436,0.30671 1.3744,0.46579 2.178402,0.56077 0.310089,0.0366 1.092178,0.0415 1.384653,0.009 0.862915,-0.0969 1.557183,-0.27041 2.340908,-0.58491 0.157049,-0.063 0.193543,-0.072 0.216077,-0.0533 0.01491,0.0124 0.02711,0.0409 0.02711,0.0633 0,0.0224 0.0077,0.0611 0.01713,0.0859 0.02647,0.0696 0.06672,0.35177 0.07944,0.55695 0.01365,0.22008 -0.01054,0.54267 -0.06347,0.84667 -0.02112,0.12127 -0.03919,0.23529 -0.04016,0.2534 -0.0014,0.0256 0.07101,0.0696 0.324556,0.19726 0.707182,0.35618 1.638262,0.79552 1.797384,0.84811 0.511702,0.16915 0.946993,0.51578 1.322611,1.05324 0.884516,1.26561 1.441274,3.54879 1.854523,7.60514 0.02866,0.28134 0.05637,0.54328 0.06158,0.58208 0.01206,0.0898 0.07969,0.81082 0.158835,1.69334 0.03393,0.37835 0.08505,0.94588 0.113587,1.26118 0.02854,0.31529 0.07223,0.79948 0.09708,1.07597 0.06516,0.72488 0.210081,2.1993 0.230588,2.34597 0.0047,0.034 0.0022,0.0715 -0.0056,0.0834 -0.0139,0.0212 -0.196301,0.0475 -1.132686,0.16344 -0.227983,0.0282 -0.608983,0.0767 -0.846667,0.10761 -0.237684,0.031 -0.475691,0.0571 -0.528904,0.0582 l -0.09675,0.002 -0.03943,-0.28223 c -0.02168,-0.15522 -0.06758,-0.48462 -0.102,-0.73201 -0.09898,-0.71148 -0.172415,-1.22967 -0.327438,-2.31069 -0.03826,-0.26679 -0.196383,-1.37407 -0.351387,-2.46063 -0.155005,-1.08655 -0.294219,-2.0589 -0.309366,-2.16076 -0.01515,-0.10187 -0.05909,-0.41086 -0.09766,-0.68665 -0.03857,-0.27579 -0.074,-0.50532 -0.07874,-0.51006 -0.0079,-0.008 -0.01003,1.78821 -0.0089,7.62275 2.79e-4,1.48824 -0.0055,2.2126 -0.01789,2.23572 -0.0159,0.0297 -0.03792,0.0342 -0.167616,0.0342 h -0.149311 v 0.16695 c 0,0.14105 -0.0048,0.16947 -0.03087,0.18319 -0.04468,0.0235 -9.740578,0.0248 -9.780763,0.001 z"
         id="path1395"
         inkscape:connector-curvature="0" />
      <path
         style="fill:#deb820;stroke-width:0.01763889"
         d="m 62.370922,239.69274 c -0.0068,-0.007 -0.01241,-0.0856 -0.01241,-0.17515 0,-0.18982 0.0057,-0.18416 -0.186651,-0.18416 h -0.130849 l -7.45e-4,-3.02948 c -4.09e-4,-1.66621 -0.0047,-3.53748 -0.0095,-4.15837 -0.0048,-0.62088 -0.0085,-1.52139 -0.0081,-2.00113 4.5e-4,-0.5536 -0.0054,-0.86609 -0.01612,-0.85541 -0.0093,0.009 -0.05315,0.27874 -0.09754,0.59884 -0.04439,0.32011 -0.08822,0.62964 -0.0974,0.68784 -0.0092,0.0582 -0.0327,0.22887 -0.05227,0.37924 -0.01957,0.15037 -0.06349,0.47184 -0.09762,0.71437 -0.03413,0.24254 -0.08942,0.63941 -0.122881,0.88195 -0.03346,0.24253 -0.08442,0.60766 -0.113247,0.81139 -0.02883,0.20373 -0.07297,0.51726 -0.0981,0.69673 -0.02513,0.17948 -0.09772,0.68748 -0.161318,1.12889 -0.0636,0.44142 -0.122214,0.8502 -0.130261,0.90841 -0.04931,0.35665 -0.09233,0.6566 -0.115122,0.80257 -0.01439,0.0922 -0.07386,0.49576 -0.132159,0.89688 -0.0583,0.40112 -0.111016,0.74932 -0.117152,0.77377 -0.0105,0.0418 -0.01597,0.0437 -0.09251,0.0326 -0.04474,-0.007 -0.263917,-0.0349 -0.487049,-0.0631 -1.428648,-0.1806 -1.94032,-0.25006 -1.94933,-0.26464 -0.0056,-0.009 -3.5e-5,-0.10998 0.01243,-0.22417 0.01247,-0.11418 0.04654,-0.45764 0.07571,-0.76323 0.02918,-0.30559 0.05704,-0.58341 0.06193,-0.61736 0.0049,-0.034 0.03306,-0.33558 0.06262,-0.67028 0.288329,-3.26543 0.329664,-3.71929 0.430532,-4.72722 0.05091,-0.50871 0.135404,-1.2554 0.186627,-1.64924 0.1163,-0.89418 0.112521,-0.86829 0.239382,-1.64041 0.533057,-3.24439 1.381275,-4.93299 2.696903,-5.3689 0.148375,-0.0492 0.86964,-0.38255 1.57868,-0.72972 0.169775,-0.0831 0.378134,-0.1831 0.463021,-0.22217 0.08489,-0.0391 0.154341,-0.0804 0.154341,-0.0918 0,-0.0114 -0.01901,-0.129 -0.04226,-0.26132 -0.02324,-0.13232 -0.04282,-0.25645 -0.04352,-0.27586 -6.93e-4,-0.0194 -0.0099,-0.0948 -0.02039,-0.16756 -0.02128,-0.14718 -0.01382,-0.45629 0.01547,-0.64093 0.02248,-0.14173 0.0898,-0.42271 0.108527,-0.45301 0.0095,-0.0153 0.07755,0.003 0.248957,0.068 0.577694,0.21825 0.843492,0.30093 1.308829,0.4071 1.451273,0.33111 3.020076,0.18218 4.547589,-0.43171 0.129032,-0.0519 0.203531,-0.0734 0.214825,-0.0621 0.0095,0.01 0.02368,0.0514 0.03148,0.0931 0.0078,0.0417 0.0266,0.13139 0.04177,0.1993 0.01627,0.0729 0.03175,0.25634 0.03776,0.44766 0.01061,0.33743 -0.0032,0.51943 -0.06576,0.86543 -0.01831,0.10131 -0.03329,0.19514 -0.03329,0.20852 0,0.0423 1.879647,0.95392 2.154669,1.04504 1.333586,0.44187 2.187202,2.14848 2.739338,5.47668 0.112993,0.68111 0.255799,1.7142 0.318193,2.30188 0.01494,0.14067 0.03114,0.27957 0.03602,0.30868 0.0049,0.0291 0.03284,0.28707 0.06215,0.57326 0.09377,0.91573 0.161323,1.63689 0.33375,3.56306 0.112487,1.25657 0.144528,1.60394 0.204188,2.21368 0.03417,0.34925 0.07371,0.73818 0.08786,0.8643 0.02864,0.25527 0.03261,0.37924 0.01214,0.37924 -0.0075,0 -0.362701,0.044 -0.78934,0.0977 -1.274429,0.16049 -1.582884,0.19971 -1.669978,0.21234 -0.07737,0.0112 -0.08348,0.009 -0.09201,-0.0299 -0.0093,-0.0427 -0.06867,-0.46344 -0.212517,-1.50599 -0.04417,-0.32014 -0.08802,-0.62574 -0.09743,-0.67909 -0.0094,-0.0534 -0.02911,-0.19227 -0.04378,-0.30868 -0.01467,-0.11642 -0.03858,-0.29104 -0.05314,-0.38806 -0.01456,-0.097 -0.04619,-0.31529 -0.07029,-0.48507 -0.103395,-0.72834 -0.258292,-1.8039 -0.28324,-1.96673 -0.01486,-0.097 -0.09398,-0.65264 -0.175807,-1.23473 -0.08183,-0.58208 -0.164771,-1.16549 -0.184313,-1.29645 -0.01954,-0.13097 -0.07197,-0.50007 -0.116518,-0.82021 -0.04454,-0.32015 -0.08838,-0.58963 -0.09741,-0.59884 -0.01014,-0.0104 -0.01614,0.32686 -0.01567,0.88194 4.13e-4,0.49429 -0.0032,1.43845 -0.0081,2.09815 -0.0049,0.65969 -0.0092,2.51905 -0.0096,4.13191 l -6.78e-4,2.93246 -0.136702,2.7e-4 c -0.07519,1.7e-4 -0.146303,0.006 -0.158038,0.0138 -0.01358,0.009 -0.0232,0.0743 -0.02646,0.18053 l -0.0051,0.16697 -4.886794,0.005 c -2.687737,0.003 -4.892377,-5.3e-4 -4.899201,-0.007 z"
         id="path1393"
         inkscape:connector-curvature="0" />
      <path
         style="fill:#7786a3;stroke-width:0.01763889"
         d="m 62.370922,239.69274 c -0.0068,-0.007 -0.01241,-0.0856 -0.01241,-0.17515 0,-0.18982 0.0057,-0.18416 -0.186651,-0.18416 h -0.130849 l -7.45e-4,-3.02948 c -4.09e-4,-1.66621 -0.0047,-3.53748 -0.0095,-4.15837 -0.0048,-0.62088 -0.0085,-1.52139 -0.0081,-2.00113 4.5e-4,-0.5536 -0.0054,-0.86609 -0.01612,-0.85541 -0.0093,0.009 -0.05315,0.27874 -0.09754,0.59884 -0.04439,0.32011 -0.08822,0.62964 -0.0974,0.68784 -0.0092,0.0582 -0.0327,0.22887 -0.05227,0.37924 -0.01957,0.15037 -0.06349,0.47184 -0.09762,0.71437 -0.03413,0.24254 -0.08942,0.63941 -0.122881,0.88195 -0.03346,0.24253 -0.08442,0.60766 -0.113247,0.81139 -0.02883,0.20373 -0.07297,0.51726 -0.0981,0.69673 -0.02513,0.17948 -0.09772,0.68748 -0.161318,1.12889 -0.0636,0.44142 -0.122214,0.8502 -0.130261,0.90841 -0.04931,0.35665 -0.09233,0.6566 -0.115122,0.80257 -0.01439,0.0922 -0.07386,0.49576 -0.132159,0.89688 -0.0583,0.40112 -0.111016,0.74932 -0.117152,0.77377 -0.0105,0.0418 -0.01597,0.0437 -0.09251,0.0326 -0.04474,-0.007 -0.263917,-0.0349 -0.487049,-0.0631 -1.428648,-0.1806 -1.94032,-0.25006 -1.94933,-0.26464 -0.0056,-0.009 -3.5e-5,-0.10998 0.01243,-0.22417 0.01247,-0.11418 0.04654,-0.45764 0.07571,-0.76323 0.02918,-0.30559 0.05704,-0.58341 0.06193,-0.61736 0.0049,-0.034 0.03306,-0.33558 0.06262,-0.67028 0.288329,-3.26543 0.329664,-3.71929 0.430532,-4.72722 0.05091,-0.50871 0.135404,-1.2554 0.186627,-1.64924 0.1163,-0.89418 0.112521,-0.86829 0.239382,-1.64041 0.533057,-3.24439 1.381275,-4.93299 2.696903,-5.3689 0.148375,-0.0492 0.86964,-0.38255 1.57868,-0.72972 0.169775,-0.0831 0.378134,-0.1831 0.463021,-0.22217 0.08489,-0.0391 0.154341,-0.0804 0.154341,-0.0918 0,-0.0114 -0.01901,-0.129 -0.04226,-0.26132 -0.02324,-0.13232 -0.04282,-0.25645 -0.04352,-0.27586 -6.93e-4,-0.0194 -0.0099,-0.0948 -0.02039,-0.16756 -0.02128,-0.14718 -0.01382,-0.45629 0.01547,-0.64093 0.02248,-0.14173 0.0898,-0.42271 0.108527,-0.45301 0.0095,-0.0153 0.07755,0.003 0.248957,0.068 0.577694,0.21825 0.843492,0.30093 1.308829,0.4071 1.451273,0.33111 3.020076,0.18218 4.547589,-0.43171 0.129032,-0.0519 0.203531,-0.0734 0.214825,-0.0621 0.0095,0.01 0.02368,0.0514 0.03148,0.0931 0.0078,0.0417 0.0266,0.13139 0.04177,0.1993 0.01627,0.0729 0.03175,0.25634 0.03776,0.44766 0.01061,0.33743 -0.0032,0.51943 -0.06576,0.86543 -0.01831,0.10131 -0.03329,0.19514 -0.03329,0.20852 0,0.0423 1.879647,0.95392 2.154669,1.04504 1.333586,0.44187 2.187202,2.14848 2.739338,5.47668 0.112993,0.68111 0.255799,1.7142 0.318193,2.30188 0.01494,0.14067 0.03114,0.27957 0.03602,0.30868 0.0049,0.0291 0.03284,0.28707 0.06215,0.57326 0.09377,0.91573 0.161323,1.63689 0.33375,3.56306 0.112487,1.25657 0.144528,1.60394 0.204188,2.21368 0.03417,0.34925 0.07371,0.73818 0.08786,0.8643 0.02864,0.25527 0.03261,0.37924 0.01214,0.37924 -0.0075,0 -0.362701,0.044 -0.78934,0.0977 -1.274429,0.16049 -1.582884,0.19971 -1.669978,0.21234 -0.07737,0.0112 -0.08348,0.009 -0.09201,-0.0299 -0.0093,-0.0427 -0.06867,-0.46344 -0.212517,-1.50599 -0.04417,-0.32014 -0.08802,-0.62574 -0.09743,-0.67909 -0.0094,-0.0534 -0.02911,-0.19227 -0.04378,-0.30868 -0.01467,-0.11642 -0.03858,-0.29104 -0.05314,-0.38806 -0.01456,-0.097 -0.04619,-0.31529 -0.07029,-0.48507 -0.103395,-0.72834 -0.258292,-1.8039 -0.28324,-1.96673 -0.01486,-0.097 -0.09398,-0.65264 -0.175807,-1.23473 -0.08183,-0.58208 -0.164771,-1.16549 -0.184313,-1.29645 -0.01954,-0.13097 -0.07197,-0.50007 -0.116518,-0.82021 -0.04454,-0.32015 -0.08838,-0.58963 -0.09741,-0.59884 -0.01014,-0.0104 -0.01614,0.32686 -0.01567,0.88194 4.13e-4,0.49429 -0.0032,1.43845 -0.0081,2.09815 -0.0049,0.65969 -0.0092,2.51905 -0.0096,4.13191 l -6.78e-4,2.93246 -0.136702,2.7e-4 c -0.07519,1.7e-4 -0.146303,0.006 -0.158038,0.0138 -0.01358,0.009 -0.0232,0.0743 -0.02646,0.18053 l -0.0051,0.16697 -4.886794,0.005 c -2.687737,0.003 -4.892377,-5.3e-4 -4.899201,-0.007 z m 4.037393,-13.69615 c 0.03235,-0.0358 0.03378,-0.0884 0.03833,-1.41373 0.0053,-1.54674 0.01243,-1.45957 -0.119168,-1.45957 -0.05069,0 -0.07448,0.009 -0.08779,0.0341 -0.01214,0.0227 -0.01826,0.50074 -0.01826,1.42749 0,1.24318 0.003,1.39636 0.02772,1.42109 0.03923,0.0392 0.119431,0.0345 0.159166,-0.009 z m 1.860387,0.0189 c 0.0333,-0.0178 0.03412,-0.0524 0.03412,-1.43541 0,-1.5465 0.0055,-1.46581 -0.09995,-1.45361 -0.09543,0.011 -0.09354,-0.0186 -0.09382,1.4653 -2.56e-4,1.34808 3.41e-4,1.37202 0.03502,1.4067 0.03939,0.0394 0.074,0.0441 0.124632,0.017 z"
         id="path1391"
         inkscape:connector-curvature="0" />
      <path
         style="fill:#506289;stroke-width:0.01763889"
         d="m 62.38487,239.68217 c -0.0045,-0.0123 -0.01022,-0.0939 -0.01282,-0.18117 l -0.0047,-0.15875 -0.152167,-0.009 -0.152167,-0.009 -0.01127,-5.0251 c -0.0062,-2.76381 -0.01596,-5.0438 -0.02169,-5.06665 -0.0057,-0.0228 -0.01683,-0.0376 -0.02465,-0.0328 -0.01656,0.0102 -0.01532,0.003 -0.09683,0.59951 -0.03444,0.25224 -0.07924,0.56577 -0.09956,0.69674 -0.02032,0.13097 -0.04036,0.27384 -0.04454,0.3175 -0.0042,0.0436 -0.03457,0.27384 -0.06751,0.51153 -0.03295,0.23768 -0.08439,0.61074 -0.114322,0.82902 -0.02993,0.21829 -0.07759,0.5596 -0.105908,0.75848 -0.05911,0.41505 -0.162879,1.15301 -0.202154,1.43757 -0.01473,0.10671 -0.07523,0.52343 -0.134444,0.92604 -0.05922,0.4026 -0.114841,0.79551 -0.123612,0.87312 -0.0088,0.0776 -0.02022,0.15235 -0.02545,0.16608 -0.0052,0.0137 -0.01345,0.0693 -0.01828,0.12348 -0.0048,0.0542 -0.02835,0.2255 -0.05228,0.38072 -0.02392,0.15522 -0.06317,0.42113 -0.08721,0.5909 -0.02405,0.16978 -0.07154,0.49521 -0.10555,0.7232 -0.03401,0.22798 -0.06199,0.42556 -0.06219,0.43907 -4.52e-4,0.031 0.140498,0.0464 -1.508484,-0.16568 -0.271639,-0.0349 -0.607056,-0.0777 -0.745373,-0.0951 -0.138316,-0.0174 -0.255538,-0.0356 -0.260494,-0.0406 -0.005,-0.005 0.0066,-0.15108 0.02576,-0.32472 0.01912,-0.17364 0.04726,-0.45065 0.06254,-0.61557 0.01528,-0.16493 0.0394,-0.41099 0.05361,-0.54681 0.03119,-0.29819 0.08503,-0.8965 0.272662,-3.03023 0.01944,-0.22112 0.04763,-0.53465 0.06264,-0.69673 0.01501,-0.16209 0.0466,-0.50505 0.07021,-0.76213 0.130313,-1.41925 0.321051,-3.05793 0.442443,-3.80119 0.02535,-0.15522 0.04984,-0.30603 0.05441,-0.33513 0.303595,-1.93258 0.732217,-3.36771 1.271866,-4.25851 0.397337,-0.65588 0.94004,-1.13062 1.466558,-1.2829 0.09717,-0.0281 0.324098,-0.12969 0.839161,-0.37568 0.145521,-0.0695 0.359834,-0.17116 0.47625,-0.22592 0.116417,-0.0547 0.231511,-0.11249 0.255764,-0.12831 0.02425,-0.0158 0.167129,-0.0862 0.3175,-0.15635 0.150372,-0.0702 0.279611,-0.13365 0.287199,-0.14106 0.0076,-0.007 -0.0068,-0.12576 -0.03205,-0.263 l -0.04584,-0.24952 c 0.203815,-0.19208 -0.05601,-1.07947 0.125851,-1.28689 0,-0.0356 0.355561,0.49897 0.320136,0.48433 -0.289467,0.15443 -0.275453,1.13908 -0.456677,0.67115 -0.02364,-0.20846 -0.02069,-0.36914 -0.02524,-0.59259 -0.116759,-0.18324 0.169316,-1.15721 0.373431,-0.21375 -9e-6,-0.0134 -0.04763,-0.0939 -0.105833,-0.17885 -0.0582,-0.085 -0.105817,-0.16159 -0.105817,-0.17029 0.405472,0.13527 0.766682,0.27232 1.24152,0.39352 0.323561,0.0851 0.606913,0.14037 0.972161,0.18957 0.402257,0.0542 1.308247,0.0594 1.684514,0.01 0.829495,-0.10961 1.456732,-0.27278 2.21192,-0.57541 0.07664,-0.0307 0.150065,-0.0517 0.16316,-0.0467 -0.162114,-0.0307 0.345842,-0.17834 0.05041,1.55239 -0.02502,0.1447 -0.03927,0.26868 -0.03165,0.27551 0.02049,0.0184 0.876125,0.44977 1.151548,0.58058 0.130969,0.0622 0.353219,0.16769 0.493889,0.23442 0.14067,0.0667 0.283545,0.13542 0.3175,0.15265 0.03395,0.0172 0.09921,0.0406 0.14502,0.052 0.385672,0.0958 0.887681,0.45763 1.21802,0.87789 0.668826,0.8509 1.167449,2.29524 1.536903,4.45185 0.160554,0.93722 0.315295,2.11852 0.45171,3.4484 0.08484,0.82712 0.154282,1.57025 0.326108,3.48991 0.125681,1.40413 0.228076,2.48013 0.298939,3.14133 0.0145,0.13527 0.02338,0.24893 0.01974,0.25257 -0.0068,0.007 -0.362315,0.0539 -1.094846,0.14478 -0.232833,0.0289 -0.609864,0.0766 -0.837847,0.10592 -0.227983,0.0293 -0.458623,0.0583 -0.512537,0.0643 l -0.09802,0.011 -0.06547,-0.46518 c -0.03601,-0.25584 -0.100928,-0.72314 -0.144265,-1.03844 -0.04334,-0.31529 -0.09157,-0.65024 -0.107172,-0.74432 -0.01561,-0.0941 -0.03492,-0.23299 -0.04291,-0.30868 -0.008,-0.0757 -0.05043,-0.37972 -0.09431,-0.67561 -0.04387,-0.29589 -0.207041,-1.43095 -0.362595,-2.52236 -0.155553,-1.09141 -0.294786,-2.06375 -0.309405,-2.16076 -0.01462,-0.097 -0.06263,-0.43833 -0.106698,-0.75848 -0.102528,-0.74489 -0.09739,-0.71259 -0.115182,-0.72359 -0.0084,-0.005 -0.01919,0.0166 -0.02406,0.0484 -0.01094,0.0715 -0.02851,4.97679 -0.02834,7.91084 l 1.23e-4,2.17331 -0.15434,0.005 -0.15434,0.005 -0.0088,0.17639 -0.0088,0.17639 c -5.265197,0.006 -1.273254,0.0103 -5.265197,0.006 -3.362639,-0.0144 -2.636352,1e-4 -3.747308,0.003 -0.578679,10e-4 -0.735509,-0.003 -0.741893,-0.0207 z m -1.508022,-9.82099 c 0,-0.01 -0.0079,-0.0176 -0.01764,-0.0176 -0.0097,0 -0.01764,0.008 -0.01764,0.0176 0,0.01 0.0079,0.0176 0.01764,0.0176 0.0097,0 0.01764,-0.008 0.01764,-0.0176 z m 5.529177,-3.84963 0.04545,-0.0397 3.28e-4,-1.38227 c 3.67e-4,-1.55359 0.0078,-1.46641 -0.124326,-1.46641 -0.0536,0 -0.07429,0.009 -0.09031,0.0388 -0.02784,0.052 -0.04491,1.11823 -0.03337,2.08381 l 0.0088,0.738 0.04164,0.0337 c 0.0546,0.0442 0.09618,0.0426 0.151772,-0.006 z m 1.85743,0.0249 c 0.05149,-0.0327 0.0571,-0.15805 0.05752,-1.2865 4.43e-4,-1.17479 -0.0094,-1.5656 -0.04033,-1.60477 -0.02494,-0.0316 -0.110325,-0.0272 -0.138826,0.007 -0.01861,0.0224 -0.0268,0.14365 -0.03544,0.52475 -0.0062,0.2726 -0.0111,0.50357 -0.01093,0.51328 1.59e-4,0.01 0.0052,0.41981 0.01123,0.91136 0.006,0.49154 0.0149,0.89717 0.01975,0.90139 0.02027,0.0176 0.08066,0.0471 0.09701,0.0473 0.0097,1.4e-4 0.02771,-0.006 0.04001,-0.0139 z m -0.948413,-2.63991 c 0,-0.0146 -0.01191,-0.0265 -0.02646,-0.0265 -0.01455,0 -0.02646,0.0119 -0.02646,0.0265 0,0.0145 0.01191,0.0264 0.02646,0.0264 0.01455,0 0.02646,-0.0119 0.02646,-0.0264 z"
         id="path1389"
         inkscape:connector-curvature="0"
         sodipodi:nodetypes="cccccscccsccccccccccccccscccccccccccccccccccccccccccccccccccccccscccccccccccsccccccccccccccssssscccscccccccccccccccccsssss" />
      <path
         style="fill:#465880;stroke-width:0.01763889"
         d="m 62.393783,239.52371 -10e-6,-0.16382 9.763177,-0.0177 c -0.01784,0.82746 0,0 -0.0176,0.35278 l -9.745537,-0.007 z m -2.028463,-0.97669 c -0.09216,-0.0129 -0.302507,-0.0406 -0.46743,-0.0615 -0.164924,-0.0209 -0.383205,-0.0489 -0.48507,-0.0622 -0.101864,-0.0133 -0.288396,-0.0364 -0.414514,-0.0514 -0.126118,-0.015 -0.272961,-0.0345 -0.326319,-0.0435 -0.05336,-0.009 -0.188295,-0.0259 -0.299861,-0.0378 -0.111566,-0.0118 -0.204872,-0.0229 -0.207347,-0.0246 -0.0025,-0.002 0.01503,-0.19292 0.03891,-0.42489 0.100274,-0.9744 0.180747,-1.83206 0.282863,-3.01469 0.08761,-1.01462 0.261548,-2.89978 0.326313,-3.5366 0.09522,-0.93625 0.399168,-2.98096 0.487363,-3.56747 0.384266,3.33534 1.391525,4.86907 -0.47321,4.20244 1.539988,-1.60045 3.511178,-2.4008 2.693264,0.56444 -0.02419,0.17948 -0.05944,0.42951 -0.07833,0.55563 -0.01889,0.12612 -0.06668,0.46346 -0.106206,0.74965 -0.08045,0.58256 -0.08986,0.64914 -0.218765,1.54798 -0.255433,1.58376 -0.182851,1.15308 -0.250029,1.73277 -0.05241,0.3541 -0.115221,0.78273 -0.139577,0.9525 -0.08352,0.58221 -0.07459,0.54713 -0.138729,0.54469 -0.03065,-0.001 -0.131139,-0.0127 -0.223302,-0.0256 z m 13.511158,-0.0117 c -0.299493,-1.3627 -0.752967,-5.27945 -0.766857,-5.36676 -0.01389,-0.0873 -0.04581,-0.31353 -0.07093,-0.50271 -0.02512,-0.18918 -0.04916,-0.35588 -0.05343,-0.37046 -0.0043,-0.0146 -0.02695,-0.16936 -0.0504,-0.34396 -0.02345,-0.1746 -0.407771,-3.19592 -0.438971,-3.41298 3.338255,-1.23042 2.202123,-4.89931 3.294591,3.26305 0.0046,0.0243 0.02853,0.27031 0.05323,0.5468 0.02471,0.27649 0.04887,0.53049 0.05369,0.56445 0.0048,0.034 0.03678,0.37923 0.07101,0.76729 0.04937,1.55031 0.382323,3.13182 0.412152,4.57781 -0.0097,0.006 -0.102718,0.0204 -0.206797,0.0321 -2.692856,0.11411 0.206797,-0.0321 -2.297288,0.24537 z m -1.425519,-5.92721 c -0.0016,-0.0561 -0.01438,-0.26244 -0.02829,-0.45861 -0.03789,-0.53446 -0.04948,-0.8803 -0.03116,-0.92978 0.01182,-0.0319 0.0097,-0.0488 -0.0078,-0.0617 -0.01642,-0.0121 -0.03496,-0.12397 -0.05853,-0.35293 -0.04761,-0.46262 -0.103206,-0.71505 -0.199664,-0.90663 -0.06172,-0.12258 -0.128804,-0.178 -0.215582,-0.17808 -0.08784,-9e-5 -0.256954,0.0948 -0.381795,0.21415 -0.11519,0.11015 -0.369922,0.4202 -0.49133,0.59803 -0.0855,0.12523 -0.106995,0.14613 -0.128328,0.1248 -0.0407,-0.0407 0.197473,-0.72323 0.410081,-1.17519 0.02738,-0.0582 0.109752,-0.23283 0.183045,-0.38805 0.07329,-0.15523 0.14258,-0.32019 0.153973,-0.3666 0.02672,-0.10882 0.0117,-0.21689 -0.03738,-0.26914 -0.07645,-0.0814 -0.448978,-0.20158 -1.039998,-0.33557 -0.290602,-0.0659 -0.30358,-0.0972 -0.05803,-0.14009 0.0776,-0.0135 0.19185,-0.0365 0.253896,-0.0511 0.06205,-0.0145 0.208061,-0.0434 0.324478,-0.0642 0.211018,-0.0377 0.512557,-0.11352 0.659523,-0.16586 0.113413,-0.0404 0.195131,-0.0958 0.232992,-0.15785 0.07887,-0.12933 0.02213,-0.30598 -0.275339,-0.85733 -0.06571,-0.12179 -0.113403,-0.23356 -0.119352,-0.27972 -0.0062,-0.0483 -0.03013,-0.10241 -0.06425,-0.14552 -0.02989,-0.0378 -0.07743,-0.0984 -0.105644,-0.1348 -0.06073,-0.0783 -0.336752,-0.60943 -0.336752,-0.64799 0,-0.0628 0.05368,-0.0141 0.19904,0.18056 0.402596,0.53907 0.706169,0.95169 1.002504,1.36261 0.08745,0.12126 0.170381,0.23211 0.184286,0.24631 0.02195,0.0224 0.02528,-0.15159 0.02528,-1.3223 -0.349818,-1.23647 0.955633,-2.85561 1.470558,-2.15193 0.313006,0.46889 0.61349,1.18173 0.866212,2.05493 1.435619,4.42262 -1.177926,3.81131 -2.341713,2.68992 0.896122,1.67715 1.608321,0.93694 0.274918,2.21609 -0.0051,-0.005 -0.18709,-1.28426 -0.212145,-1.49144 -0.0134,-0.11077 -0.04251,-0.15491 -0.06445,-0.0977 -0.0061,0.0158 -0.01196,0.68088 -0.01313,1.478 -0.0018,1.21233 -0.01907,2.34046 -0.03012,1.96473 z m -10.39838,-0.38729 c -0.0063,-0.21599 -0.01153,-0.99165 -0.01162,-1.72368 -8.8e-5,-0.77228 -0.0069,-1.33767 -0.01616,-1.34695 -0.03083,-0.0308 -0.04947,0.006 -0.06115,0.11963 0.429933,2.86153 -3.253882,4.27063 -1.662137,2.17967 -1.017497,1.34393 -1.154423,-2.48741 -1.021558,-3.71363 0.290732,-1.73866 0.751004,-3.15276 1.288908,-3.95993 0.164475,-0.24681 0.272648,-0.39133 0.299436,-0.40004 0.0099,-0.003 0.273774,0.25047 0.586493,0.56374 l 0.568582,0.56957 v 1.37962 c 0,0.75879 0.0063,1.37961 0.014,1.37961 0.0077,0 0.06128,-0.0652 0.119062,-0.14485 0.05779,-0.0797 0.142671,-0.19505 0.18863,-0.2564 0.04596,-0.0614 0.115718,-0.15691 0.155021,-0.21234 0.107566,-0.15171 0.18341,-0.2532 0.396417,-0.53049 0.106715,-0.13892 0.209902,-0.27488 0.229305,-0.30212 0.05787,-0.0812 0.259435,-0.3248 0.288471,-0.34855 0.01482,-0.0121 0.03423,-0.0221 0.04313,-0.0221 0.04501,0 -0.04312,0.18533 -0.38583,0.81139 -0.481175,0.879 -0.536039,0.99187 -0.548738,1.12888 -0.01667,0.17983 0.08624,0.26623 0.44142,0.37062 0.10786,0.0317 0.275646,0.0715 0.372856,0.0885 0.317269,0.0554 0.811203,0.15945 0.825614,0.17386 0.02846,0.0285 -0.04552,0.0607 -0.23026,0.10048 -0.463416,0.0997 -0.83359,0.21378 -0.960414,0.29603 -0.172648,0.11196 -0.16292,0.18027 0.107711,0.75643 0.03987,0.0849 0.104172,0.22212 0.142887,0.30496 0.138263,0.29586 0.435194,1.13911 0.413482,1.17424 -0.02249,0.0364 -0.0617,0.01 -0.12552,-0.0857 -0.126886,-0.18953 -0.366045,-0.48727 -0.499317,-0.62162 -0.207013,-0.20869 -0.392151,-0.27928 -0.510824,-0.19478 -0.12457,0.0887 -0.238568,0.45477 -0.291317,0.93547 -0.04324,0.394 -0.0455,0.40711 -0.07189,0.41724 -0.02108,0.008 -0.02118,0.0181 -6.63e-4,0.0671 0.02027,0.0485 0.0204,0.11177 8.11e-4,0.39958 -0.0128,0.18807 -0.03252,0.49672 -0.04382,0.6859 -0.0113,0.18917 -0.02257,0.34605 -0.02506,0.34862 -0.0025,0.003 -0.0097,-0.17207 -0.01597,-0.38806 z m 4.180612,-6.14593 c -0.0256,-0.0256 -0.0078,-0.0323 0.0852,-0.0323 0.09622,0 0.122773,0.0128 0.06917,0.0334 -0.03738,0.0143 -0.13967,0.0136 -0.154367,-10e-4 z m 1.908767,-0.0173 c -0.02155,-0.026 -0.01946,-0.0276 0.01989,-0.0155 0.08014,0.0246 0.101711,0.0434 0.05053,0.044 -0.02549,2.9e-4 -0.05718,-0.0125 -0.07042,-0.0285 z m 0.182622,-0.0876 c 0.01155,-0.0254 0.02404,-0.037 0.02774,-0.0259 0.0094,0.0281 -0.0095,0.072 -0.03093,0.072 -0.01118,0 -0.01,-0.0172 0.0032,-0.0461 z m -2.199612,-0.0473 c -0.0076,-0.0174 -0.0088,-0.0366 -0.0027,-0.0426 0.01791,-0.0179 0.03235,0.007 0.02411,0.042 -0.0073,0.0308 -0.0083,0.0308 -0.02138,6.2e-4 z m 2.214522,-1.36332 c 8.47e-4,-0.0206 0.005,-0.0247 0.01066,-0.0106 0.0051,0.0127 0.0045,0.0279 -0.0014,0.0338 -0.0059,0.006 -0.01003,-0.005 -0.0093,-0.0231 z m 4.157281,-1.01277 c -0.0034,-0.66762 7.99e-4,-0.93486 0.01457,-0.93486 0.03524,1e-5 0.208236,0.0654 0.342512,0.12954 3.017329,1.33415 -0.236586,6.81317 -0.357079,0.8053 z m -11.035443,0.31109 c -0.470589,-0.47078 -0.533155,-0.53973 -0.517057,-0.56981 0.03787,-0.0708 0.327405,-0.3129 0.522681,-0.43712 0.151019,-0.0961 0.480457,-0.23901 0.550806,-0.23901 0.0031,0 0.0056,0.40084 0.0056,0.89076 0,0.48992 -0.006,0.89076 -0.01334,0.89076 -0.0073,0 -0.254255,-0.24101 -0.54871,-0.53558 z m 4.649643,-0.46587 c -0.07815,-0.0804 -0.101206,-0.13833 -0.101206,-0.25406 0,-0.16706 0.109765,-0.28839 0.27904,-0.30844 0.07564,-0.009 0.105838,-0.003 0.188157,0.0373 0.118215,0.0578 0.167803,0.13835 0.167803,0.27244 0,0.11237 -0.01678,0.15236 -0.102598,0.2445 -0.08102,0.087 -0.09143,0.0777 -0.09143,-0.0814 0,-0.13292 -0.03181,-0.17887 -0.123852,-0.17887 -0.08738,0 -0.105454,0.0312 -0.105454,0.18189 0,0.15334 -0.02592,0.17367 -0.11046,0.0867 z m 2.202556,0.0387 c -0.0059,-0.0153 -0.01071,-0.0818 -0.01071,-0.14777 0,-0.13416 -0.02008,-0.16557 -0.09995,-0.15633 -0.06464,0.007 -0.09349,0.0672 -0.09382,0.19426 -1.41e-4,0.0552 -0.008,0.10519 -0.01753,0.11106 -0.04922,0.0304 -0.162165,-0.11574 -0.185483,-0.24004 -0.03907,-0.20828 0.15197,-0.39313 0.372169,-0.3601 0.09029,0.0135 0.197021,0.0933 0.242631,0.18135 0.06745,0.13021 0.0014,0.33834 -0.132542,0.41773 -0.05795,0.0343 -0.06153,0.0343 -0.07477,-1.6e-4 z m -2.727096,-0.0877 c -0.447907,-0.18261 -0.884777,-0.43517 -1.339758,-0.77455 -0.297815,-0.22215 -0.732811,-0.60836 -0.732811,-0.65064 0,-0.0234 0.07735,-0.0677 0.303737,-0.17399 0.346652,-0.16267 0.326708,-0.16323 0.413964,0.0115 0.07725,0.15473 0.368661,0.53524 0.580018,0.75735 0.209697,0.22036 0.381525,0.37076 0.816691,0.71486 0.103106,0.0815 0.187465,0.15495 0.187465,0.16316 0,0.0294 -0.08186,0.0124 -0.229306,-0.0477 z m 3.175,0.037 c 0,-0.0141 0.05743,-0.0717 0.127613,-0.12788 0.500323,-0.40063 0.927288,-0.81072 1.193209,-1.14607 0.09664,-0.12187 0.273036,-0.38491 0.304646,-0.45428 0.01134,-0.0249 0.03134,-0.0452 0.04445,-0.0452 0.04741,0 0.587864,0.2826 0.587864,0.3074 0,0.0231 -0.353412,0.36629 -0.493889,0.47954 -0.03395,0.0274 -0.09861,0.0822 -0.143678,0.12194 -0.09548,0.0841 -0.595568,0.42185 -0.758612,0.51238 -0.155663,0.0864 -0.528329,0.26677 -0.676391,0.3273 -0.138092,0.0565 -0.185208,0.0628 -0.185208,0.0249 z m -1.649236,-1.4148 c -0.355498,-0.0294 -0.721332,-0.12716 -1.031875,-0.2757 -0.104869,-0.0502 -0.372638,-0.20741 -0.502708,-0.29521 -0.215847,-0.1457 -0.418152,-0.32314 -0.693184,-0.60798 -0.224121,-0.23212 -0.250497,-0.26587 -0.250497,-0.32055 0,-0.0914 -0.09189,-0.21741 -0.158556,-0.21741 -0.06262,0 -0.07348,-0.0161 -0.10122,-0.14965 -0.01281,-0.0617 -0.03582,-0.11666 -0.0554,-0.13229 -0.03086,-0.0246 -0.07288,-0.0902 -0.07288,-0.11377 0,-0.0305 0.1303,0.001 0.357673,0.087 0.141292,0.0534 0.264488,0.097 0.27377,0.097 0.0093,0 0.02676,0.0119 0.03883,0.0265 0.01208,0.0145 0.04283,0.0265 0.06834,0.0265 0.02551,0 0.129712,0.024 0.231556,0.0534 1.65502,0.47756 3.314038,0.3677 5.068412,-0.33562 0.07611,-0.0305 0.143237,-0.0506 0.149173,-0.0447 0.0059,0.006 -0.008,0.0451 -0.03091,0.0871 -0.02482,0.0454 -0.03693,0.0888 -0.02991,0.10708 0.0089,0.0233 0.0049,0.0281 -0.01651,0.0199 -0.04323,-0.0166 -0.233234,0.18956 -0.24014,0.26053 -0.0042,0.0435 -0.0146,0.0564 -0.04946,0.0612 -0.06342,0.009 -0.08819,0.0351 -0.08819,0.0938 0,0.0617 -0.06101,0.14977 -0.127882,0.18451 -0.02668,0.0138 -0.04851,0.0396 -0.04851,0.0573 0,0.0177 -0.03374,0.0632 -0.07497,0.10117 -0.04123,0.038 -0.09481,0.0947 -0.119062,0.12602 -0.02425,0.0313 -0.05707,0.057 -0.07294,0.0571 -0.01586,9e-5 -0.04306,0.022 -0.06045,0.0487 -0.04023,0.0617 -0.105965,0.12424 -0.276045,0.26246 -0.50855,0.41329 -1.070221,0.6616 -1.631146,0.72113 -0.234801,0.0249 -0.302885,0.0271 -0.455329,0.0145 z"
         id="path1387"
         inkscape:connector-curvature="0"
         sodipodi:nodetypes="cccccccscscccccccccscccccccccscsccccccccccccccccccccccccccccccccscccccccccccccccccccccccssccccccsccccccccccccccccccccccscccccccccsccccccccccccccccccccssscccsccscssscccscccccccccccsccccsccccccssccccccccccssccscscscccccccsacscscccccc" />
      <path
         style="fill:#46587c;stroke-width:0.01763889"
         d="m 62.393792,239.52452 c 0,-0.0889 0.0055,-0.15624 0.01211,-0.14958 0.0067,0.007 0.01261,0.0714 0.01323,0.14386 0.0013,0.15637 0.03249,0.17787 0.04522,0.0312 0.0066,-0.0763 0.01613,-0.10299 0.0382,-0.10718 0.02474,-0.005 0.03031,0.0141 0.03528,0.11895 l 0.0059,0.12452 h -0.07496 -0.07497 v -0.16169 z m -1.905,-0.96692 c -0.06104,-0.0129 -0.06081,-0.013 0.02002,-0.0153 l 0.08175,-0.002 0.02849,-0.0871 c 0.0351,-0.10732 0.03633,-0.1707 0.0036,-0.18327 0.201484,-0.66961 0.0324,-1.50009 0.12893,-0.42037 -0.09668,0.26482 -0.04144,0.27808 -0.08784,0.6072 -0.02142,0.13161 -0.02411,0.13317 -0.174937,0.10142 z m 13.387675,-0.0221 c -1.76e-4,-0.0218 -0.0042,-0.0595 -0.009,-0.0838 -0.0048,-0.0243 0.0037,-0.011 0.01889,0.0295 l 0.02766,0.0736 0.100413,-0.007 c 0.09969,-0.007 0.09984,-0.007 0.02104,0.009 -0.13407,0.0263 -0.158722,0.023 -0.158992,-0.0215 z m 0.370658,-0.0465 c 0.100972,-0.0557 0.166041,-0.0683 0.185973,-0.036 0.0064,0.0104 0.02871,0.0252 0.04955,0.033 0.03929,0.0146 0.02781,0.0168 -0.23552,0.0458 l -0.09701,0.0107 z m 0.352186,-0.0274 c 0.0418,-0.0232 0.03951,-0.0246 -0.05871,-0.0369 -0.08331,-0.0104 -0.105683,-0.0204 -0.120973,-0.0539 -0.01484,-0.0326 -0.02536,-0.0377 -0.05037,-0.0243 -0.01739,0.009 -0.07635,0.0169 -0.131015,0.0169 -0.09299,0 -0.09904,-0.003 -0.09376,-0.0397 0.0077,-0.0545 0.04971,-0.0574 0.312771,-0.0212 0.234084,0.0321 0.273809,0.0473 0.260193,0.0994 -0.01209,0.0462 0.0041,0.05 0.130685,0.0305 0.06236,-0.01 0.208627,-0.0273 0.325044,-0.0394 0.229798,-0.0238 0.255764,-0.0322 0.255764,-0.0827 0.18941,-0.20915 0.0908,-0.25819 0.386032,-0.022 0.05142,0.0246 0.05509,0.0302 0.02646,0.0407 -0.01829,0.007 -0.08087,0.0175 -0.139082,0.0241 -0.378042,0.0429 -0.729185,0.0864 -0.87523,0.10838 -0.09332,0.014 -0.19254,0.0252 -0.220486,0.0249 l -0.05081,-6.2e-4 0.0435,-0.0241 z m 1.08474,-0.14944 c 0.0312,-0.0122 0.02981,-0.0148 -0.01404,-0.0258 -0.05294,-0.0133 -0.0889,-7.6e-4 -0.07276,0.0254 0.01185,0.0192 0.03847,0.0193 0.0868,4e-4 z m -0.817624,0.0224 c 0.01553,-0.17158 0.37904,-0.0193 0.422594,-0.008 -0.02404,0.0449 -0.01801,0.0445 -0.144215,0.009 -0.09306,-0.0261 -0.104502,-0.0261 -0.141784,0 -0.048,0.0336 -0.05833,0.0336 -0.136595,-5.5e-4 z m 1.13402,-0.0445 c 0.06746,-0.0102 0.136375,-0.005 0.204595,-0.006 -0.08246,0.0133 -0.169774,0.0245 -0.194028,0.025 -0.04057,7.2e-4 -0.04141,-7.6e-4 -0.01057,-0.0187 z m -14.83255,-3.48917 c 0.0221,-0.0387 0.02512,-0.0397 0.02449,-0.009 -0.03723,0.29961 -0.06481,0.33999 -0.02449,0.009 z m 0.0176,-0.2119 c -0.0062,-0.0195 -0.0021,-0.0794 0.0091,-0.13317 0.01527,-0.0735 0.01528,-0.10381 7.1e-5,-0.12214 0.0708,-1.81589 0.143439,-0.65664 0.05175,0.11004 -0.02011,0.17573 -0.03781,0.21802 -0.06086,0.1454 z m 11.264374,-2.09891 c -0.0037,-0.0942 -0.01297,-0.2478 -0.05455,-0.90609 -0.01315,-0.20817 -0.01405,-0.33199 -0.0027,-0.36466 0.01302,-0.0373 0.0115,-0.0517 -0.0062,-0.0585 -0.01522,-0.006 -0.02757,-0.0574 -0.03518,-0.14687 -0.0561,-0.6594 -0.145133,-1.05947 -0.268375,-1.20594 -0.07153,-0.085 -0.13157,-0.10841 -0.224652,-0.0876 -0.114515,0.0257 -0.197926,0.077 -0.325223,0.2002 -0.135703,0.13132 -0.428525,0.48425 -0.513806,0.61927 -0.07332,0.11609 -0.115888,0.13069 -0.09765,0.0335 0.01089,-0.058 0.103123,-0.34493 0.177734,-0.55282 0.03318,-0.0924 0.102518,-0.25506 0.214366,-0.50271 0.04381,-0.097 0.09191,-0.20417 0.106884,-0.23812 0.03096,-0.0702 0.126064,-0.26492 0.168008,-0.34396 0.01544,-0.0291 0.04564,-0.12039 0.06711,-0.20285 0.03647,-0.14008 0.03722,-0.15419 0.01144,-0.2147 -0.03349,-0.0786 -0.07608,-0.10794 -0.254557,-0.17519 -0.146877,-0.0553 -0.609457,-0.18197 -0.799034,-0.21874 -0.183414,-0.0356 -0.26409,-0.0739 -0.216076,-0.10279 0.01598,-0.01 0.595154,-0.12913 0.780521,-0.16108 0.171074,-0.0295 0.397784,-0.0882 0.564444,-0.14623 0.09582,-0.0333 0.152959,-0.0664 0.207257,-0.11987 0.09719,-0.0957 0.104339,-0.16944 0.03576,-0.36851 -0.04133,-0.11995 -0.265177,-0.56617 -0.337192,-0.67215 -0.02581,-0.038 -0.04693,-0.0905 -0.04693,-0.11674 0,-0.0731 -0.02341,-0.11942 -0.123352,-0.244 -0.05059,-0.0631 -0.123459,-0.18114 -0.161927,-0.2624 -0.03847,-0.0813 -0.08905,-0.17662 -0.11241,-0.21192 -0.0462,-0.0698 -0.101266,-0.23124 -0.07888,-0.23124 0.02176,0 0.109903,0.10908 0.342117,0.42334 0.118281,0.16007 0.274732,0.37041 0.347667,0.46743 0.149901,0.19939 0.55613,0.79858 0.686077,0.98738 1.124069,-4.71123 1.366275,-3.87327 0.07086,1.22511 -0.04366,-0.029 -0.08198,-0.0449 -0.08517,-0.0355 1.244621,3.5419 0.805596,1.01532 0.09942,0.58476 0.301225,0.62392 0.150313,1.98009 0.02999,0.41399 -0.0167,-0.0127 -0.0325,-0.0867 -0.04648,-0.21766 -0.01428,-0.13379 -0.02824,-0.19844 -0.04287,-0.19844 -0.01193,0 -0.02653,0.0126 -0.03243,0.028 -0.0059,0.0154 -0.0116,0.68412 -0.01267,1.48608 -0.0016,1.23687 -0.01777,2.18149 -0.03138,1.83734 z m -9.264064,-6.72961 c 0.06718,-0.0873 0.151612,-0.18653 0.187628,-0.22049 l 0.06549,-0.0617 -0.01238,0.0692 c -0.0068,0.0381 -0.06732,0.16967 -0.134478,0.29248 -0.06715,0.1228 -0.122101,0.23148 -0.122101,0.24151 0,0.01 -0.01739,0.0404 -0.03865,0.0674 -0.02126,0.027 -0.0599,0.0941 -0.08587,0.14898 -0.02597,0.0549 -0.06841,0.13341 -0.09432,0.17445 -0.08254,0.13075 -0.330726,0.60663 -0.383125,0.73462 -0.101448,0.24778 -0.05942,0.38063 0.150771,0.4766 0.153935,0.0703 0.478795,0.16729 0.55921,0.16699 0.03276,-1.2e-4 0.115117,0.0123 0.183027,0.0276 0.06791,0.0153 0.246504,0.0535 0.396875,0.0849 0.196384,0.041 0.273403,0.0641 0.273403,0.0819 0,0.0253 -0.01523,0.0303 -0.264583,0.0863 -0.41724,0.0937 -0.823289,0.22131 -0.933012,0.2932 -0.07798,0.0511 -0.100177,0.15867 -0.06179,0.29945 0.01833,0.0672 0.272871,0.63444 0.360346,0.80299 0.05249,0.10115 0.177664,0.42145 0.194301,0.4972 0.0069,0.0316 0.02296,0.0735 0.03559,0.093 0.01263,0.0196 0.05173,0.13476 0.08689,0.25603 0.03516,0.12126 0.06709,0.23015 0.07097,0.24197 0.01886,0.0575 -0.03226,0.0319 -0.09201,-0.0462 -0.03684,-0.0481 -0.11063,-0.14469 -0.163988,-0.21463 -0.251819,-0.33007 -0.474852,-0.55745 -0.599617,-0.61129 -0.09681,-0.0418 -0.222747,-0.0349 -0.276293,0.0151 -1.94407,0.79045 -0.718134,-2.15335 0.697716,-3.99756 z m 3.047392,0.3141 c -0.0256,-0.0256 -0.0078,-0.0323 0.0852,-0.0323 0.09622,0 0.122773,0.0128 0.06917,0.0334 -0.03738,0.0143 -0.13967,0.0136 -0.154367,-0.001 z m 1.908767,-0.0173 c -0.02155,-0.026 -0.01946,-0.0276 0.01989,-0.0155 0.08014,0.0246 0.101711,0.0434 0.05053,0.044 -0.02549,2.9e-4 -0.05718,-0.0125 -0.07042,-0.0285 z m 0.182622,-0.0876 c 0.01155,-0.0254 0.02404,-0.037 0.02774,-0.0259 0.0094,0.0281 -0.0095,0.072 -0.03093,0.072 -0.01118,0 -0.01,-0.0172 0.0032,-0.0461 z m -2.199612,-0.0473 c -0.0076,-0.0174 -0.0088,-0.0366 -0.0027,-0.0426 0.01791,-0.0179 0.03235,0.007 0.02411,0.042 -0.0073,0.0308 -0.0083,0.0308 -0.02138,6.2e-4 z m 2.214527,-1.3633 c 8.47e-4,-0.0206 0.005,-0.0247 0.01066,-0.0106 0.0051,0.0127 0.0045,0.0279 -0.0014,0.0338 -0.0059,0.006 -0.01003,-0.005 -0.0093,-0.0231 z m -2.24392,-1.19175 c -0.07618,-0.0911 -0.07698,-0.0935 -0.07483,-0.22077 0.0019,-0.11044 0.0089,-0.13742 0.04942,-0.19059 0.06623,-0.0868 0.130199,-0.11482 0.262421,-0.11482 0.08807,0 0.125755,0.009 0.171233,0.0397 0.106119,0.0722 0.132112,0.12476 0.132112,0.26703 0,0.12627 -8.4e-4,0.12857 -0.07938,0.21689 -0.0505,0.0568 -0.08409,0.0821 -0.09233,0.0695 -0.0071,-0.0109 -0.01308,-0.0677 -0.01323,-0.12612 -3.54e-4,-0.13919 -0.03095,-0.18473 -0.124122,-0.18473 -0.08738,0 -0.105454,0.0312 -0.105454,0.18189 0,0.1652 -0.02807,0.17904 -0.125846,0.0621 z m 2.217942,0.0633 c -0.0059,-0.0153 -0.01071,-0.0818 -0.01071,-0.14777 0,-0.13416 -0.02008,-0.16557 -0.09995,-0.15633 -0.06464,0.007 -0.09349,0.0672 -0.09382,0.19426 -4.05e-4,0.15641 -0.05376,0.15798 -0.140581,0.004 -0.0917,-0.16248 -0.06972,-0.33757 0.05306,-0.42266 0.146918,-0.10181 0.315746,-0.0911 0.431354,0.0272 0.13301,0.13622 0.117961,0.33909 -0.03512,0.4735 -0.07152,0.0628 -0.08897,0.0674 -0.104233,0.0276 z m -2.709457,-0.0892 c -0.46671,-0.17303 -1.146263,-0.59035 -1.65896,-1.01879 -0.242959,-0.20303 -0.444004,-0.39856 -0.43411,-0.42221 0.0047,-0.0113 0.144402,-0.0834 0.310363,-0.16019 0.347238,-0.16063 0.303358,-0.16684 0.425178,0.0602 0.197453,0.36803 0.684715,0.88265 1.304612,1.37784 0.09216,0.0736 0.182691,0.15092 0.201172,0.17176 0.03304,0.0373 0.03304,0.0379 0,0.0359 -0.01848,-0.001 -0.0852,-0.0211 -0.148255,-0.0445 z m 3.192639,0.02 c 0,-0.0146 0.04961,-0.0642 0.110243,-0.11024 0.06063,-0.0461 0.134056,-0.10758 0.16316,-0.13669 0.0291,-0.0291 0.116363,-0.10451 0.193909,-0.16757 0.226373,-0.18408 0.581037,-0.53951 0.754374,-0.756 0.172872,-0.21591 0.383453,-0.52432 0.383453,-0.56159 0,-0.0126 0.012,-0.023 0.02667,-0.023 0.03768,0 0.590695,0.27909 0.590695,0.29811 0,0.0173 -0.239276,0.25283 -0.432153,0.4254 -0.427591,0.38258 -1.153278,0.83085 -1.658055,1.02421 -0.106296,0.0407 -0.132292,0.0422 -0.132292,0.007 z m -1.860904,-1.42065 c -0.13555,-0.0168 -0.402789,-0.077 -0.493889,-0.11125 -0.03881,-0.0146 -0.126118,-0.0476 -0.194027,-0.0734 -0.255734,-0.097 -0.651081,-0.33904 -0.956424,-0.58542 -0.136298,-0.10998 -0.461228,-0.43299 -0.609028,-0.60542 -0.0293,-0.0342 -0.04851,-0.0773 -0.04851,-0.10892 0,-0.0295 -0.02348,-0.0865 -0.05376,-0.13048 -0.04268,-0.062 -0.06428,-0.0781 -0.104792,-0.0781 -0.06262,0 -0.07348,-0.0161 -0.10122,-0.14965 -0.01281,-0.0617 -0.03582,-0.11666 -0.0554,-0.13229 -0.03086,-0.0246 -0.07288,-0.0902 -0.07288,-0.11377 0,-0.0305 0.1303,0.001 0.357673,0.087 0.141292,0.0534 0.264488,0.097 0.27377,0.097 0.0093,0 0.02676,0.0119 0.03883,0.0265 0.01208,0.0145 0.04283,0.0265 0.06834,0.0265 0.02551,0 0.129712,0.024 0.231556,0.0534 1.65502,0.47756 3.314038,0.3677 5.068412,-0.33562 0.07611,-0.0305 0.143237,-0.0506 0.149173,-0.0447 0.0059,0.006 -0.008,0.0451 -0.03091,0.0871 -0.02482,0.0454 -0.03693,0.0888 -0.02991,0.10708 0.0089,0.0233 0.0049,0.0281 -0.01651,0.0199 -0.04323,-0.0166 -0.233234,0.18956 -0.24014,0.26053 -0.0042,0.0435 -0.0146,0.0564 -0.04946,0.0612 -0.06032,0.008 -0.08819,0.0347 -0.08819,0.0832 0,0.06 -0.06719,0.16377 -0.125594,0.19397 -0.02794,0.0145 -0.05079,0.0392 -0.05079,0.055 0,0.0324 -0.244686,0.28736 -0.276081,0.28768 -0.01117,1e-4 -0.03499,0.0223 -0.05292,0.0493 -0.04075,0.0613 -0.194135,0.20313 -0.330264,0.30531 -0.396702,0.29776 -0.842754,0.52197 -1.227087,0.6168 -0.256732,0.0633 -0.69764,0.0866 -0.979972,0.0516 z"
         id="path1385"
         inkscape:connector-curvature="0"
         sodipodi:nodetypes="cccccccccccccccccccccccccccccccccccccscccccsccccccccccccccccccccccccccccccccccccccccccccccccccccccccscccsccccccccssccccccccsscccccscsccccccccccccccccccccccccscccccccccccccccscscccsscccccccccccccccccccccccccccssscccccccccscsccscscsccccccccscsccccccc" />
      <path
         style="fill:#394968;stroke-width:0.01763889"
         d="m 62.061286,231.61642 -0.0015,-0.51153 0.03535,0.0425 c 0.02706,0.0325 0.0333,0.0594 0.02659,0.11466 -0.0048,0.0397 -0.01765,0.23887 -0.02852,0.4426 -0.01087,0.20373 -0.02218,0.38233 -0.02513,0.39688 -0.003,0.0145 -0.006,-0.20373 -0.0068,-0.48507 z m 10.371223,0.0875 c -0.01182,-0.22838 -0.02543,-0.4255 -0.03025,-0.43806 -0.0048,-0.0126 0.0072,-0.042 0.0267,-0.0654 l 0.03546,-0.0426 5.87e-4,0.48066 c 3.23e-4,0.26436 -0.002,0.48066 -0.0052,0.48066 -0.0032,0 -0.01547,-0.18686 -0.02729,-0.41524 z m -0.04456,-0.64596 c -0.0053,-0.0421 -0.02221,-0.19954 -0.03748,-0.34991 -0.05882,-0.57923 -0.176526,-0.92131 -0.342826,-0.9963 -0.08612,-0.0388 -0.205377,-0.0272 -0.296144,0.0289 -0.155358,0.096 -0.381679,0.33146 -0.58232,0.6058 -0.134548,0.18397 -0.166259,0.223 -0.174481,0.21478 -0.0095,-0.009 0.106291,-0.36735 0.175063,-0.5411 0.12007,-0.30335 0.434183,-1.00351 0.470683,-1.04916 0.0079,-0.01 0.03547,-0.0769 0.06123,-0.14888 0.128855,-0.36 0.02552,-0.45855 -0.665124,-0.6343 -0.147617,-0.0376 -0.32991,-0.0817 -0.405096,-0.0981 -0.07519,-0.0164 -0.136702,-0.0359 -0.136702,-0.0432 0,-0.0135 0.184422,-0.0543 0.617362,-0.13653 0.57317,-0.10887 0.857205,-0.21055 0.943708,-0.33785 0.100224,-0.14749 0.03535,-0.3516 -0.310274,-0.97618 -0.04633,-0.0837 -0.08967,-0.18117 -0.0963,-0.21655 -0.0067,-0.0359 -0.04506,-0.10505 -0.08667,-0.15645 -0.0618,-0.0763 -0.288356,-0.48579 -0.332072,-0.60017 -0.0269,-0.0704 0.03285,0.003 0.307813,0.37574 0.05361,0.0728 0.180068,0.24389 0.281019,0.38029 0.100951,0.1364 0.219266,0.29822 0.262922,0.35961 0.04366,0.0614 0.164635,0.2276 0.268841,0.36936 l 0.189465,0.25776 1.59e-4,0.56885 c 8.8e-5,0.33033 -0.0066,0.56885 -0.01591,0.56885 -0.461019,-0.44406 0.18825,0.21756 0.01793,0.11854 l -0.01046,0.26264 c -0.0058,0.14446 -0.01424,0.69611 -0.01886,1.2259 -0.008,0.91974 -0.0099,0.96464 -0.04208,0.99374 -0.03257,0.0295 -0.03399,0.028 -0.04339,-0.046 z m -10.299558,-0.0111 c -0.0257,-0.0284 -0.02975,-0.13435 -0.03726,-0.97465 -0.0046,-0.51854 -0.0133,-1.02905 -0.01927,-1.13447 l -0.01084,-0.19167 0.292217,-0.29405 c 0.160719,-0.16173 0.292217,-0.30368 0.292217,-0.31545 0,-0.0525 -0.06105,-0.005 -0.298908,0.23342 -0.139895,0.14014 -0.26084,0.2508 -0.268765,0.2459 -0.0079,-0.005 -0.0143,-0.28823 -0.01416,-0.62963 l 2.5e-4,-0.62073 0.193697,-0.26459 c 0.106533,-0.14552 0.262935,-0.35983 0.347558,-0.47625 0.08462,-0.11641 0.232932,-0.31485 0.329574,-0.44097 0.09664,-0.12612 0.233821,-0.30573 0.304844,-0.39914 0.216468,-0.28469 0.241339,-0.27726 0.07619,0.0227 -0.05821,0.10574 -0.105834,0.19746 -0.105834,0.20383 0,0.006 -0.04264,0.0875 -0.09475,0.18027 -0.489459,0.87145 -0.570862,1.03817 -0.587656,1.20355 -0.01665,0.16393 0.0598,0.25876 0.273113,0.33877 0.151705,0.0569 0.412291,0.12568 0.603318,0.15925 0.223554,0.0393 0.676086,0.13392 0.685541,0.14338 0.0045,0.005 0.0049,0.0115 9.06e-4,0.0154 -0.004,0.004 -0.181974,0.0507 -0.395405,0.10388 -0.810112,0.20192 -0.917709,0.29113 -0.783005,0.64919 0.01971,0.0524 0.09386,0.2183 0.164773,0.36867 0.07091,0.15037 0.14901,0.31706 0.173551,0.37042 0.15429,0.33546 0.414278,1.09708 0.352242,1.03187 -0.0092,-0.01 -0.07228,-0.093 -0.14012,-0.1852 -0.238963,-0.32466 -0.432728,-0.53172 -0.60304,-0.64443 -0.09487,-0.0628 -0.241972,-0.0778 -0.318598,-0.0326 -0.161638,0.0955 -0.261902,0.40815 -0.335733,1.04695 -0.01943,0.16812 -0.03814,0.30849 -0.04157,0.31192 -0.0034,0.003 -0.01922,-0.008 -0.03508,-0.0256 z m 4.028432,-7.68666 c -0.03108,-0.0354 -0.06392,-0.0838 -0.07297,-0.10764 -0.04431,-0.11655 0.0071,-0.28839 0.105685,-0.35296 0.100511,-0.0659 0.276125,-0.0591 0.369773,0.0142 0.133499,0.10447 0.144983,0.31652 0.02401,0.44333 -0.0725,0.076 -0.09259,0.064 -0.09259,-0.0554 0,-0.1499 -0.07527,-0.22378 -0.176389,-0.17312 -0.03963,0.0198 -0.04499,0.0353 -0.05292,0.15257 -0.0049,0.0727 -0.01752,0.13333 -0.02846,0.13693 -0.0108,0.004 -0.04507,-0.0225 -0.07615,-0.0579 z m 1.924047,0.0347 c -0.106742,-0.0748 -0.144378,-0.30119 -0.06872,-0.41346 0.05688,-0.0844 0.139995,-0.12738 0.248317,-0.1284 0.231222,-0.002 0.375363,0.21582 0.277024,0.41896 -0.0423,0.0874 -0.127609,0.16047 -0.16884,0.14465 -0.01927,-0.007 -0.02583,-0.0412 -0.02583,-0.13294 0,-0.10526 -0.0054,-0.1268 -0.0373,-0.14916 -0.03985,-0.0279 -0.0762,-0.0219 -0.125857,0.0207 -0.02331,0.02 -0.03087,0.0537 -0.03087,0.13739 0,0.061 -0.0066,0.11498 -0.01476,0.12 -0.0081,0.005 -0.03204,-0.003 -0.05315,-0.0178 z m -2.524999,-0.11896 c -0.638704,-0.28102 -1.199563,-0.65059 -1.763244,-1.16188 -0.120913,-0.10967 -0.21854,-0.20608 -0.21695,-0.21424 0.0027,-0.0141 0.541381,-0.27572 0.567617,-0.27572 0.0068,0 0.04894,0.0655 0.09355,0.14552 0.240112,0.43085 0.669167,0.89289 1.288159,1.38721 0.113991,0.091 0.207257,0.16838 0.207257,0.17188 0,0.017 -0.05582,2.8e-4 -0.176389,-0.0528 z m 3.351388,0.0546 c 0,-0.005 0.125016,-0.11439 0.277813,-0.24401 0.598556,-0.50775 0.970765,-0.91452 1.22158,-1.33502 0.0418,-0.0701 0.08074,-0.12743 0.08653,-0.12743 0.0058,0 0.132802,0.06 0.282256,0.13325 l 0.271736,0.13325 -0.08659,0.0893 c -0.383163,0.39516 -0.938097,0.8134 -1.427144,1.07563 -0.314578,0.16867 -0.626181,0.30554 -0.626181,0.27504 z m -2.002013,-1.41359 c -0.661874,-0.10948 -1.296212,-0.46928 -1.889948,-1.07198 -0.268695,-0.27275 -0.323733,-0.33717 -0.323733,-0.37892 0,-0.0185 0.0725,-0.10549 0.163491,-0.19611 0.129046,-0.1285 0.174016,-0.16281 0.213445,-0.16281 0.02747,0 0.130512,0.0235 0.228974,0.0521 0.666441,0.19402 1.508652,0.29971 2.198673,0.27593 0.931113,-0.0321 1.811874,-0.22226 2.765287,-0.59706 0.09965,-0.0392 0.186003,-0.0664 0.191887,-0.0605 0.01715,0.0171 -0.09944,0.18782 -0.209753,0.30705 -0.05587,0.0604 -0.101587,0.12522 -0.101587,0.14407 0,0.0221 -0.0235,0.0457 -0.06615,0.0666 -0.05425,0.0265 -0.06717,0.043 -0.07183,0.0918 -0.0041,0.0433 -0.0288,0.0826 -0.09082,0.14458 -0.04682,0.0468 -0.08792,0.0923 -0.09133,0.10097 -0.01279,0.0327 -0.235197,0.26827 -0.253273,0.26827 -0.01037,0 -0.04783,0.0347 -0.08325,0.077 -0.07867,0.0941 -0.343052,0.30862 -0.555636,0.45081 -0.321762,0.21523 -0.724387,0.38907 -1.089586,0.47046 -0.170497,0.038 -0.746348,0.0489 -0.934861,0.0178 z M 64.41444,220.1914 c -0.0151,-0.0216 -0.02746,-0.0721 -0.02746,-0.11243 0,-0.0403 -0.01155,-0.10598 -0.02568,-0.14601 -0.03222,-0.0913 -0.02417,-0.0922 0.161918,-0.0182 0.07544,0.03 0.172879,0.0662 0.216536,0.0804 0.152085,0.0494 0.178154,0.0634 0.172535,0.0925 -0.0045,0.0231 -0.03025,0.0284 -0.138134,0.0284 -0.123628,0 -0.137376,0.004 -0.202196,0.0573 -0.08175,0.0674 -0.119943,0.0718 -0.157525,0.0181 z"
         id="path1383"
         inkscape:connector-curvature="0"
         sodipodi:nodetypes="ccccscccccccsscccsccsccccccscccccccsccccccccccccccccscccccccccscccccccccccccccccccccccsccccccccccsccsccccccsccsccsccsccccssccscscccccsccccsccccccsccccsccc" />
      <path
         style="fill:#212c42;stroke-width:0.01763889"
         d="m 68.3313,223.39284 c -0.006,-0.006 -0.01084,-0.0599 -0.01084,-0.11982 0,-0.12206 -0.02988,-0.16737 -0.110352,-0.16737 -0.07235,0 -0.118954,0.0741 -0.118954,0.18906 0,0.11013 -0.02078,0.11603 -0.08336,0.0237 -0.103329,-0.1525 -0.05768,-0.35411 0.09457,-0.41773 0.129837,-0.0542 0.28088,-0.0128 0.354441,0.0974 0.05245,0.0785 0.05448,0.21239 0.0044,0.29335 -0.03803,0.0615 -0.112077,0.11935 -0.129959,0.10147 z m -2.204851,-0.0587 c -0.177727,-0.21122 -0.0221,-0.48999 0.252949,-0.4531 0.209255,0.0281 0.297418,0.28516 0.153931,0.44888 l -0.05613,0.0641 -0.01084,-0.11208 c -0.01251,-0.12936 -0.05212,-0.17626 -0.148866,-0.17626 -0.08131,0 -0.113699,0.0514 -0.113699,0.18032 0,0.056 -0.0072,0.10191 -0.01607,0.10191 -0.0088,0 -0.03641,-0.0242 -0.06127,-0.0537 z m 0.906371,-1.42033 c -0.02425,-0.004 -0.10176,-0.0162 -0.172238,-0.0266 -0.493784,-0.0729 -1.056406,-0.34684 -1.538734,-0.74932 -0.19795,-0.16519 -0.652639,-0.63318 -0.652639,-0.67174 0,-0.009 0.06548,-0.0793 0.145521,-0.15687 0.233622,-0.22636 0.194303,-0.20996 0.376469,-0.15699 0.375946,0.10931 0.757793,0.18704 1.22426,0.24922 0.301327,0.0402 1.312145,0.0455 1.605139,0.008 0.815242,-0.10302 1.441931,-0.26197 2.17663,-0.55207 0.09604,-0.0379 0.178163,-0.0654 0.182499,-0.0611 0.01175,0.0118 -0.09461,0.16347 -0.199188,0.28411 -0.05062,0.0584 -0.09505,0.12181 -0.09873,0.14091 -0.588694,0.88888 -1.508182,1.47217 -2.325794,1.65749 -0.142791,0.0276 -0.629755,0.0509 -0.723194,0.0345 z m -2.600736,-1.74016 c -0.05118,-0.0667 -0.586198,-0.74688 -0.303082,-0.4397 0.03097,0.0336 0.267922,0.2139 0.258422,0.18901 -0.0095,-0.0249 -0.236715,-0.13263 -0.229675,-0.13233 0.02977,9.5e-4 1.016567,0.34478 1.03345,0.36166 0.01291,0.0129 -0.12381,0.21274 -0.213043,0.21274 -0.133665,0 -0.250437,0.0364 -0.308947,0.10112 -0.04233,0.0468 -0.203076,-0.24384 -0.237116,-0.29234 z"
         id="path1381"
         inkscape:connector-curvature="0"
         sodipodi:nodetypes="cssscccccccccccssscccccsccccccccccccscccsccc" />
    </g>
  </g>
</svg>
