<?xml version="1.0" encoding="UTF-8" standalone="no"?>
<!-- Created with Inkscape (http://www.inkscape.org/) -->

<svg
   xmlns:dc="http://purl.org/dc/elements/1.1/"
   xmlns:cc="http://creativecommons.org/ns#"
   xmlns:rdf="http://www.w3.org/1999/02/22-rdf-syntax-ns#"
   xmlns:svg="http://www.w3.org/2000/svg"
   xmlns="http://www.w3.org/2000/svg"
   xmlns:sodipodi="http://sodipodi.sourceforge.net/DTD/sodipodi-0.dtd"
   xmlns:inkscape="http://www.inkscape.org/namespaces/inkscape"
   viewBox="0 0 132.29167 132.29167"
   version="1.1"
   id="svg8"
   inkscape:version="0.92.5 (2060ec1f9f, 2020-04-08)"
   sodipodi:docname="reddress.svg">
  <defs
     id="defs2" />
  <sodipodi:namedview
     id="base"
     pagecolor="#ffffff"
     bordercolor="#666666"
     borderopacity="1.0"
     inkscape:pageopacity="0.0"
     inkscape:pageshadow="2"
     inkscape:zoom="0.7"
     inkscape:cx="123.25719"
     inkscape:cy="205.85556"
     inkscape:document-units="px"
     inkscape:current-layer="layer1"
     showgrid="false"
     units="px"
     inkscape:window-width="1366"
     inkscape:window-height="731"
     inkscape:window-x="0"
     inkscape:window-y="0"
     inkscape:window-maximized="1" />
  <metadata
     id="metadata5">
    <rdf:RDF>
      <cc:Work
         rdf:about="">
        <dc:format>image/svg+xml</dc:format>
        <dc:type
           rdf:resource="http://purl.org/dc/dcmitype/StillImage" />
        <dc:title></dc:title>
      </cc:Work>
    </rdf:RDF>
  </metadata>
  <g
     inkscape:label="Layer 1"
     inkscape:groupmode="layer"
     id="layer1"
     transform="translate(0,-164.70835)">
    <g
       id="g1458"
       transform="matrix(6.1161646,0,0,6.1161646,-1286.5554,-1150.8562)">
      <path
         style="fill:#f0cbae;stroke-width:0.01763889"
         d="m 216.53674,235.94123 c -0.22494,-0.0315 -0.65422,-0.18119 -0.67501,-0.23538 -0.0137,-0.0356 0.0293,-0.75795 0.0752,-1.26341 0.009,-0.10186 0.0292,-0.32411 0.0443,-0.49389 0.0151,-0.16977 0.0311,-0.32504 0.0356,-0.34504 0.004,-0.02 0.0205,-0.14303 0.0355,-0.2734 0.16041,-1.38837 0.48791,-3.14818 0.81061,-4.35572 0.0143,-0.0534 0.0502,-0.1883 0.0799,-0.29986 0.2002,-0.75196 0.50926,-1.77723 0.69122,-2.29306 0.10966,-0.31091 0.13662,-0.38656 0.23569,-0.66146 0.0559,-0.15522 0.17875,-0.48066 0.2729,-0.72319 l 0.17118,-0.44098 0.01,-0.60854 c 0.0159,-0.96819 -0.0693,-2.15432 -0.22558,-3.13972 -0.0238,-0.15037 -0.052,-0.3369 -0.0625,-0.41451 -0.0534,-0.39367 -0.30126,-1.53166 -0.44181,-2.02848 -0.17782,-0.62854 -0.36749,-1.20481 -0.58344,-1.7727 -0.0387,-0.10187 -0.0746,-0.19914 -0.0798,-0.21617 -0.0129,-0.0426 0.0217,-0.0791 0.0886,-0.0935 0.0795,-0.0172 0.37888,-0.13253 0.70202,-0.27049 0.0933,-0.0398 0.18935,-0.0724 0.2134,-0.0724 0.0515,0 0.0762,0.0507 0.13765,0.28222 0.0219,0.0825 0.0615,0.20549 0.0879,0.2734 0.0265,0.0679 0.0848,0.2346 0.12959,0.37042 0.0448,0.13582 0.10596,0.31441 0.13593,0.39687 0.03,0.0825 0.0727,0.20153 0.095,0.26459 0.0349,0.0987 0.20252,0.5161 0.35131,0.87488 0.0785,0.18921 0.38795,0.83885 0.48653,1.0213 0.53452,0.9892 1.03633,1.57475 1.58686,1.85165 0.12246,0.0616 0.40256,0.13272 0.52263,0.13272 0.27723,0 0.57682,-0.10574 0.85438,-0.30155 0.78307,-0.55246 1.56532,-1.92615 2.31428,-4.06407 0.14656,-0.41837 0.34879,-1.03247 0.34926,-1.06058 1.8e-4,-0.0109 0.0117,-0.0293 0.0256,-0.0409 0.02,-0.0166 0.0508,-0.01 0.14847,0.0331 0.0678,0.0297 0.13082,0.0541 0.14011,0.0541 0.009,0 0.0754,0.0265 0.14698,0.0589 0.0715,0.0324 0.2293,0.0933 0.35057,0.13527 0.12126,0.042 0.23104,0.0845 0.24395,0.0944 0.0289,0.0221 0.0232,0.0472 -0.0588,0.25827 -0.30441,0.78406 -0.63232,1.87406 -0.81189,2.69875 -0.0888,0.40772 -0.19564,0.95279 -0.21958,1.12007 -0.0111,0.0776 -0.0353,0.23239 -0.0538,0.34396 -0.0525,0.3167 -0.14846,1.1377 -0.17633,1.50812 -0.009,0.12612 -0.025,0.32456 -0.0344,0.44097 -0.009,0.11642 -0.0174,0.58145 -0.0179,1.03339 l -7.3e-4,0.82173 0.0591,0.14841 c 0.38394,0.96429 0.8036,2.17776 1.07311,3.10293 0.21895,0.75164 0.44839,1.64222 0.5703,2.21368 0.0248,0.11642 0.0529,0.24342 0.0624,0.28222 0.0311,0.12719 0.17667,0.87549 0.22981,1.18181 0.14688,0.8465 0.26973,1.72646 0.33366,2.39007 0.0107,0.11156 0.0271,0.27825 0.0363,0.37042 0.0184,0.18388 0.0797,1.01965 0.0948,1.29118 0.009,0.16759 0.009,0.17184 -0.0355,0.20654 -0.0603,0.0474 -0.29034,0.13483 -0.47942,0.18216 -0.12617,0.0316 -0.20396,0.0384 -0.43581,0.0382 -0.32464,-2.9e-4 -0.46803,-0.0247 -0.78493,-0.13367 -0.11156,-0.0384 -0.24253,-0.0781 -0.29104,-0.0883 -0.11162,-0.0235 -0.78334,-0.008 -0.83411,0.0188 -0.0199,0.0106 -0.0824,0.0322 -0.139,0.0479 -0.0566,0.0157 -0.1392,0.0388 -0.18361,0.0513 -0.29401,0.0827 -0.77307,0.10544 -1.10624,0.0525 -0.18088,-0.0288 -0.49649,-0.11135 -0.5644,-0.14769 -0.0252,-0.0135 -0.26537,-0.0196 -0.76881,-0.0196 h -0.73217 l -0.16115,0.054 c -0.29122,0.0976 -0.44303,0.12391 -0.77572,0.13461 -0.41998,0.0135 -0.65519,-0.0197 -1.02871,-0.14512 -0.13007,-0.0437 -0.15551,-0.046 -0.53728,-0.048 l -0.40074,-0.002 -0.20775,0.0737 c -0.11427,0.0405 -0.28889,0.0903 -0.38806,0.11055 -0.20494,0.0419 -0.56144,0.0582 -0.73672,0.0336 z"
         id="path1472"
         inkscape:connector-curvature="0" />
      <path
         style="fill:#e8b48f;stroke-width:0.01763889"
         d="m 216.58163,235.92482 c -0.19786,-0.0233 -0.48421,-0.10845 -0.63941,-0.1902 l -0.0573,-0.0302 1.4e-4,-0.15033 c 2e-4,-0.2204 0.0925,-1.42072 0.14035,-1.82602 0.0951,-0.80504 0.11123,-0.92996 0.1752,-1.35866 0.15814,-1.0597 0.35338,-2.04775 0.61163,-3.09516 0.11221,-0.4551 0.14503,-0.57967 0.29273,-1.11125 0.27542,-0.99129 0.72505,-2.32421 1.12239,-3.3273 l 0.10574,-0.26696 0.01,-0.76492 c 0.006,-0.44593 0.003,-0.81273 -0.007,-0.87957 -0.009,-0.0631 -0.02,-0.20594 -0.024,-0.3175 -0.0116,-0.32001 -0.10353,-1.22756 -0.16884,-1.66688 -0.096,-0.64576 -0.18553,-1.13319 -0.32561,-1.77271 -0.0265,-0.12108 -0.16495,-0.66646 -0.22832,-0.89958 -0.12646,-0.46515 -0.45813,-1.45526 -0.605,-1.80608 -0.0358,-0.0854 -0.0394,-0.10766 -0.0202,-0.12491 0.0128,-0.0115 0.14239,-0.0632 0.28791,-0.11469 0.14552,-0.0515 0.3003,-0.11145 0.34396,-0.13313 0.1369,-0.068 0.31656,-0.13465 0.34688,-0.12874 0.0299,0.006 0.0353,0.0196 0.12644,0.32318 0.0291,0.097 0.0982,0.30338 0.15337,0.45861 0.0552,0.15522 0.10674,0.30603 0.11451,0.33514 0.0163,0.0612 0.11485,0.32447 0.26733,0.71437 0.57679,1.47486 1.13194,2.45702 1.72271,3.04779 0.44232,0.44232 0.90442,0.63868 1.33837,0.56871 0.34386,-0.0554 0.64453,-0.22545 0.97969,-0.55395 0.64287,-0.63012 1.26926,-1.77927 1.89531,-3.47706 0.15744,-0.42697 0.38799,-1.10586 0.45225,-1.33172 0.0131,-0.0461 0.0344,-0.0816 0.0509,-0.0848 0.0156,-0.003 0.0802,0.0188 0.14364,0.0485 0.0634,0.0297 0.12432,0.0539 0.13528,0.0539 0.011,0 0.0807,0.0266 0.15508,0.0592 0.0743,0.0326 0.22246,0.0894 0.32918,0.12623 0.10671,0.0369 0.20452,0.0766 0.21735,0.0882 0.0192,0.0174 0.0156,0.0396 -0.0202,0.12512 -0.1343,0.32062 -0.40272,1.11233 -0.55062,1.62403 -0.35216,1.21843 -0.60377,2.55851 -0.72138,3.84212 -0.0151,0.16492 -0.0358,0.3713 -0.0459,0.45861 -0.0101,0.0873 -0.0253,0.26194 -0.0337,0.38806 -0.0182,0.27434 -0.005,1.78496 0.016,1.82442 0.008,0.0152 0.0508,0.12291 0.0949,0.23933 0.0441,0.11641 0.11698,0.30691 0.16195,0.42333 0.7418,1.92055 1.40542,4.34105 1.73715,6.33613 0.0197,0.1185 0.0393,0.22565 0.0436,0.23813 0.009,0.0276 0.13859,0.92761 0.17543,1.22213 0.0892,0.71303 0.105,0.86219 0.15073,1.41993 0.0546,0.66556 0.071,0.91329 0.0711,1.07056 9e-5,0.16963 1.6e-4,0.16955 -0.21675,0.25325 -0.25819,0.0996 -0.41715,0.12848 -0.70922,0.12872 -0.14552,1.8e-4 -0.31221,-0.01 -0.37041,-0.0214 -0.12343,-0.0252 -0.41621,-0.11352 -0.55563,-0.1676 -0.0876,-0.034 -0.13622,-0.038 -0.50271,-0.0416 -0.38575,-0.004 -0.41176,-0.002 -0.52916,0.0378 -0.34743,0.11755 -0.51507,0.14977 -0.84886,0.16315 -0.38958,0.0156 -0.70081,-0.0318 -1.07003,-0.16317 l -0.12723,-0.0453 -0.71437,0.0115 c -0.63946,0.0103 -0.72403,0.015 -0.80648,0.0449 -0.559,0.20308 -1.2439,0.20832 -1.80408,0.0138 -0.14916,-0.0518 -0.1521,-0.0521 -0.57326,-0.0538 l -0.42333,-0.002 -0.23813,0.0807 c -0.13097,0.0444 -0.3038,0.0931 -0.38408,0.10827 -0.18241,0.0344 -0.48549,0.0479 -0.64779,0.0288 z"
         id="path1470"
         inkscape:connector-curvature="0" />
      <path
         style="fill:#f8c70b;stroke-width:0.01763889"
         d="m 216.57281,235.90714 c -0.19153,-0.0247 -0.46696,-0.1081 -0.62219,-0.18837 l -0.0535,-0.0276 0.0117,-0.29798 c 0.0114,-0.28936 0.0994,-1.38021 0.13438,-1.66507 0.01,-0.0776 0.0371,-0.3078 0.0613,-0.51153 0.0856,-0.72067 0.28503,-1.98805 0.33463,-2.12609 0.005,-0.0142 0.0208,-0.10126 0.0349,-0.19342 0.0141,-0.0922 0.0542,-0.29854 0.0893,-0.45862 0.035,-0.16007 0.0869,-0.39819 0.11524,-0.52916 0.32024,-1.47991 0.93159,-3.46455 1.54311,-5.00945 l 0.12917,-0.32632 0.004,-0.80257 c 0.002,-0.44141 -0.002,-0.89385 -0.009,-1.00541 -0.007,-0.11157 -0.0121,-0.22269 -0.0119,-0.24695 1.3e-4,-0.0242 -0.007,-0.0957 -0.0157,-0.15875 -0.009,-0.0631 -0.0247,-0.21784 -0.0353,-0.34396 -0.15503,-1.83409 -0.60523,-3.81259 -1.24223,-5.45923 -0.0357,-0.0922 -0.0662,-0.17816 -0.0679,-0.1911 -0.004,-0.0285 0.40994,-0.18439 0.49522,-0.18663 0.0315,-8.3e-4 0.0573,-0.007 0.0573,-0.0143 0,-0.007 0.019,-0.0252 0.0421,-0.0404 0.0528,-0.0346 0.32805,-0.1496 0.35804,-0.1496 0.03,0 0.076,0.0924 0.0764,0.15346 3.1e-4,0.0483 0.017,0.0987 0.21772,0.65792 0.054,0.15038 0.0984,0.28806 0.0988,0.30596 3.6e-4,0.0179 0.0127,0.0536 0.0273,0.0794 0.0147,0.0258 0.0815,0.19408 0.14858,0.37408 0.58668,1.57454 1.2131,2.70488 1.84035,3.32078 0.39895,0.39172 0.76809,0.5704 1.16825,0.56548 0.59362,-0.007 1.12788,-0.40039 1.72311,-1.26783 0.49068,-0.71507 1.06799,-1.97682 1.51727,-3.31611 0.0293,-0.0873 0.0682,-0.1882 0.0865,-0.22419 0.0183,-0.036 0.0334,-0.0796 0.0336,-0.097 4e-4,-0.0413 0.0999,-0.3561 0.12069,-0.38197 0.009,-0.011 0.0217,-0.0538 0.0285,-0.095 0.008,-0.0464 0.0217,-0.075 0.0369,-0.075 0.0135,0 0.0743,0.0233 0.13515,0.0518 0.0608,0.0285 0.1463,0.0633 0.18995,0.0774 0.0437,0.0141 0.13647,0.0498 0.20624,0.0793 0.0698,0.0295 0.19148,0.0751 0.27046,0.10131 0.079,0.0262 0.14749,0.0578 0.15226,0.0702 0.005,0.0124 -0.044,0.16415 -0.10845,0.33717 -0.38217,1.02661 -0.6715,2.05908 -0.88231,3.14854 -0.0694,0.35893 -0.17626,1.00396 -0.20337,1.22824 -0.0102,0.0844 -0.0384,0.31226 -0.0627,0.50629 -0.0243,0.19403 -0.0449,0.37262 -0.0458,0.39688 -0.009,0.25471 -0.0338,0.44898 -0.0633,0.49926 -0.0285,0.0485 -0.0324,0.0873 -0.0281,0.27685 0.003,0.12127 0.01,0.58117 0.0158,1.02201 0.006,0.44085 0.0174,0.81391 0.0255,0.82903 0.0166,0.0312 0.13281,0.33582 0.37387,0.98 0.45437,1.21421 0.99082,3.00219 1.24102,4.13632 0.0139,0.0631 0.0415,0.18609 0.0614,0.2734 0.0909,0.39989 0.24455,1.18159 0.34321,1.74625 0.0771,0.44148 0.20233,1.34691 0.27559,1.9932 0.0361,0.31874 0.12344,1.413 0.1339,1.67825 l 0.0112,0.28479 -0.0539,0.0279 c -0.0921,0.0476 -0.32568,0.12788 -0.47251,0.16233 -0.28119,0.066 -0.88764,0.0275 -0.96175,-0.0611 -0.0193,-0.0231 -0.0693,-0.0385 -0.16757,-0.0518 -0.077,-0.0104 -0.16783,-0.0332 -0.20179,-0.0507 -0.054,-0.0278 -0.11493,-0.0321 -0.48507,-0.0342 -0.40133,-0.002 -0.42917,-3.2e-4 -0.53576,0.0383 -0.0618,0.0224 -0.12272,0.0368 -0.13528,0.032 -0.0126,-0.005 -0.0427,0.004 -0.0669,0.0201 -0.12924,0.0847 -0.77453,0.14323 -1.08957,0.0988 -0.17646,-0.0249 -0.43293,-0.0884 -0.61545,-0.15259 l -0.1323,-0.0465 -0.72319,0.0128 c -0.65655,0.0116 -0.73127,0.0159 -0.81086,0.0471 -0.0482,0.0189 -0.18713,0.0593 -0.30868,0.0899 -0.21303,0.0535 -0.23439,0.0555 -0.59143,0.0555 -0.31704,0 -0.39538,-0.006 -0.54362,-0.0388 -0.19503,-0.0437 -0.37488,-0.0968 -0.44799,-0.13237 -0.0749,-0.0365 -0.91059,-0.0289 -0.98414,0.009 -0.0775,0.0399 -0.39541,0.13497 -0.55181,0.16509 -0.16851,0.0324 -0.48611,0.0451 -0.63862,0.0254 z m 2.16958,-0.55734 c 0,-0.0151 -0.008,-0.0225 -0.0179,-0.0164 -0.01,0.006 -0.0134,0.0185 -0.008,0.0275 0.0151,0.0245 0.0257,0.0199 0.0257,-0.0111 z m 0.30977,-0.33763 c -0.008,-0.0213 -0.0162,-0.0237 -0.0309,-0.009 -0.0147,0.0147 -0.0136,0.0274 0.004,0.049 0.0274,0.033 0.0446,0.007 0.0266,-0.04 z m -0.50732,-5.12409 c 0.0235,-0.0235 0.0289,-0.0847 0.007,-0.0847 -0.0334,0 -0.0899,0.0559 -0.0807,0.0799 0.0121,0.0314 0.0445,0.0336 0.0732,0.005 z m 0.10419,-0.1299 c 0.0215,-0.0215 0.0229,-0.0322 0.006,-0.0485 -0.0164,-0.0162 -0.0268,-0.0133 -0.0459,0.0126 -0.0404,0.0548 -0.008,0.0839 0.0396,0.036 z m 0.18005,-0.18848 c 0.0173,-0.0457 0.01,-0.0662 -0.0248,-0.0662 -0.0275,0 -0.0522,0.0611 -0.0355,0.088 0.0183,0.0296 0.0445,0.0201 0.0603,-0.0219 z m -0.43209,-0.0945 c 0.0485,-0.0186 0.0302,-0.0422 -0.0328,-0.0422 -0.0623,0 -0.0981,0.0252 -0.0585,0.0412 0.032,0.0129 0.0595,0.0132 0.0913,0.001 z m 0.59235,-0.0334 c 0,-0.0147 -0.0157,-0.0265 -0.0353,-0.0265 -0.0196,0 -0.0353,0.0118 -0.0353,0.0265 0,0.0147 0.0157,0.0265 0.0353,0.0265 0.0196,0 0.0353,-0.0118 0.0353,-0.0265 z m -0.44985,-0.14978 c 0.0128,-0.0403 -0.003,-0.0761 -0.0276,-0.0611 -0.0214,0.0132 -0.0214,0.0963 3e-5,0.0963 0.009,0 0.0215,-0.0158 0.0276,-0.0351 z m -0.42396,-0.19102 c -0.0121,-0.0523 -0.0453,-0.0415 -0.0663,0.0215 -0.0122,0.0368 -0.008,0.067 0.0164,0.12157 l 0.0327,0.0726 0.0133,-0.0874 c 0.007,-0.0481 0.009,-0.10582 0.004,-0.12833 z m 0.41519,-0.004 c 0,-0.009 -0.0119,-0.0166 -0.0265,-0.0166 -0.0273,0 -0.035,0.0208 -0.0152,0.0407 0.0141,0.0141 0.0416,-0.002 0.0416,-0.0241 z m -0.15759,-0.0674 c -0.0195,-0.0364 -0.10673,-0.0612 -0.13138,-0.0373 -0.0348,0.0337 0.006,0.0704 0.0774,0.0704 0.0647,0 0.07,-0.003 0.054,-0.0331 z m 6.63107,0.009 c 0,-0.004 -0.0119,-0.0165 -0.0265,-0.0286 -0.0217,-0.018 -0.0265,-0.0168 -0.0265,0.007 0,0.0157 0.0119,0.0286 0.0265,0.0286 0.0145,0 0.0265,-0.003 0.0265,-0.007 z m 0.50426,-0.51801 c -0.0193,-0.0193 -0.0325,0.0114 -0.0186,0.0433 0.0131,0.0302 0.0141,0.0302 0.0214,-6.2e-4 0.004,-0.0177 0.003,-0.0369 -0.003,-0.0426 z m -0.96287,-5.79005 c 0,-0.0322 -0.009,-0.0529 -0.0234,-0.0529 -0.016,0 -0.0209,0.0168 -0.0156,0.0529 0.004,0.0291 0.0148,0.0529 0.0234,0.0529 0.009,0 0.0156,-0.0238 0.0156,-0.0529 z m -5.51774,-0.65646 c -0.0127,-0.0127 -0.0209,-0.0137 -0.0209,-0.003 0,0.01 0.005,0.0235 0.0118,0.03 0.006,0.006 0.0159,0.008 0.0209,0.003 0.005,-0.005 -2.8e-4,-0.0185 -0.0118,-0.03 z"
         id="path1468"
         inkscape:connector-curvature="0" />
      <path
         style="fill:#ed8c4f;stroke-width:0.01763889"
         d="m 216.57281,235.90714 c -0.19153,-0.0247 -0.46696,-0.1081 -0.62219,-0.18837 l -0.0535,-0.0276 0.0117,-0.29798 c 0.0114,-0.28936 0.0994,-1.38021 0.13438,-1.66507 0.01,-0.0776 0.0371,-0.3078 0.0613,-0.51153 0.0856,-0.72067 0.28503,-1.98805 0.33463,-2.12609 0.005,-0.0142 0.0208,-0.10126 0.0349,-0.19342 0.0141,-0.0922 0.0542,-0.29854 0.0893,-0.45862 0.035,-0.16007 0.0869,-0.39819 0.11524,-0.52916 0.32024,-1.47991 0.93159,-3.46455 1.54311,-5.00945 l 0.12917,-0.32632 0.004,-0.80257 c 0.002,-0.44141 -0.002,-0.89385 -0.009,-1.00541 -0.007,-0.11157 -0.0121,-0.22269 -0.0119,-0.24695 1.3e-4,-0.0242 -0.007,-0.0957 -0.0157,-0.15875 -0.009,-0.0631 -0.0247,-0.21784 -0.0353,-0.34396 -0.15503,-1.83409 -0.60523,-3.81259 -1.24223,-5.45923 -0.0357,-0.0922 -0.0662,-0.17816 -0.0679,-0.1911 -0.004,-0.0285 0.40994,-0.18439 0.49522,-0.18663 0.0315,-8.3e-4 0.0573,-0.007 0.0573,-0.0143 0,-0.007 0.019,-0.0252 0.0421,-0.0404 0.0528,-0.0346 0.32805,-0.1496 0.35804,-0.1496 0.03,0 0.076,0.0924 0.0764,0.15346 3.1e-4,0.0483 0.017,0.0987 0.21772,0.65792 0.054,0.15038 0.0984,0.28806 0.0988,0.30596 3.6e-4,0.0179 0.0127,0.0536 0.0273,0.0794 0.0147,0.0258 0.0815,0.19408 0.14858,0.37408 0.58668,1.57454 1.2131,2.70488 1.84035,3.32078 0.39895,0.39172 0.76809,0.5704 1.16825,0.56548 0.59362,-0.007 1.12788,-0.40039 1.72311,-1.26783 0.49068,-0.71507 1.06799,-1.97682 1.51727,-3.31611 0.0293,-0.0873 0.0682,-0.1882 0.0865,-0.22419 0.0183,-0.036 0.0334,-0.0796 0.0336,-0.097 4e-4,-0.0413 0.0999,-0.3561 0.12069,-0.38197 0.009,-0.011 0.0217,-0.0538 0.0285,-0.095 0.008,-0.0464 0.0217,-0.075 0.0369,-0.075 0.0135,0 0.0743,0.0233 0.13515,0.0518 0.0608,0.0285 0.1463,0.0633 0.18995,0.0774 0.0437,0.0141 0.13647,0.0498 0.20624,0.0793 0.0698,0.0295 0.19148,0.0751 0.27046,0.10131 0.079,0.0262 0.14749,0.0578 0.15226,0.0702 0.005,0.0124 -0.044,0.16415 -0.10845,0.33717 -0.38217,1.02661 -0.6715,2.05908 -0.88231,3.14854 -0.0694,0.35893 -0.17626,1.00396 -0.20337,1.22824 -0.0102,0.0844 -0.0384,0.31226 -0.0627,0.50629 -0.0243,0.19403 -0.0449,0.37262 -0.0458,0.39688 -0.009,0.25471 -0.0338,0.44898 -0.0633,0.49926 -0.0285,0.0485 -0.0324,0.0873 -0.0281,0.27685 0.003,0.12127 0.01,0.58117 0.0158,1.02201 0.006,0.44085 0.0174,0.81391 0.0255,0.82903 0.0166,0.0312 0.13281,0.33582 0.37387,0.98 0.45437,1.21421 0.99082,3.00219 1.24102,4.13632 0.0139,0.0631 0.0415,0.18609 0.0614,0.2734 0.0909,0.39989 0.24455,1.18159 0.34321,1.74625 0.0771,0.44148 0.20233,1.34691 0.27559,1.9932 0.0361,0.31874 0.12344,1.413 0.1339,1.67825 l 0.0112,0.28479 -0.0539,0.0279 c -0.0921,0.0476 -0.32568,0.12788 -0.47251,0.16233 -0.28119,0.066 -0.88764,0.0275 -0.96175,-0.0611 -0.0193,-0.0231 -0.0693,-0.0385 -0.16757,-0.0518 -0.077,-0.0104 -0.16783,-0.0332 -0.20179,-0.0507 -0.054,-0.0278 -0.11493,-0.0321 -0.48507,-0.0342 -0.40133,-0.002 -0.42917,-3.2e-4 -0.53576,0.0383 -0.0618,0.0224 -0.12272,0.0368 -0.13528,0.032 -0.0126,-0.005 -0.0427,0.004 -0.0669,0.0201 -0.12924,0.0847 -0.77453,0.14323 -1.08957,0.0988 -0.17646,-0.0249 -0.43293,-0.0884 -0.61545,-0.15259 l -0.1323,-0.0465 -0.72319,0.0128 c -0.65655,0.0116 -0.73127,0.0159 -0.81086,0.0471 -0.0482,0.0189 -0.18713,0.0593 -0.30868,0.0899 -0.21303,0.0535 -0.23439,0.0555 -0.59143,0.0555 -0.31704,0 -0.39538,-0.006 -0.54362,-0.0388 -0.19503,-0.0437 -0.37488,-0.0968 -0.44799,-0.13237 -0.0749,-0.0365 -0.91059,-0.0289 -0.98414,0.009 -0.0775,0.0399 -0.39541,0.13497 -0.55181,0.16509 -0.16851,0.0324 -0.48611,0.0451 -0.63862,0.0254 z m 2.16958,-0.55734 c 0,-0.0151 -0.008,-0.0225 -0.0179,-0.0164 -0.01,0.006 -0.0134,0.0185 -0.008,0.0275 0.0151,0.0245 0.0257,0.0199 0.0257,-0.0111 z m 0.30977,-0.33763 c -0.008,-0.0213 -0.0162,-0.0237 -0.0309,-0.009 -0.0147,0.0147 -0.0136,0.0274 0.004,0.049 0.0274,0.033 0.0446,0.007 0.0266,-0.04 z m -0.50732,-5.12409 c 0.0235,-0.0235 0.0289,-0.0847 0.007,-0.0847 -0.0334,0 -0.0899,0.0559 -0.0807,0.0799 0.0121,0.0314 0.0445,0.0336 0.0732,0.005 z m 0.10419,-0.1299 c 0.0215,-0.0215 0.0229,-0.0322 0.006,-0.0485 -0.0164,-0.0162 -0.0268,-0.0133 -0.0459,0.0126 -0.0404,0.0548 -0.008,0.0839 0.0396,0.036 z m 0.18005,-0.18848 c 0.0173,-0.0457 0.01,-0.0662 -0.0248,-0.0662 -0.0275,0 -0.0522,0.0611 -0.0355,0.088 0.0183,0.0296 0.0445,0.0201 0.0603,-0.0219 z m -0.43209,-0.0945 c 0.0485,-0.0186 0.0302,-0.0422 -0.0328,-0.0422 -0.0623,0 -0.0981,0.0252 -0.0585,0.0412 0.032,0.0129 0.0595,0.0132 0.0913,0.001 z m 0.59235,-0.0334 c 0,-0.0147 -0.0157,-0.0265 -0.0353,-0.0265 -0.0196,0 -0.0353,0.0118 -0.0353,0.0265 0,0.0147 0.0157,0.0265 0.0353,0.0265 0.0196,0 0.0353,-0.0118 0.0353,-0.0265 z m -0.44985,-0.14978 c 0.0128,-0.0403 -0.003,-0.0761 -0.0276,-0.0611 -0.0214,0.0132 -0.0214,0.0963 3e-5,0.0963 0.009,0 0.0215,-0.0158 0.0276,-0.0351 z m -0.42396,-0.19102 c -0.0121,-0.0523 -0.0453,-0.0415 -0.0663,0.0215 -0.0122,0.0368 -0.008,0.067 0.0164,0.12157 l 0.0327,0.0726 0.0133,-0.0874 c 0.007,-0.0481 0.009,-0.10582 0.004,-0.12833 z m 0.41519,-0.004 c 0,-0.009 -0.0119,-0.0166 -0.0265,-0.0166 -0.0273,0 -0.035,0.0208 -0.0152,0.0407 0.0141,0.0141 0.0416,-0.002 0.0416,-0.0241 z m -0.15759,-0.0674 c -0.0195,-0.0364 -0.10673,-0.0612 -0.13138,-0.0373 -0.0348,0.0337 0.006,0.0704 0.0774,0.0704 0.0647,0 0.07,-0.003 0.054,-0.0331 z m 6.63107,0.009 c 0,-0.004 -0.0119,-0.0165 -0.0265,-0.0286 -0.0217,-0.018 -0.0265,-0.0168 -0.0265,0.007 0,0.0157 0.0119,0.0286 0.0265,0.0286 0.0145,0 0.0265,-0.003 0.0265,-0.007 z m 0.50426,-0.51801 c -0.0193,-0.0193 -0.0325,0.0114 -0.0186,0.0433 0.0131,0.0302 0.0141,0.0302 0.0214,-6.2e-4 0.004,-0.0177 0.003,-0.0369 -0.003,-0.0426 z m -3.76769,-3.71507 c 0.28543,-0.0931 0.45328,-0.31573 0.48333,-0.64119 0.0205,-0.22166 -0.0762,-0.48424 -0.23532,-0.63922 -0.17068,-0.16626 -0.48998,-0.24205 -0.7047,-0.16728 -0.26395,0.0919 -0.41524,0.25785 -0.49492,0.54284 -0.0551,0.19695 -0.0397,0.35679 0.053,0.55123 0.0701,0.14706 0.13547,0.21591 0.29026,0.30584 0.17146,0.0996 0.39536,0.11721 0.60831,0.0478 z m 2.80482,-2.07498 c 0,-0.0322 -0.009,-0.0529 -0.0234,-0.0529 -0.016,0 -0.0209,0.0168 -0.0156,0.0529 0.004,0.0291 0.0148,0.0529 0.0234,0.0529 0.009,0 0.0156,-0.0238 0.0156,-0.0529 z m -5.51774,-0.65646 c -0.0127,-0.0127 -0.0209,-0.0137 -0.0209,-0.003 0,0.01 0.005,0.0235 0.0118,0.03 0.006,0.006 0.0159,0.008 0.0209,0.003 0.005,-0.005 -2.8e-4,-0.0185 -0.0118,-0.03 z"
         id="path1466"
         inkscape:connector-curvature="0" />
      <path
         style="fill:#f4823c;stroke-width:0.01763889"
         d="m 216.39047,235.84517 c -0.0857,-0.0228 -0.19436,-0.0581 -0.24139,-0.0783 -0.047,-0.0202 -0.0969,-0.0368 -0.11074,-0.0368 -0.0139,0 -0.0472,-0.0173 -0.0742,-0.0385 l -0.0489,-0.0385 0.0115,-0.18639 c 0.10509,-2.09057 -0.10699,-0.23009 0.24907,-2.62935 0.0694,-0.49555 0.0854,-0.59845 0.1081,-0.69375 0.0135,-0.0566 0.0245,-0.1296 0.0245,-0.16229 0,-0.0327 0.007,-0.0975 0.0161,-0.1441 0.009,-0.0466 0.0252,-0.14418 0.0365,-0.21694 0.13571,-0.28521 -0.10663,-0.0653 0.29007,-1.45521 0.0142,-0.0485 0.0387,-0.15566 0.0543,-0.23812 0.0156,-0.0825 0.0433,-0.20947 0.0616,-0.28223 0.0567,-0.22633 0.14368,-0.5872 0.16151,-0.67027 0.0191,-0.0892 0.0471,-0.19389 0.10379,-0.38806 0.0212,-0.0728 0.0495,-0.17685 0.0629,-0.23131 0.0134,-0.0545 0.0363,-0.12192 0.0509,-0.14993 0.0146,-0.028 0.0269,-0.0747 0.0274,-0.10383 4.8e-4,-0.0291 0.0129,-0.0847 0.0276,-0.12347 0.0147,-0.0388 0.0344,-0.0983 0.0438,-0.13229 0.009,-0.034 0.0324,-0.11333 0.0513,-0.17639 0.0188,-0.0631 0.0518,-0.17419 0.0733,-0.24695 0.0214,-0.0728 0.0504,-0.15009 0.0642,-0.17184 0.0139,-0.0217 0.0205,-0.052 0.0147,-0.0672 -0.006,-0.0152 0.004,-0.0569 0.022,-0.0927 0.0179,-0.0358 0.0373,-0.0955 0.0431,-0.13271 0.006,-0.0372 0.0268,-0.10143 0.0469,-0.1428 0.02,-0.0414 0.0485,-0.12158 0.0633,-0.17825 0.0148,-0.0567 0.0439,-0.13926 0.0647,-0.18352 0.0208,-0.0443 0.0392,-0.10638 0.0409,-0.13803 0.002,-0.0317 0.0161,-0.072 0.0321,-0.0896 0.0159,-0.0176 0.029,-0.0441 0.029,-0.0587 0,-0.0147 0.0169,-0.0736 0.0375,-0.13091 0.0206,-0.0573 0.0597,-0.16768 0.0867,-0.24529 0.0753,-0.21579 0.13346,-0.36758 0.16262,-0.4246 0.0145,-0.0284 0.0321,-0.0779 0.0389,-0.10987 0.0149,-0.0691 0.0798,-0.23561 0.14923,-0.38276 0.1011,-0.21427 0.10415,-0.24141 0.11524,-1.02305 0.006,-0.39776 0.0151,-0.76458 0.021,-0.81516 0.01,-0.0818 0.0143,-0.0901 0.0426,-0.0749 -0.26615,-1.84526 0.0811,-0.26168 -0.37028,-2.71049 -0.0184,-0.0986 -0.0391,-0.24153 -0.0461,-0.3175 -0.007,-0.076 -0.0236,-0.15957 -0.0369,-0.18577 -0.0133,-0.0262 -0.0243,-0.0701 -0.0243,-0.0976 0,-0.0275 -0.0121,-0.0934 -0.0268,-0.14639 -0.0148,-0.0531 -0.0375,-0.15598 -0.0505,-0.22874 -0.0272,-0.1519 -0.0697,-0.32889 -0.11852,-0.49389 -0.0187,-0.0631 -0.0338,-0.13291 -0.0337,-0.15522 1.4e-4,-0.0223 -0.0107,-0.062 -0.0241,-0.0882 -0.0134,-0.0262 -0.0296,-0.0754 -0.0361,-0.10937 -0.013,-0.0681 -0.10166,-0.36928 -0.1454,-0.49389 -0.0153,-0.0437 -0.0333,-0.11112 -0.0401,-0.14993 -0.007,-0.0388 -0.0218,-0.0883 -0.0336,-0.11002 -0.0118,-0.0217 -0.0364,-0.0971 -0.0547,-0.16757 -0.0346,-0.13328 -0.0399,-0.14953 -0.13306,-0.41033 -0.0312,-0.0873 -0.0666,-0.18653 -0.0787,-0.22048 -0.0121,-0.034 -0.0418,-0.1173 -0.066,-0.18521 -0.0242,-0.0679 -0.0512,-0.13101 -0.06,-0.14023 -0.009,-0.009 -0.016,-0.038 -0.016,-0.064 0,-0.026 -0.0119,-0.0571 -0.0265,-0.0692 -0.0454,-0.0377 -0.0295,-0.062 0.0573,-0.0871 0.0461,-0.0134 0.14208,-0.0474 0.21334,-0.0757 0.0713,-0.0283 0.13425,-0.0467 0.13997,-0.041 0.20506,0.26232 0.22556,0.42358 0.37951,0.8035 0.0174,0 0.073,0.0441 0.12347,0.098 0.15967,0.1704 0.24017,0.19683 0.36271,0.1191 0.0229,-0.0145 0.0472,-0.0197 0.0541,-0.0115 0.007,0.008 0.0429,0.0982 0.08,0.20008 0.16046,0.44032 0.41512,1.0626 0.57401,1.40262 0.82441,1.76422 1.64089,2.62553 2.48712,2.6237 0.21,-4.5e-4 0.36865,-0.038 0.57326,-0.13586 0.38702,-0.18501 0.71291,-0.49269 1.10039,-1.0389 0.51116,-0.72054 1.09212,-1.95927 1.54677,-3.298 0.39249,-0.89487 0.15367,-0.90142 0.76605,-0.80672 0.0469,0.0303 0.27845,0.12429 0.30618,0.12429 0.0148,0 0.0318,0.008 0.0378,0.0176 0.006,0.01 0.0296,0.0176 0.0525,0.0176 0.0643,0 0.0974,0.0183 0.0974,0.054 0,0.0307 -0.009,0.057 -0.0626,0.18415 -0.0123,0.0291 -0.0438,0.11641 -0.0702,0.19403 -0.0263,0.0776 -0.0598,0.15477 -0.0745,0.17147 -0.0147,0.0167 -0.0331,0.0603 -0.0409,0.097 -0.026,0.12167 -0.0804,0.29519 -0.11036,0.35241 -0.0163,0.031 -0.0296,0.0699 -0.0296,0.0863 0,0.0431 -0.0892,0.30563 -0.10777,0.3171 -0.009,0.005 -0.0157,0.0445 -0.0157,0.087 0,0.0425 -0.007,0.0818 -0.0161,0.0872 -0.009,0.005 -0.0215,0.0421 -0.0282,0.0815 -0.007,0.0393 -0.0307,0.11911 -0.0535,0.17725 -0.0228,0.0581 -0.047,0.14285 -0.0538,0.18825 -0.007,0.0454 -0.0221,0.10649 -0.034,0.13575 -0.0119,0.0293 -0.0271,0.091 -0.0337,0.13709 -0.007,0.0461 -0.0234,0.10566 -0.0373,0.13229 -0.0139,0.0266 -0.0253,0.066 -0.0254,0.0874 -5e-5,0.0215 -0.0157,0.10482 -0.0347,0.18521 -0.0734,0.30997 -0.12391,0.53806 -0.13968,0.63124 -0.0602,0.35602 -0.12855,0.74407 -0.14282,0.81139 -0.28885,1.42798 -0.36131,2.43077 -0.34436,3.16268 l 0.0882,0.0564 0.009,0.44271 c 0.006,0.28461 0.0158,0.45154 0.0284,0.46743 0.0108,0.0136 0.0242,0.0494 0.0299,0.0796 0.006,0.0302 0.0299,0.0977 0.0538,0.14993 0.0239,0.0523 0.0487,0.11886 0.0552,0.14796 0.007,0.0291 0.0224,0.0648 0.0354,0.0794 0.013,0.0146 0.0369,0.078 0.0531,0.14111 0.0162,0.0631 0.0372,0.12396 0.0466,0.13533 0.016,0.0193 0.0782,0.18047 0.14883,0.38502 0.0167,0.0485 0.0676,0.19138 0.11297,0.3175 0.0454,0.12612 0.10815,0.31265 0.13945,0.41451 0.0313,0.10187 0.0718,0.2249 0.09,0.2734 0.0608,0.1621 0.14046,0.40443 0.174,0.52917 0.0183,0.0679 0.0416,0.14729 0.0519,0.17639 0.0103,0.0291 0.036,0.11642 0.0572,0.19403 0.31495,0.87168 0.43058,1.78528 0.6857,2.65465 0.01,0.0534 0.0381,0.19191 0.0626,0.30788 0.0474,0.22414 0.0393,0.2889 -0.0231,0.18618 -0.0128,-0.0133 -0.0329,0.0166 -0.0494,0.0249 0.13297,0.12722 0.14695,0.151 0.16223,0.2761 0.006,0.0526 0.0222,0.13534 0.035,0.18385 0.0279,0.10533 0.18024,1.04103 0.20827,1.27882 0.004,0.034 0.0234,0.16889 0.043,0.29986 -0.26093,2.14639 0.18345,-0.64641 0.24065,2.65356 l 9.8e-4,0.12282 -0.0706,0.0401 c -0.0388,0.022 -0.0866,0.0402 -0.10609,0.0403 -0.0195,1.7e-4 -0.0663,0.0168 -0.10388,0.0369 -0.11047,0.0592 -0.30084,0.0922 -0.57437,0.0995 -3.22062,-0.42091 0.0404,-0.44087 -2.2407,-0.15305 0,0.0742 -0.43647,0.14597 -0.79375,0.13053 -0.32908,-0.0142 -0.47405,-0.0422 -0.82136,-0.15876 -0.11607,-0.0389 -0.14878,-0.0416 -0.47625,-0.0389 -1.24444,0.0104 -1.16146,0.007 -1.25205,0.0473 -0.0463,0.0204 -0.11657,0.0417 -0.15627,0.0473 -0.0397,0.006 -0.10066,0.0207 -0.13544,0.0337 -0.1233,0.0461 -0.29332,0.0649 -0.59821,0.0662 -0.30976,0.001 -0.37179,-0.006 -0.69674,-0.0866 -0.0582,-0.0144 -0.13099,-0.0304 -0.16174,-0.0356 -1.51311,-0.62628 -0.22792,-0.25944 -0.79344,-0.0672 -0.23571,-0.005 -0.27169,-0.002 -0.36715,0.0342 -0.40478,0.15168 -0.57101,0.18582 -0.89959,0.18473 -0.22002,-7.2e-4 -0.29083,-0.008 -0.42046,-0.0424 z m 0.75964,-0.0728 c -0.006,-0.006 -0.0211,-0.006 -0.0338,-0.001 -0.0141,0.006 -0.01,0.01 0.0106,0.0106 0.0186,7.6e-4 0.029,-0.003 0.0232,-0.009 z m 9.40631,-4.13448 c 0,-0.0194 -0.008,-0.0353 -0.0176,-0.0353 -0.01,0 -0.0176,0.0159 -0.0176,0.0353 0,0.0194 0.008,0.0353 0.0176,0.0353 0.01,0 0.0176,-0.0159 0.0176,-0.0353 z m -10.08945,-0.009 c 0,-0.0146 -0.008,-0.0265 -0.0176,-0.0265 -0.01,0 -0.0176,0.0119 -0.0176,0.0265 0,0.0145 0.008,0.0265 0.0176,0.0265 0.01,0 0.0176,-0.0119 0.0176,-0.0265 z m 1.67014,-6.11585 c -0.006,-0.0141 -0.01,-0.01 -0.0107,0.0106 -7.6e-4,0.0186 0.003,0.029 0.009,0.0232 0.006,-0.006 0.006,-0.0211 0.001,-0.0338 z m 3.60369,-0.70866 c 0.28543,-0.0931 0.45328,-0.31573 0.48333,-0.64119 0.0205,-0.22166 -0.0762,-0.48424 -0.23532,-0.63922 -0.17068,-0.16626 -0.48998,-0.24205 -0.7047,-0.16728 -0.26395,0.0919 -0.41524,0.25785 -0.49492,0.54284 -0.0551,0.19695 -0.0397,0.35679 0.053,0.55123 0.0701,0.14706 0.13547,0.21591 0.29026,0.30584 0.17146,0.0996 0.39536,0.11721 0.60831,0.0478 z m 1.42898,-3.53529 c 0,-0.008 -0.0232,-0.0414 -0.0515,-0.075 -0.0429,-0.0509 -0.0554,-0.0571 -0.075,-0.0376 -0.0196,0.0196 -0.0133,0.0321 0.0376,0.075 0.0614,0.0517 0.0889,0.0633 0.0889,0.0376 z m -5.57984,-3.46538 c -0.005,-0.0121 -0.009,-0.002 -0.009,0.022 0,0.0243 0.004,0.0342 0.009,0.0221 0.005,-0.0121 0.005,-0.032 0,-0.0441 z m 0.3685,-0.77606 c -0.29571,-0.23946 -0.30228,-0.43167 -0.36026,-0.73397 -0.0276,-0.0797 -0.0332,-0.11869 -0.0205,-0.14236 0.0168,-0.0314 0.29546,-0.15996 0.3468,-0.15996 0.0405,0 0.061,0.0838 0.049,0.20055 -0.013,0.12691 0.011,0.1996 0.0993,0.30006 0.0427,0.0487 0.0823,0.13764 0.15132,0.34044 0.20583,0.42235 -0.10231,0.36084 -0.2655,0.1952 z"
         id="path1464"
         inkscape:connector-curvature="0"
         sodipodi:nodetypes="ccscccccscccccccccccccccccccccccsccccccccccssccccscccccccccscccccccccccccccscssccsccscsccccccccccccccccccscccccccscccccccccccccccccccccccccccccccccccssssssssssccccccccccccccscccssssscccsccccc" />
      <path
         style="fill:#ce6c2a;stroke-width:0.01763889"
         d="m 217.98394,234.32779 c 0.009,-0.0582 0.0248,-0.18918 0.0352,-0.29104 0.0896,-0.87194 0.3462,-2.30779 0.55786,-3.12209 0.17094,-0.7612 0.61106,-1.632 0.73075,-2.15109 0.11308,-0.2607 0.30078,-0.63585 0.31815,-0.63585 0.0218,0 0.0209,0.0566 -0.002,0.11646 -0.0287,0.0756 -0.13761,0.45169 -0.20372,0.70375 -0.34995,1.33436 -0.57504,2.8824 -0.67707,4.65666 -0.13614,1.55855 -0.86501,3.28893 -0.75917,0.7232 z m 2.81215,1.19519 c 0.006,-0.0849 0.0272,-0.30912 0.0461,-0.49829 0.0189,-0.18918 0.0504,-0.52653 0.07,-0.74966 0.0613,-0.69788 0.0887,-0.98327 0.10752,-1.12007 0.01,-0.0728 0.0173,-0.1561 0.0163,-0.18521 -0.002,-0.0578 0.0203,-0.3165 0.0617,-0.71437 0.0146,-0.14067 0.0422,-0.44626 0.0613,-0.6791 0.0509,-0.62229 0.15673,-1.80465 0.16721,-1.8679 0.005,-0.0301 0.021,-0.20158 0.0356,-0.38106 0.0439,-0.53929 0.0997,-1.06546 0.11596,-1.09361 0.018,-0.0312 0.0188,0.0855 0.0166,2.41653 -9.3e-4,0.96529 -0.001,2.49127 -5.7e-4,3.39108 l 0.001,1.636 h -0.35526 -0.35525 l 0.0118,-0.15434 z m 3.45003,-0.94811 c -0.18787,-2.23957 -0.47851,-4.47008 -0.93497,-6.61254 -0.0288,-0.13469 -0.0483,-0.25154 -0.0433,-0.25965 0.005,-0.008 -0.002,-0.0368 -0.0157,-0.0638 -0.0136,-0.027 -0.0625,-0.20381 -0.10848,-0.39298 -0.046,-0.18918 -0.12283,-0.49054 -0.17067,-0.66969 -0.10503,-0.39325 -0.10456,-0.46162 0.002,-0.23872 0.23205,0.48705 0.62141,1.5605 0.81253,2.24014 0.0218,0.0776 0.0551,0.19271 0.0739,0.25577 0.32429,1.7414 0.59588,2.49134 0.90451,4.35672 0.0536,0.325 0.1801,1.88679 0.1944,1.96925 0.41692,0.81121 -0.61204,0.56501 -0.71422,-0.5845 z m -5.86618,-10.04997 c -0.005,-0.0124 -0.007,-0.21682 -0.004,-0.45432 0.004,-0.33232 0.01,-0.43141 0.0268,-0.43005 0.0121,9.7e-4 0.57456,0.003 1.24984,0.004 0.97487,0.002 1.22579,0.007 1.21808,0.0247 -0.10342,0.23486 -0.10691,0.24899 -0.1075,0.43656 -5.1e-4,0.16188 0.005,0.19948 0.0468,0.29848 0.0261,0.0623 0.0436,0.11935 0.039,0.12678 -0.005,0.007 -0.56008,0.0141 -1.2344,0.0147 -0.97851,9.7e-4 -1.2278,-0.003 -1.23469,-0.0213 z m 3.75471,-0.007 c 0.006,-0.0177 0.0284,-0.0798 0.0505,-0.13795 0.0728,-0.19242 0.0473,-0.52186 -0.0523,-0.67524 -0.0144,-0.0221 -0.0223,-0.0441 -0.0176,-0.0488 0.005,-0.005 0.53537,-0.009 1.17925,-0.009 l 1.1707,-3.3e-4 0.0711,0.05 0.0711,0.05 v 0.39604 0.39604 l -0.82903,-0.002 c -0.45596,-9.5e-4 -0.83696,-0.002 -0.84666,-0.003 -0.01,-6.1e-4 -0.19533,0.003 -0.41249,0.007 -0.37605,0.008 -0.39436,0.007 -0.38447,-0.0236 z m -0.84346,-2.5397 c -0.0485,-0.0141 -0.13185,-0.0386 -0.18521,-0.0543 -0.16442,-0.0486 -0.40583,-0.16963 -0.59972,-0.30064 -0.22031,-0.14886 -0.46912,-0.35867 -0.50923,-0.42941 -0.0158,-0.0279 -0.0407,-0.0546 -0.0552,-0.0593 -0.0146,-0.005 -0.082,-0.0738 -0.14994,-0.15342 -0.36149,-0.42406 -0.67276,-0.91029 -1.00848,-1.57534 -0.26544,-0.52582 -0.60555,-1.33702 -0.80241,-1.91382 -0.0381,-0.11157 -0.2312,-0.6707 -0.25559,-0.73202 0.11682,0.29751 0.35499,0.46491 0.59203,0.3483 0.007,0.008 0.0784,0.2113 0.11554,0.31318 0.16046,0.44032 0.41512,1.0626 0.57401,1.40262 0.82441,1.76422 1.64089,2.62553 2.48712,2.6237 0.21,-4.5e-4 0.36865,-0.038 0.57326,-0.13586 0.38702,-0.18501 0.71291,-0.49269 1.10039,-1.0389 0.51116,-0.72054 1.09212,-1.95927 1.54677,-3.298 0.0521,-0.15358 0.27578,-0.91084 0.29485,-0.94654 0.76553,0.24143 -0.13103,0.042 0.41538,0.10332 0.019,0.012 0.0128,0.0503 -0.0323,0.19817 -0.0898,0.29455 -0.22929,0.72138 -0.27313,0.83587 -0.0223,0.0582 -0.0486,0.13362 -0.0585,0.16757 -0.0297,0.10197 -0.16941,0.48603 -0.27598,0.75847 -0.45276,1.15738 -0.95918,2.10895 -1.44186,2.70927 -0.19513,0.24269 -0.27166,0.32462 -0.3032,0.32462 -0.0164,0 -0.0286,0.0144 -0.0286,0.0337 0,0.0422 -0.17983,0.2087 -0.42333,0.39191 -0.24165,0.18181 -0.54706,0.33324 -0.81324,0.40324 -0.22015,0.0579 -0.34476,0.064 -0.48322,0.0238 z m -3.31019,-4.48623 c -0.0251,-0.0699 -0.31309,-0.92478 -0.33229,-1.02307 -0.009,-0.0437 -0.032,-0.12525 -0.0522,-0.18132 -0.0267,-0.0743 -0.0319,-0.11085 -0.0191,-0.13476 0.0169,-0.0316 0.29539,-0.16017 0.34691,-0.16017 0.0405,0 0.061,0.0838 0.049,0.20055 0.0637,0.15246 0.0673,0.21837 0.0993,0.30006 0.0427,0.0487 0.0823,0.13764 0.15132,0.34044 l 0.0935,0.27455 c -0.31275,0.0404 -0.15339,0.611 -0.33644,0.38372 z"
         id="path1462"
         inkscape:connector-curvature="0"
         sodipodi:nodetypes="ccccscccccccccccccccccccccccccccccccccccccccccccccccsccccccccccccccccccccccccccccccccccssccccccccsccccc" />
      <path
         style="fill:#bd6326;stroke-width:0.01763889"
         d="m 217.90374,235.6639 c -0.0119,-0.009 -0.0142,-0.06 -0.006,-0.14549 0.0491,-0.54024 0.071,-0.7614 0.0951,-0.96132 0.0152,-0.12611 0.0431,-0.36424 0.0621,-0.52916 0.019,-0.16493 0.046,-0.37924 0.0599,-0.47625 0.014,-0.097 0.0461,-0.31927 0.0713,-0.49389 0.0252,-0.17463 0.0617,-0.40084 0.081,-0.50271 0.0193,-0.10186 0.0429,-0.22886 0.0524,-0.28222 0.0409,-0.22877 0.12673,-0.65071 0.14894,-0.73202 0.0132,-0.0485 0.0293,-0.12391 0.0357,-0.16756 0.0128,-0.0876 0.10149,-0.43551 0.19791,-0.77612 0.0343,-0.12126 0.0698,-0.25223 0.0787,-0.29104 0.009,-0.0388 0.0676,-0.22291 0.13019,-0.40913 0.0626,-0.18622 0.11386,-0.35101 0.11386,-0.3662 1.35295,-3.78946 -0.008,1.05687 -0.0525,1.42218 -0.009,0.0711 -0.0325,0.24436 -0.0517,0.38503 -0.0669,0.48919 -0.10148,0.82713 -0.17789,1.73743 -0.0188,0.22411 -0.0616,1.07001 -0.0814,1.61124 0.0374,1.26864 -0.28367,0.9478 -0.4256,0.97925 -0.11134,-0.0167 -0.19583,-0.0172 -0.26035,-0.002 -0.0291,0.007 -0.0612,0.007 -0.0714,-3.9e-4 z m 0.57703,6.2e-4 c 1e-5,-1e-5 3e-5,0 4e-5,0 z m 2.60318,-0.001 c -0.23286,-0.004 -0.26011,-0.008 -0.2596,-0.0353 7.5e-4,-0.0396 0.0631,-0.72038 0.0868,-0.94762 0.0101,-0.097 0.0344,-0.35895 0.054,-0.58208 0.0828,-1.50509 0.46165,-4.8805 0.49853,0.0583 l 0.004,1.49991 -0.0617,0.006 c -0.0339,0.003 -0.17881,0.004 -0.32191,9.7e-4 z m 3.32072,-0.0674 c -0.13993,-1.43237 -0.19908,-1.87432 -0.20388,-1.90342 -0.005,-0.0291 -0.0282,-0.24342 -0.0522,-0.47625 -0.0467,-0.45473 -0.11783,-1.0884 -0.14949,-1.33174 -0.0107,-0.0825 -0.46355,-2.94878 -0.47725,-3.06034 -0.30564,-1.68412 0.1087,-0.86818 0.45042,0.56444 0.0175,0.097 0.49541,2.29396 0.51141,2.38127 0.10695,0.58027 0.2638,1.49925 0.32815,1.92264 0.0103,0.0679 0.0258,0.15919 0.0345,0.20285 0.009,0.0437 0.20542,1.67467 0.22032,1.77168 -0.50679,0.0613 0.49978,-0.0321 -0.66198,-0.0711 z m -3.20229,-4.14356 c 0.0144,-0.16492 0.0461,-0.52608 0.0702,-0.80257 0.0242,-0.27649 0.06,-0.67336 0.0797,-0.88194 0.0522,-0.55442 0.0686,-0.73344 0.0814,-0.88715 0.006,-0.0756 0.0155,-0.1334 0.0205,-0.12839 0.16092,2.78795 -0.33846,5.87802 -0.2518,2.70005 z m 2.31947,-2.62819 c -0.049,-0.26194 -0.10002,-0.52388 -0.11346,-0.58209 -0.0328,-0.14206 -0.0758,-0.33937 -0.0898,-0.41165 -0.0106,-0.055 -0.009,-0.0576 0.0245,-0.0397 0.082,0.0439 0.0754,2.6e-4 -0.0147,-0.0975 -0.0388,-0.0421 -0.0705,-0.0879 -0.0705,-0.10178 0,-0.036 -0.15055,-0.65429 -0.21412,-0.87939 -0.0637,-0.22554 -0.0589,-0.27975 0.01,-0.10918 0.027,0.0672 0.0719,0.17385 0.0998,0.23691 0.0794,0.17969 0.2661,0.6973 0.39452,1.09361 0.17714,0.54665 0.1832,0.56597 0.21023,0.67028 0.0138,0.0534 0.0508,0.18433 0.0822,0.29104 0.0314,0.10672 0.0907,0.32897 0.13175,0.49389 -0.13197,1.03708 -0.32945,0.0818 -0.45042,-0.56444 z m -5.13541,-4.34458 c -0.004,-0.0164 -0.004,-0.20669 -6e-5,-0.4228 l 0.007,-0.39294 1.20507,0.005 c 0.66279,0.003 1.21077,0.0106 1.21775,0.0176 0.007,0.007 -0.006,0.0546 -0.0294,0.10584 -0.0369,0.0818 -0.042,0.11897 -0.0417,0.3048 3.9e-4,0.20325 0.006,0.23292 0.0697,0.38365 0.0122,0.0288 -0.01,0.0309 -0.32227,0.0309 -2.10575,-0.0318 0.60558,0.002 -1.29073,-5.2e-4 -0.74431,-0.001 -0.80879,-0.004 -0.81502,-0.0313 z m 3.78703,0.001 c 0.093,-0.2223 0.10495,-0.44976 0.035,-0.66416 -0.0242,-0.0743 -0.0441,-0.13895 -0.0441,-0.14367 0,-0.005 0.5192,-0.008 1.15378,-0.008 l 1.15378,9.9e-4 0.0655,0.052 0.0655,0.052 -10e-4,0.35739 c -8.2e-4,0.19656 -0.002,0.36279 -0.002,0.3694 -2.07524,0.0141 -0.64228,0.0141 -2.07524,0.0141 -0.33928,0 -0.36257,-0.002 -0.35052,-0.0309 z m -4.07485,-7.90663 c -0.006,-0.01 -0.002,-0.0176 0.008,-0.0176 0.0103,0 0.0187,0.008 0.0187,0.0176 0,0.01 -0.004,0.0176 -0.008,0.0176 -0.004,0 -0.0127,-0.008 -0.0187,-0.0176 z m -0.15761,-0.17127 c -0.01,-0.0251 -0.008,-0.0272 0.01,-0.01 0.0121,0.012 0.0175,0.0262 0.012,0.0316 -0.005,0.005 -0.0153,-0.004 -0.0219,-0.0217 z"
         id="path1460"
         inkscape:connector-curvature="0"
         sodipodi:nodetypes="ccccccccccccccccccccccccccccccccccccccccccccccccccccccccscccccccccccccccsccccccccccccccccccscscccccc" />
    </g>
  </g>
</svg>
