<?xml version="1.0" encoding="UTF-8" standalone="no"?>
<!-- Created with Inkscape (http://www.inkscape.org/) -->

<svg
   xmlns:dc="http://purl.org/dc/elements/1.1/"
   xmlns:cc="http://creativecommons.org/ns#"
   xmlns:rdf="http://www.w3.org/1999/02/22-rdf-syntax-ns#"
   xmlns:svg="http://www.w3.org/2000/svg"
   xmlns="http://www.w3.org/2000/svg"
   xmlns:sodipodi="http://sodipodi.sourceforge.net/DTD/sodipodi-0.dtd"
   xmlns:inkscape="http://www.inkscape.org/namespaces/inkscape"
   version="1.1"
   id="svg1445"
   viewBox="0 0 500 500"
   sodipodi:docname="brownjacket.svg"
   inkscape:version="0.92.5 (2060ec1f9f, 2020-04-08)">
  <metadata
     id="metadata1451">
    <rdf:RDF>
      <cc:Work
         rdf:about="">
        <dc:format>image/svg+xml</dc:format>
        <dc:type
           rdf:resource="http://purl.org/dc/dcmitype/StillImage" />
        <dc:title></dc:title>
      </cc:Work>
    </rdf:RDF>
  </metadata>
  <defs
     id="defs1449" />
  <sodipodi:namedview
     pagecolor="#ffffff"
     bordercolor="#666666"
     borderopacity="1"
     objecttolerance="10"
     gridtolerance="10"
     guidetolerance="10"
     inkscape:pageopacity="0"
     inkscape:pageshadow="2"
     inkscape:window-width="1366"
     inkscape:window-height="731"
     id="namedview1447"
     showgrid="false"
     inkscape:zoom="0.48137655"
     inkscape:cx="16.468538"
     inkscape:cy="287.77682"
     inkscape:window-x="0"
     inkscape:window-y="0"
     inkscape:window-maximized="1"
     inkscape:current-layer="svg1445" />
  <g
     id="g5701"
     transform="matrix(6.4025823,0,0,6.4025823,549.60057,232.41102)">
    <path
       style="fill:#b29c90;stroke-width:0.06666666"
       d="m -54.436165,40.764374 c -1.210181,-0.105387 -2.373769,-0.272827 -4.6,-0.661953 -0.275,-0.04807 -1.19,-0.208087 -2.033334,-0.3556 -1.708322,-0.298807 -3.969703,-0.6203 -5.427903,-0.77166 -1.180227,-0.122514 -1.11928,-0.05676 -0.911467,-0.983327 2.257617,-10.065993 3.534434,-23.918618 3.275525,-35.5373123 -0.05835,-2.61859527 -0.05704,-2.61364794 -0.396832,-1.49999997 -0.137046,0.44916667 -0.276129,0.89166667 -0.309072,0.98333327 -0.113184,0.314938 -1.055516,3.7676192 -1.364637,4.9999999 -1.017499,4.0564841 -1.835341,7.9488221 -2.892595,13.7666661 -0.327869,1.804192 -1.194002,7.073487 -1.512238,9.2 -0.236155,1.57804 0.07063,1.479346 -2.602925,0.837373 -1.24182,-0.298187 -2.587855,-0.62004 -2.991188,-0.715227 -3.112912,-0.734659 -3.190332,-0.763186 -3.135421,-1.155479 0.03505,-0.250407 0.09063,-0.788 0.303232,-2.933334 0.255335,-2.576491 1.013647,-9.196647 1.095822,-9.566666 0.01629,-0.07333 0.09258,-0.628333 0.169544,-1.233333 0.177054,-1.391812 0.676963,-4.901908 0.939976,-6.6000002 0.462977,-2.9891312 0.533019,-3.4285779 0.754437,-4.7333332 1.710045,-10.0768576 3.317161,-17.8262126 5.706879,-27.5180096 0.503874,-2.043523 0.636296,-2.497331 0.745828,-2.555951 0.131338,-0.07029 4.213859,-1.506286 6.419702,-2.258082 3.716333,-1.266602 3.421029,-1.128211 3.630279,-1.70129 0.57389,-1.571731 1.401406,-2.940158 2.427604,-4.014424 0.702229,-0.735122 0.55905,-0.708578 2.242117,-0.415661 0.641667,0.111675 1.371806,0.231138 1.622532,0.265474 0.250726,0.03434 0.835726,0.122292 1.3,0.195458 3.044315,0.479764 4.129799,0.568846 6.877468,0.564411 3.035392,-0.0049 4.865501,-0.205684 10.233333,-1.122718 1.10913,-0.189483 1.079014,-0.199095 1.758526,0.561273 1.048916,1.173728 1.837014,2.516696 2.379809,4.055344 0.06904,0.195703 0.174067,0.381802 0.233397,0.413554 0.124915,0.06685 2.158139,0.787369 3.661601,1.297565 0.568333,0.192863 1.513333,0.515768 2.1,0.717566 0.586666,0.201798 1.396666,0.477318 1.8,0.612269 2.577926,0.86254 2.263046,0.575863 2.763306,2.515809 0.496967,1.927143 1.655827,6.684915 1.932787,7.935149 0.1079,0.487079 0.334386,1.500598 0.503306,2.252264 1.883327,8.3806746 3.654027,18.290367 4.931667,27.599999 0.326507,2.379123 0.851693,6.581962 1.033007,8.266667 0.03749,0.348333 0.129086,1.173333 0.203553,1.833333 0.279753,2.479559 0.5907,5.86834 0.542847,5.916193 -0.06486,0.06486 -2.00794,0.552987 -5.143807,1.292193 -0.385,0.09075 -1.263153,0.301627 -1.951453,0.4686 -1.418547,0.344127 -1.406967,0.345654 -1.476653,-0.194813 -0.499527,-3.87418 -2.549274,-15.502186 -3.375502,-19.148839 -0.547393,-2.4159829 -1.033152,-4.4216028 -1.453194,-6.0000001 -0.521572,-1.9599173 -1.453095,-5.09169849 -1.543578,-5.18950649 -0.16164,-0.17472533 -0.163875,9.30020969 -0.003,12.78950659 0.421514,9.14341 1.719775,19.545139 3.146815,25.212426 0.101641,0.403653 0.08885,0.41026 -1.015513,0.52476 -1.681565,0.174346 -4.414383,0.567206 -5.594571,0.80426 -0.429907,0.08635 -2.774884,0.477353 -4.766666,0.794793 -5.205402,0.829606 -7.744779,-0.5861 -10.256871,-5.718233 -0.801375,-1.637187 -0.666118,-1.574007 -1.148654,-0.53654 -2.320425,4.988986 -4.79575,6.796179 -8.827808,6.445053 z"
       id="path5717"
       inkscape:connector-curvature="0" />
    <path
       style="fill:#d0a83a;stroke-width:0.06666666"
       d="m -55.469499,40.567781 c -1.50899,-0.200194 -1.741884,-0.236254 -1.926614,-0.29832 -0.106306,-0.03572 -0.278375,-0.06494 -0.382377,-0.06494 -0.104003,0 -0.317026,-0.02917 -0.473385,-0.06481 -0.15636,-0.03565 -0.47929,-0.09399 -0.717624,-0.129653 -0.238333,-0.03566 -1.138333,-0.187913 -2,-0.338333 -2.202474,-0.384494 -5.711541,-0.862767 -6.357293,-0.866487 -0.15725,-9.33e-4 -0.171342,0.09654 0.37607,-2.600713 0.24185,-1.191667 0.501984,-2.541667 0.578076,-3 0.07609,-0.458334 0.168396,-0.968334 0.205118,-1.133334 0.03672,-0.165 0.157785,-0.9 0.269028,-1.633333 0.914944,-6.03149 1.431516,-11.368315 1.74229,-17.999999 0.08981,-1.916425 0.119788,-12.58909524 0.0356,-12.67331457 -0.09928,-0.0993187 -0.1766,0.086488 -0.571472,1.37331467 -1.229575,4.0070052 -2.372575,8.630563 -3.403287,13.7666659 -0.780115,3.887362 -1.293179,6.774669 -2.179743,12.266667 -0.180396,1.1175 -0.200591,1.24596 -0.424458,2.7 -0.196808,1.278293 -0.193616,1.266666 -0.347634,1.266666 -0.07358,0 -0.543694,-0.102493 -1.044703,-0.227767 -0.501008,-0.125273 -1.315924,-0.322193 -1.810924,-0.437606 -5.864838,-1.36738 -5.379421,-1.16966 -5.276145,-2.149027 0.04363,-0.413746 0.167685,-1.637266 0.275679,-2.718933 0.694544,-6.956596 1.820968,-15.306064 2.994997,-22.1999993 0.463298,-2.72049996 0.606624,-3.54204461 0.779252,-4.4666666 0.09242,-0.495 0.194617,-1.0499999 0.227111,-1.2333333 0.7086,-3.9979138 1.929026,-9.8673148 3.299159,-15.8666658 0.18216,-0.797613 0.165634,-0.728922 1.202924,-5 0.852596,-3.510593 0.168814,-2.854869 4.530356,-4.344447 6.283373,-2.145932 6.171631,-2.099584 6.364857,-2.639961 0.08173,-0.228575 0.207786,-0.518552 0.280117,-0.644391 0.07233,-0.12584 0.178035,-0.36584 0.234897,-0.533334 0.121177,-0.356945 0.554811,-1.141241 0.808949,-1.463113 0.09781,-0.123885 0.298351,-0.382263 0.445635,-0.574172 1.150425,-1.498988 1.196982,-1.518306 2.898878,-1.202834 2.629094,0.487342 6.100829,0.926639 8.244739,1.043251 2.135998,0.116181 4.929862,-0.07458 7.921927,-0.540896 2.066977,-0.32214 2.98845,-0.468679 3.823125,-0.607981 1.063609,-0.177508 0.986569,-0.205485 1.743838,0.633275 0.884319,0.979481 1.578043,2.14576 2.165896,3.64127 0.315189,0.801848 0.194715,0.725508 2.26714,1.436605 0.146667,0.05033 0.866667,0.299146 1.6,0.552936 1.555656,0.538377 3.374656,1.150169 4.133334,1.390185 0.293333,0.0928 0.598048,0.20919 0.677144,0.258648 0.0791,0.04946 0.289096,0.125405 0.466669,0.168773 0.852153,0.208121 1.13238,0.404171 1.24178,0.868771 0.05492,0.233245 0.3696,1.504082 0.699293,2.824081 0.7782,3.115763 1.240307,5.023331 1.522087,6.283224 0.125047,0.559106 0.333393,1.489106 0.462993,2.066666 0.51322,2.287147 0.92952,4.253009 1.429427,6.75011 0.348773,1.7421673 0.999913,5.1566752 1.086973,5.6999998 0.01763,0.11 0.141613,0.8 0.275527,1.53333331 0.591013,3.23653719 0.878453,4.98402989 1.568106,9.53333299 0.76044,5.0162259 1.57684,11.5381879 2.069587,16.5333329 0.108507,1.1 0.227993,2.275113 0.26552,2.61136 0.125847,1.127693 0.15892,1.049413 -0.515107,1.21926 -1.083606,0.273053 -4.712526,1.143693 -5.283333,1.26756 -0.311667,0.06763 -0.93142,0.215713 -1.377226,0.32906 -0.97878,0.248866 -1.07668,0.253773 -1.11906,0.05609 -0.02901,-0.135313 -0.22168,-1.380373 -0.373974,-2.416666 -0.102366,-0.696554 -0.251246,-1.63934 -0.394773,-2.5 -0.07644,-0.458334 -0.28924,-1.748334 -0.472893,-2.866667 -0.183647,-1.118333 -0.377874,-2.273333 -0.4316,-2.566667 -0.05373,-0.293333 -0.24896,-1.373333 -0.43384,-2.399999 -0.327461,-1.818399 -1.043713,-5.463587 -1.231354,-6.266667 -0.0514,-0.22 -0.261578,-1.135 -0.467053,-2.0333332 -0.878017,-3.8386652 -2.564842,-9.86666638 -2.761005,-9.86666638 -0.156663,0 -0.24221,6.77818308 -0.130417,10.33333258 0.07437,2.365168 0.187703,4.964124 0.261633,6 0.03533,0.495 0.110344,1.575 0.166701,2.4 0.178019,2.605981 0.485353,5.614363 0.864948,8.466667 0.48327,3.631319 0.847267,5.817593 1.541419,9.258199 0.239482,1.187014 0.410613,2.181867 0.380292,2.210787 -0.03032,0.02891 -0.400131,0.08645 -0.821798,0.127847 -1.130133,0.110953 -5.031556,0.652906 -5.533333,0.768646 -0.238333,0.05497 -0.716892,0.147207 -1.063464,0.204954 -0.346572,0.05775 -0.651386,0.118146 -0.677365,0.1342 -0.02598,0.01605 -0.17742,0.03219 -0.336536,0.03585 -0.381815,0.0088 -2.301523,0.310773 -2.444319,0.384513 -0.06141,0.03171 -0.396649,0.08799 -0.744982,0.12506 -0.348334,0.03707 -0.723334,0.07744 -0.833334,0.08971 -4.398487,0.490566 -6.847039,-1.18886 -9.243181,-6.339767 -0.548779,-1.179686 -0.498259,-1.180106 -1.049777,0.0086 -2.473229,5.330606 -4.955024,6.927293 -9.773708,6.288 z"
       id="path5715"
       inkscape:connector-curvature="0" />
    <path
       style="fill:#906956;stroke-width:0.06666666"
       d="m -55.469499,40.567781 c -1.50899,-0.200194 -1.741884,-0.236254 -1.926614,-0.29832 -0.106306,-0.03572 -0.278375,-0.06494 -0.382377,-0.06494 -0.104003,0 -0.317026,-0.02917 -0.473385,-0.06481 -0.15636,-0.03565 -0.47929,-0.09399 -0.717624,-0.129653 -0.238333,-0.03566 -1.138333,-0.187913 -2,-0.338333 -2.202474,-0.384494 -5.711541,-0.862767 -6.357293,-0.866487 -0.15725,-9.33e-4 -0.171342,0.09654 0.37607,-2.600713 0.24185,-1.191667 0.501984,-2.541667 0.578076,-3 0.07609,-0.458334 0.168396,-0.968334 0.205118,-1.133334 0.03672,-0.165 0.157785,-0.9 0.269028,-1.633333 0.914944,-6.03149 1.431516,-11.368315 1.74229,-17.999999 0.08981,-1.916425 0.119788,-12.58909524 0.0356,-12.67331457 -0.09928,-0.0993187 -0.1766,0.086488 -0.571472,1.37331467 -1.229575,4.0070052 -2.372575,8.630563 -3.403287,13.7666659 -0.780115,3.887362 -1.293179,6.774669 -2.179743,12.266667 -0.180396,1.1175 -0.200591,1.24596 -0.424458,2.7 -0.196808,1.278293 -0.193616,1.266666 -0.347634,1.266666 -0.07358,0 -0.543694,-0.102493 -1.044703,-0.227767 -0.501008,-0.125273 -1.315924,-0.322193 -1.810924,-0.437606 -5.864838,-1.36738 -5.379421,-1.16966 -5.276145,-2.149027 0.04363,-0.413746 0.167685,-1.637266 0.275679,-2.718933 0.694544,-6.956596 1.820968,-15.306064 2.994997,-22.1999993 0.463298,-2.72049996 0.606624,-3.54204461 0.779252,-4.4666666 0.09242,-0.495 0.194617,-1.0499999 0.227111,-1.2333333 0.7086,-3.9979138 1.929026,-9.8673148 3.299159,-15.8666658 0.18216,-0.797613 0.165634,-0.728922 1.202924,-5 0.852596,-3.510593 0.168814,-2.854869 4.530356,-4.344447 6.283373,-2.145932 6.171631,-2.099584 6.364857,-2.639961 0.08173,-0.228575 0.207786,-0.518552 0.280117,-0.644391 0.07233,-0.12584 0.178035,-0.36584 0.234897,-0.533334 0.121177,-0.356945 0.554811,-1.141241 0.808949,-1.463113 0.09781,-0.123885 0.298351,-0.382263 0.445635,-0.574172 1.150425,-1.498988 1.196982,-1.518306 2.898878,-1.202834 2.629094,0.487342 6.100829,0.926639 8.244739,1.043251 2.135998,0.116181 4.929862,-0.07458 7.921927,-0.540896 2.066977,-0.32214 2.98845,-0.468679 3.823125,-0.607981 1.063609,-0.177508 0.986569,-0.205485 1.743838,0.633275 0.884319,0.979481 1.578043,2.14576 2.165896,3.64127 0.315189,0.801848 0.194715,0.725508 2.26714,1.436605 0.146667,0.05033 0.866667,0.299146 1.6,0.552936 1.555656,0.538377 3.374656,1.150169 4.133334,1.390185 0.293333,0.0928 0.598048,0.20919 0.677144,0.258648 0.0791,0.04946 0.289096,0.125405 0.466669,0.168773 0.852153,0.208121 1.13238,0.404171 1.24178,0.868771 0.05492,0.233245 0.3696,1.504082 0.699293,2.824081 0.7782,3.115763 1.240307,5.023331 1.522087,6.283224 0.125047,0.559106 0.333393,1.489106 0.462993,2.066666 0.51322,2.287147 0.92952,4.253009 1.429427,6.75011 0.348773,1.7421673 0.999913,5.1566752 1.086973,5.6999998 0.01763,0.11 0.141613,0.8 0.275527,1.53333331 0.591013,3.23653719 0.878453,4.98402989 1.568106,9.53333299 0.76044,5.0162259 1.57684,11.5381879 2.069587,16.5333329 0.108507,1.1 0.227993,2.275113 0.26552,2.61136 0.125847,1.127693 0.15892,1.049413 -0.515107,1.21926 -1.083606,0.273053 -4.712526,1.143693 -5.283333,1.26756 -0.311667,0.06763 -0.93142,0.215713 -1.377226,0.32906 -0.97878,0.248866 -1.07668,0.253773 -1.11906,0.05609 -0.02901,-0.135313 -0.22168,-1.380373 -0.373974,-2.416666 -0.102366,-0.696554 -0.251246,-1.63934 -0.394773,-2.5 -0.07644,-0.458334 -0.28924,-1.748334 -0.472893,-2.866667 -0.183647,-1.118333 -0.377874,-2.273333 -0.4316,-2.566667 -0.05373,-0.293333 -0.24896,-1.373333 -0.43384,-2.399999 -0.327461,-1.818399 -1.043713,-5.463587 -1.231354,-6.266667 -0.0514,-0.22 -0.261578,-1.135 -0.467053,-2.0333332 -0.878017,-3.8386652 -2.564842,-9.86666638 -2.761005,-9.86666638 -0.156663,0 -0.24221,6.77818308 -0.130417,10.33333258 0.07437,2.365168 0.187703,4.964124 0.261633,6 0.03533,0.495 0.110344,1.575 0.166701,2.4 0.178019,2.605981 0.485353,5.614363 0.864948,8.466667 0.48327,3.631319 0.847267,5.817593 1.541419,9.258199 0.239482,1.187014 0.410613,2.181867 0.380292,2.210787 -0.03032,0.02891 -0.400131,0.08645 -0.821798,0.127847 -1.130133,0.110953 -5.031556,0.652906 -5.533333,0.768646 -0.238333,0.05497 -0.716892,0.147207 -1.063464,0.204954 -0.346572,0.05775 -0.651386,0.118146 -0.677365,0.1342 -0.02598,0.01605 -0.17742,0.03219 -0.336536,0.03585 -0.381815,0.0088 -2.301523,0.310773 -2.444319,0.384513 -0.06141,0.03171 -0.396649,0.08799 -0.744982,0.12506 -0.348334,0.03707 -0.723334,0.07744 -0.833334,0.08971 -4.398487,0.490566 -6.847039,-1.18886 -9.243181,-6.339767 -0.548779,-1.179686 -0.498259,-1.180106 -1.049777,0.0086 -2.473229,5.330606 -4.955024,6.927293 -9.773708,6.288 z m 10.552141,-22.133463 c 0.893671,-0.373307 1.103858,-1.489939 0.403437,-2.143281 -1.130261,-1.05429 -2.827558,0.640579 -1.764311,1.761786 0.419688,0.442564 0.89542,0.575927 1.360874,0.381495 z m 1.349862,-12.3131298 c 0.696216,-0.351718 0.908348,-1.3305239 0.425542,-1.9635152 -0.55052,-0.7217693 -1.846416,-0.4838287 -2.095525,0.38476 -0.320837,1.1186966 0.689664,2.0739972 1.669983,1.5787552 z"
       id="path5713"
       inkscape:connector-curvature="0" />
    <path
       style="fill:#865239;stroke-width:0.06666666"
       d="m -66.365677,38.837944 c -1.170074,-0.125847 -1.067151,0.02923 -0.807636,-1.216874 0.95674,-4.593946 1.639089,-8.820979 2.138861,-13.249879 0.107578,-0.953334 0.226549,-2.003334 0.26438,-2.333334 0.718023,-6.263233 1.120849,-23.0595482 0.538739,-22.46333223 -0.109204,0.11185 -1.169145,3.66136723 -1.671252,5.59666653 -0.114157,0.44 -0.250981,0.9499999 -0.304053,1.1333333 -0.09886,0.341498 -0.611193,2.4446399 -0.828254,3.3999999 -0.414347,1.8236945 -0.589702,2.6372775 -1.005827,4.6666665 -0.255627,1.246667 -0.615176,3.091667 -0.798997,4.1 -0.18382,1.008333 -0.377153,2.058333 -0.429628,2.333333 -0.05248,0.275 -0.18838,1.055 -0.302008,1.733333 -0.113629,0.678334 -0.326072,1.923334 -0.472096,2.766667 -0.146024,0.843333 -0.265707,1.58954 -0.265963,1.65824 -2.67e-4,0.0687 -0.06181,0.4437 -0.136785,0.833333 -0.07497,0.389634 -0.143687,0.798427 -0.152693,0.908427 -0.05845,0.713973 -0.347707,2.32098 -0.422962,2.349853 -0.04758,0.01826 -0.407765,-0.0477 -0.800411,-0.14658 -0.392647,-0.09888 -1.028903,-0.250273 -1.413903,-0.336427 -0.385,-0.08616 -1.135,-0.26204 -1.666666,-0.390846 -2.321828,-0.562507 -3.78514,-0.92018 -4.026019,-0.98406 -0.259353,-0.06878 -0.259353,-0.06878 -0.218008,-0.547027 0.125699,-1.454006 0.410756,-4.229242 0.644867,-6.278246 0.549414,-4.808619 0.707019,-6.046461 1.205318,-9.466667 0.144235,-0.99 0.275064,-1.935 0.290731,-2.1 0.02872,-0.302489 0.330289,-2.2961282 0.700863,-4.6333328 0.383954,-2.4215946 1.009296,-6.05883645 1.266531,-7.3666664 0.07573,-0.385 0.149719,-0.79 0.164431,-0.9 0.262237,-1.9607759 2.917942,-14.5855008 3.674243,-17.4666658 0.05775,-0.22 0.130796,-0.535 0.162324,-0.7 0.06239,-0.326498 0.701,-2.966194 1.149283,-4.750556 0.280679,-1.117223 0.280679,-1.117223 0.616391,-1.242383 0.318931,-0.118904 5.171067,-1.807982 8.102377,-2.820521 8.829149,-6.871363 16.602084,-2.82369 25.964982,-5.489822 2.35784,-0.246948 3.603724,2.308035 4.363869,4.58128 0.112226,0.352165 0.07411,0.333867 2.48266,1.191708 0.391331,0.139378 0.777967,0.288981 0.85919,0.332451 0.08122,0.04347 0.24019,0.09361 0.353258,0.111435 0.113068,0.01782 0.911432,0.280729 1.774143,0.584243 0.86271,0.303513 1.805024,0.616659 2.094031,0.695879 0.289008,0.07922 0.683982,0.219026 0.877722,0.31068 0.19374,0.09165 0.520694,0.210516 0.726564,0.264138 0.291087,0.07582 0.842874,0.303883 0.95174,0.393376 0.01318,0.01084 1.10096,4.320647 1.48192,5.871422 0.89194,3.630831 1.961453,8.484485 2.840747,12.891893 0.46494,2.3304919 0.875293,4.4878118 0.9653,5.0747732 0.03092,0.2016666 0.103706,0.6066666 0.161733,0.8999999 0.120087,0.60699268 0.547947,3.0355099 0.8398,4.7666666 0.376373,2.2324999 0.981087,6.2019118 1.264447,8.2999993 0.108946,0.806667 0.21336,1.541667 0.23202,1.633334 0.278346,1.367132 1.81802,15.094193 1.754226,15.639913 -0.0208,0.177946 -0.05298,0.193233 -0.788353,0.374506 -1.713333,0.422354 -4.9859,1.202133 -5.266667,1.254933 -0.165,0.03103 -0.705,0.160314 -1.199999,0.2873 -1.077074,0.276314 -0.940107,0.409094 -1.15874,-1.123319 -0.0994,-0.696667 -0.2105,-1.402847 -0.246887,-1.569287 -0.03639,-0.166433 -0.0914,-0.511433 -0.12224,-0.766667 -0.03085,-0.255226 -0.118887,-0.824046 -0.19564,-1.264046 -0.07676,-0.44 -0.276967,-1.64 -0.44492,-2.666667 C -21.52164,17.89866 -22.415125,13.314841 -23.424466,9.0378548 -23.571569,8.4145215 -23.758289,7.6195215 -23.8394,7.2711882 -23.92051,6.9228549 -24.012164,6.5778549 -24.043073,6.5045216 -24.073983,6.4311886 -24.189555,6.0111882 -24.299901,5.5711883 -24.64159,4.2087176 -25.71247,0.6160004 -25.927899,0.10938509 -26.2018,-0.53473756 -26.378148,5.7147502 -26.218407,10.404521 c 0.192096,5.639655 0.441948,9.415427 0.913179,13.8 0.454898,4.232593 1.252423,9.250966 2.116117,13.31552 0.289277,1.36134 0.398922,1.184253 -0.813949,1.314613 -0.549876,0.05911 -1.832138,0.226507 -2.849472,0.372 -6.55587,-6.004727 -8.25844,1.394123 -9.892936,1.396847 -3.685967,0.0035 -5.840354,-1.79646 -8.000775,-6.684527 -0.313069,-0.708333 -0.43096,-0.830407 -0.561217,-0.58112 -0.02874,0.055 -0.336521,0.685 -0.683959,1.4 -13.256637,5.560955 -8.503383,5.407642 -20.374258,4.10009 z m 21.448319,-20.403626 c 0.893671,-0.373307 1.103858,-1.489939 0.403437,-2.143281 -1.130261,-1.05429 -2.827558,0.640579 -1.764311,1.761786 0.419688,0.442564 0.89542,0.575927 1.360874,0.381495 z m 1.319766,-12.2895518 c 0.72943,-0.3312906 0.958544,-1.3277486 0.4566,-1.9858306 -0.567359,-0.7438466 -1.83993,-0.5110626 -2.096487,0.3834974 -0.314805,1.0976613 0.658066,2.0482539 1.639887,1.6023332 z M -20.636166,3.337855 c 0,-0.036667 -0.03,-0.066667 -0.06667,-0.066667 -0.03667,0 -0.06667,0.03 -0.06667,0.066667 0,0.036667 0.03,0.066667 0.06667,0.066667 0.03667,0 0.06667,-0.03 0.06667,-0.066667 z m -48.899999,-24.866666 c 0,-0.04889 -0.0375,-0.101389 -0.08333,-0.116667 -0.04957,-0.01652 -0.08333,0.03074 -0.08333,0.116667 0,0.08593 0.03376,0.133191 0.08333,0.116667 0.04583,-0.01528 0.08333,-0.06778 0.08333,-0.116667 z m 49.099999,0 c 0,-0.03667 -0.03,-0.06667 -0.06667,-0.06667 -0.03667,0 -0.06667,0.03 -0.06667,0.06667 0,0.03667 0.03,0.06667 0.06667,0.06667 0.03667,0 0.06667,-0.03 0.06667,-0.06667 z m -34.532121,-13.008034 c -22.845998,54.851304 -11.422999,27.425652 0,0 z"
       id="path5711"
       inkscape:connector-curvature="0"
       sodipodi:nodetypes="cssccscccsccsccccscsccsscsccccsscccsccsscccssccssccccccccccsccsssssccccccccsccsssssssssscscsssssscc" />
    <path
       style="fill:#7a452b;stroke-width:0.06666666"
       d="m -60.802835,39.613127 c -1.82936,-0.322906 -3.964098,-0.6308 -5.45102,-0.786206 -0.595272,-0.06222 -1.091037,-0.118934 -1.101699,-0.126034 -0.01066,-0.0071 0.114727,-0.639193 0.278643,-1.40464 0.163916,-0.765453 0.343346,-1.646726 0.398733,-1.958393 3.249942,-5.479798 0.800222,-0.806511 1.745389,-11.6 0.06499,-0.793866 0.10042,-0.85264 1.15937,-1.923316 0.520395,-0.526158 -0.962791,0.77883 -0.979254,0.762366 -0.01646,-0.01646 1.452121,-1.372322 0.946808,-0.875413 -0.505313,0.496909 -0.931377,0.890845 -0.946808,0.875413 -0.01543,-0.01543 0.01967,-0.548031 0.07801,-1.183554 0.286628,-3.122373 0.477836,-6.021913 0.573188,-8.691976 0.141476,-3.9616558 0.09612,-3.7262859 0.616679,-3.2002092 0.248257,0.250888 0.469653,0.4378833 0.491991,0.4155447 0.02234,-0.022339 -0.18828,-0.2687707 -0.468042,-0.5476267 -0.508658,-0.5070106 -0.508658,-0.5070106 -0.509238,-4.8191192 -6.66e-4,-4.8944405 -0.02749,-5.33959649 -0.305099,-5.06198583 -0.08845,0.0884533 -2.954952,11.36585423 -3.342825,12.90595023 -6.753879,-0.925214 -4.275374,-18.077432 3.355031,-13.7868638 -4.510675,5.7987932 -13.160363,8.4612813 -10.414421,-1.5742893 0.0928,-0.4738727 0.2924,-1.5065866 0.443553,-2.2949199 0.350688,-1.828988 0.943793,-4.772234 1.195651,-5.933333 0.691413,-3.187509 0.913139,-4.187012 1.338418,-6.033333 0.261818,-1.136667 0.571385,-1.815891 0.608582,-1.985452 23.370976,-1.002528 6.078983,20.6732828 2.259001,-2.513245 2.10397,-2.178208 -2.083568,11.16378 -0.0012,8.872402 -3.592625,2.521467 -3.900315,-5.402982 -0.660394,-13.279328 0.04313,-0.02666 1.041225,-0.382593 2.217992,-0.790972 8.621855,-0.305927 10.434096,-9.262701 12.191898,-5.114628 0.03504,-0.06716 0.406803,-0.469261 0.826132,-0.893557 0.525271,-0.531492 0.790476,-0.852907 0.852622,-1.033334 0.104723,-0.304038 -0.03721,-0.298299 1.502257,-0.06074 5.944747,0.91734 9.528069,0.756009 17.766797,-0.637936 1.253809,0.05628 2.512426,2.766459 3.16615,4.458418 0.09932,0.27243 0.235112,0.525841 0.301754,0.563136 0.222454,0.124492 2.115939,0.849273 2.731965,1.045732 9.570808,3.759884 3.706957,2.600904 6.65,6.394157 -3.160728,16.9431737 -0.833558,-10.032641 2.353206,3.375349 1.13722,4.789025 2.112007,9.3876807 3.258987,15.3746166 0.130793,0.6827059 0.237806,1.2898166 0.237806,1.3491346 -19.008043,10.9698914 4.810262,-3.9071849 -8.52551,8.5762477 -0.03814,0 -0.102571,-0.1275 -0.143174,-0.2833333 -0.222513,-0.8539953 -0.764232,-2.8261992 -0.911012,-3.3166666 -1.275629,-4.2625438 -1.247087,-4.2958312 -1.27475,1.486638 -0.183349,8.331778 0.293801,7.698957 0.696231,17.546695 0.04048,0.466667 0.04048,0.466667 -0.766172,-0.331147 -0.640281,-0.633266 -0.82364,-0.780826 -0.88902,-0.715446 -0.06538,0.06538 0.107165,0.272266 0.836588,1.003088 0.918958,0.920719 0.918958,0.920719 0.984828,1.648778 0.09324,1.030546 0.409832,3.5292 0.73685,5.815434 1.638306,8.721991 -0.676824,-1.654494 1.684672,9.257453 0.03272,0.08825 -0.131548,0.119773 -1.162864,0.223113 -8.878034,0.636109 -16.732735,6.729503 -20.690934,-5.255116 -0.132881,-0.29936 -0.218028,-0.41446 -0.295567,-0.399527 -0.123585,0.0238 -0.113194,0.005 -0.745619,1.347167 -3.416605,6.091556 -13.46243,5.368845 -14.901208,5.114807 z m 16.176534,-21.248704 c 0.664215,-0.460131 0.802909,-1.269898 0.329977,-1.926568 -0.699269,-0.970938 -2.143724,-0.579861 -2.373037,0.642486 -0.198117,1.056051 1.149538,1.903065 2.04306,1.284082 z m 0.07595,-14.748062 c 0.0078,0.024845 -0.109336,0.1346486 -0.260304,0.2440093 -1.141527,0.826918 -0.3794,2.7087939 0.992764,2.4513739 0.32693,-0.061332 0.758499,-0.418698 0.883791,-0.7318333 6.311228,-15.6893969 5.858481,6.3267251 0.137707,-0.77379 -0.114828,-0.6265673 -0.549008,-1.0764879 -1.128934,-1.1698639 -11.143852,-1.1505275 0.801413,-3.09282759 -8.577508,6.659742 2.480484,-2.8284645 6.466703,-11.7388162 7.952484,-6.679638 z m -27.185817,27.2755 c -0.366667,-0.09058 -0.688617,-0.18574 -0.715445,-0.211467 -0.02683,-0.02572 0.374166,-0.465813 0.891098,-0.977986 0.6842,-0.6779 0.929885,-0.88588 0.903143,-0.764554 -0.0202,0.09167 -0.104209,0.609167 -0.186679,1.15 -0.08247,0.540833 -0.166932,0.98004 -0.187697,0.97602 -0.02076,-0.004 -0.337753,-0.08143 -0.70442,-0.172013 z m -1.333333,-0.33294 c -0.07333,-0.01657 -1.258333,-0.301134 -2.633333,-0.632367 -1.375,-0.331233 -2.694508,-0.6452 -2.93224,-0.697706 -0.556522,-0.12292 -0.531799,-0.06824 -0.432971,-0.95766 0.04685,-0.421667 0.134643,-1.291667 0.195089,-1.933334 0.220325,-2.338907 1.59007,-13.231975 1.929593,-15.733333 3.649429,-10.9233434 12.342825,-13.2110446 8.868766,3.7 -0.677321,3.300541 -1.0787,5.479384 -1.79819,9.761274 -0.236706,1.408701 -0.439108,2.570006 -0.449784,2.580686 -1.919336,4.781464 1.91202,-0.114423 -1.237944,3.055927 -0.611121,0.614167 -1.271179,0.898633 -1.308251,0.894379 -0.03707,-0.0043 -0.127402,-0.02129 -0.200735,-0.03787 z m 52.592058,-6.487733 c -0.05373,-0.311667 -0.184266,-1.091667 -0.290073,-1.733334 -0.87968,-5.33469 -1.920157,-10.480353 -3.022345,-14.9469478 -0.148362,-0.6012327 -0.152106,-0.6583273 -0.05298,-0.8079646 3.175047,-4.0820464 3.896052,-2.4185538 6.611281,0.2935086 1.8739,1.872894 3.420666,3.3916818 3.43726,3.3750848 0.0166,-0.0166 -1.501034,-1.5633188 -3.372514,-3.4371581 -4.96177,-4.3501899 -3.103029,-4.3535902 1.757394,-8.6205084 0.151113,0.2445026 1.509307,8.4847777 2.144467,13.0106525 0.372173,2.651958 0.434586,3.112928 0.658886,4.866667 0.461287,3.60658 0.75694,6.161514 1.037614,8.966666 0.07337,0.733334 0.193153,1.913427 0.26618,2.622434 0.07303,0.709006 0.132773,1.327793 0.132773,1.37508 0,0.05448 -0.30552,0.162493 -0.833953,0.294826 -6.514675,1.086409 -7.644911,-0.297581 -8.47399,-5.259006 z m -56.46592,-13.466667 c 0.02205,-0.128333 0.145015,-0.9233329 0.273263,-1.7666662 0.490736,-3.2269719 1.262403,-7.87232374 1.614908,-9.72157302 8.713183,1.11694932 1.938169,8.43870432 -1.888171,11.48823922 z m 5.988755,-31.066665 c -12.188451,45.46817 -6.094225,22.734085 0,0 z m 51.418902,-0.864803 c -46.467719,46.044705 -23.233859,23.0223527 0,0 z m -7.461001,-6.935197 c 0.07335,0 0.4645,0.133095 1.760541,0.599059 0.421666,0.151602 1.006666,0.348342 1.3,0.4372 0.960086,0.290837 1.396592,0.444479 1.614746,0.568363 0.118112,0.06707 0.328112,0.142213 0.466667,0.166981 0.365667,0.06536 1.07564,0.37844 1.122673,0.495064 0.08976,0.222578 0.895914,3.461107 0.895914,3.599136 -1.591837,1.460593 -6.006638,-4.64159 -7.160541,-5.865803 z m -31.772492,-3.801413 c 2.373491,-5.136295 3.588904,-0.665704 2.488752,-2.347712 -0.23528,-0.339511 -0.202017,-0.352212 0.591901,-0.226004 1.981739,0.315034 1.98571,0.316153 1.98571,0.559507 0,0.380766 -0.426279,0.682289 -0.964589,0.682289 -1.491487,0.710194 -6.7794,5.663605 -4.101774,1.33192 z"
       id="path5709"
       inkscape:connector-curvature="0"
       sodipodi:nodetypes="scccccscscssscsccccccssccccccsccccccccscccsccsssccccccccsccsccccccccccscscccccccccscccccccscccccccccscccccccaaccccccscccccsccc" />
    <path
       style="fill:#6b3b25;stroke-width:0.06666666"
       d="m -54.202832,40.563487 c -3.970832,-0.498936 -7.021271,-1.239224 -11.9,-1.75753 -1.30338,-0.13358 -1.263258,-0.122706 -1.198214,-0.324813 1.595469,-8.609966 0.853942,-1.731829 1.595469,-8.609966 0.271775,-1.73654 0.639799,-4.502272 0.77178,-5.8 0.817099,-2.823699 0.666228,-6.738383 0.185565,-1.733334 1.017105,-6.327623 0.903186,-13.8796492 0.824366,-18.1160717 -0.02267,-3.69555989 -0.04589,-4.63724053 -0.116419,-4.72222453 -0.798272,-6.49503577 0.106886,1.43590475 -0.357079,-3.10550257 -0.0128,-0.1707567 -0.04184,-0.3405227 -0.06455,-0.377258 -0.0227,-0.036735 -0.05558,-0.2570253 -0.07306,-0.4895333 -0.03902,-0.5190453 -0.209544,-1.9360879 -0.303583,-2.5227419 -0.0382,-0.2383334 -0.158383,-1.0783333 -0.267062,-1.8666666 -0.757047,-5.9723834 -2.236216,-12.1374114 -4.388169,-17.2722794 -0.268795,-0.640655 -0.180187,0.08217 0.968228,-0.321415 0.544166,-0.191234 1.184392,-0.420233 1.422725,-0.508885 0.238334,-0.08865 1.003334,-0.353985 1.7,-0.589627 0.696667,-0.235643 1.791667,-0.482386 2.433334,-0.707007 0.641666,-0.224621 1.631666,-0.699078 2.199999,-0.895661 0.568334,-0.196584 1.082491,-0.377584 1.142572,-0.402224 0.08267,-0.0339 0.167741,0.05151 0.349734,0.3511 0.132273,0.217744 0.290582,0.437171 0.351798,0.487616 0.06122,0.05044 0.216422,0.256716 0.344903,0.458383 0.128481,0.201667 0.396917,0.546667 0.596526,0.766667 0.199609,0.22 0.430555,0.505 0.513213,0.633333 0.08266,0.128333 0.222785,0.308333 0.311394,0.4 0.184188,0.190546 0.648111,0.763085 0.792581,0.978145 0.0535,0.07965 0.487279,0.615098 0.963946,1.189892 0.476667,0.574794 1.001667,1.230617 1.166667,1.457383 0.165,0.226768 0.4575,0.600374 0.65,0.830236 0.1925,0.229863 0.350804,0.438875 0.351786,0.464472 9.8e-4,0.0256 0.144072,0.200495 0.317976,0.388664 0.173905,0.188169 0.495601,0.5751 0.714881,0.859848 0.219279,0.284748 0.57869,0.72966 0.79869,0.988694 3.602094,4.478366 -1.278575,-1.333577 3.302367,4.105263 0.0563,0.05984 0.191179,0.227739 0.299727,0.373103 0.691036,0.925421 1.947048,2.452191 2.048106,2.489615 0.0376,0.01392 0.05326,-0.0011 0.03481,-0.03333 -0.01845,-0.03226 -0.303637,-0.613648 -0.633741,-1.291981 -0.330104,-0.678334 -0.889182,-1.820915 -1.242395,-2.53907 -0.353213,-0.718156 -0.642206,-1.382446 -0.642206,-1.476201 0,-0.09376 -0.04647,-0.188295 -0.103262,-0.210089 -0.05679,-0.02179 -0.344322,-0.542504 -0.638952,-1.157133 -0.29463,-0.614629 -0.672658,-1.402507 -0.840062,-1.750841 -0.559357,-1.163898 -1.724591,-3.550966 -2.475035,-5.070287 -0.408478,-0.826992 -0.742688,-1.567153 -0.742688,-1.644804 0,-0.07765 -0.176266,-0.49602 -0.391702,-0.929712 -1.958848,-3.943338 -1.844677,-3.402777 -0.918543,-4.349018 0.841825,-0.860102 0.976911,-1.033552 0.976911,-1.254345 0,-0.193068 0.104405,-0.194598 1.190162,-0.01745 4.948719,0.80744 8.854996,0.836064 13.376504,0.09802 0.33,-0.05387 1.17,-0.186135 1.866667,-0.293932 0.696667,-0.107796 1.638607,-0.259611 2.093201,-0.337366 1.023296,-0.175028 1.013151,-0.187263 0.580948,0.700675 -0.195844,0.402353 -0.375448,0.793632 -0.399119,0.86951 -0.02367,0.07588 -0.132736,0.204275 -0.242367,0.285329 -0.154063,0.113903 -0.19933,0.199393 -0.19933,0.376446 -2.081523,2.625005 -0.337778,-0.186758 -1.49139,2.678706 -0.328257,-0.88358 -0.32779,-0.933363 -0.06509,0.08704 0.20225,0.300028 0.218117,0.223932 -0.243512,1.167858 -0.22,0.44985 -0.4,0.8496 -0.4,0.888332 0,0.03873 -0.255,0.582248 -0.566666,1.207813 -0.311667,0.625565 -0.566667,1.150357 -0.566667,1.166204 0,0.01585 -0.273811,0.593302 -0.608469,1.283232 -1.28881,2.657013 -1.751451,3.619752 -2.172593,4.521086 -0.239852,0.513333 -0.521805,1.061701 -0.626562,1.218595 -0.104757,0.156893 -0.203042,0.351893 -0.21841,0.433333 -0.05021,0.266039 -2.86117,6.015758 -3.038307,6.214738 -0.09313,0.104615 -0.134806,0.34154 -0.193488,1.1 -0.04113,0.5316667 -0.104207,1.2066667 -0.140161,1.5 -1.573037,8.68131113 -1.89822,14.4769014 -2.408077,24.033333 -0.164095,4.356142 0.247336,4.791244 0.185477,5.331693 1.442771,8.845191 1.679182,9.615343 2.560083,12.106916 -0.144653,0.30486 -0.753336,1.753057 -0.876564,2.028057 -0.123228,0.275 -0.292797,0.611906 -0.376819,0.748673 -0.08402,0.136773 -0.152768,0.2639 -0.152768,0.282507 0,0.08977 -0.902864,1.53934 -1.249745,2.0065 -1.625857,2.18962 -3.677737,3.118906 -6.450255,2.921286 z M -19.2411,31.042199 c -46.664123,11.131941 -23.332061,5.565971 0,0 z m 0,0 c -0.05097,-0.401061 -1.215006,-7.061849 -1.531346,-8.90434 -0.14794,-0.861666 -0.3287,-1.926666 -0.401694,-2.366666 -0.298386,-1.798751 -1.134244,-6.034315 -1.723463,-8.733333 -0.136755,-0.626429 -0.631211,-2.7103755 -0.882588,-3.7197788 12.951416,-5.0996225 6.842671,-11.3658432 11.009418,7.7197788 0.278313,2.063111 0.523093,4.055664 0.737066,5.999999 0.07263,0.66 0.17666,1.575 0.231174,2.033334 0.08053,0.677054 0.52386,5.099026 0.5839,5.82408 0.01547,0.18672 0.0031,0.194066 -0.5842,0.34834 -6.141644,1.284497 3.1267979,-0.845853 -7.438267,1.798586 z m -14.495066,-7.301806 c -4.998633,-0.04075 -4.729393,-0.0074 -5.026251,-0.621714 -0.485725,-3.331188 3.946644,-2.184309 5.209584,-2.18595 2.539167,-0.0028 4.743421,-0.01928 4.898343,-0.03657 0.518209,-0.05782 0.551657,-0.0024 0.551657,0.914524 0,0.9376 -0.07396,1.291434 -0.336525,1.60997 -0.178885,0.217019 -0.256452,0.250934 -0.763475,0.333812 -0.07333,0.01199 -2.113333,0.0057 -4.533333,-0.01407 z m 8.235712,-22.5692046 c -0.268734,-0.86986599 -0.444991,-1.35735397 -0.526108,-1.45509397 4.286634,-0.95837853 4.725849,15.18309157 0.526108,1.45509397 z m -0.526108,-1.45509397 c 0.06597,-0.6653573 0.530515,-6.12659983 0.68908,-7.34490573 0.05727,-0.44 0.149248,-1.16 0.204402,-1.6 0.244739,-1.5973047 0.47485,-3.0808047 0.768298,-4.5666667 0.07067,-0.311666 0.171457,-0.776666 0.223964,-1.033333 0.05251,-0.256667 0.142916,-0.691667 0.200911,-0.966667 0.05799,-0.275 0.10506,-0.550012 0.10459,-0.611139 -4.66e-4,-0.06113 0.06157,-0.256127 0.137862,-0.433333 0.07629,-0.177207 0.178569,-0.566918 0.227278,-0.866026 0.130213,-0.799595 0.18685,-0.880719 1.589328,-2.276506 3.205049,-3.75735 3.631369,4.773483 3.918611,5.520338 0.108913,0.495 0.303566,1.379999 0.43256,1.966666 0.35462,1.612831 2.753158,14.4506265 3.091218,16.2585744 -5.965014,3.8914924 -6.632027,14.4747226 -11.588102,-4.04700197 z M -42.900878,-13.098406 c -0.0022,-0.07743 0.549766,-0.896862 1.3756,-2.04226 0.764388,-1.060174 0.816912,-1.121478 0.96085,-1.121478 0.08947,0 0.128262,-0.04647 0.128262,-0.153662 0,-0.137647 0.518622,-0.898189 1.34996,-1.979672 0.155022,-0.201666 0.444579,-0.591666 0.643461,-0.866666 0.198882,-0.275 0.796166,-1.085 1.327298,-1.8 0.531131,-0.715 1.187507,-1.6 1.458614,-1.966667 0.271106,-0.366667 0.639859,-0.861667 0.81945,-1.1 0.309512,-0.410748 1.028766,-1.385184 1.451644,-1.966666 0.106662,-0.146667 0.416451,-0.562848 0.688419,-0.924848 0.646135,-0.860029 1.113095,-1.49629 1.535214,-2.091819 0.394811,-0.557003 0.349288,-0.545029 1.072455,-0.282088 0.854231,0.310595 0.851473,0.303007 0.317496,0.873483 -0.115973,0.1239 -0.664166,0.765272 -1.218207,1.425272 -0.554041,0.66 -1.308501,1.557048 -1.676576,1.993441 -0.368075,0.436393 -0.891599,1.066393 -1.163385,1.4 -0.271787,0.333607 -0.706787,0.849794 -0.966667,1.147082 -0.25988,0.297288 -0.727509,0.84862 -1.039176,1.225182 -0.311667,0.376563 -0.851667,1.018456 -1.2,1.426431 -0.348333,0.407974 -0.804595,0.951642 -1.013914,1.208151 -0.209319,0.256508 -0.479319,0.574627 -0.6,0.70693 -0.120681,0.132304 -0.504419,0.589383 -0.852753,1.015733 -0.366323,0.448369 -0.682519,0.775575 -0.749999,0.776115 -0.07259,6e-4 -0.116667,0.05219 -0.116667,0.1366 0,0.127534 -0.642852,0.924879 -1.664348,2.064334 -0.246531,0.275 -0.542027,0.605 -0.656658,0.733333 -0.114631,0.128334 -0.209298,0.202016 -0.210373,0.163739 z m 19.430701,-4.60757 c 0.02665,-0.157738 0.542699,-2.163861 0.573905,-2.220271 0.10962,-0.198141 0.260106,-0.620001 0.260106,-0.729158 0,-0.148304 0.782962,-2.566731 0.857,-2.643406 4.185822,2.123814 0.31307,4.443733 -1.691011,5.592835 z m 2.282757,-4.674028 c -0.619606,-0.621943 -0.71943,-0.776938 -0.591746,-0.918807 0.03135,-0.03483 0.142433,-0.318333 0.24684,-0.63 0.104413,-0.311666 0.29142,-0.78891 0.415566,-1.06054 0.124154,-0.27163 0.242,-0.59413 0.261887,-0.716666 0.05674,-0.349654 0.12464,-0.266447 0.267013,0.327206 0.07255,0.3025 1.539728,5.548344 1.713195,6.222352 0.429755,1.614279 -1.551315,-2.457306 -2.312788,-3.223545 z m -34.637086,-10.93266 c -0.04859,-0.100547 -0.132355,-0.346643 -0.18615,-0.54688 -0.0538,-0.200237 -0.171662,-0.460892 -0.261926,-0.579234 -0.258071,-0.33835 -0.271357,-0.338648 1.959534,0.04395 0.706707,0.121199 0.78934,0.272521 0.387979,0.710483 -0.216514,0.236256 -0.235305,0.242704 -0.729538,0.250343 -0.412328,0.0064 -0.544947,0.03567 -0.708396,0.156518 -0.26228,0.193912 -0.354186,0.186907 -0.461503,-0.03518 z"
       id="path5707"
       inkscape:connector-curvature="0"
       sodipodi:nodetypes="ccccccccccccccccssccccsscccsccccccccccssscsccsssscccsccccccsscsscccccccccscsccccccscscccccccccccsccccccccccccccccccccccssscssccccssssscsccccccssccccsccccccccccccccccccc" />
    <path
       style="fill:#532e1c;stroke-width:0.06666666"
       d="m -60.887521,23.741514 c -0.752947,-0.1225 -0.96945,-0.564691 -0.956543,-1.95366 0.01508,-1.622808 10.557845,-1.260322 10.661438,0.366567 0.04959,0.778757 -0.297772,1.430178 -0.843437,1.58174 -0.275482,0.07652 -8.393907,0.08142 -8.861458,0.0054 z m 9.453953,-2.549564 c -0.164288,-0.176342 -0.169239,-0.227049 -0.02748,-0.281446 0.147516,-0.05661 0.29155,0.07621 0.29155,0.268846 0,0.197522 -0.08788,0.201715 -0.264069,0.0126 z m 6.142436,-32.873331 c -0.03921,-0.04725 -0.159311,-0.279746 -0.266888,-0.516666 -0.107576,-0.23692 -0.65209,-1.360764 -1.21003,-2.497431 -1.268044,-2.58333 -1.468116,-3.006926 -1.468116,-3.108334 0,-0.04464 -0.04297,-0.12865 -0.09549,-0.186684 -0.05252,-0.05804 -0.55882,-1.065397 -1.12511,-2.238583 -1.402767,-2.906123 -2.183424,-4.507592 -2.905316,-5.960079 -0.358213,-0.720743 -0.594881,-1.27412 -0.573595,-1.341183 0.02133,-0.06721 -0.224988,-0.639652 -0.598792,-1.3916 -0.349265,-0.702586 -0.635028,-1.291658 -0.635028,-1.309048 0,-0.01739 -0.18,-0.393852 -0.4,-0.836583 -0.505944,-1.01817 -0.527996,-0.90319 0.338008,-1.762375 0.351067,-0.42773 -0.704676,-1.632196 1.145326,-1.335456 6.587069,1.097998 9.688226,1.049368 17.532985,-0.274937 1.672911,-0.28241 1.581599,-0.300051 1.299145,0.250978 -1.292154,2.162823 -2.213422,4.357346 -3.114857,6.539689 -3.34e-4,0.06186 -0.319225,0.76686 -0.70864,1.566667 -0.389416,0.799807 -0.820975,1.694195 -0.959021,1.987528 -0.138046,0.293334 -0.542802,1.133334 -0.899457,1.866667 -0.356655,0.733333 -0.946885,1.963333 -1.311623,2.733333 -0.364738,0.77 -0.706369,1.433308 -0.759182,1.474016 -0.05281,0.04071 -0.09602,0.122119 -0.09602,0.180911 0,0.122398 -0.273341,0.701311 -1.854842,3.928407 -1.116721,2.278699 -1.19081,2.402645 -1.333457,2.230763 z m 0.254966,-9.276829 c 0,-0.01617 -0.03,-0.04794 -0.06667,-0.0706 -0.03667,-0.02266 -0.06667,-0.0094 -0.06667,0.0294 0,0.03883 0.03,0.0706 0.06667,0.0706 0.03667,0 0.06667,-0.01323 0.06667,-0.0294 z m 3.508237,6.086236 c 0.485047,-0.781527 1.400471,-1.734805 0.582005,-0.58301 -0.486044,0.568304 -0.713216,0.79587 -0.582005,0.58301 z m 1.541763,-2.107928 c 0.210834,-0.27614 0.489752,-0.656589 0.619819,-0.845443 0.130066,-0.188853 0.401454,-0.551891 0.603083,-0.806749 0.201629,-0.254859 0.626831,-0.82338 0.944893,-1.26338 0.640734,-0.886375 2.466157,-3.357754 2.979122,-4.033333 0.40337,-0.531239 1.870719,-2.51479 3.036416,-4.104602 1.258772,-1.71675 1.0441,-1.547166 1.687336,-1.332948 0.788192,0.262492 0.93028,-0.03275 -1.187336,2.467098 -0.641666,0.757487 -1.361666,1.612144 -1.6,1.899238 -0.238333,0.287094 -0.722359,0.863064 -1.075613,1.279935 -0.768695,0.907127 -1.356279,1.604352 -1.846693,2.191279 -0.560879,0.671261 -1.976296,2.346717 -2.677694,3.16964 -0.348333,0.408686 -0.870969,1.032707 -1.161414,1.386713 -0.989524,1.018559 -0.717821,0.750594 -0.321919,-0.0074 z m -15.803866,-16.565571 c -0.08995,-0.1925 -0.185551,-0.425 -0.212443,-0.516667 -0.02689,-0.09167 -0.107919,-0.264167 -0.180062,-0.383333 -0.16656,-0.275124 -0.215197,-0.274474 1.246372,-0.01667 0.623333,0.10995 1.140833,0.19993 1.15,0.199955 0.515059,0.0014 -0.254189,3.18423 -0.783332,3.194616 -0.369457,0.0073 0.159283,-0.117764 0,0 -0.260926,0.192911 -1.031442,-2.07324 -1.220535,-2.477904 z"
       id="path5705"
       inkscape:connector-curvature="0"
       sodipodi:nodetypes="csccccccsccccsscsscsssccsccccsscsscssssscccccccccscscsccccccscccccc" />
    <path
       style="fill:#2e1a0f;stroke-width:0.06666666"
       d="m -48.730295,-18.945478 c -1.511989,-5.379083 5.39493,-7.61445 6.988649,0.266667 0,0.157711 -3.349535,6.883333 -3.427671,6.883333 -0.03908,0 -2.879643,-5.765834 -3.560978,-7.15 z m 0,0 c -0.946241,-1.980874 -2.116046,-4.387556 -3.429903,-7.05646 -0.371782,-0.755221 -0.675967,-1.392983 -0.675967,-1.417249 0,-0.0536 1.548347,0.09402 1.916666,0.184043 9.838836,6.28585 3.032037,9.690692 2.189204,8.289666 z m 5.175415,-0.536877 c -3.353121,-2.596532 2.701603,-8.087577 5.352047,-7.977639 0.22,-0.04398 0.4675,-0.09571 0.55,-0.114952 0.218691,-0.05101 0.21426,-0.03867 -0.557724,1.553326 -0.389248,0.802712 -0.895294,1.849476 -1.124546,2.326142 -1.732013,3.601246 -2.150799,4.474246 -2.406543,5.016667 -0.361877,0.767525 -0.158641,0.85759 -1.813234,-0.803544 z m -7.364619,-7.752789 c 3.037483,0.470443 8.406217,0.437543 11.633333,-0.07129 -4.469995,6.929255 -7.841058,6.331503 -11.633333,0.07129 z"
       id="path5703"
       inkscape:connector-curvature="0"
       sodipodi:nodetypes="ccsccsscccccssscccc" />
  </g>
</svg>
