<svg xmlns="http://www.w3.org/2000/svg" width="370" height="65" viewBox="0 0 97.896 17.198">
  <text y="151.544" x="104.967" style="line-height:1.25" font-weight="400" font-size="10.583" font-family="sans-serif" letter-spacing="0" word-spacing="0" stroke-width=".265" transform="translate(-.82 -299.5)"/>
  <text y="133.59" x="40.144" style="line-height:1.25;-inkscape-font-specification:'Mj_Maveddat, Normal';font-variant-ligatures:normal;font-variant-caps:normal;font-variant-numeric:normal;font-feature-settings:normal;text-align:start" font-weight="400" font-size="10.583" font-family="Mj_Maveddat" letter-spacing="0" word-spacing="0" stroke-width=".265" transform="translate(-.82 -299.5)"/>
  <path d="M45.985 1.69a3.789 3.789 0 00-.62.04 3.22 3.22 0 00-1.463.593c-.816.619-1.06 1.552-.619 2.36.299.548.874.967 1.571 1.18v2.051c.347-.04.703-.063 1.067-.063 3.58 0 6.405 2.05 6.836 4.675H39.085c.198-1.205.905-2.286 1.953-3.106l-1.547-.677c-1.4 1.17-2.255 2.72-2.255 4.42v.638h17.37v-.638c0-3.473-3.57-6.328-8.07-6.568V5.042a2.16 2.16 0 01-.614.089c-.929 0-1.682-.571-1.682-1.275 0-.705.753-1.276 1.682-1.275.393 0 .773.105 1.075.296h1.47c-.303-.453-.809-.822-1.452-1.024a3.644 3.644 0 00-1.03-.164z" style="line-height:normal;font-variant-ligatures:normal;font-variant-position:normal;font-variant-caps:normal;font-variant-numeric:normal;font-variant-alternates:normal;font-feature-settings:normal;text-indent:0;text-align:start;text-decoration-line:none;text-decoration-style:solid;text-decoration-color:#000;text-transform:none;text-orientation:mixed;white-space:normal;shape-padding:0;isolation:auto;mix-blend-mode:normal;solid-color:#000;solid-opacity:1" color="#000" font-weight="400" font-family="sans-serif" overflow="visible" fill="#ff0"/>
  <path d="M47.462 3.286l1.904-.708 1.203 3.39-2.69-.701z" fill="none"/>
  <path style="line-height:1.25" d="M72.278 6.172v7.71h1.52v-7.71h-1.52zm21.627 0v7.71h1.52v-7.71h-1.52zm-82.455.01v5.189c.003.348.072.675.207.982.134.303.317.568.547.796.231.227.5.408.807.542.255.11.526.17.81.189v.008H35.486v-1.52H22.436v-.01h-8.498a1.006 1.006 0 01-.969-.987V6.183h-1.52zm50.136 1.422a.867.867 0 00-.635.268.848.848 0 00-.186.285.867.867 0 00-.073.351.923.923 0 00.258.636c.083.079.178.143.285.19a.925.925 0 00.698 0 .934.934 0 00.279-.19.88.88 0 00.19-.285.867.867 0 00.073-.351.867.867 0 00-.072-.351.811.811 0 00-.191-.285.89.89 0 00-.28-.196.831.831 0 00-.346-.072zm2.098 0a.867.867 0 00-.635.268.917.917 0 00-.191.285.925.925 0 00-.068.351c0 .124.023.241.068.351.048.107.112.202.19.285.084.079.178.143.285.19a.925.925 0 00.698 0 .934.934 0 00.279-.19.88.88 0 00.191-.285.867.867 0 00.072-.351.867.867 0 00-.072-.351.811.811 0 00-.191-.285.89.89 0 00-.28-.196.831.831 0 00-.346-.072zm-57.691.005a.867.867 0 00-.636.269.917.917 0 00-.19.284.925.925 0 00-.068.351c0 .124.022.241.067.352.048.106.112.201.191.284.083.079.178.143.285.191a.925.925 0 00.697 0 .934.934 0 00.28-.191.88.88 0 00.19-.284.867.867 0 00.073-.352.867.867 0 00-.073-.351.811.811 0 00-.19-.284.89.89 0 00-.28-.197.831.831 0 00-.346-.072zm.294 2.506L5.45 11.31l.31.222c.083.062.155.134.217.217a.94.94 0 01.207.579.927.927 0 01-.036.32.818.818 0 01-.072.17 1.678 1.678 0 01-.104.166v.015h-.01L3.13 15.775l1.044 1.08 2.8-2.724.016.006a2.46 2.46 0 00.409-.538c.175.093.361.166.558.217.186.045.382.067.584.07v.003l.022-.002.019.002h.041v-.004a2.5 2.5 0 00.905-.193c.31-.134.58-.315.81-.542.232-.231.414-.5.549-.807.134-.31.201-.639.201-.987v-.5H9.564v.5a.969.969 0 01-.083.398 1.09 1.09 0 01-.222.32c-.093.09-.202.163-.326.218-.107.044-.22.066-.338.072h-.013a1.023 1.023 0 01-.574-.176 1.095 1.095 0 01-.222-.196.983.983 0 01-.15-.253c-.007-.007-.01-.014-.01-.02a2.617 2.617 0 00-.44-.89 2.535 2.535 0 00-.743-.661.533.533 0 00-.078-.036.195.195 0 00-.078-.016zm70.9 0l-.837 1.194.31.222c.083.062.155.134.217.217a.94.94 0 01.207.579.927.927 0 01-.036.32.818.818 0 01-.072.17 1.678 1.678 0 01-.104.166v.015h-.01l-2.832 2.776 1.044 1.08 2.8-2.724.016.006a2.46 2.46 0 00.409-.538c.175.093.361.166.558.217.178.043.365.064.558.069v.004H90.98v-.003c.332-.005.648-.068.946-.194.31-.134.58-.315.811-.542.23-.231.413-.5.548-.807.134-.31.201-.639.201-.987v-.5h-1.524v.5a.969.969 0 01-.083.398 1.09 1.09 0 01-.222.32 1.01 1.01 0 01-.718.295H79.523v-.005h-.041a1.023 1.023 0 01-.574-.176 1.095 1.095 0 01-.222-.196.983.983 0 01-.15-.253c-.007-.007-.01-.014-.01-.02a2.617 2.617 0 00-.44-.89 2.535 2.535 0 00-.743-.661.533.533 0 00-.078-.036.195.195 0 00-.077-.016zm-15.25.74v.5a.969.969 0 01-.082.398 1.09 1.09 0 01-.222.32 1.01 1.01 0 01-.718.295h-5.773v1.52h5.814v-.003c.332-.005.648-.068.946-.194.31-.134.58-.315.811-.542.23-.231.413-.5.548-.807.134-.31.201-.639.201-.987v-.5h-1.524zm8.29.05v3.019a.943.943 0 01-.088.382.996.996 0 01-.527.527.943.943 0 01-.383.088h-1.24a1.01 1.01 0 01-.93-.605.987.987 0 01-.093-.372V11.93H65.44l.006 1.928-.006.03v.042c0 .014.002.026.006.036v.031c.013.341.087.66.222.956.138.296.32.553.548.77.227.22.49.393.79.517.303.127.626.191.967.191h1.359a2.55 2.55 0 002.418-2.398v-3.126h-1.524zm-1.633.74a.592.592 0 00-.248.051.681.681 0 00-.341.342.689.689 0 000 .501.681.681 0 00.34.34.649.649 0 00.249.047c.09 0 .172-.015.248-.046a.663.663 0 00.206-.14.608.608 0 00.135-.201.628.628 0 000-.501.545.545 0 00-.135-.202.663.663 0 00-.454-.191zM9.202 14.327a.867.867 0 00-.351.072 1.005 1.005 0 00-.285.191.907.907 0 00-.186.29.867.867 0 000 .697.848.848 0 00.47.476.867.867 0 00.698 0 .823.823 0 00.28-.191.811.811 0 00.19-.285.867.867 0 000-.698.865.865 0 00-.19-.289.934.934 0 00-.28-.19.831.831 0 00-.346-.073zm2.098 0a.867.867 0 00-.351.072 1.005 1.005 0 00-.285.191.984.984 0 00-.19.29.925.925 0 000 .697.88.88 0 00.475.475.867.867 0 00.697 0 .823.823 0 00.28-.19.811.811 0 00.19-.285.867.867 0 000-.698.865.865 0 00-.19-.289.934.934 0 00-.28-.19.831.831 0 00-.346-.073zm80.3 0a.867.867 0 00-.351.072 1.005 1.005 0 00-.285.191.907.907 0 00-.186.29.867.867 0 000 .697.848.848 0 00.47.476.867.867 0 00.698 0 .823.823 0 00.28-.191.811.811 0 00.19-.285.867.867 0 000-.698.865.865 0 00-.19-.289.934.934 0 00-.28-.19.831.831 0 00-.346-.073zm2.098 0a.867.867 0 00-.351.072 1.005 1.005 0 00-.284.191.984.984 0 00-.192.29.925.925 0 000 .697.88.88 0 00.475.475.867.867 0 00.698 0 .823.823 0 00.28-.19.811.811 0 00.19-.285.867.867 0 000-.698.865.865 0 00-.19-.289.934.934 0 00-.28-.19.831.831 0 00-.346-.073z" font-weight="400" font-size="10.583" font-family="sans-serif" letter-spacing="0" word-spacing="0" fill="#000026"/>
  <path d="M2.298 3.286v1.5h40.703a1.993 1.993 0 01-.143-1.5H2.298zm42.515 0c-.177.17-.272.364-.272.57 0 .373.318.735.847.895l.116.035h51.007v-1.5H44.813z" fill="#000026"/>
  <text style="line-height:1.25" x="145.302" y="131.122" font-weight="400" font-size="10.583" font-family="sans-serif" letter-spacing="0" word-spacing="0" stroke-width=".265" transform="translate(-.82 -299.5)"/>
</svg>
