<?xml version="1.0" encoding="UTF-8" standalone="no"?>
<!-- Created with Inkscape (http://www.inkscape.org/) -->

<svg
   xmlns:dc="http://purl.org/dc/elements/1.1/"
   xmlns:cc="http://creativecommons.org/ns#"
   xmlns:rdf="http://www.w3.org/1999/02/22-rdf-syntax-ns#"
   xmlns:svg="http://www.w3.org/2000/svg"
   xmlns="http://www.w3.org/2000/svg"
   xmlns:sodipodi="http://sodipodi.sourceforge.net/DTD/sodipodi-0.dtd"
   xmlns:inkscape="http://www.inkscape.org/namespaces/inkscape"
   viewBox="0 0 132.29167 132.29167"
   version="1.1"
   id="svg8"
   inkscape:version="0.92.5 (2060ec1f9f, 2020-04-08)"
   sodipodi:docname="logoImage.svg">
  <defs
     id="defs2" />
  <sodipodi:namedview
     id="base"
     pagecolor="#ffffff"
     bordercolor="#666666"
     borderopacity="1.0"
     inkscape:pageopacity="0.0"
     inkscape:pageshadow="2"
     inkscape:zoom="0.7"
     inkscape:cx="-34.40517"
     inkscape:cy="154.62855"
     inkscape:document-units="mm"
     inkscape:current-layer="layer1"
     showgrid="false"
     units="px"
     inkscape:window-width="1366"
     inkscape:window-height="731"
     inkscape:window-x="0"
     inkscape:window-y="0"
     inkscape:window-maximized="1" />
  <metadata
     id="metadata5">
    <rdf:RDF>
      <cc:Work
         rdf:about="">
        <dc:format>image/svg+xml</dc:format>
        <dc:type
           rdf:resource="http://purl.org/dc/dcmitype/StillImage" />
        <dc:title></dc:title>
      </cc:Work>
    </rdf:RDF>
  </metadata>
  <g
     inkscape:label="Layer 1"
     inkscape:groupmode="layer"
     id="layer1"
     transform="translate(0,-164.70834)">
    <g
       id="g1336"
       transform="matrix(1.5370247,0,0,1.5370247,-52.670946,50.812094)">
      <path
         style="fill:#d6d8da;stroke-width:0.26458332"
         d="m 62.85743,159.10923 c -11.308617,-0.65209 -17.768528,-1.70476 -17.400119,-2.83545 0.311687,-0.95661 3.276878,-1.60686 10.785536,-2.36521 5.099468,-0.51503 7.296745,-0.57663 21.218583,-0.59482 11.739943,-0.0154 15.388227,-0.0934 14.948958,-0.3199 -0.319595,-0.16478 -2.724208,-1.08108 -5.343583,-2.03623 -2.619375,-0.95514 -6.488906,-2.38276 -8.598958,-3.17248 -6.752191,-2.52711 -13.731759,-5.10734 -19.711459,-7.28699 -15.730635,-5.73393 -19.077675,-6.98585 -19.408293,-7.25941 -0.704326,-0.58277 -0.855091,-1.49086 -0.39574,-2.38359 0.239141,-0.46477 2.662801,-4.35737 5.385906,-8.65024 2.723107,-4.29286 8.074231,-12.7463 11.891386,-18.78541 3.817154,-6.039119 7.233216,-11.367166 7.591247,-11.840108 0.791626,-1.045702 1.533433,-1.101372 3.688207,-0.276787 1.465218,0.560707 1.534737,0.564486 1.809483,0.09837 1.577287,-2.67594 4.661154,-7.003489 6.085943,-8.540319 6.593282,-7.111761 14.620058,-9.003465 22.245611,-5.242715 4.158362,2.050811 6.701522,5.411666 8.112042,10.720306 0.77177,2.904531 0.94832,9.232042 0.36915,13.229163 -0.24246,1.67349 -0.49914,3.24271 -0.57036,3.48717 -0.10004,0.34335 0.2313,0.576 1.45661,1.02278 0.87238,0.31808 1.79417,0.8082 2.0484,1.08914 0.57351,0.63372 0.5533,1.12283 -0.27178,6.57174 -0.36356,2.4011 -1.85885,12.24356 -3.32285,21.87214 -1.46401,9.62859 -2.66184,17.73766 -2.66184,18.02016 0,0.44359 0.40595,0.59291 2.97657,1.09484 4.09985,0.80053 5.1023,1.51164 3.23241,2.29294 -4.75951,1.98865 -28.939865,3.08392 -46.16106,2.09091 z m 38.45054,-55.79667 c 0.40998,-1.0684 0.76254,-6.198152 0.62897,-9.151704 -0.36488,-8.068868 -3.194832,-12.204122 -9.341145,-13.649714 -6.461731,-1.519778 -12.972042,2.497833 -18.230376,11.250238 -0.562843,0.936839 -0.911845,1.746916 -0.775566,1.800171 5.001708,1.954547 26.833617,10.074319 27.140827,10.094279 0.2391,0.0155 0.49887,-0.13894 0.57729,-0.34327 z"
         id="path1362"
         inkscape:connector-curvature="0"
         sodipodi:nodetypes="ccscccsscccssscssccccccsscccccscccc" />
      <path
         style="fill:#f8e6a0;stroke-width:0.26458332"
         d="m 98.973055,155.3616 c -6.914745,-2.73189 -10.658478,-4.15376 -16.933333,-6.43125 -13.425329,-4.87279 -16.130752,-5.8674 -16.933334,-6.22532 -0.436562,-0.1947 -4.365625,-1.66258 -8.73125,-3.26198 -4.365625,-1.5994 -9.902031,-3.62781 -12.303125,-4.50757 -4.480679,-1.64173 -5.436076,-2.24958 -5.227992,-3.32625 0.05749,-0.29742 3.11993,-5.30328 6.805433,-11.12411 3.685505,-5.82083 9.259252,-14.63146 12.386106,-19.57917 3.126854,-4.947704 5.855841,-9.192319 6.064414,-9.432472 0.616942,-0.710351 1.239232,-0.7231 3.124012,-0.064 0.981234,0.34313 1.86975,0.570914 1.974483,0.506187 0.10473,-0.06473 0.733247,-1.051921 1.396703,-2.193763 3.375711,-5.809781 8.012986,-10.389437 12.553395,-12.397422 6.08543,-2.691265 13.588825,-1.414866 18.073443,3.074465 2.55839,2.561077 4.09483,5.841655 4.77158,10.188264 0.35817,2.300398 0.348,7.790915 -0.0196,10.593591 -0.15198,1.15853 -0.34491,2.65087 -0.42878,3.31632 l -0.15248,1.2099 1.623,0.59179 c 2.79302,1.01838 2.80236,-0.5685 -0.10919,18.5937 -3.72742,24.53196 -3.83955,25.27467 -4.20407,27.84306 -0.44559,3.1397 -1.15857,3.64174 -3.729435,2.62604 z m 2.769145,-53.46346 c 1.52047,-9.745033 -0.43484,-17.292673 -5.203883,-20.08752 -2.96005,-1.734705 -7.15591,-2.201008 -10.452047,-1.161578 -2.303767,0.726489 -5.25508,2.71727 -7.401566,4.992658 -2.549599,2.70271 -5.760397,7.684945 -5.209571,8.083752 0.321744,0.232946 27.163777,10.185328 27.516277,10.202378 0.33709,0.0163 0.50049,-0.42544 0.75079,-2.02969 z"
         id="path1360"
         inkscape:connector-curvature="0"
         sodipodi:nodetypes="cscsccsscccssscccccsccccsssccc" />
      <path
         style="fill:#bac2c9;stroke-width:0.26458332"
         d="m 98.973055,155.36418 c -0.582083,-0.22855 -2.546615,-1.00731 -4.365625,-1.73058 -1.81901,-0.72327 -6.879167,-2.62448 -11.244792,-4.22492 -4.365625,-1.60043 -8.116093,-3.05773 -8.334375,-3.23843 -0.446092,-0.3693 -9.986319,-3.85891 -10.54667,-3.85775 -0.198117,5.3e-4 -3.889055,-1.29935 -8.202083,-2.88836 -4.313029,-1.589 -9.806403,-3.6089 -12.207497,-4.48866 -4.480679,-1.64173 -5.436076,-2.24958 -5.227992,-3.32625 0.05749,-0.29742 3.11993,-5.30328 6.805433,-11.12411 3.685505,-5.82083 9.259252,-14.63146 12.386106,-19.57917 3.126854,-4.947704 5.855841,-9.192319 6.064414,-9.432472 0.616942,-0.710351 1.239232,-0.7231 3.124012,-0.064 0.981234,0.34313 1.86975,0.570914 1.974483,0.506187 0.10473,-0.06473 0.733247,-1.051921 1.396703,-2.193763 3.375711,-5.809781 8.012986,-10.389437 12.553395,-12.397422 6.08543,-2.691265 13.588825,-1.414866 18.073443,3.074465 2.55839,2.561077 4.09483,5.841655 4.77158,10.188264 0.35817,2.300398 0.348,7.790915 -0.0196,10.593581 -0.15198,1.15853 -0.34491,2.65087 -0.42878,3.31632 l -0.15248,1.2099 1.623,0.5918 c 2.79302,1.01837 2.80236,-0.5685 -0.10919,18.5937 -3.72742,24.53195 -3.83955,25.27466 -4.20407,27.84305 -0.44548,3.13895 -1.15538,3.6393 -3.729435,2.62863 z m 2.769145,-53.46604 c 1.52047,-9.745033 -0.43484,-17.292673 -5.203883,-20.08752 -2.96005,-1.734705 -7.15591,-2.201008 -10.452047,-1.161578 -2.303767,0.726489 -5.25508,2.71727 -7.401566,4.992658 -2.549599,2.70271 -5.760397,7.684945 -5.209571,8.083752 0.321744,0.232946 27.163777,10.185328 27.516277,10.202378 0.33709,0.0163 0.50049,-0.42544 0.75079,-2.02969 z"
         id="path1358"
         inkscape:connector-curvature="0"
         sodipodi:nodetypes="csccccccsscccssscccccsccccsssccc" />
      <path
         style="fill:#f6d35d;stroke-width:0.26458332"
         d="m 96.459513,154.19425 c -2.255573,-0.87934 -7.672916,-2.90956 -12.038541,-4.51159 -4.365625,-1.60204 -8.294688,-3.09101 -8.73125,-3.30882 -0.436563,-0.21782 -3.115469,-1.2276 -5.953125,-2.24397 -8.683242,-3.11008 -27.021859,-9.79019 -28.775684,-10.48197 -1.690566,-0.66682 -2.153282,-1.26257 -1.852615,-2.38526 0.06757,-0.25232 2.502701,-4.20924 5.411393,-8.79315 2.908689,-4.5839 8.413824,-13.27546 12.233632,-19.31458 3.819806,-6.039112 7.193352,-11.248097 7.496768,-11.575518 0.678799,-0.732508 1.255456,-0.745022 3.041949,-0.06601 0.765545,0.290968 1.549728,0.529033 1.742628,0.529033 0.192899,0 0.96789,-1.041796 1.722202,-2.315104 2.010555,-3.393896 3.706159,-5.54239 6.341213,-8.034927 2.772457,-2.622506 4.511087,-3.713744 7.650652,-4.801874 1.983922,-0.6876 2.699464,-0.803152 4.963903,-0.801612 7.258958,0.0049 12.733292,3.717985 15.101732,10.242975 1.49005,4.105007 1.82083,9.919502 0.90276,15.867667 -0.28951,1.87564 -0.52637,3.43726 -0.52637,3.47028 0,0.033 0.71107,0.31928 1.58012,0.63617 2.50971,0.91508 2.65634,1.23442 2.13683,4.65413 -0.13264,0.87313 -0.54872,3.61156 -0.92464,6.08542 -0.94006,6.18662 -1.88656,12.43505 -2.64515,17.4625 -0.35131,2.32833 -1.183,7.79905 -1.84816,12.15715 -0.66519,4.3581 -1.20941,8.01622 -1.20941,8.12914 0,0.17234 -1.39466,1.02732 -1.64051,1.00569 -0.0436,-0.004 -1.924754,-0.72644 -4.180327,-1.60577 z m 5.253987,-51.32403 c 0.26257,-0.82883 0.38011,-2.75384 0.40268,-6.594474 0.0266,-4.518806 -0.0486,-5.707806 -0.45064,-7.124859 -1.39504,-4.917689 -3.879591,-7.519524 -8.326332,-8.719384 -4.618093,-1.246095 -8.57762,-0.229749 -12.857176,3.300228 -2.805194,2.313854 -7.795839,9.249444 -7.132762,9.912523 0.318104,0.318103 27.40079,10.524986 27.73464,10.452586 0.14232,-0.0309 0.42564,-0.58284 0.62959,-1.22662 z"
         id="path1356"
         inkscape:connector-curvature="0"
         sodipodi:nodetypes="ccccccssccsssscccscccccscccccssccc" />
      <path
         style="fill:#9aa6af;stroke-width:0.26458332"
         d="m 97.120972,154.4479 c -1.891771,-0.73712 -7.54724,-2.86299 -12.567709,-4.72416 -5.020468,-1.86117 -9.10301,-3.50205 -9.072316,-3.64641 0.03069,-0.14436 -1.278993,-0.74302 -2.910417,-1.33037 -1.631423,-0.58734 -3.974475,-1.4375 -5.206783,-1.88924 -1.232307,-0.45175 -2.394161,-0.76241 -2.581899,-0.69037 -0.27118,0.10406 -19.578048,-6.81202 -24.350269,-8.72272 -1.145275,-0.45855 -1.588923,-1.19009 -1.323281,-2.18199 0.06757,-0.25232 2.502701,-4.20924 5.411393,-8.79315 2.908689,-4.5839 8.413824,-13.27546 12.233632,-19.31458 3.819806,-6.039112 7.193352,-11.248097 7.496768,-11.575518 0.678799,-0.732508 1.255456,-0.745022 3.041949,-0.06601 0.765545,0.290968 1.549728,0.529033 1.742628,0.529033 0.192899,0 0.96789,-1.041796 1.722202,-2.315104 2.010555,-3.393896 3.706159,-5.54239 6.341213,-8.034927 2.772457,-2.622506 4.511087,-3.713744 7.650652,-4.801874 1.983922,-0.6876 2.699464,-0.803152 4.963903,-0.801612 7.258958,0.0049 12.733292,3.717985 15.101732,10.242975 1.49005,4.105007 1.82083,9.919502 0.90276,15.867667 -0.28951,1.87564 -0.52637,3.43726 -0.52637,3.47028 0,0.033 0.71107,0.31928 1.58012,0.63617 2.50971,0.91508 2.65634,1.23442 2.13683,4.65413 -0.13264,0.87313 -0.54872,3.61156 -0.92464,6.08542 -0.94006,6.18662 -1.88656,12.43505 -2.64515,17.4625 -0.35131,2.32833 -1.183,7.79905 -1.84816,12.15715 -0.66519,4.3581 -1.20941,8.01622 -1.20941,8.12914 0,0.17371 -1.40272,1.03152 -1.64051,1.00323 -0.0436,-0.005 -1.627098,-0.61254 -3.518868,-1.34966 z m 4.592528,-51.57768 c 0.26257,-0.82883 0.38011,-2.75384 0.40268,-6.594474 0.0266,-4.518806 -0.0486,-5.707806 -0.45064,-7.124859 -1.39504,-4.917689 -3.879591,-7.519524 -8.326332,-8.719384 -4.618093,-1.246095 -8.57762,-0.229749 -12.857176,3.300228 -2.805194,2.313854 -7.795839,9.249444 -7.132762,9.912523 0.318104,0.318103 27.40079,10.524986 27.73464,10.452586 0.14232,-0.0309 0.42564,-0.58284 0.62959,-1.22662 z"
         id="path1354"
         inkscape:connector-curvature="0"
         sodipodi:nodetypes="ssccccccssccsssscccscccccscscccssccc" />
      <path
         style="fill:#fbc90a;stroke-width:0.26458332"
         d="m 97.253263,154.33269 c -1.673489,-0.6478 -6.793177,-2.55754 -11.377083,-4.24386 -9.483442,-3.48877 -10.111798,-3.73656 -10.316977,-4.06855 -0.08198,-0.13266 -1.455375,-0.71418 -3.05198,-1.29227 -1.596607,-0.57809 -3.903509,-1.41744 -5.12645,-1.86521 -1.222944,-0.44778 -2.455373,-0.81414 -2.738734,-0.81414 -0.467444,0 -5.722866,-1.8814 -19.908551,-7.12712 -2.764888,-1.02243 -5.182857,-2.06952 -5.373267,-2.32686 -0.654921,-0.88514 -2.317255,1.88648 20.017605,-33.375462 2.707579,-4.274683 5.169249,-7.884409 5.470377,-8.021613 0.403211,-0.183716 1.023236,-0.0704 2.352577,0.429965 0.992788,0.373684 1.899195,0.679426 2.014236,0.679426 0.115043,0 0.686247,-0.869262 1.269343,-1.931694 3.143579,-5.72776 8.163079,-10.79563 12.664208,-12.786243 6.037093,-2.669889 13.540666,-1.427111 17.938903,2.971126 2.85787,2.857885 4.32496,6.471439 4.8985,12.065522 0.26022,2.538092 0.23659,3.606757 -0.15666,7.089622 -0.73049,6.469681 -0.81576,5.987801 1.20952,6.835641 1.26267,0.52861 1.77085,0.8912 1.92442,1.37309 0.13845,0.43452 -0.97933,8.43291 -3.32259,23.77516 -3.72554,24.39243 -3.61905,23.87803 -4.93224,23.82724 -0.22685,-0.009 -1.781667,-0.54597 -3.455157,-1.19377 z m 4.720457,-52.10382 c 0.20196,-1.05416 0.36483,-3.789904 0.37805,-6.349999 0.0198,-3.836737 -0.0606,-4.801824 -0.54678,-6.565358 -1.66378,-6.034839 -5.288567,-9.074344 -11.183471,-9.377723 -4.488206,-0.230983 -7.564083,1.122428 -11.523858,5.070594 -3.14279,3.133576 -6.476312,8.156892 -5.83715,8.796054 0.353247,0.353248 27.352229,10.373682 27.829209,10.328562 0.43532,-0.0412 0.5921,-0.37854 0.884,-1.90213 z"
         id="path1352"
         inkscape:connector-curvature="0"
         sodipodi:nodetypes="sccscsscsscssscssccscscccssccc" />
      <path
         style="fill:#f9bc05;stroke-width:0.26458332"
         d="m 97.253263,154.33269 c -1.673489,-0.6478 -6.793177,-2.55754 -11.377083,-4.24386 -4.583906,-1.68633 -8.725501,-3.2284 -9.203542,-3.42682 -0.887005,-0.36817 -1.857716,-1.15851 -1.464836,-1.19265 0.119536,-0.0104 3.818977,-0.003 8.220982,0.0171 6.442877,0.029 8.008644,-0.0318 8.029281,-0.31184 0.03212,-0.43583 0.0199,-0.80191 -0.285818,-8.5499 -0.137801,-3.4925 -0.324906,-7.18344 -0.41579,-8.20209 -0.243983,-2.7346 -0.04895,-2.91041 3.228686,-2.91041 h 2.594137 l 1.16428,-3.83646 c 0.640353,-2.11005 1.218478,-4.13831 1.284724,-4.50724 0.116494,-0.64879 -0.103751,-0.76401 -6.714268,-3.51269 -6.457608,-2.68511 -7.760753,-3.12354 -7.760753,-2.61103 0,0.11932 -0.439864,0.73084 -0.977474,1.35892 -1.358799,1.58744 -3.178066,2.38701 -5.438671,2.39028 l -1.785938,0.003 v 0.87547 c 0,1.39044 0.472001,1.77318 2.707201,2.19523 2.520664,0.47595 3.62672,0.93237 4.839163,1.99691 1.505513,1.32186 2.093904,2.68885 2.10307,4.886 0.0069,1.64537 -0.11071,2.11493 -0.928847,3.70953 -0.685093,1.33529 -0.887624,2.00194 -0.753978,2.4818 0.337863,1.21313 0.227423,2.76516 -0.272621,3.8311 -0.717222,1.5289 -6.004504,6.87159 -7.448748,7.52679 -1.608768,0.72985 -3.033017,0.68419 -4.708972,-0.15098 -2.321743,-1.15697 -3.331046,-3.33725 -2.863268,-6.18519 0.232238,-1.41392 0.330038,-1.54414 3.447221,-4.58984 1.764512,-1.72406 3.665718,-3.36805 4.224902,-3.65333 1.344834,-0.68608 3.328053,-0.68961 4.70495,-0.008 l 1.072359,0.53056 0.494832,-0.81369 c 1.157388,-1.90317 0.876792,-4.36437 -0.650444,-5.7053 -1.040511,-0.91359 -1.166178,-0.96132 -3.898024,-1.48073 -2.72214,-0.51755 -3.484034,-0.95429 -4.182759,-2.39766 -0.442827,-0.91476 -0.559025,-1.56021 -0.489529,-2.7192 0.08308,-1.3856 0.02704,-1.57418 -0.63495,-2.13677 -0.399341,-0.33938 -0.931291,-0.96446 -1.18211,-1.38907 -0.250823,-0.4246 -0.579197,-0.77101 -0.729724,-0.76979 -0.520375,0.004 -6.355649,2.63326 -6.445959,2.9042 -0.04985,0.14953 -0.217916,0.19321 -0.373494,0.0971 -0.16719,-0.10333 -0.205663,-0.0499 -0.09408,0.13064 0.291616,0.47185 1.146628,0.36151 1.538941,-0.19859 0.194183,-0.27724 0.528357,-0.52947 0.742609,-0.56052 1.00893,-0.14622 1.07655,-0.0248 0.99695,1.78944 -0.0863,1.967 -0.458885,2.33298 -1.577467,1.5495 -0.580745,-0.40677 -0.579022,-0.41006 0.437306,-0.8347 0.561187,-0.23448 0.897734,-0.5055 0.747882,-0.60227 -0.149855,-0.0968 -0.244076,-0.35878 -0.209378,-0.58226 0.03726,-0.23997 -0.134573,-0.40632 -0.419696,-0.40632 -0.367752,0 -0.414313,0.0825 -0.195426,0.34623 0.221639,0.26706 0.188034,0.30813 -0.14695,0.17958 -0.291642,-0.11191 -0.434297,-0.027 -0.434297,0.25853 0,0.23385 -0.173199,0.42518 -0.384887,0.42518 -0.571855,0 -0.726699,1.32549 -0.628608,5.381 0.05435,2.24711 -0.0127,3.65538 -0.17713,3.72058 -0.145521,0.0577 -0.02646,0.0942 0.264583,0.0811 0.510982,-0.023 0.524621,-0.16186 0.396875,-4.04099 -0.103664,-3.14788 -0.06073,-3.98958 0.198437,-3.88966 0.24452,0.0943 0.33073,1.17764 0.33073,4.15615 0,2.21575 -0.06439,4.09303 -0.143092,4.17173 -0.0787,0.0787 -0.167997,3.93831 -0.198438,8.57691 l -0.05535,8.43382 -0.57802,0.0823 c -0.52202,0.0743 -4.839271,-1.44884 -20.059464,-7.07711 -2.764888,-1.02243 -5.182857,-2.06952 -5.373267,-2.32686 -0.654921,-0.88514 -2.317255,1.88648 20.017605,-33.375462 2.707579,-4.274683 5.169249,-7.884409 5.470377,-8.021613 0.403211,-0.183716 1.023236,-0.0704 2.352577,0.429965 0.992788,0.373684 1.899195,0.679426 2.014236,0.679426 0.115043,0 0.686247,-0.869262 1.269343,-1.931694 3.143579,-5.72776 8.163079,-10.79563 12.664208,-12.786243 6.037093,-2.669889 13.540666,-1.427111 17.9389,2.971126 2.85787,2.857885 4.32496,6.471439 4.8985,12.065522 0.26022,2.538092 0.23659,3.606757 -0.15666,7.089622 -0.73049,6.469681 -0.81576,5.987801 1.20952,6.835641 1.26267,0.52861 1.77085,0.8912 1.92442,1.37309 0.13845,0.43452 -0.97933,8.43291 -3.32259,23.77516 -3.72554,24.39243 -3.61905,23.87803 -4.93224,23.82724 -0.22685,-0.009 -1.781664,-0.54597 -3.455154,-1.19377 z M 79.845754,132.60226 c 0.947381,-0.9251 1.28949,-1.6661 0.769208,-1.6661 -0.281946,0 -2.411699,2.15888 -2.411699,2.44468 0,0.46969 0.707681,0.13423 1.642491,-0.77858 z m -18.647481,-6.85304 c -0.08792,-0.0879 -0.316124,-0.0973 -0.507119,-0.0209 -0.211066,0.0845 -0.148373,0.14715 0.159853,0.15985 0.278913,0.0115 0.435184,-0.0511 0.347266,-0.13896 z m 3.577386,-0.80912 c -0.181901,-0.0734 -0.479557,-0.0734 -0.661458,0 -0.181901,0.0734 -0.03307,0.13345 0.330729,0.13345 0.363802,0 0.51263,-0.0601 0.330729,-0.13345 z m 37.198061,-22.71123 c 0.20196,-1.05416 0.36483,-3.789904 0.37805,-6.349999 0.0198,-3.836737 -0.0606,-4.801824 -0.54678,-6.565358 -1.66378,-6.034839 -5.288567,-9.074344 -11.183471,-9.377723 -4.488206,-0.230983 -7.564083,1.122428 -11.523858,5.070594 -3.14279,3.133576 -6.476312,8.156892 -5.83715,8.796054 0.353247,0.353248 27.352229,10.373682 27.829209,10.328562 0.43532,-0.0412 0.5921,-0.37854 0.884,-1.90213 z m -34.374033,40.2388 c -0.238572,-0.25985 -0.09951,-0.9481 0.191561,-0.9481 0.213992,0 0.315494,0.11907 0.225557,0.26459 -0.08994,0.14552 -0.03743,0.26458 0.116676,0.26458 0.154109,0 0.280199,0.0992 0.280199,0.22049 0,0.16552 -0.689816,0.33368 -0.813993,0.19843 z m -1.51434,-0.73643 c -0.434118,-0.43412 -0.398444,-0.74083 0.08617,-0.74083 0.359458,0 0.358272,-0.0878 -0.01082,-0.80152 -0.227965,-0.44084 -0.326769,-0.94345 -0.219562,-1.11691 0.107206,-0.17346 0.171437,-0.62359 0.142735,-1.00028 -0.02993,-0.39283 0.189153,-0.94393 0.513765,-1.29236 0.453662,-0.48695 0.494705,-0.65152 0.206856,-0.82942 -0.205787,-0.12718 -0.394848,-0.80248 -0.442833,-1.58175 -0.07284,-1.18289 -0.01365,-1.37814 0.454973,-1.50069 0.296291,-0.0775 0.53871,-0.25308 0.53871,-0.39021 0,-0.13714 0.113863,-0.17897 0.253029,-0.093 0.349271,0.21586 0.04607,0.96945 -0.622118,1.54625 l -0.556953,0.48078 0.595313,-0.29165 c 0.327421,-0.16041 0.604422,-0.19816 0.615555,-0.0839 0.01114,0.11426 0.06148,0.42532 0.111887,0.69124 0.06713,0.35417 -0.02675,0.44246 -0.350972,0.33008 -0.37201,-0.12894 -0.366228,-0.0941 0.03624,0.21871 0.303086,0.23553 0.375926,0.43573 0.198438,0.54543 -0.154229,0.0953 -0.278593,0.31511 -0.276365,0.48842 0.0028,0.21292 0.07719,0.19971 0.229592,-0.0408 0.167296,-0.26397 0.268848,-0.18331 0.393255,0.31237 0.183065,0.7294 -0.211463,2.03571 -0.707385,2.34221 -0.233005,0.144 -0.218992,0.2793 0.05537,0.53455 0.202552,0.18844 0.291259,0.20582 0.197747,0.0387 -0.09327,-0.16665 0.0083,-0.37128 0.225766,-0.45472 0.702337,-0.26951 0.478563,1.33038 -0.309837,2.21522 -0.788734,0.88522 -0.906285,0.92623 -1.358556,0.47396 z m 1.534583,-1.27 c 0,-0.14552 -0.185621,-0.26458 -0.412491,-0.26458 -0.226869,0 -0.338904,0.11906 -0.248967,0.26458 0.08994,0.14552 0.275558,0.26458 0.41249,0.26458 0.136933,0 0.248968,-0.11906 0.248968,-0.26458 z m -0.638069,-3.3721 c -0.289031,-0.28903 -0.487225,0.17062 -0.279712,0.64871 0.196765,0.45333 0.211029,0.45292 0.320659,-0.009 0.0631,-0.26605 0.04468,-0.55378 -0.04095,-0.63941 z m -0.618125,-6.02061 c 0.0029,-0.58208 0.05712,-0.78905 0.120407,-0.45993 0.06328,0.32911 0.06088,0.80536 -0.0053,1.05833 -0.06622,0.25297 -0.118004,-0.0163 -0.115067,-0.5984 z m -0.373444,-1.85359 c -0.219172,-0.3356 0.03253,-1.71828 0.312796,-1.71828 0.114933,0 0.149699,-0.22665 0.07726,-0.50366 -0.09087,-0.34751 0.03985,-0.55811 0.421645,-0.67929 0.648295,-0.20576 0.718547,-0.54913 0.15648,-0.76482 -0.218282,-0.0838 -0.398698,-0.42392 -0.400926,-0.75591 -0.0034,-0.50103 -0.05257,-0.53616 -0.289544,-0.20674 -0.237435,0.33007 -0.259019,0.3153 -0.128238,-0.0878 0.08649,-0.26657 0.157249,-0.53446 0.157249,-0.59532 0,-0.28587 1.09111,-0.0685 1.20989,0.24102 0.07422,0.19342 0.09691,1.41381 0.05041,2.71198 -0.06714,1.8747 -0.130151,2.18582 -0.306255,1.51222 -0.181319,-0.69354 -0.284062,-0.78574 -0.563856,-0.50594 -0.188174,0.18817 -0.382863,0.62934 -0.432636,0.98037 -0.04978,0.35103 -0.168701,0.5185 -0.264277,0.37215 z"
         id="path1350"
         inkscape:connector-curvature="0"
         sodipodi:nodetypes="cccccccsscsccscccssscscsccsccccccccccccccccccccccsccssscsscscsccscsscssscssccsccccsscccccccssccccssccccscsscccscccccccscccccccccccccccccccsscsscccccccccccsccccccsccccccc" />
      <path
         style="fill:#768592;stroke-width:0.26458332"
         d="m 97.253263,154.33269 c -1.673489,-0.6478 -6.793177,-2.55854 -11.377083,-4.24608 -10.146133,-3.73526 -10.31875,-3.80381 -10.31875,-4.09793 0,-0.13282 3.453344,-0.23585 7.905104,-0.23585 6.003031,0 7.970367,-0.0796 8.176342,-0.33073 0.185664,-0.22638 0.156885,-3.00204 -0.09121,-8.7974 -0.467625,-10.92339 -0.471824,-10.38512 0.0832,-10.67047 0.26528,-0.13639 1.299147,-0.14545 2.420853,-0.0212 1.107043,0.12262 2.148383,0.11488 2.396324,-0.0178 0.412451,-0.22074 2.924447,-7.98692 2.922632,-9.03572 -0.0011,-0.58586 -0.343022,-0.81332 -2.646579,-1.76013 -1.091407,-0.44859 -4.106141,-1.71676 -6.699406,-2.81816 -2.593269,-1.10141 -4.8694,-2.00256 -5.058072,-2.00256 -0.188669,0 -0.65881,0.47717 -1.044755,1.06037 -1.408607,2.12855 -3.914407,3.30173 -6.672707,3.12407 -1.25209,-0.0806 -1.297717,-0.0583 -1.381656,0.67618 -0.225777,1.97561 0.561797,2.70253 3.476405,3.20867 2.390063,0.41504 3.85059,1.13859 4.925711,2.44022 1.654662,2.00327 1.775666,4.93952 0.321617,7.80423 -0.794568,1.56542 -0.837325,1.77958 -0.582393,2.91714 0.151323,0.67523 0.226602,1.3835 0.167293,1.57393 -0.05931,0.19043 -0.186796,0.70239 -0.2833,1.1377 -0.216818,0.97803 -6.21488,7.16827 -7.46701,7.70626 -2.212874,0.95079 -5.385154,-0.0982 -6.495264,-2.14773 -0.500928,-0.92485 -0.663752,-2.49116 -0.391612,-3.76714 0.229544,-1.07627 0.642942,-1.62434 3.195806,-4.23687 1.612689,-1.65039 3.339455,-3.25242 3.837263,-3.56009 1.169585,-0.72284 3.485584,-0.77428 4.859092,-0.10792 1.167648,0.56648 1.434512,0.43923 2.085559,-0.99447 0.922732,-2.03199 0.598054,-4.11978 -0.878787,-5.65092 -0.916382,-0.95007 -1.631844,-1.23433 -4.200676,-1.66899 -3.187255,-0.53929 -4.202692,-1.68971 -4.202692,-4.76136 0,-1.56885 -0.03842,-1.65737 -1.381776,-3.1835 -0.759975,-0.86338 -1.505251,-1.56978 -1.656167,-1.56978 -0.652658,0 -13.755513,5.76795 -14.006407,6.1657 -0.211997,0.33608 0.08482,1.53289 1.257385,5.06995 0.844188,2.54651 1.654636,4.70402 1.800995,4.79448 0.146357,0.0905 1.075007,-0.0453 2.063665,-0.30177 0.988658,-0.25642 1.992032,-0.3916 2.229724,-0.30039 0.386773,0.14842 0.432165,1.01431 0.432165,8.24394 0,7.23088 -0.04443,8.07809 -0.42363,8.07809 -0.385694,0 -6.140172,-2.06958 -19.816979,-7.12712 -2.764888,-1.02243 -5.182857,-2.06952 -5.373267,-2.32686 -0.654921,-0.88514 -2.317256,1.88648 20.017605,-33.375462 2.707579,-4.274683 5.169249,-7.884409 5.470377,-8.021613 0.403211,-0.183716 1.023236,-0.0704 2.352577,0.429965 0.992788,0.373684 1.899195,0.679426 2.014236,0.679426 0.115043,0 0.686247,-0.869262 1.269343,-1.931694 3.143579,-5.72776 8.163079,-10.79563 12.664208,-12.786243 6.037093,-2.669889 13.540666,-1.427111 17.938904,2.971126 2.85787,2.857885 4.32496,6.471439 4.8985,12.065522 0.26022,2.538092 0.23659,3.606757 -0.15666,7.089622 -0.73049,6.469681 -0.81576,5.987801 1.20951,6.835641 1.26268,0.52861 1.77086,0.8912 1.92443,1.37309 0.13845,0.43452 -0.97933,8.43291 -3.32259,23.77516 -3.72554,24.39243 -3.61905,23.87803 -4.93224,23.82724 -0.22685,-0.009 -1.781668,-0.54597 -3.455157,-1.19377 z m -16.96703,-21.67083 c 1.205198,-1.30748 1.275529,-1.50861 0.69578,-1.98976 -0.325104,-0.26982 -0.563616,-0.20121 -1.328362,0.38209 -1.153943,0.88016 -1.822032,1.86718 -1.620076,2.39347 0.276546,0.72066 1.142487,0.41859 2.252658,-0.7858 z m 21.687487,-30.43299 c 0.20196,-1.05416 0.36483,-3.789904 0.37805,-6.349999 0.0198,-3.836737 -0.0606,-4.801824 -0.54678,-6.565358 -1.66378,-6.034839 -5.288567,-9.074344 -11.183471,-9.377723 -4.488206,-0.230983 -7.564083,1.122428 -11.523858,5.070594 -3.14279,3.133576 -6.476312,8.156892 -5.83715,8.796054 0.353247,0.353248 27.352229,10.373682 27.829209,10.328562 0.43532,-0.0412 0.5921,-0.37854 0.884,-1.90213 z"
         id="path1348"
         inkscape:connector-curvature="0"
         sodipodi:nodetypes="scsscsccccscsccccsccccccccccsccscscscccssccsscssscssccscsscccscccssccc" />
      <path
         style="fill:#657686;stroke-width:0.26458332"
         d="m 100.16368,155.27411 c -0.363802,-0.10625 -2.447396,-0.87423 -4.630208,-1.70663 -2.182813,-0.8324 -6.82625,-2.56212 -10.31875,-3.84383 -9.134922,-3.35241 -9.392709,-3.45466 -9.392709,-3.72525 0,-0.14547 3.16846,-0.24557 7.772813,-0.24557 5.897197,0 7.838263,-0.0798 8.04405,-0.33073 0.185664,-0.22638 0.156885,-3.00204 -0.09121,-8.7974 -0.467625,-10.92339 -0.471824,-10.38512 0.0832,-10.67047 0.26528,-0.13639 1.299147,-0.14545 2.420853,-0.0212 1.107043,0.12262 2.148383,0.11488 2.396324,-0.0178 0.412451,-0.22074 2.924447,-7.98692 2.922632,-9.03572 -0.0011,-0.58586 -0.343022,-0.81332 -2.646579,-1.76013 -1.091407,-0.44859 -4.106141,-1.71676 -6.699406,-2.81816 -2.593269,-1.10141 -4.8694,-2.00256 -5.058072,-2.00256 -0.188669,0 -0.65881,0.47717 -1.044755,1.06037 -1.408607,2.12855 -3.914407,3.30173 -6.672707,3.12407 -1.25209,-0.0806 -1.297717,-0.0583 -1.381656,0.67618 -0.225777,1.97561 0.561797,2.70253 3.476405,3.20867 2.390063,0.41504 3.85059,1.13859 4.925711,2.44022 1.654662,2.00327 1.775666,4.93952 0.321617,7.80423 -0.794568,1.56542 -0.837325,1.77958 -0.582393,2.91714 0.151323,0.67523 0.226602,1.3835 0.167293,1.57393 -0.05931,0.19043 -0.186796,0.70239 -0.2833,1.1377 -0.216818,0.97803 -6.21488,7.16827 -7.46701,7.70626 -2.212874,0.95079 -5.385154,-0.0982 -6.495264,-2.14773 -0.500928,-0.92485 -0.663752,-2.49116 -0.391612,-3.76714 0.229544,-1.07627 0.642942,-1.62434 3.195806,-4.23687 1.612689,-1.65039 3.339455,-3.25242 3.837263,-3.56009 1.169585,-0.72284 3.485584,-0.77428 4.859092,-0.10792 1.167648,0.56648 1.434512,0.43923 2.085559,-0.99447 0.922732,-2.03199 0.598054,-4.11978 -0.878787,-5.65092 -0.916382,-0.95007 -1.631844,-1.23433 -4.200676,-1.66899 -3.187255,-0.53929 -4.202692,-1.68971 -4.202692,-4.76136 0,-1.56885 -0.03842,-1.65737 -1.381776,-3.1835 -0.759975,-0.86338 -1.505251,-1.56978 -1.656167,-1.56978 -0.652658,0 -13.755513,5.76795 -14.006407,6.1657 -0.211997,0.33608 0.08482,1.53289 1.257385,5.06995 0.844188,2.54651 1.654636,4.70402 1.800995,4.79448 0.146357,0.0905 1.075007,-0.0453 2.063665,-0.30177 0.988658,-0.25642 1.992032,-0.3916 2.229724,-0.30039 0.386529,0.14833 0.432165,1.00324 0.432165,8.09603 0,4.97486 -0.09811,7.99082 -0.263263,8.09289 -0.207775,0.12841 -12.078965,-4.10684 -23.359222,-8.3338 -5.17662,-2.33694 2.736199,-10.04114 4.168619,-12.30288 3.226771,-5.09323 8.645967,-13.66573 12.042656,-19.05 3.396689,-5.38427 6.41499,-10.057473 6.707333,-10.384895 0.661609,-0.740995 1.316355,-0.747912 3.182898,-0.03363 0.807278,0.308928 1.645931,0.493322 1.863675,0.409766 0.217741,-0.08356 0.656016,-0.663736 0.973939,-1.28929 1.977903,-3.891766 6.212269,-8.949696 9.392007,-11.21871 4.806797,-3.430057 10.010056,-4.32253 15.355705,-2.63384 7.214277,2.27899 10.951867,8.624131 10.943057,18.577575 -0.003,2.022994 -0.20966,4.736334 -0.51369,6.705314 -0.28088,1.81901 -0.42836,3.37802 -0.32774,3.46448 0.10065,0.0864 0.87619,0.43119 1.72347,0.76609 1.61769,0.63944 2.44078,1.50511 2.19152,2.30492 -0.0816,0.26178 -0.26694,1.30941 -0.41191,2.32805 -0.14496,1.01865 -0.4455,3.04271 -0.66789,4.49792 -0.68662,4.49356 -1.19898,7.86236 -1.46875,9.65729 -2.40768,16.01985 -4.46166,29.10763 -4.60434,29.33849 -0.31975,0.51737 -1.0598,0.75393 -1.73849,0.55571 z M 80.286233,132.66186 c 1.205198,-1.30748 1.275529,-1.50861 0.69578,-1.98976 -0.325104,-0.26982 -0.563616,-0.20121 -1.328362,0.38209 -1.153943,0.88016 -1.822032,1.86718 -1.620076,2.39347 0.276546,0.72066 1.142487,0.41859 2.252658,-0.7858 z m 21.666257,-29.92421 c 0.50632,-2.37851 0.71279,-8.902319 0.35523,-11.224404 -1.17754,-7.647325 -5.450448,-11.716248 -12.330498,-11.741855 -4.077587,-0.01518 -7.473318,1.587405 -11.120575,5.248242 -2.563374,2.572916 -6.364161,8.279364 -5.854166,8.789359 0.269401,0.2694 28.090539,10.639848 28.351829,10.568258 0.14552,-0.0399 0.4147,-0.77769 0.59818,-1.6396 z"
         id="path1346"
         inkscape:connector-curvature="0"
         sodipodi:nodetypes="csssscsccccscsccccsccccccccccsccscscscccscccsccccssccccccccccscccsccssccc" />
      <path
         style="fill:#516273;stroke-width:0.26458332"
         d="m 97.385555,154.19502 c -2.465348,-0.96603 -11.106872,-4.16949 -18.107046,-6.7124 -1.66419,-0.60454 -3.073096,-1.24105 -3.130905,-1.41448 -0.07976,-0.23929 1.780826,-0.31531 7.71711,-0.31531 h 7.822219 l 0.1681,-0.66977 c 0.09246,-0.36838 0.09526,-1.58877 0.0062,-2.71198 -0.08903,-1.12322 -0.288801,-5.19361 -0.443929,-9.04531 -0.262392,-6.51504 -0.250272,-7.02634 0.17389,-7.33649 0.250764,-0.18337 0.704577,-0.28337 1.00847,-0.22224 1.787369,0.35958 3.798895,0.40151 4.056576,0.0846 0.322071,-0.39614 2.713672,-8.28528 2.713672,-8.95151 0,-0.60756 -0.326917,-0.82759 -2.645833,-1.78071 -1.091407,-0.44859 -4.106141,-1.71676 -6.699406,-2.81816 -2.593269,-1.1014 -4.8694,-2.00255 -5.058072,-2.00255 -0.188669,0 -0.65881,0.47717 -1.044755,1.06037 -1.408607,2.12855 -3.914407,3.30173 -6.672707,3.12407 -1.25209,-0.0806 -1.297717,-0.0583 -1.381656,0.67618 -0.225777,1.97561 0.561797,2.70253 3.476405,3.20867 2.390063,0.41504 3.85059,1.13859 4.925711,2.44022 1.635294,1.97982 1.776111,4.97569 0.362688,7.71626 -0.733126,1.42151 -0.801079,1.75226 -0.677159,3.29605 0.07576,0.94379 0.05325,2.05262 -0.05001,2.46407 -0.236717,0.94316 -6.301555,7.15685 -7.479308,7.66288 -1.823273,0.78339 -4.486174,0.18943 -5.86528,-1.30825 -0.923732,-1.00315 -1.369531,-2.97526 -1.03118,-4.56169 0.241427,-1.13198 0.614548,-1.6304 3.20539,-4.2818 1.612689,-1.65039 3.339455,-3.25242 3.837263,-3.56009 1.169585,-0.72284 3.485584,-0.77428 4.859092,-0.10792 0.538387,0.26119 1.116332,0.38996 1.284321,0.28613 0.575702,-0.3558 1.297046,-2.37243 1.302856,-3.64235 0.0066,-1.44068 -0.404921,-2.38115 -1.491922,-3.40961 -0.925935,-0.87607 -1.560327,-1.12044 -3.949901,-1.52146 -3.324349,-0.5579 -4.34195,-1.68015 -4.34195,-4.78845 0,-1.56885 -0.03842,-1.65737 -1.381776,-3.1835 -0.759975,-0.86338 -1.505251,-1.56978 -1.656167,-1.56978 -0.652658,0 -13.755513,5.76795 -14.006407,6.1657 -0.211997,0.33608 0.08482,1.53289 1.257385,5.06995 0.844188,2.54651 1.654636,4.70402 1.800995,4.79448 0.146357,0.0905 1.075007,-0.0453 2.063665,-0.30177 0.988658,-0.25642 1.992032,-0.3916 2.229724,-0.30039 0.386529,0.14833 0.432165,1.00324 0.432165,8.09603 0,4.3616 -0.101987,7.99322 -0.226637,8.07026 -0.249232,0.15403 -24.574566,-8.72193 -25.107218,-9.16126 -0.904753,-0.74625 -1.698794,0.59505 18.595015,-31.4109 3.361584,-5.301654 6.312765,-9.766026 6.55818,-9.920831 0.334671,-0.211104 0.871849,-0.132913 2.148959,0.312803 0.936513,0.326845 1.918559,0.588308 2.182331,0.58103 0.324114,-0.0089 1.020275,-0.936381 2.147546,-2.861003 0.917382,-1.566272 2.497764,-3.822199 3.511962,-5.01317 6.673157,-7.836293 14.684804,-10.068577 22.60132,-6.297403 4.401179,2.096577 6.843509,5.707254 8.085489,11.953356 0.4768,2.398025 0.54787,3.458104 0.43248,6.453031 -0.0759,1.970997 -0.28612,4.536127 -0.46712,5.700297 -0.57896,3.72363 -0.61653,3.59445 1.26744,4.35919 0.90492,0.36734 1.78781,0.81259 1.96196,0.98944 0.33494,0.34016 0.18434,1.9919 -0.69432,7.61595 -0.40465,2.58999 -0.60891,3.93252 -1.16745,7.67292 -0.15211,1.01865 -0.45987,3.04271 -0.68392,4.49792 -0.22405,1.4552 -0.5217,3.41974 -0.66146,4.36562 -0.13975,0.94589 -0.43883,2.91042 -0.66463,4.36563 -0.22579,1.4552 -0.69792,4.55083 -1.04915,6.87916 -1.47297,9.76458 -1.7978,11.65823 -2.05369,11.9724 -0.43545,0.53462 -1.49358,0.34979 -4.305629,-0.75208 z M 80.286233,132.66186 c 1.198702,-1.30044 1.27413,-1.50978 0.712068,-1.97625 -0.493091,-0.40922 -1.135383,-0.0705 -2.229586,1.17569 -1.825429,2.07905 -0.36912,2.84732 1.517518,0.80056 z m 21.700797,-29.64232 c 0.25876,-0.92771 0.37377,-3.00994 0.38709,-7.008378 0.0185,-5.559084 0.002,-5.736712 -0.71601,-7.805208 -1.62304,-4.674319 -4.250743,-7.151234 -8.699256,-8.200061 -6.911941,-1.629629 -13.495126,2.300266 -18.981661,11.331284 -0.603052,0.992641 -1.059746,1.993421 -1.014881,2.223954 0.05644,0.289994 4.361836,2.030947 13.972201,5.649875 7.639844,2.876904 14.069217,5.207694 14.287497,5.179554 0.23305,-0.0301 0.54884,-0.596 0.76502,-1.37102 z"
         id="path1344"
         inkscape:connector-curvature="0"
         sodipodi:nodetypes="cscscccscccssssccccscccccscccccscscscscccsccscccscsccccccccccccccsccscccsccscc" />
      <path
         style="fill:#33485d;stroke-width:0.26458332"
         d="m 95.40118,153.3264 c -2.837656,-1.06588 -8.016875,-2.98367 -11.509375,-4.26177 -3.4925,-1.27809 -6.647656,-2.4818 -7.011458,-2.67492 -0.563843,-0.2993 0.451344,-0.35327 6.879166,-0.36576 4.147344,-0.008 7.706231,-0.11951 7.908637,-0.24769 0.304559,-0.19286 0.336603,-1.16156 0.185849,-5.61834 -0.10019,-2.96192 -0.298697,-7.21479 -0.441124,-9.45084 -0.196012,-3.07723 -0.182491,-4.15768 0.05561,-4.44457 0.252402,-0.30413 0.797404,-0.3436 2.757469,-0.19973 2.224098,0.16327 2.466692,0.13479 2.708614,-0.31792 0.519419,-0.97198 2.735093,-8.88756 2.59207,-9.26026 -0.159443,-0.41551 -0.09237,-0.3845 -8.572119,-3.96276 -6.177349,-2.60669 -6.657972,-2.70466 -7.059636,-1.43913 -0.273201,0.86078 -2.431492,2.56293 -3.700119,2.91812 -0.653846,0.18307 -1.856896,0.27745 -2.67344,0.20973 -1.357868,-0.1126 -1.508686,-0.0703 -1.766377,0.49526 -0.379298,0.83247 0.15928,2.61643 0.937901,3.10665 0.321405,0.20236 1.408903,0.50665 2.416662,0.67621 3.188821,0.53652 4.65165,1.44197 5.790162,3.58394 0.411607,0.77439 0.560996,1.52401 0.556819,2.79405 -0.0049,1.50244 -0.139007,1.97822 -0.997532,3.54012 -0.874308,1.59061 -0.958827,1.89904 -0.713344,2.60324 0.811604,2.32817 0.08178,3.77365 -3.856691,7.63852 -2.557026,2.50924 -3.358083,3.14042 -4.309387,3.39549 -3.864163,1.0361 -7.302932,-3.10345 -5.600864,-6.74225 0.640479,-1.36927 5.938742,-6.60105 7.223902,-7.13326 1.333183,-0.5521 2.747976,-0.50328 4.175192,0.14407 l 1.190127,0.53981 0.574625,-0.66804 c 0.849132,-0.98718 1.31101,-3.32756 0.916535,-4.64419 -0.367969,-1.22818 -1.390668,-2.52473 -2.405335,-3.04944 -0.395912,-0.20473 -1.54259,-0.51245 -2.54817,-0.68381 -3.742016,-0.63769 -4.595228,-1.49008 -4.617948,-4.61348 l -0.01347,-1.85208 -1.558459,-1.69584 -1.558457,-1.69584 -7.029392,2.9933 c -3.866166,1.64632 -7.17083,3.16373 -7.343698,3.37202 -0.248851,0.29985 -0.07611,1.10408 0.829511,3.86191 1.672447,5.09301 2.110623,6.19598 2.524596,6.35483 0.204359,0.0784 1.152356,-0.0807 2.106663,-0.35361 2.574917,-0.73636 2.529197,-0.83632 2.529197,5.53002 0,6.18465 -0.237059,10.07592 -0.613828,10.07592 -0.148506,0 -2.660754,-0.88509 -5.582778,-1.96686 -2.922023,-1.08177 -8.229801,-3.03692 -11.795061,-4.34477 -3.56526,-1.30786 -6.691678,-2.45997 -6.947596,-2.56025 -1.154803,-0.4525 -0.870968,-1.28991 1.945571,-5.74009 1.498815,-2.36816 6.190136,-9.78262 10.425163,-16.47657 11.817189,-18.678469 12.142322,-19.176919 12.605697,-19.325225 0.238726,-0.07641 1.24477,0.166237 2.235653,0.539204 0.990883,0.372968 1.934644,0.627072 2.097246,0.564675 0.1626,-0.0624 0.905116,-1.167338 1.650032,-2.455427 4.145928,-7.169016 9.559906,-11.855906 15.243376,-13.196209 3.809801,-0.898447 8.813466,-0.122289 12.106084,1.877871 5.762549,3.500574 8.341019,10.952836 7.238549,20.920775 -0.23913,2.161816 -0.49818,4.480506 -0.5757,5.152636 l -0.14097,1.22205 1.87047,0.71475 c 1.11503,0.42608 1.93016,0.9028 2.01824,1.18039 0.0813,0.2561 -0.99362,7.95704 -2.38866,17.1132 -3.64353,23.91341 -3.79163,24.89345 -4.11511,27.23089 -0.27807,2.00931 -0.75844,3.05088 -1.4002,3.03598 -0.15935,-0.004 -2.611439,-0.87881 -5.449095,-1.9447 z M 80.068462,133.14179 c 1.26165,-1.13982 1.631995,-1.74764 1.412838,-2.31875 -0.289094,-0.75337 -1.252892,-0.4383 -2.541344,0.83078 -1.329603,1.30961 -1.467482,1.62072 -0.948359,2.13984 0.51127,0.51127 0.937487,0.37749 2.076865,-0.65187 z m 21.794698,-29.12914 c 0.0812,-0.25585 0.32518,-1.71437 0.54215,-3.24115 1.23137,-8.664655 -0.67879,-15.937564 -4.960343,-18.886385 -2.159042,-1.486989 -3.937854,-2.06396 -6.823448,-2.213234 -3.918588,-0.202712 -6.446393,0.695916 -10.070793,3.58014 -2.235705,1.779129 -4.825868,4.919193 -6.647452,8.058728 -1.05581,1.819706 -1.200018,2.224216 -0.899917,2.524317 0.442505,0.442503 27.336643,10.598054 28.134683,10.623994 0.33028,0.0107 0.64068,-0.18036 0.72512,-0.44641 z"
         id="path1342"
         inkscape:connector-curvature="0"
         sodipodi:nodetypes="cccccsccccccscccccccscscccccccccccccccsccssscccscscssccccsccscccccsccccssssccc" />
      <path
         style="fill:#082646;stroke-width:0.26458332"
         d="m 97.914722,154.0652 c -1.309688,-0.50075 -6.310313,-2.351 -11.1125,-4.11167 -4.802188,-1.76065 -8.909844,-3.3034 -9.128125,-3.42832 -0.228479,-0.13075 2.648566,-0.23054 6.780625,-0.23517 6.133544,-0.007 7.226684,-0.0673 7.515675,-0.41552 0.2746,-0.33088 0.270573,-1.95984 -0.02143,-8.66511 -0.197784,-4.54169 -0.365148,-8.85294 -0.371924,-9.58054 l -0.01233,-1.32292 2.557857,0.0902 c 2.443549,0.0861 2.574914,0.0625 2.939582,-0.52917 0.209949,-0.34062 0.958185,-2.55651 1.662747,-4.92418 1.268177,-4.26171 1.275841,-4.30984 0.764582,-4.80151 -0.284038,-0.27316 -2.421435,-1.29551 -4.749768,-2.27188 -2.328333,-0.97637 -5.066771,-2.13135 -6.085417,-2.56662 -3.748823,-1.60187 -3.790823,-1.60992 -4.447495,-0.8514 -2.703599,3.1229 -3.797027,3.68597 -6.822971,3.51358 l -1.65698,-0.0944 -0.230267,0.88188 c -0.265078,1.01519 0.101605,2.40543 0.801513,3.03883 0.250894,0.22706 1.548664,0.65127 2.883932,0.9427 3.609401,0.78776 4.565674,1.42411 5.613577,3.73554 0.90293,1.99166 0.562917,4.35076 -0.958392,6.64961 -0.582441,0.88013 -0.628568,1.10958 -0.371375,1.84736 0.369666,1.06043 0.37542,2.36606 0.01461,3.31507 -0.440078,1.15749 -6.02221,6.69355 -7.357528,7.2968 -3.708826,1.67552 -7.567067,-2.25223 -5.97889,-6.08661 0.495819,-1.19706 5.426292,-6.2467 6.791915,-6.95606 1.286047,-0.66803 2.838244,-0.64557 4.489934,0.065 l 1.336347,0.57487 0.497996,-0.64102 c 0.557258,-0.71729 1.293048,-2.92093 1.293048,-3.87255 0,-1.48056 -1.434494,-3.66725 -2.910416,-4.43652 -0.363802,-0.18962 -1.67349,-0.53521 -2.910417,-0.76798 -1.236927,-0.23276 -2.546615,-0.64369 -2.910417,-0.91317 -0.916276,-0.6787 -1.343937,-2.0163 -1.198226,-3.74768 l 0.12247,-1.45521 -1.675423,-1.81995 -1.675424,-1.81994 -6.054929,2.57435 c -3.33021,1.4159 -6.622055,2.81576 -7.315213,3.11081 -0.801918,0.34135 -1.311238,0.74058 -1.400374,1.09768 -0.115937,0.46448 0.949955,3.92446 2.803253,9.09961 0.462539,1.29159 0.967756,1.43938 2.910075,0.8513 1.22909,-0.37214 1.770301,-0.43097 2.024431,-0.22006 0.266639,0.22129 0.346426,1.61134 0.344979,6.01016 -0.0021,6.246 -0.197411,9.29416 -0.595664,9.29416 -0.141042,0 -3.011091,-1.015 -6.377885,-2.25556 -3.366794,-1.24056 -8.800351,-3.23947 -12.07457,-4.44203 -5.457367,-2.00438 -5.959636,-2.24144 -6.031322,-2.84659 -0.05767,-0.48685 2.226225,-4.304 8.700743,-14.54183 4.828421,-7.63493 10.431354,-16.50107 12.450966,-19.702526 2.019613,-3.201458 3.849262,-5.939424 4.065884,-6.084368 0.278173,-0.186126 0.894017,-0.08898 2.096612,0.330729 2.469197,0.861756 2.613977,0.824481 3.600852,-0.92709 4.235296,-7.517106 9.72871,-12.519796 15.369087,-13.996173 3.592619,-0.940373 8.140801,-0.389377 11.71593,1.419341 1.484702,0.751136 3.838418,2.878783 4.919388,4.446895 2.84377,4.125338 3.81175,11.142988 2.62552,19.034452 -0.3007,2.00051 -0.4934,3.77632 -0.4282,3.94625 0.0652,0.16992 0.9167,0.59071 1.89216,0.93508 0.9755,0.34438 1.8424,0.80535 1.92644,1.02439 0.15176,0.3955 -0.0659,2.25733 -0.85739,7.33299 -0.2269,1.45521 -0.52689,3.41974 -0.66664,4.36563 -0.13975,0.94588 -0.43741,2.91041 -0.66151,4.36562 -0.48564,3.15373 -0.683,4.44976 -1.55125,10.18646 -1.21926,8.05584 -1.74673,11.49913 -2.00637,13.09688 -0.14187,0.87312 -0.45406,2.83765 -0.69375,4.36562 -0.23968,1.52797 -0.55586,2.92695 -0.70262,3.10885 -0.38693,0.47961 -0.85643,0.39703 -3.509321,-0.61731 z m -17.57031,-20.92858 c 1.109803,-1.0381 1.311862,-1.37077 1.245436,-2.05052 -0.06458,-0.66086 -0.212077,-0.82672 -0.794988,-0.89397 -0.537126,-0.062 -1.013225,0.19168 -1.908146,1.01659 -1.351661,1.24592 -1.63286,1.85263 -1.217967,2.62786 0.453363,0.84712 1.24238,0.64071 2.675665,-0.69996 z M 102.22712,103.2872 c 0.26551,-0.93453 0.38675,-2.99296 0.41298,-7.011454 0.0345,-5.280088 -0.007,-5.831026 -0.58171,-7.672917 -1.17741,-3.775552 -2.946574,-6.096885 -5.809657,-7.622892 -5.618303,-2.994525 -11.585064,-1.840513 -16.967483,3.281626 -3.485089,3.316557 -7.071693,8.590828 -6.485403,9.537092 0.320535,0.517341 27.722843,10.947105 28.542353,10.863695 0.37322,-0.038 0.61551,-0.41281 0.88892,-1.37515 z"
         id="path1340"
         inkscape:connector-curvature="0"
         sodipodi:nodetypes="ccccssccccccsccsccccccccscccccscccsccccccccccssccsscscssccccccccsccccccscscccccssccc" />
    </g>
  </g>
</svg>
