<svg xmlns="http://www.w3.org/2000/svg" viewBox="0 0 97.896 23.813">
  <text y="151.101" x="105.077" style="line-height:1.25" font-weight="400" font-size="10.583" font-family="sans-serif" letter-spacing="0" word-spacing="0" stroke-width=".265" transform="translate(-.82 -292.886)"/>
  <text y="133.147" x="40.254" style="line-height:1.25;-inkscape-font-specification:'Mj_Maveddat, Normal';font-variant-ligatures:normal;font-variant-caps:normal;font-variant-numeric:normal;font-feature-settings:normal;text-align:start" font-weight="400" font-size="10.583" font-family="Mj_Maveddat" letter-spacing="0" word-spacing="0" stroke-width=".265" transform="translate(-.82 -292.886)"/>
  <path d="M45.41 8.003a3.789 3.789 0 00-.62.042 3.22 3.22 0 00-1.462.592c-.815.619-1.06 1.552-.619 2.36.299.548.874.967 1.571 1.18v2.051c.347-.04.703-.063 1.067-.063 3.58 0 6.405 2.05 6.836 4.675H38.51c.198-1.205.905-2.286 1.953-3.106l-1.546-.677c-1.4 1.17-2.256 2.72-2.256 4.42v.638H54.033v-.638c0-3.473-3.57-6.328-8.071-6.568v-1.553a2.16 2.16 0 01-.614.089c-.929 0-1.682-.571-1.681-1.275 0-.705.752-1.276 1.68-1.276.394 0 .774.106 1.076.297h1.47c-.303-.453-.809-.822-1.452-1.024a3.644 3.644 0 00-1.03-.164z" style="line-height:normal;font-variant-ligatures:normal;font-variant-position:normal;font-variant-caps:normal;font-variant-numeric:normal;font-variant-alternates:normal;font-feature-settings:normal;text-indent:0;text-align:start;text-decoration-line:none;text-decoration-style:solid;text-decoration-color:#000;text-transform:none;text-orientation:mixed;white-space:normal;shape-padding:0;isolation:auto;mix-blend-mode:normal;solid-color:#000;solid-opacity:1" color="#000" font-weight="400" font-family="sans-serif" overflow="visible" fill="#ff0"/>
  <path d="M46.888 9.6l1.904-.708 1.203 3.39-2.69-.701z" fill="none"/>
  <g aria-label="ایــــــران تـــ ـــــــسایز" style="line-height:1.25" font-weight="700" font-size="10.583" font-family="Dima Mostanad" letter-spacing="0" word-spacing="0" fill="#000008" stroke-width=".265" font-stretch="extra-expanded">
    <path d="M94.85 12.486v7.71h-1.519v-7.71zM92.913 17.168v.501q0 .522-.202.987-.202.46-.548.807-.346.34-.811.542-.465.197-.987.197v-1.52q.207 0 .393-.077.186-.083.325-.217.14-.14.222-.32.083-.187.083-.399v-.5zm-1.887 3.473q.186 0 .347.072.16.073.279.191.124.124.19.29.073.165.073.351 0 .186-.072.346-.067.166-.191.285-.12.124-.28.19-.16.073-.346.073-.186 0-.351-.072-.16-.067-.284-.191-.12-.12-.186-.285-.073-.16-.073-.346 0-.186.073-.351.067-.166.186-.29.124-.119.284-.19.165-.073.351-.073zm2.098 0q.186 0 .347.072.16.073.279.191.124.124.19.29.073.165.073.351 0 .186-.072.346-.067.166-.191.285-.12.124-.28.19-.16.073-.346.073-.186 0-.351-.072-.16-.067-.284-.191-.12-.12-.191-.285-.068-.16-.068-.346 0-.186.068-.351.072-.166.19-.29.125-.119.285-.19.165-.073.351-.073z" style="-inkscape-font-specification:'Dima Mostanad, Bold Extra-Expanded';font-variant-ligatures:normal;font-variant-caps:normal;font-variant-numeric:normal;font-feature-settings:normal;text-align:start" opacity=".95"/>
    <path d="M90.406 18.682v1.52h-1.979v-1.52z" style="-inkscape-font-specification:'Dima Mostanad, Bold Extra-Expanded';font-variant-ligatures:normal;font-variant-caps:normal;font-variant-numeric:normal;font-feature-settings:normal;text-align:start" opacity=".95"/>
    <path d="M88.489 18.682v1.52h-1.98v-1.52z" style="-inkscape-font-specification:'Dima Mostanad, Bold Extra-Expanded';font-variant-ligatures:normal;font-variant-caps:normal;font-variant-numeric:normal;font-feature-settings:normal;text-align:start" opacity=".95"/>
    <path d="M86.572 18.682v1.52h-1.98v-1.52z" style="-inkscape-font-specification:'Dima Mostanad, Bold Extra-Expanded';font-variant-ligatures:normal;font-variant-caps:normal;font-variant-numeric:normal;font-feature-settings:normal;text-align:start" opacity=".95"/>
    <path d="M84.655 18.682v1.52h-1.98v-1.52z" style="-inkscape-font-specification:'Dima Mostanad, Bold Extra-Expanded';font-variant-ligatures:normal;font-variant-caps:normal;font-variant-numeric:normal;font-feature-settings:normal;text-align:start" opacity=".95"/>
    <path d="M82.737 18.682v1.52h-1.979v-1.52z" style="-inkscape-font-specification:'Dima Mostanad, Bold Extra-Expanded';font-variant-ligatures:normal;font-variant-caps:normal;font-variant-numeric:normal;font-feature-settings:normal;text-align:start" opacity=".95"/>
    <path d="M80.82 18.682v1.52h-1.979v-1.52z" style="-inkscape-font-specification:'Dima Mostanad, Bold Extra-Expanded';font-variant-ligatures:normal;font-variant-caps:normal;font-variant-numeric:normal;font-feature-settings:normal;text-align:start" opacity=".95"/>
    <path d="M77.301 20.444l-2.8 2.724-1.045-1.08 2.832-2.775h.01v-.01-.006q.006 0 .006-.005.057-.082.098-.16.046-.082.072-.17.047-.16.036-.32-.005-.166-.056-.31-.052-.145-.15-.27-.093-.123-.217-.216l-.31-.223.837-1.193q.041 0 .077.015.042.016.078.036.44.259.744.662.305.403.44.889 0 .01.01.02.056.14.15.253.098.114.222.197t.268.13q.15.046.305.046h.042v1.524h-.042q-.325 0-.625-.072-.295-.078-.558-.217-.166.294-.408.537zM73.224 12.486v7.71h-1.52v-7.71zM67.384 18.6q0-.13.047-.248.052-.12.14-.202.087-.088.2-.14.115-.051.249-.051t.248.052q.119.051.207.139.088.083.134.202.052.118.052.248 0 .134-.052.253-.046.114-.134.201-.088.088-.207.14-.114.046-.248.046t-.248-.046q-.114-.052-.202-.14-.087-.087-.14-.201-.046-.119-.046-.253zm3.793 1.746q-.025.48-.222.91-.196.429-.522.75-.325.325-.76.521-.428.196-.914.217H67.4q-.512 0-.966-.191-.45-.186-.791-.517-.341-.325-.548-.77-.201-.444-.222-.956v-.03q-.005-.016-.005-.037v-.041l.005-.031-.005-1.928h1.524v2.015q.01.197.093.372.083.181.217.316.14.134.32.212.187.077.393.077h1.24q.207-.005.383-.088.18-.077.315-.212.135-.134.212-.315.083-.176.088-.382V17.22h1.524V20.258zM62.888 17.168v.501q0 .522-.201.987-.202.46-.548.807-.346.34-.811.542-.465.197-.987.197v-1.52q.207 0 .393-.077.186-.083.325-.217.14-.14.222-.32.083-.187.083-.399v-.5zm-1.875-3.25q.186 0 .346.072.16.072.279.197.124.118.191.284.072.165.072.351 0 .186-.072.352-.067.16-.191.284-.119.119-.28.191-.16.067-.345.067-.186 0-.352-.067-.16-.072-.284-.191-.119-.124-.186-.284-.072-.166-.072-.352 0-.186.072-.351.067-.166.186-.284.124-.125.284-.197.166-.072.352-.072zm2.098 0q.186 0 .346.072.16.072.279.197.124.118.191.284.073.165.073.351 0 .186-.073.352-.067.16-.191.284-.119.119-.28.191-.16.067-.345.067-.186 0-.352-.067-.16-.072-.284-.191-.119-.124-.191-.284-.067-.166-.067-.352 0-.186.067-.351.072-.166.191-.284.124-.125.284-.197.166-.072.352-.072z" style="-inkscape-font-specification:'Dima Mostanad, Bold Extra-Expanded';font-variant-ligatures:normal;font-variant-caps:normal;font-variant-numeric:normal;font-feature-settings:normal;text-align:start" opacity=".95"/>
    <path d="M60.382 18.682v1.52h-1.979v-1.52z" style="-inkscape-font-specification:'Dima Mostanad, Bold Extra-Expanded';font-variant-ligatures:normal;font-variant-caps:normal;font-variant-numeric:normal;font-feature-settings:normal;text-align:start" opacity=".95"/>
    <path d="M58.465 18.682v1.52h-1.98v-1.52z" style="-inkscape-font-specification:'Dima Mostanad, Bold Extra-Expanded';font-variant-ligatures:normal;font-variant-caps:normal;font-variant-numeric:normal;font-feature-settings:normal;text-align:start" opacity=".95"/>
    <path d="M56.548 18.682v1.52h-1.98v-1.52zM34.91 18.682v1.52h-1.978v-1.52z" style="-inkscape-font-specification:'Dima Mostanad, Bold Extra-Expanded';font-variant-ligatures:normal;font-variant-caps:normal;font-variant-numeric:normal;font-feature-settings:normal;text-align:start" opacity=".95"/>
    <path d="M32.994 18.682v1.52h-1.98v-1.52z" style="-inkscape-font-specification:'Dima Mostanad, Bold Extra-Expanded';font-variant-ligatures:normal;font-variant-caps:normal;font-variant-numeric:normal;font-feature-settings:normal;text-align:start" opacity=".95"/>
    <path d="M31.076 18.682v1.52h-1.979v-1.52z" style="-inkscape-font-specification:'Dima Mostanad, Bold Extra-Expanded';font-variant-ligatures:normal;font-variant-caps:normal;font-variant-numeric:normal;font-feature-settings:normal;text-align:start" opacity=".95"/>
    <path d="M29.16 18.682v1.52h-1.98v-1.52z" style="-inkscape-font-specification:'Dima Mostanad, Bold Extra-Expanded';font-variant-ligatures:normal;font-variant-caps:normal;font-variant-numeric:normal;font-feature-settings:normal;text-align:start" opacity=".95"/>
    <path d="M27.242 18.682v1.52h-1.98v-1.52z" style="-inkscape-font-specification:'Dima Mostanad, Bold Extra-Expanded';font-variant-ligatures:normal;font-variant-caps:normal;font-variant-numeric:normal;font-feature-settings:normal;text-align:start" opacity=".95"/>
    <path d="M25.325 18.682v1.52h-1.98v-1.52z" style="-inkscape-font-specification:'Dima Mostanad, Bold Extra-Expanded';font-variant-ligatures:normal;font-variant-caps:normal;font-variant-numeric:normal;font-feature-settings:normal;text-align:start" opacity=".95"/>
    <path d="M23.408 18.682v1.52h-1.98v-1.52z" style="-inkscape-font-specification:'Dima Mostanad, Bold Extra-Expanded';font-variant-ligatures:normal;font-variant-caps:normal;font-variant-numeric:normal;font-feature-settings:normal;text-align:start" opacity=".95"/>
    <path d="M13.248 18.672h8.615v1.53h-8.615z" style="-inkscape-font-specification:'Dima Mostanad, Bold Extra-Expanded';font-variant-ligatures:normal;font-variant-caps:normal;font-variant-numeric:normal;font-feature-settings:normal;text-align:start" opacity=".95"/>
    <path d="M13.46 20.202h-.041q-.522 0-.982-.197-.46-.201-.806-.542-.347-.341-.548-.796-.202-.46-.207-.982v-5.188h1.52v5.188q.005.212.087.393.083.18.223.315.139.13.32.207.186.077.393.077h.041zM10.514 17.168v.501q0 .522-.201.987-.202.46-.548.807-.346.34-.811.542-.465.197-.987.197v-1.52q.206 0 .393-.077.186-.083.325-.217.14-.14.222-.32.083-.187.083-.399v-.5zm-1.886 3.473q.186 0 .346.072.16.073.28.191.124.124.19.29.073.165.073.351 0 .186-.072.346-.067.166-.191.285-.12.124-.28.19-.16.073-.346.073-.186 0-.351-.072-.16-.067-.284-.191-.12-.12-.186-.285-.073-.16-.073-.346 0-.186.073-.351.067-.166.186-.29.124-.119.284-.19.165-.073.351-.073zm2.098 0q.186 0 .347.072.16.073.279.191.124.124.19.29.073.165.073.351 0 .186-.072.346-.067.166-.191.285-.12.124-.28.19-.16.073-.346.073-.186 0-.351-.072-.16-.067-.284-.191-.12-.12-.192-.285-.067-.16-.067-.346 0-.186.067-.351.073-.166.192-.29.124-.119.284-.19.165-.073.351-.073z" style="-inkscape-font-specification:'Dima Mostanad, Bold Extra-Expanded';font-variant-ligatures:normal;font-variant-caps:normal;font-variant-numeric:normal;font-feature-settings:normal;text-align:start" opacity=".95"/>
    <path d="M6.401 20.444l-2.8 2.724-1.045-1.08 2.832-2.775h.01v-.01-.006q.006 0 .006-.005.056-.082.098-.16.046-.082.072-.17.047-.16.036-.32-.005-.166-.056-.31-.052-.145-.15-.27-.093-.123-.217-.216l-.31-.223.837-1.193q.041 0 .077.015.042.016.078.036.439.259.744.662t.44.889q0 .01.01.02.056.14.15.253.098.114.222.197t.268.13q.15.046.305.046h.041v1.524h-.04q-.326 0-.626-.072-.295-.078-.558-.217-.166.294-.409.537zm-.982-6.521q.186 0 .346.072.16.073.28.197.123.118.19.284.073.165.073.351 0 .186-.072.352-.068.16-.192.284-.118.119-.279.191-.16.067-.346.067-.186 0-.351-.067-.16-.072-.284-.191-.12-.124-.192-.284-.067-.166-.067-.352 0-.186.067-.351.073-.166.192-.284.124-.124.284-.197.165-.072.351-.072z" style="-inkscape-font-specification:'Dima Mostanad, Bold Extra-Expanded';font-variant-ligatures:normal;font-variant-caps:normal;font-variant-numeric:normal;font-feature-settings:normal;text-align:start" opacity=".95"/>
  </g>
  <path d="M1.724 9.6v1.5h40.703a1.993 1.993 0 01-.143-1.5zm42.515 0c-.177.17-.272.364-.272.57 0 .373.318.735.847.895l.116.035h51.007V9.6z" fill="#000008"/>
  <g aria-label="irantaksize" style="line-height:1.25;-inkscape-font-specification:'Adoring, Thin';font-variant-ligatures:normal;font-variant-caps:normal;font-variant-numeric:normal;font-feature-settings:normal;text-align:start" font-weight="400" font-size="12.353" font-family="moonhouse" letter-spacing="0" word-spacing="0" fill="#000008" stroke-width=".082">
    <path d="M4.792 2.08H2.986v-.71h1.806zm-1.806.518h1.806v3.995H2.986zM5.65 6.593V4.595q0-.416.225-.78.241-.366.632-.63.407-.273.948-.425.542-.162 1.16-.162h3.234v1.216H8.614q-.481 0-.828.234-.33.223-.33.547v1.998zM19.915 6.593H15.19q-.617 0-1.159-.152-.541-.163-.948-.426-.39-.274-.632-.64-.225-.364-.225-.78 0-.416.225-.78.241-.366.632-.63.407-.273.948-.425.542-.162 1.16-.162h4.65q.616 0 1.158.162.542.152.933.426.406.263.632.628.24.365.24.781v1.998H21V4.595q0-.324-.346-.547-.331-.234-.813-.234h-4.65q-.481 0-.827.234-.332.223-.332.547 0 .325.332.558.346.223.827.223h4.725zM26.311 2.598h4.018q.602 0 1.144.162.541.152.948.426.406.263.632.628.24.365.24.781v1.998h-1.82V4.595q0-.324-.332-.547-.33-.234-.812-.234H26.31q-.482 0-.828.234-.33.223-.33.547v1.998h-1.807V4.595q0-.416.226-.78.24-.366.632-.63.406-.273.948-.425.542-.162 1.159-.162zM35.957 2.598h4.8v1.216h-4.8v.781q0 .325.331.558.346.223.828.223h4.574v1.217h-4.574q-.617 0-1.159-.152-.542-.163-.948-.426-.391-.274-.632-.64-.226-.364-.226-.78V1.371h1.806zM49.832 6.593h-4.726q-.617 0-1.158-.152-.542-.163-.948-.426-.392-.274-.632-.64-.226-.364-.226-.78 0-.416.226-.78.24-.366.632-.63.406-.273.948-.425.541-.162 1.158-.162h4.65q.617 0 1.16.162.54.152.932.426.406.263.632.628.24.365.24.781v1.998h-1.805V4.595q0-.324-.346-.547-.331-.234-.813-.234h-4.65q-.481 0-.827.234-.331.223-.331.547 0 .325.33.558.347.223.828.223h4.726zM60.29 6.593l-2.076-1.4h-3.146v1.4h-1.805V1.37h1.805v2.626h3.146l2.076-1.4h2.528l-2.98 1.998 2.98 1.998zM62.984 5.406h5.011l-1.776-1.49q-.24-.203-.27-.426-.03-.233.105-.426.15-.203.436-.335.286-.131.662-.131h5.93v1.186h-4.786l1.776 1.49q.24.203.255.436.03.224-.105.426-.135.193-.421.325t-.662.132h-6.155zM75.293 2.08h-1.805v-.71h1.805zm-1.805.518h1.805v3.995h-1.805zM80.906 3.743h-4.74V2.618h8.352q.226 0 .361.081.15.081.21.203.061.111 0 .243-.044.122-.225.203l-2.287 1.075q-1.129.527-2.272 1.064h4.56v1.106h-8.127q-.21 0-.361-.081-.15-.082-.21-.193-.046-.122 0-.243.06-.132.24-.213zM95.669 5.376v1.217h-6.982q-.617 0-1.16-.152-.541-.163-.947-.426-.392-.274-.632-.64-.226-.364-.226-.78 0-.416.226-.78.24-.366.632-.63.406-.273.948-.425.542-.162 1.159-.162h5.883q.377 0 .663.131.285.132.42.335.136.193.106.426-.015.233-.256.426l-1.73 1.46zm-6.982-1.592q-.241 0-.452.07-.21.062-.376.173-.15.112-.24.264-.091.142-.091.304 0 .325.33.558.347.223.829.223h2.859l1.88-1.592z" style="-inkscape-font-specification:'moonhouse, Normal';font-variant-ligatures:normal;font-variant-caps:normal;font-variant-numeric:normal;font-feature-settings:normal;text-align:start" opacity=".91"/>
  </g>
  <text style="line-height:1.25" x="145.413" y="130.679" font-weight="400" font-size="10.583" font-family="sans-serif" letter-spacing="0" word-spacing="0" stroke-width=".265" transform="translate(-.82 -292.886)"/>
</svg>
